<svg width="32" height="32" viewBox="0 0 32 32" fill="none" xmlns="http://www.w3.org/2000/svg">
<path d="M8.1316 23.5234C9.35156 22.7046 10.592 22.0643 11.853 21.6025C13.114 21.1407 14.4963 20.9098 16 20.9098C17.5037 20.9098 18.8869 21.1407 20.1496 21.6025C21.4123 22.0643 22.6536 22.7046 23.8735 23.5234C24.8074 22.5223 25.5406 21.3904 26.0731 20.1277C26.6056 18.865 26.8718 17.4893 26.8718 16.0004C26.8718 12.9696 25.8175 10.3999 23.709 8.2914C21.6004 6.18284 19.0308 5.12857 16 5.12857C12.9692 5.12857 10.3996 6.18284 8.29103 8.2914C6.18248 10.3999 5.1282 12.9696 5.1282 16.0004C5.1282 17.4893 5.39529 18.865 5.92947 20.1277C6.46367 21.3904 7.19771 22.5223 8.1316 23.5234ZM15.9959 16.5645C14.879 16.5645 13.9392 16.1818 13.1765 15.4163C12.4138 14.6509 12.0325 13.7097 12.0325 12.5928C12.0325 11.4759 12.4152 10.5361 13.1806 9.77343C13.9461 9.01077 14.8872 8.62943 16.0041 8.62943C17.121 8.62943 18.0608 9.01214 18.8235 9.77757C19.5862 10.543 19.9675 11.4842 19.9675 12.6011C19.9675 13.718 19.5848 14.6578 18.8194 15.4205C18.0539 16.1831 17.1128 16.5645 15.9959 16.5645ZM15.991 28.0004C14.3267 28.0004 12.7637 27.6888 11.302 27.0658C9.84023 26.4427 8.56849 25.5873 7.48673 24.4995C6.40498 23.4118 5.55341 22.142 4.93203 20.6902C4.31068 19.2385 4 17.6715 4 15.9893C4 14.3184 4.31153 12.7543 4.9346 11.2968C5.55769 9.83937 6.4131 8.57046 7.50083 7.4901C8.58859 6.40977 9.85836 5.55806 11.3101 4.93497C12.7619 4.3119 14.3289 4.00037 16.0111 4.00037C17.6819 4.00037 19.2461 4.3119 20.7035 4.93497C22.161 5.55806 23.4299 6.40977 24.5103 7.4901C25.5906 8.57046 26.4423 9.84054 27.0654 11.3004C27.6885 12.7602 28 14.3249 28 15.9945C28 17.6754 27.6885 19.2412 27.0654 20.6919C26.4423 22.1426 25.5906 23.4118 24.5103 24.4995C23.4299 25.5873 22.1589 26.4427 20.6971 27.0658C19.2354 27.6888 17.6667 28.0004 15.991 28.0004Z" fill="black"/>
</svg>
