<svg width="32" height="32" viewBox="0 0 32 32" fill="none" xmlns="http://www.w3.org/2000/svg">
<path d="M16 28.0004C14.3168 28.0004 12.7439 27.6888 11.2812 27.0658C9.81851 26.4427 8.55084 25.5948 7.4782 24.5222C6.40556 23.4495 5.55769 22.1819 4.9346 20.7192C4.31153 19.2565 4 17.6836 4 16.0004C4 14.3098 4.31153 12.735 4.9346 11.276C5.55769 9.81702 6.40556 8.55121 7.4782 7.47857C8.55084 6.40592 9.81851 5.55806 11.2812 4.93497C12.7439 4.3119 14.3168 4.00037 16 4.00037C17.6906 4.00037 19.2654 4.3119 20.7244 4.93497C22.1833 5.55806 23.4492 6.40592 24.5218 7.47857C25.5944 8.55121 26.4423 9.81702 27.0654 11.276C27.6885 12.735 28 14.3098 28 16.0004V17.2585C28 18.3713 27.6187 19.3054 26.856 20.0606C26.0933 20.8159 25.1538 21.1935 24.0376 21.1935C23.1521 21.1935 22.4017 20.9719 21.7863 20.5286C21.171 20.0853 20.7202 19.4762 20.4342 18.7012C19.9402 19.4505 19.3531 20.0532 18.6731 20.5093C17.993 20.9655 17.102 21.1935 16 21.1935C14.5544 21.1935 13.3266 20.6894 12.3167 19.6811C11.3067 18.6729 10.8017 17.4459 10.8017 16.0004C10.8017 14.5434 11.3067 13.3119 12.3167 12.3059C13.3266 11.2999 14.5544 10.7969 16 10.7969C17.4456 10.7969 18.6734 11.2999 19.6833 12.3059C20.6933 13.3119 21.1983 14.5434 21.1983 16.0004V17.2585C21.1983 18.0408 21.4744 18.7042 22.0265 19.2487C22.5786 19.7931 23.249 20.0653 24.0376 20.0653C24.8228 20.0653 25.4915 19.7931 26.0436 19.2487C26.5957 18.7042 26.8718 18.0408 26.8718 17.2585V16.0004C26.8718 13.0175 25.8056 10.4598 23.6731 8.32727C21.5406 6.1948 18.9829 5.12857 16 5.12857C13.0171 5.12857 10.4594 6.1948 8.32693 8.32727C6.19444 10.4598 5.1282 13.0175 5.1282 16.0004C5.1282 18.9833 6.19444 21.541 8.32693 23.6734C10.4594 25.8059 13.0171 26.8722 16 26.8722H22.8068V28.0004H16ZM16 20.0653C17.1328 20.0653 18.0943 19.671 18.8846 18.8824C19.6749 18.0938 20.0701 17.1331 20.0701 16.0004C20.0701 14.8642 19.6749 13.9009 18.8846 13.1106C18.0943 12.3203 17.1328 11.9252 16 11.9252C14.8672 11.9252 13.9057 12.3203 13.1154 13.1106C12.3251 13.9009 11.9299 14.8642 11.9299 16.0004C11.9299 17.1331 12.3251 18.0938 13.1154 18.8824C13.9057 19.671 14.8672 20.0653 16 20.0653Z" fill="black"/>
</svg>
