<svg width="32" height="32" viewBox="0 0 32 32" fill="none" xmlns="http://www.w3.org/2000/svg">
<path d="M15.3333 29.0261C13.4803 29.0261 11.8974 28.3759 10.5846 27.0756C9.27177 25.7753 8.61536 24.1987 8.61536 22.3457V7.42262C8.61536 6.10111 9.08698 4.96959 10.0302 4.02805C10.9734 3.08654 12.1115 2.61578 13.4444 2.61578C14.7694 2.61578 15.9026 3.08654 16.8441 4.02805C17.7856 4.96959 18.2564 6.10282 18.2564 7.42775V20.9184C18.2564 21.7404 17.9747 22.434 17.4112 22.999C16.8478 23.564 16.1549 23.8466 15.3326 23.8466C14.5103 23.8466 13.8176 23.5549 13.2547 22.9717C12.6917 22.3884 12.4103 21.684 12.4103 20.8585V7.41235H13.3846V20.891C13.3846 21.4539 13.5723 21.9249 13.9479 22.3038C14.3233 22.6827 14.7852 22.8722 15.3333 22.8722C15.8815 22.8722 16.3433 22.6836 16.7188 22.3064C17.0943 21.9292 17.2821 21.4665 17.2821 20.9184V7.42262C17.2821 6.35686 16.9087 5.45167 16.1619 4.70705C15.4152 3.96243 14.5086 3.59012 13.4423 3.59012C12.3645 3.59012 11.453 3.96243 10.7077 4.70705C9.96238 5.45167 9.58972 6.35686 9.58972 7.42262V22.3731C9.58972 23.9548 10.1507 25.2967 11.2726 26.3987C12.3946 27.5007 13.7481 28.0517 15.3333 28.0517C16.9333 28.0517 18.2906 27.4998 19.4051 26.3961C20.5197 25.2924 21.0769 23.9423 21.0769 22.3457V7.41235H22.0513V22.3406C22.0513 24.1936 21.3949 25.7711 20.0821 27.0731C18.7692 28.3751 17.1863 29.0261 15.3333 29.0261Z" fill="black"/>
</svg>
