<svg width="32" height="32" viewBox="0 0 32 32" fill="none" xmlns="http://www.w3.org/2000/svg">
<path d="M14.3009 24.9987C15.0473 24.9987 15.6818 24.7425 16.2043 24.2302C16.7268 23.7179 16.9881 23.0857 16.9881 22.3337V16.4858H20.5915V14.6397H15.9624V20.4234C15.7522 20.191 15.5063 20.0133 15.2248 19.8905C14.9433 19.7677 14.6353 19.7063 14.3009 19.7063C13.567 19.7063 12.9464 19.9632 12.4393 20.4771C11.9322 20.9909 11.6787 21.6145 11.6787 22.348C11.6787 23.0815 11.9322 23.7066 12.4393 24.2234C12.9464 24.7403 13.567 24.9987 14.3009 24.9987ZM8.61539 28.0004C8.06923 28.0004 7.60791 27.8121 7.23142 27.4356C6.85493 27.0591 6.66669 26.5978 6.66669 26.0517V5.94907C6.66669 5.40291 6.85493 4.94159 7.23142 4.5651C7.60791 4.18861 8.06923 4.00037 8.61539 4.00037H19.5436L25.3334 9.7901V26.0517C25.3334 26.5978 25.1451 27.0591 24.7686 27.4356C24.3921 27.8121 23.9308 28.0004 23.3847 28.0004H8.61539ZM18.9795 10.3217V5.12857H8.61539C8.41025 5.12857 8.22222 5.21403 8.05129 5.38497C7.88035 5.5559 7.79489 5.74393 7.79489 5.94907V26.0517C7.79489 26.2568 7.88035 26.4448 8.05129 26.6158C8.22222 26.7867 8.41025 26.8722 8.61539 26.8722H23.3847C23.5898 26.8722 23.7778 26.7867 23.9488 26.6158C24.1197 26.4448 24.2052 26.2568 24.2052 26.0517V10.3217H18.9795Z" fill="black"/>
</svg>
