<svg width="32" height="32" viewBox="0 0 32 32" fill="none" xmlns="http://www.w3.org/2000/svg">
<path d="M16.0045 28.0004C14.3451 28.0004 12.785 27.6855 11.3241 27.0557C9.86331 26.426 8.59259 25.5713 7.51197 24.4917C6.43137 23.4121 5.57589 22.1425 4.94553 20.6831C4.31518 19.2236 4 17.6642 4 16.0048C4 14.3454 4.31488 12.7853 4.94463 11.3245C5.57441 9.86368 6.4291 8.59296 7.5087 7.51233C8.5883 6.43173 9.85782 5.57626 11.3173 4.9459C12.7767 4.31554 14.3362 4.00037 15.9955 4.00037C17.6549 4.00037 19.215 4.31524 20.6759 4.945C22.1367 5.57478 23.4074 6.42947 24.488 7.50907C25.5686 8.58867 26.4241 9.85819 27.0545 11.3176C27.6848 12.7771 28 14.3365 28 15.9959C28 17.6553 27.6851 19.2154 27.0554 20.6762C26.4256 22.1371 25.5709 23.4078 24.4913 24.4884C23.4117 25.569 22.1422 26.4245 20.6827 27.0548C19.2233 27.6852 17.6638 28.0004 16.0045 28.0004ZM16 26.8722C19.0335 26.8722 21.6038 25.8186 23.711 23.7114C25.8182 21.6042 26.8718 19.0339 26.8718 16.0004C26.8718 14.6453 26.6272 13.3479 26.138 12.108C25.6489 10.8682 24.9578 9.73769 24.065 8.7166L8.71623 24.0653C9.7225 24.9787 10.848 25.6749 12.0927 26.1538C13.3373 26.6327 14.6398 26.8722 16 26.8722ZM7.94017 23.2841L23.2838 7.94053C22.2912 7.02144 21.1693 6.32301 19.9182 5.84523C18.6671 5.36746 17.361 5.12857 16 5.12857C12.9665 5.12857 10.3962 6.18217 8.289 8.28937C6.1818 10.3966 5.1282 12.9669 5.1282 16.0004C5.1282 17.3606 5.37307 18.663 5.8628 19.9077C6.35256 21.1524 7.04501 22.2779 7.94017 23.2841Z" fill="black"/>
</svg>
