<svg width="32" height="32" viewBox="0 0 32 32" fill="none" xmlns="http://www.w3.org/2000/svg">
<path d="M7.28201 28.0004C6.73586 28.0004 6.27454 27.8121 5.89805 27.4357C5.52156 27.0592 5.33331 26.5978 5.33331 26.0517V8.41062C5.33331 7.86447 5.52156 7.40315 5.89805 7.02666C6.27454 6.65017 6.73586 6.46192 7.28201 6.46192H9.90595V3.69269H11.1794V6.46192H20.9231V3.69269H22.1111V6.46192H24.7179C25.2641 6.46192 25.7254 6.65017 26.1019 7.02666C26.4784 7.40315 26.6666 7.86447 26.6666 8.41062V26.0517C26.6666 26.5978 26.4784 27.0592 26.1019 27.4357C25.7254 27.8121 25.2641 28.0004 24.7179 28.0004H7.28201ZM7.28201 26.8722H24.7179C24.9231 26.8722 25.1111 26.7867 25.282 26.6158C25.453 26.4449 25.5384 26.2568 25.5384 26.0517V14.0517H6.46151V26.0517C6.46151 26.2568 6.54698 26.4449 6.71791 26.6158C6.88885 26.7867 7.07688 26.8722 7.28201 26.8722ZM6.46151 12.9235H25.5384V8.41062C25.5384 8.20549 25.453 8.01745 25.282 7.84652C25.1111 7.67559 24.9231 7.59012 24.7179 7.59012H7.28201C7.07688 7.59012 6.88885 7.67559 6.71791 7.84652C6.54698 8.01745 6.46151 8.20549 6.46151 8.41062V12.9235ZM16 18.8722C15.7248 18.8722 15.485 18.77 15.2807 18.5658C15.0765 18.3615 14.9743 18.1218 14.9743 17.8466C14.9743 17.5713 15.0765 17.3316 15.2807 17.1273C15.485 16.923 15.7248 16.8209 16 16.8209C16.2752 16.8209 16.5149 16.923 16.7192 17.1273C16.9235 17.3316 17.0256 17.5713 17.0256 17.8466C17.0256 18.1218 16.9235 18.3615 16.7192 18.5658C16.5149 18.77 16.2752 18.8722 16 18.8722ZM10.6666 18.8722C10.3914 18.8722 10.1517 18.77 9.94741 18.5658C9.74315 18.3615 9.64101 18.1218 9.64101 17.8466C9.64101 17.5713 9.74315 17.3316 9.94741 17.1273C10.1517 16.923 10.3914 16.8209 10.6666 16.8209C10.9419 16.8209 11.1816 16.923 11.3859 17.1273C11.5901 17.3316 11.6923 17.5713 11.6923 17.8466C11.6923 18.1218 11.5901 18.3615 11.3859 18.5658C11.1816 18.77 10.9419 18.8722 10.6666 18.8722ZM21.3333 18.8722C21.0581 18.8722 20.8183 18.77 20.6141 18.5658C20.4098 18.3615 20.3077 18.1218 20.3077 17.8466C20.3077 17.5713 20.4098 17.3316 20.6141 17.1273C20.8183 16.923 21.0581 16.8209 21.3333 16.8209C21.6085 16.8209 21.8483 16.923 22.0525 17.1273C22.2568 17.3316 22.3589 17.5713 22.3589 17.8466C22.3589 18.1218 22.2568 18.3615 22.0525 18.5658C21.8483 18.77 21.6085 18.8722 21.3333 18.8722ZM16 24.0004C15.7248 24.0004 15.485 23.8983 15.2807 23.694C15.0765 23.4897 14.9743 23.25 14.9743 22.9748C14.9743 22.6995 15.0765 22.4598 15.2807 22.2555C15.485 22.0512 15.7248 21.9491 16 21.9491C16.2752 21.9491 16.5149 22.0512 16.7192 22.2555C16.9235 22.4598 17.0256 22.6995 17.0256 22.9748C17.0256 23.25 16.9235 23.4897 16.7192 23.694C16.5149 23.8983 16.2752 24.0004 16 24.0004ZM10.6666 24.0004C10.3914 24.0004 10.1517 23.8983 9.94741 23.694C9.74315 23.4897 9.64101 23.25 9.64101 22.9748C9.64101 22.6995 9.74315 22.4598 9.94741 22.2555C10.1517 22.0512 10.3914 21.9491 10.6666 21.9491C10.9419 21.9491 11.1816 22.0512 11.3859 22.2555C11.5901 22.4598 11.6923 22.6995 11.6923 22.9748C11.6923 23.25 11.5901 23.4897 11.3859 23.694C11.1816 23.8983 10.9419 24.0004 10.6666 24.0004ZM21.3333 24.0004C21.0581 24.0004 20.8183 23.8983 20.6141 23.694C20.4098 23.4897 20.3077 23.25 20.3077 22.9748C20.3077 22.6995 20.4098 22.4598 20.6141 22.2555C20.8183 22.0512 21.0581 21.9491 21.3333 21.9491C21.6085 21.9491 21.8483 22.0512 22.0525 22.2555C22.2568 22.4598 22.3589 22.6995 22.3589 22.9748C22.3589 23.25 22.2568 23.4897 22.0525 23.694C21.8483 23.8983 21.6085 24.0004 21.3333 24.0004Z" fill="black"/>
</svg>
