<svg width="32" height="32" viewBox="0 0 32 32" fill="none" xmlns="http://www.w3.org/2000/svg">
<path d="M25.1829 26.5132C22.9099 26.5132 20.5981 25.9114 18.2474 24.7076C15.8967 23.5039 13.7685 21.9521 11.8628 20.0521C9.95711 18.1521 8.40097 16.031 7.19442 13.6888C5.98786 11.3467 5.38458 9.03911 5.38458 6.76618C5.38458 6.35691 5.52102 6.01584 5.79388 5.74298C6.06673 5.47013 6.40779 5.33371 6.81708 5.33371H9.88202C10.2602 5.33371 10.5838 5.44739 10.8528 5.67474C11.1219 5.90208 11.2974 6.20605 11.3794 6.58668L12.0632 9.62601C12.1248 9.97132 12.1164 10.2846 12.038 10.5657C11.9597 10.8469 11.8118 11.0792 11.5943 11.2624L8.65895 14.026C9.92506 16.1423 11.3323 17.9648 12.8807 19.4935C14.4292 21.0223 16.2393 22.3582 18.3111 23.5012L21.1589 20.5354C21.3852 20.2944 21.6312 20.1296 21.897 20.041C22.1628 19.9524 22.4496 19.9406 22.7573 20.0055L25.3624 20.5696C25.7442 20.6475 26.0485 20.8248 26.2752 21.1015C26.502 21.3783 26.6154 21.7143 26.6154 22.1098V25.0807C26.6154 25.49 26.479 25.8311 26.2061 26.1039C25.9332 26.3768 25.5922 26.5132 25.1829 26.5132ZM8.08288 13.0021L10.8042 10.4807C10.8783 10.4123 10.9282 10.3183 10.9538 10.1987C10.9795 10.079 10.9809 9.9679 10.9581 9.86534L10.3008 6.87218C10.278 6.73542 10.2211 6.63285 10.1299 6.56448C10.0387 6.4961 9.92477 6.46191 9.78802 6.46191H6.87432C6.77176 6.46191 6.68629 6.4961 6.61792 6.56448C6.54954 6.63285 6.51535 6.71832 6.51535 6.82088C6.5011 7.71377 6.63473 8.68129 6.91622 9.72344C7.19771 10.7656 7.58659 11.8585 8.08288 13.0021ZM19.3718 24.0038C20.2795 24.4682 21.2702 24.8135 22.344 25.0397C23.4178 25.2659 24.3458 25.385 25.1282 25.397C25.2308 25.397 25.3162 25.3628 25.3846 25.2944C25.453 25.226 25.4872 25.1406 25.4872 25.038V22.1611C25.4872 22.0243 25.453 21.9104 25.3846 21.8192C25.3162 21.728 25.2137 21.671 25.0769 21.6482L22.5128 21.1158C22.4102 21.093 22.3205 21.0944 22.2436 21.12C22.1666 21.1457 22.0855 21.1955 22 21.2696L19.3718 24.0038Z" fill="black"/>
</svg>
