<svg width="32" height="32" viewBox="0 0 32 32" fill="none" xmlns="http://www.w3.org/2000/svg">
<path d="M25.1829 26.5132C22.9099 26.5132 20.5981 25.9114 18.2474 24.7076C15.8967 23.5039 13.7685 21.9521 11.8628 20.0521C9.95711 18.1521 8.40097 16.031 7.19442 13.6888C5.98786 11.3467 5.38458 9.03911 5.38458 6.76618C5.38458 6.36275 5.52247 6.02315 5.79825 5.74738C6.07405 5.4716 6.41366 5.33371 6.81708 5.33371H9.88202C10.2615 5.33371 10.5854 5.44739 10.8538 5.67474C11.1222 5.90208 11.2974 6.20605 11.3794 6.58668L12.0632 9.62601C12.1248 9.97132 12.1164 10.2846 12.038 10.5657C11.9597 10.8469 11.8108 11.0801 11.5914 11.2653L8.66152 14.026C9.92761 16.1423 11.3344 17.9648 12.8821 19.4935C14.4296 21.0223 16.2393 22.3582 18.3111 23.5012L21.1589 20.5354C21.3852 20.2944 21.6312 20.1296 21.897 20.041C22.1628 19.9524 22.4496 19.9406 22.7573 20.0055L25.3624 20.5696C25.7396 20.642 26.0427 20.8173 26.2718 21.0957C26.5008 21.374 26.6154 21.7121 26.6154 22.1098V25.0807C26.6154 25.4841 26.4775 25.8237 26.2017 26.0995C25.9259 26.3753 25.5863 26.5132 25.1829 26.5132Z" fill="black"/>
</svg>
