<svg width="32" height="32" viewBox="0 0 32 32" fill="none" xmlns="http://www.w3.org/2000/svg">
<path d="M8.66667 18.0055H17.9299V16.8773H8.66667V18.0055ZM8.66667 13.9029H23.3333V12.7747H8.66667V13.9029ZM8.66667 9.80037H23.3333V8.67217H8.66667V9.80037ZM4 26.7696V5.94907C4 5.40291 4.18824 4.94159 4.56473 4.5651C4.94122 4.18861 5.40254 4.00037 5.9487 4.00037H26.0513C26.5975 4.00037 27.0588 4.18861 27.4353 4.5651C27.8118 4.94159 28 5.40291 28 5.94907V20.7183C28 21.2645 27.8118 21.7258 27.4353 22.1023C27.0588 22.4788 26.5975 22.667 26.0513 22.667H8.10257L4 26.7696ZM7.60853 21.5388H26.0513C26.2564 21.5388 26.4445 21.4534 26.6154 21.2824C26.7863 21.1115 26.8718 20.9235 26.8718 20.7183V5.94907C26.8718 5.74393 26.7863 5.5559 26.6154 5.38497C26.4445 5.21403 26.2564 5.12857 26.0513 5.12857H5.9487C5.74357 5.12857 5.55553 5.21403 5.3846 5.38497C5.21367 5.5559 5.1282 5.74393 5.1282 5.94907V24.0816L7.60853 21.5388Z" fill="black"/>
</svg>
