<svg width="32" height="32" viewBox="0 0 32 32" fill="none" xmlns="http://www.w3.org/2000/svg">
<path d="M9.69228 16.5371H22.3128V15.4089H9.69228V16.5371ZM7.28201 26.667C6.73586 26.667 6.27454 26.4788 5.89805 26.1023C5.52156 25.7258 5.33331 25.2645 5.33331 24.7183V7.28238C5.33331 6.73622 5.52156 6.2749 5.89805 5.89841C6.27454 5.52192 6.73586 5.33368 7.28201 5.33368H24.7179C25.2641 5.33368 25.7254 5.52192 26.1019 5.89841C26.4784 6.2749 26.6666 6.73622 26.6666 7.28238V24.7183C26.6666 25.2645 26.4784 25.7258 26.1019 26.1023C25.7254 26.4788 25.2641 26.667 24.7179 26.667H7.28201Z" fill="black"/>
</svg>
