<svg width="32" height="32" viewBox="0 0 32 32" fill="none" xmlns="http://www.w3.org/2000/svg">
<path d="M7.28201 26.667C6.73586 26.667 6.27454 26.4788 5.89805 26.1023C5.52156 25.7258 5.33331 25.2645 5.33331 24.7183V7.28238C5.33331 6.73622 5.52156 6.2749 5.89805 5.89841C6.27454 5.52192 6.73586 5.33368 7.28201 5.33368H24.7179C25.2641 5.33368 25.7254 5.52192 26.1019 5.89841C26.4784 6.2749 26.6666 6.73622 26.6666 7.28238V24.7183C26.6666 25.2645 26.4784 25.7258 26.1019 26.1023C25.7254 26.4788 25.2641 26.667 24.7179 26.667H7.28201ZM7.28201 25.5388H24.7179C24.9231 25.5388 25.1111 25.4533 25.282 25.2824C25.453 25.1115 25.5384 24.9234 25.5384 24.7183V7.28238C25.5384 7.07725 25.453 6.88921 25.282 6.71828C25.1111 6.54735 24.9231 6.46188 24.7179 6.46188H7.28201C7.07688 6.46188 6.88885 6.54735 6.71791 6.71828C6.54698 6.88921 6.46151 7.07725 6.46151 7.28238V24.7183C6.46151 24.9234 6.54698 25.1115 6.71791 25.2824C6.88885 25.4533 7.07688 25.5388 7.28201 25.5388Z" fill="black"/>
</svg>
