<svg width="32" height="32" viewBox="0 0 32 32" fill="none" xmlns="http://www.w3.org/2000/svg">
<path d="M8.46152 27.4824C7.91536 27.4824 7.45403 27.2942 7.07752 26.9177C6.70103 26.5412 6.51279 26.0799 6.51279 25.5337V9.91147H7.64099V25.5337C7.64099 25.7388 7.72646 25.9269 7.89742 26.0978C8.06835 26.2688 8.25639 26.3542 8.46152 26.3542H19.9863V27.4824H8.46152ZM12.0513 23.8927C11.5051 23.8927 11.0438 23.7045 10.6673 23.328C10.2908 22.9515 10.1025 22.4901 10.1025 21.944V6.76447C10.1025 6.21831 10.2908 5.75698 10.6673 5.38047C11.0438 5.00398 11.5051 4.81573 12.0513 4.81573H23.2308C23.7769 4.81573 24.2382 5.00398 24.6148 5.38047C24.9912 5.75698 25.1795 6.21831 25.1795 6.76447V21.944C25.1795 22.4901 24.9912 22.9515 24.6148 23.328C24.2382 23.7045 23.7769 23.8927 23.2308 23.8927H12.0513ZM12.0513 22.7645H23.2308C23.4359 22.7645 23.6239 22.679 23.7949 22.5081C23.9658 22.3371 24.0513 22.1491 24.0513 21.944V6.76447C24.0513 6.55933 23.9658 6.3713 23.7949 6.20037C23.6239 6.02941 23.4359 5.94394 23.2308 5.94394H12.0513C11.8461 5.94394 11.6581 6.02941 11.4872 6.20037C11.3162 6.3713 11.2307 6.55933 11.2307 6.76447V21.944C11.2307 22.1491 11.3162 22.3371 11.4872 22.5081C11.6581 22.679 11.8461 22.7645 12.0513 22.7645Z" fill="black"/>
</svg>
