<svg width="32" height="32" viewBox="0 0 32 32" fill="none" xmlns="http://www.w3.org/2000/svg">
<path d="M7.28204 26.6671C6.7322 26.6671 6.26995 26.4797 5.89531 26.1051C5.52067 25.7304 5.33334 25.2682 5.33334 24.7183V7.28242C5.33334 6.73257 5.52067 6.27033 5.89531 5.89568C6.26995 5.52104 6.7322 5.33372 7.28204 5.33372H13.8316C13.92 4.81234 14.1653 4.37431 14.5675 4.01962C14.9698 3.66491 15.4473 3.48755 16 3.48755C16.5618 3.48755 17.042 3.66491 17.4406 4.01962C17.8392 4.37431 18.0826 4.81234 18.1709 5.33372H24.718C25.2678 5.33372 25.7301 5.52104 26.1047 5.89568C26.4794 6.27033 26.6667 6.73257 26.6667 7.28242V24.7183C26.6667 25.2682 26.4794 25.7304 26.1047 26.1051C25.7301 26.4797 25.2678 26.6671 24.718 26.6671H7.28204ZM7.28204 25.5389H24.718C24.9231 25.5389 25.1111 25.4534 25.2821 25.2825C25.453 25.1115 25.5385 24.9235 25.5385 24.7183V7.28242C25.5385 7.07728 25.453 6.88925 25.2821 6.71832C25.1111 6.54738 24.9231 6.46192 24.718 6.46192H21.7436V9.12858H10.2564V6.46192H7.28204C7.07691 6.46192 6.88888 6.54738 6.71794 6.71832C6.54701 6.88925 6.46154 7.07728 6.46154 7.28242V24.7183C6.46154 24.9235 6.54701 25.1115 6.71794 25.2825C6.88888 25.4534 7.07691 25.5389 7.28204 25.5389ZM16 6.76962C16.3094 6.76962 16.5662 6.66747 16.7705 6.46318C16.9748 6.25891 17.0769 6.00208 17.0769 5.69268C17.0769 5.38328 16.9748 5.12645 16.7705 4.92218C16.5662 4.71789 16.3094 4.61575 16 4.61575C15.6906 4.61575 15.4338 4.71789 15.2295 4.92218C15.0252 5.12645 14.9231 5.38328 14.9231 5.69268C14.9231 6.00208 15.0252 6.25891 15.2295 6.46318C15.4338 6.66747 15.6906 6.76962 16 6.76962Z" fill="black"/>
</svg>
