<svg width="32" height="32" viewBox="0 0 32 32" fill="none" xmlns="http://www.w3.org/2000/svg">
<path d="M8.61536 25.3337C8.0692 25.3337 7.60788 25.1455 7.23139 24.769C6.8549 24.3925 6.66666 23.9312 6.66666 23.385V19.9679H7.79486V23.385C7.79486 23.5901 7.88032 23.7782 8.05126 23.9491C8.22219 24.12 8.41022 24.2055 8.61536 24.2055H23.3846C23.5898 24.2055 23.7778 24.12 23.9487 23.9491C24.1197 23.7782 24.2051 23.5901 24.2051 23.385V19.9679H25.3333V23.385C25.3333 23.9312 25.1451 24.3925 24.7686 24.769C24.3921 25.1455 23.9308 25.3337 23.3846 25.3337H8.61536ZM16 20.3782L11.3521 15.7303L12.1607 14.9337L15.4359 18.1918V6.20551H16.5641V18.1918L19.8393 14.9337L20.6479 15.7303L16 20.3782Z" fill="black"/>
</svg>
