<svg width="32" height="32" viewBox="0 0 32 32" fill="none" xmlns="http://www.w3.org/2000/svg">
<path d="M8.61536 28.0004C8.0692 28.0004 7.60788 27.8121 7.23139 27.4356C6.8549 27.0591 6.66666 26.5978 6.66666 26.0517V5.94907C6.66666 5.40291 6.8549 4.94159 7.23139 4.5651C7.60788 4.18861 8.0692 4.00037 8.61536 4.00037H19.5436L25.3333 9.7901V26.0517C25.3333 26.5978 25.1451 27.0591 24.7686 27.4356C24.3921 27.8121 23.9308 28.0004 23.3846 28.0004H8.61536ZM18.9795 10.3217V5.12857H8.61536C8.41022 5.12857 8.22219 5.21403 8.05126 5.38497C7.88032 5.5559 7.79486 5.74393 7.79486 5.94907V26.0517C7.79486 26.2568 7.88032 26.4448 8.05126 26.6158C8.22219 26.7867 8.41022 26.8722 8.61536 26.8722H23.3846C23.5898 26.8722 23.7778 26.7867 23.9487 26.6158C24.1197 26.4448 24.2051 26.2568 24.2051 26.0517V10.3217H18.9795Z" fill="black"/>
</svg>
