<svg width="32" height="32" viewBox="0 0 32 32" fill="none" xmlns="http://www.w3.org/2000/svg">
<path d="M11.8954 25.6414C11.4819 25.6414 11.1225 25.488 10.8171 25.1813C10.5117 24.8746 10.3589 24.5145 10.3589 24.1009C10.3589 23.6874 10.5123 23.328 10.819 23.0226C11.1258 22.7172 11.4859 22.5644 11.8994 22.5644C12.3129 22.5644 12.6723 22.7178 12.9777 23.0245C13.2832 23.3313 13.4359 23.6914 13.4359 24.1049C13.4359 24.5184 13.2825 24.8778 12.9758 25.1832C12.6691 25.4887 12.309 25.6414 11.8954 25.6414ZM20.1006 25.6414C19.6871 25.6414 19.3276 25.488 19.0222 25.1813C18.7168 24.8746 18.5641 24.5145 18.5641 24.1009C18.5641 23.6874 18.7174 23.328 19.0242 23.0226C19.3309 22.7172 19.691 22.5644 20.1045 22.5644C20.518 22.5644 20.8775 22.7178 21.1829 23.0245C21.4883 23.3313 21.641 23.6914 21.641 24.1049C21.641 24.5184 21.4876 24.8778 21.1809 25.1832C20.8742 25.4887 20.5141 25.6414 20.1006 25.6414ZM11.8954 17.5388C11.4819 17.5388 11.1225 17.3854 10.8171 17.0787C10.5117 16.772 10.3589 16.4119 10.3589 15.9984C10.3589 15.5849 10.5123 15.2254 10.819 14.92C11.1258 14.6146 11.4859 14.4619 11.8994 14.4619C12.3129 14.4619 12.6723 14.6152 12.9777 14.922C13.2832 15.2287 13.4359 15.5888 13.4359 16.0023C13.4359 16.4158 13.2825 16.7753 12.9758 17.0807C12.6691 17.3861 12.309 17.5388 11.8954 17.5388ZM20.1006 17.5388C19.6871 17.5388 19.3276 17.3854 19.0222 17.0787C18.7168 16.772 18.5641 16.4119 18.5641 15.9984C18.5641 15.5849 18.7174 15.2254 19.0242 14.92C19.3309 14.6146 19.691 14.4619 20.1045 14.4619C20.518 14.4619 20.8775 14.6152 21.1829 14.922C21.4883 15.2287 21.641 15.5888 21.641 16.0023C21.641 16.4158 21.4876 16.7753 21.1809 17.0807C20.8742 17.3861 20.5141 17.5388 20.1006 17.5388ZM11.8954 9.43625C11.4819 9.43625 11.1225 9.28288 10.8171 8.97615C10.5117 8.66944 10.3589 8.30933 10.3589 7.89582C10.3589 7.4823 10.5123 7.12285 10.819 6.81745C11.1258 6.51203 11.4859 6.35931 11.8994 6.35931C12.3129 6.35931 12.6723 6.51268 12.9777 6.81942C13.2832 7.12613 13.4359 7.48624 13.4359 7.89975C13.4359 8.31326 13.2825 8.67271 12.9758 8.97812C12.6691 9.28354 12.309 9.43625 11.8954 9.43625ZM20.1006 9.43625C19.6871 9.43625 19.3276 9.28288 19.0222 8.97615C18.7168 8.66944 18.5641 8.30933 18.5641 7.89582C18.5641 7.4823 18.7174 7.12285 19.0242 6.81745C19.3309 6.51203 19.691 6.35931 20.1045 6.35931C20.518 6.35931 20.8775 6.51268 21.1829 6.81942C21.4883 7.12613 21.641 7.48624 21.641 7.89975C21.641 8.31326 21.4876 8.67271 21.1809 8.97812C20.8742 9.28354 20.5141 9.43625 20.1006 9.43625Z" fill="black"/>
</svg>
