<svg width="32" height="32" viewBox="0 0 32 32" fill="none" xmlns="http://www.w3.org/2000/svg">
<path d="M6.87179 25.5388H8.17263L22.3804 11.3482L21.0624 10.0303L6.87179 24.238V25.5388ZM24.7863 10.5345L21.8735 7.62683L23.3436 6.15676C23.5721 5.92827 23.846 5.81403 24.1654 5.81403C24.4848 5.81403 24.7587 5.92827 24.9872 6.15676L26.2539 7.42343C26.4824 7.65192 26.5946 7.92499 26.5906 8.24266C26.5866 8.56033 26.4704 8.8391 26.2419 9.07899L24.7863 10.5345ZM23.9778 11.3286L8.63929 26.667H5.74356V23.7713L21.0821 8.43283L23.9778 11.3286ZM21.7171 10.6679L21.0624 10.0303L22.3804 11.3482L21.7171 10.6679Z" fill="black"/>
</svg>
