<svg width="32" height="32" viewBox="0 0 32 32" fill="none" xmlns="http://www.w3.org/2000/svg">
<path d="M15.9996 21.9491C16.2221 21.9491 16.4028 21.8797 16.5419 21.7409C16.6809 21.6022 16.7504 21.4215 16.7504 21.1991C16.7504 20.9766 16.681 20.7958 16.5423 20.6568C16.4035 20.5177 16.2229 20.4482 16.0004 20.4482C15.7779 20.4482 15.5972 20.5176 15.4581 20.6564C15.3191 20.7952 15.2496 20.9758 15.2496 21.1983C15.2496 21.4208 15.319 21.6015 15.4577 21.7405C15.5965 21.8796 15.7771 21.9491 15.9996 21.9491ZM15.4684 17.6089H16.5966V9.47387H15.4684V17.6089ZM16.0104 28.0004C14.3435 28.0004 12.7843 27.6855 11.3326 27.0557C9.88097 26.426 8.61112 25.5676 7.5231 24.4806C6.43508 23.3936 5.57589 22.1244 4.94553 20.673C4.31518 19.2216 4 17.6618 4 15.9937C4 14.337 4.31488 12.7794 4.94463 11.321C5.57441 9.8625 6.4328 8.59296 7.5198 7.51233C8.6068 6.43173 9.876 5.57626 11.3274 4.9459C12.7788 4.31554 14.3386 4.00037 16.0067 4.00037C17.6634 4.00037 19.2209 4.31524 20.6794 4.945C22.1379 5.57478 23.4074 6.42947 24.488 7.50907C25.5686 8.58867 26.4241 9.85819 27.0545 11.3176C27.6848 12.7771 28 14.3346 28 15.99C28 17.6568 27.6851 19.2161 27.0554 20.6677C26.4256 22.1194 25.5709 23.3879 24.4913 24.4732C23.4117 25.5585 22.1422 26.4176 20.6827 27.0507C19.2233 27.6838 17.6658 28.0004 16.0104 28.0004ZM16.0111 26.8722C19.0316 26.8722 21.5969 25.8163 23.7068 23.7046C25.8168 21.593 26.8718 19.0212 26.8718 15.9893C26.8718 12.9688 25.8182 10.4035 23.711 8.29353C21.6038 6.18355 19.0335 5.12857 16 5.12857C12.9755 5.12857 10.4074 6.18217 8.29573 8.28937C6.18404 10.3966 5.1282 12.9669 5.1282 16.0004C5.1282 19.0249 6.18404 21.593 8.29573 23.7046C10.4074 25.8163 12.9792 26.8722 16.0111 26.8722Z" fill="black"/>
</svg>
