<svg width="32" height="32" viewBox="0 0 32 32" fill="none" xmlns="http://www.w3.org/2000/svg">
<path d="M5.79487 25.3337C5.30084 25.3337 4.87819 25.1581 4.5269 24.8068C4.17563 24.4555 4 24.0329 4 23.5389V8.61575C4 8.12173 4.20128 7.67344 4.60383 7.27089C5.00639 6.86833 5.45468 6.66705 5.9487 6.66705H13.0051L15.4667 9.12859H26.0513C26.4427 9.12859 26.7927 9.23585 27.1013 9.45039C27.4098 9.6649 27.6325 9.9337 27.7692 10.2568H15.0009L12.5393 7.79525H5.9487C5.70939 7.79525 5.51281 7.87217 5.35897 8.02602C5.20512 8.17986 5.1282 8.37644 5.1282 8.61575V23.385C5.1282 23.573 5.17521 23.7269 5.26923 23.8466C5.36323 23.9662 5.48716 24.0688 5.641 24.1543L8.7265 13.2311H30.4872L27.4265 24.0286C27.3068 24.4457 27.0887 24.7675 26.7722 24.994C26.4557 25.2205 26.0786 25.3337 25.641 25.3337H5.79487ZM6.8205 24.2055H26.2137L28.9573 14.3593H9.5641L6.8205 24.2055Z" fill="black"/>
</svg>
