<svg width="32" height="32" viewBox="0 0 32 32" fill="none" xmlns="http://www.w3.org/2000/svg">
<path d="M5.9487 25.3337C5.40254 25.3337 4.94122 25.1453 4.56473 24.7684C4.18824 24.3914 4 23.9303 4 23.385V8.61575C4 8.07046 4.18824 7.60935 4.56473 7.23242C4.94122 6.85551 5.40254 6.66705 5.9487 6.66705H13.0051L15.4667 9.12859H26.0513C26.5966 9.12859 27.0577 9.31704 27.4346 9.69395C27.8115 10.0709 28 10.532 28 11.0773V23.385C28 23.9303 27.8115 24.3914 27.4346 24.7684C27.0577 25.1453 26.5966 25.3337 26.0513 25.3337H5.9487ZM5.9487 24.2055H26.0513C26.2906 24.2055 26.4872 24.1286 26.641 23.9748C26.7949 23.8209 26.8718 23.6243 26.8718 23.385V11.0773C26.8718 10.838 26.7949 10.6414 26.641 10.4876C26.4872 10.3337 26.2906 10.2568 26.0513 10.2568H15.0231L12.5615 7.79525H5.9487C5.70939 7.79525 5.51281 7.87217 5.35897 8.02602C5.20512 8.17986 5.1282 8.37644 5.1282 8.61575V23.385C5.1282 23.6243 5.20512 23.8209 5.35897 23.9748C5.51281 24.1286 5.70939 24.2055 5.9487 24.2055Z" fill="black"/>
</svg>
