<svg width="32" height="32" viewBox="0 0 32 32" fill="none" xmlns="http://www.w3.org/2000/svg">
<path d="M12.9932 24.6944V23.5662H26.6667V24.6944H12.9932ZM12.9932 16.5645V15.4363H26.6667V16.5645H12.9932ZM12.9932 8.42944V7.30124H26.6667V8.42944H12.9932ZM6.99637 25.7645C6.53657 25.7645 6.1453 25.6046 5.82257 25.2849C5.49984 24.9653 5.33847 24.5784 5.33847 24.1243C5.33847 23.6702 5.49917 23.2825 5.82057 22.9611C6.14197 22.6397 6.5297 22.479 6.98377 22.479C7.43781 22.479 7.82469 22.6432 8.1444 22.9717C8.46409 23.3001 8.62394 23.6909 8.62394 24.144C8.62394 24.5848 8.46457 24.9651 8.14584 25.2849C7.8271 25.6046 7.44395 25.7645 6.99637 25.7645ZM6.99637 17.6346C6.53657 17.6346 6.1453 17.4725 5.82257 17.1484C5.49984 16.8244 5.33847 16.4417 5.33847 16.0004C5.33847 15.5591 5.50099 15.1764 5.82604 14.8523C6.1511 14.5282 6.54187 14.3662 6.99834 14.3662C7.44258 14.3662 7.82458 14.5282 8.14434 14.8523C8.46407 15.1764 8.62394 15.5591 8.62394 16.0004C8.62394 16.4417 8.46457 16.8244 8.14584 17.1484C7.8271 17.4725 7.44395 17.6346 6.99637 17.6346ZM6.97264 9.49951C6.53137 9.49951 6.14869 9.33746 5.8246 9.01338C5.50051 8.68929 5.33847 8.30661 5.33847 7.86534C5.33847 7.42405 5.50051 7.04136 5.8246 6.71728C6.14869 6.39319 6.53423 6.23114 6.9812 6.23114C7.42818 6.23114 7.81371 6.39319 8.1378 6.71728C8.46189 7.04136 8.62394 7.42405 8.62394 7.86534C8.62394 8.30661 8.46225 8.68929 8.13887 9.01338C7.81549 9.33746 7.42675 9.49951 6.97264 9.49951Z" fill="black"/>
</svg>
