<svg width="32" height="32" viewBox="0 0 32 32" fill="none" xmlns="http://www.w3.org/2000/svg">
<path d="M7.58974 25.4619V24.3337H24.4103V25.4619H7.58974ZM16 21.4106C14.1122 21.4106 12.6236 20.865 11.5342 19.7738C10.4447 18.6827 9.9 17.1964 9.9 15.3149V5.10291H11.2051V15.2961C11.2051 16.7924 11.6319 17.9744 12.4855 18.8422C13.339 19.71 14.5105 20.1439 16 20.1439C17.4895 20.1439 18.661 19.71 19.5145 18.8422C20.3681 17.9744 20.7949 16.7924 20.7949 15.2961V5.10291H22.1V15.3149C22.1 17.1964 21.5553 18.6827 20.4658 19.7738C19.3764 20.865 17.8878 21.4106 16 21.4106Z" fill="black"/>
</svg>
