<svg width="32" height="32" viewBox="0 0 32 32" fill="none" xmlns="http://www.w3.org/2000/svg">
<path d="M5.33334 28.0004V26.8209H8.66668V25.0004H6.66668V23.8209H8.66668V22.0004H5.33334V20.8209H8.92308C9.18461 20.8209 9.40384 20.9093 9.58078 21.0863C9.75771 21.2632 9.84618 21.4824 9.84618 21.744V23.5901C9.84618 23.8517 9.75771 24.0709 9.58078 24.2478C9.40384 24.4247 9.18461 24.5132 8.92308 24.5132C9.18461 24.5132 9.40384 24.6017 9.58078 24.7786C9.75771 24.9555 9.84618 25.1747 9.84618 25.4363V27.0773C9.84618 27.3388 9.75771 27.5581 9.58078 27.735C9.40384 27.9119 9.18461 28.0004 8.92308 28.0004H5.33334ZM5.33334 19.5901V16.3337C5.33334 16.0722 5.4218 15.8529 5.59871 15.676C5.77564 15.4991 5.99488 15.4106 6.25641 15.4106H8.66668V13.5901H5.33334V12.4106H8.92308C9.18461 12.4106 9.40384 12.4991 9.58078 12.676C9.75771 12.8529 9.84618 13.0722 9.84618 13.3337V15.667C9.84618 15.9286 9.75771 16.1478 9.58078 16.3247C9.40384 16.5016 9.18461 16.5901 8.92308 16.5901H6.51284V18.4106H9.84618V19.5901H5.33334ZM7.33334 11.1799V5.17987H5.33334V4.00037H8.51284V11.1799H7.33334ZM12.9179 24.5696V23.4414H26.6667V24.5696H12.9179ZM12.9179 16.5371V15.4089H26.6667V16.5371H12.9179ZM12.9179 8.50463V7.37643H26.6667V8.50463H12.9179Z" fill="black"/>
</svg>
