<svg width="32" height="32" viewBox="0 0 32 32" fill="none" xmlns="http://www.w3.org/2000/svg">
<path d="M10.535 24.3337V7.66705H16.2026C17.4795 7.66705 18.5826 8.07788 19.512 8.89952C20.4413 9.72119 20.906 10.7465 20.906 11.9756C20.906 12.7568 20.6895 13.4834 20.2564 14.1555C19.8234 14.8276 19.2194 15.3283 18.4444 15.6577V15.7226C19.3863 15.9716 20.1252 16.4782 20.6611 17.2423C21.197 18.0064 21.465 18.8528 21.465 19.7816C21.465 21.0608 20.9749 22.1393 19.9949 23.0171C19.0148 23.8948 17.8379 24.3337 16.4641 24.3337H10.535ZM11.8675 23.1269H16.3598C17.3239 23.1269 18.1848 22.8125 18.9423 22.1837C19.6999 21.5549 20.0786 20.736 20.0786 19.7269C20.0786 18.7326 19.7027 17.921 18.9509 17.2923C18.199 16.6635 17.3385 16.3491 16.3692 16.3491H11.8675V23.1269ZM11.8675 15.1731H16.1282C17.0336 15.1731 17.8291 14.877 18.5145 14.285C19.2 13.693 19.5427 12.9374 19.5427 12.0183C19.5427 11.1169 19.2011 10.3653 18.518 9.76362C17.8348 9.16191 17.0399 8.86105 16.1333 8.86105H11.8675V15.1731Z" fill="black"/>
</svg>
