<svg width="32" height="32" viewBox="0 0 32 32" fill="none" xmlns="http://www.w3.org/2000/svg">
<path d="M3.43417 24.8209V22.8038C3.43417 22.1816 3.59528 21.6478 3.91751 21.2025C4.23973 20.7572 4.68784 20.4031 5.26184 20.14C6.49013 19.586 7.65641 19.1507 8.76067 18.8341C9.86496 18.5176 11.2034 18.3594 12.7761 18.3594C14.3487 18.3594 15.6835 18.5176 16.7803 18.8341C17.8772 19.1507 19.0455 19.586 20.2852 20.14C20.8478 20.4031 21.291 20.7572 21.615 21.2025C21.9389 21.6478 22.1009 22.1816 22.1009 22.8038V24.8209H3.43417ZM24.5624 24.8209V22.8346C24.5624 21.9286 24.379 21.1326 24.012 20.4466C23.6451 19.7606 23.1568 19.1845 22.547 18.7183C23.3202 18.8699 24.0661 19.0658 24.7846 19.3059C25.5031 19.5461 26.1575 19.8125 26.7477 20.1051C27.292 20.392 27.7311 20.7737 28.065 21.2502C28.3989 21.7267 28.5658 22.2549 28.5658 22.8346V24.8209H24.5624ZM12.7761 15.1747C11.6704 15.1747 10.7429 14.8002 9.99381 14.051C9.24465 13.3019 8.87007 12.3745 8.87007 11.2688C8.87007 10.1631 9.24465 9.23849 9.99381 8.49505C10.7429 7.75161 11.6704 7.37988 12.7761 7.37988C13.8818 7.37988 14.8063 7.75161 15.5498 8.49505C16.2933 9.23849 16.665 10.1631 16.665 11.2688C16.665 12.3745 16.2933 13.3019 15.5498 14.051C14.8063 14.8002 13.8818 15.1747 12.7761 15.1747ZM22.0496 11.2688C22.0496 12.3745 21.6778 13.3019 20.9344 14.051C20.191 14.8002 19.2644 15.1747 18.1546 15.1747C18.0966 15.1747 18.0385 15.1701 17.9803 15.1607C17.9222 15.1512 17.865 15.1371 17.8085 15.1183C18.2385 14.6119 18.5657 14.0315 18.79 13.3772C19.0143 12.7229 19.1265 12.0219 19.1265 11.2741C19.1265 10.5264 19.0058 9.83798 18.7645 9.20892C18.5232 8.57987 18.2046 7.98329 17.8085 7.41918C17.8587 7.41178 17.916 7.40338 17.9803 7.39398C18.0447 7.38458 18.102 7.37988 18.1521 7.37988C19.2635 7.37988 20.191 7.75161 20.9344 8.49505C21.6778 9.23849 22.0496 10.1631 22.0496 11.2688ZM4.56237 23.6927H20.9727V22.8038C20.9727 22.4625 20.8819 22.1559 20.7004 21.8841C20.5189 21.6123 20.2114 21.3622 19.7778 21.1337C18.653 20.5622 17.561 20.145 16.5017 19.882C15.4424 19.619 14.2006 19.4875 12.7761 19.4875C11.3516 19.4875 10.1088 19.619 9.04787 19.882C7.9869 20.145 6.89402 20.5622 5.76924 21.1337C5.33562 21.3622 5.02607 21.6123 4.84061 21.8841C4.65512 22.1559 4.56237 22.4625 4.56237 22.8038V23.6927ZM12.7675 14.0465C13.5442 14.0465 14.1999 13.7792 14.7346 13.2444C15.2694 12.7096 15.5368 12.0539 15.5368 11.2773C15.5368 10.5007 15.2694 9.84497 14.7346 9.31022C14.1999 8.77546 13.5442 8.50808 12.7675 8.50808C11.9909 8.50808 11.3352 8.77546 10.8004 9.31022C10.2657 9.84497 9.99827 10.5007 9.99827 11.2773C9.99827 12.0539 10.2657 12.7096 10.8004 13.2444C11.3352 13.7792 11.9909 14.0465 12.7675 14.0465Z" fill="black"/>
</svg>
