<svg width="32" height="32" viewBox="0 0 32 32" fill="none" xmlns="http://www.w3.org/2000/svg">
<path d="M16.653 15.0756C17.1219 14.5525 17.448 13.9699 17.6312 13.3277C17.8144 12.6856 17.906 11.9992 17.906 11.2688C17.906 10.5383 17.8144 9.85478 17.6312 9.21832C17.448 8.58185 17.1219 8.00208 16.653 7.47902C17.7732 7.39468 18.7237 7.71434 19.5043 8.43798C20.2849 9.16163 20.6752 10.1081 20.6752 11.2773C20.6752 12.4465 20.2849 13.3901 19.5043 14.1081C18.7237 14.826 17.7732 15.1485 16.653 15.0756ZM23.282 24.8209V22.8346C23.282 22.0682 23.1299 21.3543 22.8256 20.6927C22.5214 20.0312 21.9869 19.4881 21.2222 19.0636C22.9721 19.369 24.2891 19.8287 25.1731 20.4427C26.0572 21.0567 26.4992 21.854 26.4992 22.8346V24.8209H23.282ZM29.7436 13.6978H22.8718V12.5696H29.7436V13.6978ZM11.5385 15.1747C10.4328 15.1747 9.50819 14.8002 8.76474 14.051C8.0213 13.3019 7.64958 12.3745 7.64958 11.2688C7.64958 10.1631 8.0213 9.23849 8.76474 8.49505C9.50819 7.75161 10.4328 7.37988 11.5385 7.37988C12.6442 7.37988 13.5716 7.75161 14.3207 8.49505C15.0699 9.23849 15.4444 10.1631 15.4444 11.2688C15.4444 12.3745 15.0699 13.3019 14.3207 14.051C13.5716 14.8002 12.6442 15.1747 11.5385 15.1747ZM2.25641 24.8209V22.8038C2.25641 22.25 2.41838 21.7333 2.74231 21.2538C3.06624 20.7743 3.50826 20.4038 4.06838 20.1423C5.39486 19.5468 6.66381 19.1008 7.87521 18.8042C9.08661 18.5076 10.3077 18.3594 11.5385 18.3594C12.7692 18.3594 13.9866 18.5076 15.1906 18.8042C16.3946 19.1008 17.6655 19.5468 19.0034 20.1423C19.5521 20.4038 19.9922 20.7743 20.3235 21.2538C20.6548 21.7333 20.8205 22.25 20.8205 22.8038V24.8209H2.25641ZM11.547 14.0465C12.3237 14.0465 12.9794 13.7792 13.5141 13.2444C14.0489 12.7096 14.3162 12.0539 14.3162 11.2773C14.3162 10.5007 14.0489 9.84497 13.5141 9.31022C12.9794 8.77546 12.3208 8.50808 11.5385 8.50808C10.7561 8.50808 10.1004 8.77546 9.57138 9.31022C9.04231 9.84497 8.77778 10.5007 8.77778 11.2773C8.77778 12.0539 9.04199 12.7096 9.57041 13.2444C10.0988 13.7792 10.7577 14.0465 11.547 14.0465ZM3.38461 23.6927H19.6923V22.8038C19.6923 22.4816 19.5899 22.1729 19.385 21.8779C19.1802 21.5829 18.8786 21.3349 18.4803 21.1337C17.286 20.5622 16.1295 20.145 15.0106 19.882C13.8917 19.619 12.7344 19.4875 11.5385 19.4875C10.3426 19.4875 9.18604 19.619 8.06891 19.882C6.95175 20.145 5.7926 20.5622 4.59144 21.1337C4.2 21.3314 3.901 21.5782 3.69444 21.8739C3.48789 22.1696 3.38461 22.4796 3.38461 22.8038V23.6927Z" fill="black"/>
</svg>
