<svg width="32" height="32" viewBox="0 0 32 32" fill="none" xmlns="http://www.w3.org/2000/svg">
<path d="M16.1023 22.9046C16.3572 22.9046 16.5742 22.8117 16.7534 22.6258C16.9326 22.44 17.0222 22.2196 17.0222 21.9647C17.0222 21.7213 16.9321 21.5071 16.752 21.3222C16.5718 21.1373 16.3543 21.0448 16.0994 21.0448C15.8445 21.0448 15.6246 21.1377 15.4397 21.3236C15.2548 21.5095 15.1624 21.7241 15.1624 21.9676C15.1624 22.2225 15.2553 22.4424 15.4412 22.6273C15.6271 22.8122 15.8474 22.9046 16.1023 22.9046ZM15.4188 18.5645H16.5607C16.5835 18.0317 16.685 17.5742 16.8654 17.1918C17.0457 16.8095 17.4205 16.3571 17.9897 15.8346C18.6131 15.2397 19.0638 14.7014 19.3419 14.2196C19.6199 13.7378 19.759 13.1981 19.759 12.6006C19.759 11.5714 19.4123 10.7385 18.7188 10.1021C18.0254 9.4656 17.1727 9.14737 16.1607 9.14737C15.2519 9.14737 14.4566 9.3901 13.7748 9.87557C13.093 10.361 12.5858 10.9439 12.253 11.6243L13.3436 12.067C13.5892 11.5246 13.9269 11.085 14.3568 10.7482C14.7867 10.4115 15.3601 10.2431 16.0769 10.2431C16.9487 10.2431 17.6008 10.482 18.0333 10.9598C18.4658 11.4375 18.6821 11.9918 18.6821 12.6226C18.6821 13.091 18.5556 13.5159 18.3026 13.8974C18.0496 14.2789 17.6997 14.6693 17.253 15.0687C16.5738 15.6915 16.0983 16.2716 15.8265 16.8089C15.5547 17.3462 15.4188 17.9314 15.4188 18.5645ZM16.0045 28.0004C14.3485 28.0004 12.7929 27.6855 11.3378 27.0557C9.8827 26.426 8.61112 25.5676 7.5231 24.4806C6.43508 23.3936 5.57589 22.1232 4.94553 20.6694C4.31518 19.2156 4 17.6608 4 16.0048C4 14.3454 4.31488 12.7853 4.94463 11.3245C5.57441 9.86368 6.4328 8.59296 7.5198 7.51233C8.6068 6.43173 9.87719 5.57626 11.331 4.9459C12.7847 4.31554 14.3396 4.00037 15.9955 4.00037C17.6549 4.00037 19.215 4.31524 20.6759 4.945C22.1367 5.57478 23.4074 6.42947 24.488 7.50907C25.5686 8.58867 26.4241 9.85819 27.0545 11.3176C27.6848 12.7771 28 14.3365 28 15.9959C28 17.6519 27.6851 19.2074 27.0554 20.6625C26.4256 22.1177 25.5709 23.3892 24.4913 24.4773C23.4117 25.5653 22.1422 26.4245 20.6827 27.0548C19.2233 27.6852 17.6638 28.0004 16.0045 28.0004ZM16 26.8722C19.0279 26.8722 21.5969 25.8163 23.7068 23.7046C25.8168 21.593 26.8718 19.0249 26.8718 16.0004C26.8718 12.9725 25.8168 10.4035 23.7068 8.29353C21.5969 6.18355 19.0279 5.12857 16 5.12857C12.9755 5.12857 10.4074 6.18355 8.29573 8.29353C6.18404 10.4035 5.1282 12.9725 5.1282 16.0004C5.1282 19.0249 6.18404 21.593 8.29573 23.7046C10.4074 25.8163 12.9755 26.8722 16 26.8722Z" fill="black"/>
</svg>
