<svg width="32" height="32" viewBox="0 0 32 32" fill="none" xmlns="http://www.w3.org/2000/svg">
<path d="M7.28201 26.667C6.7333 26.667 6.27134 26.4794 5.89611 26.1042C5.52091 25.729 5.33331 25.267 5.33331 24.7183V7.28238C5.33331 6.73367 5.52091 6.2717 5.89611 5.89648C6.27134 5.52128 6.7333 5.33368 7.28201 5.33368H24.7179C25.2667 5.33368 25.7286 5.52128 26.1038 5.89648C26.479 6.2717 26.6666 6.73367 26.6666 7.28238V24.7183C26.6666 25.267 26.479 25.729 26.1038 26.1042C25.7286 26.4794 25.2667 26.667 24.7179 26.667H7.28201ZM9.96235 22.0328H22.2649L18.5111 17.0448L14.9111 21.5627L12.5453 18.6721L9.96235 22.0328Z" fill="black"/>
</svg>
