<svg width="32" height="32" viewBox="0 0 32 32" fill="none" xmlns="http://www.w3.org/2000/svg">
<path d="M15.4684 22.0004H16.5966V14.667H15.4684V22.0004ZM15.9996 12.8346C16.2107 12.8346 16.3886 12.7644 16.5333 12.6241C16.6781 12.4838 16.7504 12.3056 16.7504 12.0893C16.7504 11.8718 16.6782 11.6915 16.5337 11.5484C16.3893 11.4053 16.2115 11.3337 16.0004 11.3337C15.7779 11.3337 15.5972 11.4053 15.4581 11.5484C15.3191 11.6915 15.2496 11.8718 15.2496 12.0893C15.2496 12.3056 15.3218 12.4838 15.4663 12.6241C15.6107 12.7644 15.7885 12.8346 15.9996 12.8346ZM16.0104 28.0004C14.3435 28.0004 12.7843 27.6855 11.3326 27.0557C9.88097 26.426 8.61112 25.5676 7.5231 24.4806C6.43508 23.3936 5.57589 22.1244 4.94553 20.673C4.31518 19.2216 4 17.6618 4 15.9937C4 14.337 4.31488 12.7794 4.94463 11.321C5.57441 9.8625 6.4328 8.59296 7.5198 7.51233C8.6068 6.43173 9.876 5.57626 11.3274 4.9459C12.7788 4.31554 14.3386 4.00037 16.0067 4.00037C17.6634 4.00037 19.2209 4.31524 20.6794 4.945C22.1379 5.57478 23.4074 6.42947 24.488 7.50907C25.5686 8.58867 26.4241 9.85819 27.0545 11.3176C27.6848 12.7771 28 14.3346 28 15.99C28 17.6568 27.6851 19.2161 27.0554 20.6677C26.4256 22.1194 25.5709 23.3879 24.4913 24.4732C23.4117 25.5585 22.1422 26.4176 20.6827 27.0507C19.2233 27.6838 17.6658 28.0004 16.0104 28.0004Z" fill="black"/>
</svg>
