<svg width="32" height="32" viewBox="0 0 32 32" fill="none" xmlns="http://www.w3.org/2000/svg">
<path d="M8.61537 12.0653H20.1026V9.23113C20.1026 8.09153 19.7041 7.12287 18.907 6.32513C18.11 5.52742 17.1422 5.12857 16.0036 5.12857C14.865 5.12857 13.896 5.52742 13.0966 6.32513C12.2972 7.12287 11.8974 8.09153 11.8974 9.23113H10.7692C10.7692 7.77073 11.2771 6.53383 12.2928 5.52043C13.3085 4.50705 14.5454 4.00037 16.0035 4.00037C17.4616 4.00037 18.6973 4.50788 19.7107 5.5229C20.7241 6.53795 21.2308 7.77402 21.2308 9.23113V12.0653H23.3846C23.916 12.0653 24.3736 12.2551 24.7575 12.6345C25.1414 13.014 25.3333 13.4739 25.3333 14.014V26.0517C25.3333 26.583 25.1414 27.0406 24.7575 27.4245C24.3736 27.8084 23.916 28.0004 23.3846 28.0004H8.61537C8.08404 28.0004 7.62642 27.8084 7.2425 27.4245C6.85862 27.0406 6.66667 26.583 6.66667 26.0517V14.014C6.66667 13.4739 6.85862 13.014 7.2425 12.6345C7.62642 12.2551 8.08404 12.0653 8.61537 12.0653ZM8.61537 26.8722H23.3846C23.624 26.8722 23.8205 26.7952 23.9744 26.6414C24.1282 26.4876 24.2051 26.291 24.2051 26.0517V14.014C24.2051 13.7747 24.1282 13.5781 23.9744 13.4243C23.8205 13.2705 23.624 13.1935 23.3846 13.1935H8.61537C8.37606 13.1935 8.17948 13.2705 8.02564 13.4243C7.87179 13.5781 7.79487 13.7747 7.79487 14.014V26.0517C7.79487 26.291 7.87179 26.4876 8.02564 26.6414C8.17948 26.7952 8.37606 26.8722 8.61537 26.8722ZM16.0037 22.0004C16.5488 22.0004 17.0124 21.81 17.3944 21.4292C17.7765 21.0484 17.9675 20.5863 17.9675 20.0431C17.9675 19.5138 17.7753 19.0518 17.3907 18.6572C17.0062 18.2626 16.5414 18.0653 15.9963 18.0653C15.4512 18.0653 14.9876 18.2626 14.6056 18.6572C14.2235 19.0518 14.0325 19.5175 14.0325 20.0542C14.0325 20.591 14.2247 21.0495 14.6093 21.4299C14.9938 21.8102 15.4586 22.0004 16.0037 22.0004Z" fill="black"/>
</svg>
