<svg width="32" height="32" viewBox="0 0 32 32" fill="none" xmlns="http://www.w3.org/2000/svg">
<path d="M7.53844 28.0004C6.9923 28.0004 6.53098 27.8121 6.15447 27.4356C5.77798 27.0591 5.58974 26.5978 5.58974 26.0517V7.28241C5.58974 6.73625 5.77798 6.27493 6.15447 5.89844C6.53098 5.52195 6.9923 5.33371 7.53844 5.33371H16.2103V6.46191H7.53844C7.33333 6.46191 7.14529 6.54738 6.97434 6.71831C6.8034 6.88924 6.71794 7.07728 6.71794 7.28241V26.0517C6.71794 26.2568 6.8034 26.4448 6.97434 26.6158C7.14529 26.7867 7.33333 26.8722 7.53844 26.8722H16.2103V28.0004H7.53844ZM21.9624 21.12L21.1393 20.3234L24.2316 17.2311H12.4701V16.1029H24.2214L21.1291 13.0106L21.9351 12.1969L26.4103 16.6807L21.9624 21.12Z" fill="black"/>
</svg>
