<svg width="32" height="32" viewBox="0 0 32 32" fill="none" xmlns="http://www.w3.org/2000/svg">
<path d="M5.9487 25.3337C5.40254 25.3337 4.94122 25.1455 4.56473 24.769C4.18824 24.3925 4 23.9312 4 23.385V8.61575C4 8.0696 4.18824 7.60828 4.56473 7.23179C4.94122 6.8553 5.40254 6.66705 5.9487 6.66705H26.0513C26.5975 6.66705 27.0588 6.8553 27.4353 7.23179C27.8118 7.60828 28 8.0696 28 8.61575V23.385C28 23.9312 27.8118 24.3925 27.4353 24.769C27.0588 25.1455 26.5975 25.3337 26.0513 25.3337H5.9487ZM16 15.9218L5.1282 8.70979V23.385C5.1282 23.6243 5.20512 23.8209 5.35897 23.9748C5.51281 24.1286 5.70939 24.2055 5.9487 24.2055H26.0513C26.2906 24.2055 26.4872 24.1286 26.641 23.9748C26.7949 23.8209 26.8718 23.6243 26.8718 23.385V8.70979L16 15.9218ZM16 14.6397L26.4239 7.79525H5.59827L16 14.6397ZM5.1282 8.70979V7.79525V23.385C5.1282 23.6243 5.20512 23.8209 5.35897 23.9748C5.51281 24.1286 5.70939 24.2055 5.9487 24.2055H5.1282V8.70979Z" fill="black"/>
</svg>
