<svg width="32" height="32" viewBox="0 0 32 32" fill="none" xmlns="http://www.w3.org/2000/svg">
<path d="M5.9487 25.3337C5.40254 25.3337 4.94122 25.1454 4.56473 24.769C4.18824 24.3925 4 23.9311 4 23.385V8.61572C4 8.06957 4.18824 7.60825 4.56473 7.23176C4.94122 6.85527 5.40254 6.66702 5.9487 6.66702H26.0513C26.5975 6.66702 27.0588 6.85527 27.4353 7.23176C27.8118 7.60825 28 8.06957 28 8.61572V23.385C28 23.9311 27.8118 24.3925 27.4353 24.769C27.0588 25.1454 26.5975 25.3337 26.0513 25.3337H5.9487ZM16 15.9217L5.1282 8.70976V23.385C5.1282 23.6243 5.20512 23.8209 5.35897 23.9747C5.51281 24.1286 5.70939 24.2055 5.9487 24.2055H26.0513C26.2906 24.2055 26.4872 24.1286 26.641 23.9747C26.7949 23.8209 26.8718 23.6243 26.8718 23.385V8.70976L16 15.9217ZM16 14.6397L26.4239 7.79522H5.59827L16 14.6397ZM5.1282 8.70976V7.79522V23.385C5.1282 23.6243 5.20512 23.8209 5.35897 23.9747C5.51281 24.1286 5.70939 24.2055 5.9487 24.2055H5.1282V8.70976Z" fill="black"/>
</svg>
