<svg width="32" height="32" viewBox="0 0 32 32" fill="none" xmlns="http://www.w3.org/2000/svg">
<path d="M16 17.0961C15.2898 17.0961 14.7012 16.8533 14.234 16.3677C13.7669 15.8822 13.5333 15.2828 13.5333 14.5696V6.4619C13.5333 5.77623 13.7702 5.19456 14.2438 4.71687C14.7175 4.2392 15.3025 4.00037 15.9987 4.00037C16.6949 4.00037 17.2803 4.2392 17.7548 4.71687C18.2294 5.19456 18.4667 5.77623 18.4667 6.4619V14.5696C18.4667 15.2828 18.2331 15.8822 17.766 16.3677C17.2988 16.8533 16.7102 17.0961 16 17.0961ZM15.4359 27.3337V22.5089C13.3402 22.3391 11.5769 21.4978 10.1461 19.985C8.71538 18.4722 8 16.667 8 14.5696H9.1282C9.1282 16.4756 9.79752 18.0902 11.1362 19.4136C12.4748 20.737 14.0937 21.3987 15.993 21.3987C17.8922 21.3987 19.5135 20.737 20.8568 19.4136C22.2001 18.0902 22.8718 16.4756 22.8718 14.5696H24C24 16.667 23.2846 18.4722 21.8539 19.985C20.4231 21.4978 18.6598 22.3391 16.5641 22.5089V27.3337H15.4359ZM16 15.9679C16.3812 15.9679 16.6996 15.8338 16.9551 15.5657C17.2107 15.2976 17.3385 14.9633 17.3385 14.5627V6.4619C17.3385 6.08412 17.2102 5.76746 16.9537 5.5119C16.6971 5.25634 16.3792 5.12857 16 5.12857C15.6208 5.12857 15.3029 5.25634 15.0463 5.5119C14.7898 5.76746 14.6615 6.08412 14.6615 6.4619V14.5627C14.6615 14.9633 14.7893 15.2976 15.0449 15.5657C15.3004 15.8338 15.6188 15.9679 16 15.9679Z" fill="black"/>
</svg>
