<svg width="32" height="32" viewBox="0 0 32 32" fill="none" xmlns="http://www.w3.org/2000/svg">
<path d="M20.4813 14.0192C20.8704 14.0192 21.2037 13.8784 21.4812 13.5969C21.7587 13.3154 21.8974 12.9801 21.8974 12.5909C21.8974 12.2018 21.7567 11.8685 21.4752 11.591C21.1937 11.3135 20.8583 11.1747 20.4692 11.1747C20.08 11.1747 19.7467 11.3155 19.4692 11.597C19.1917 11.8785 19.053 12.2138 19.053 12.603C19.053 12.9921 19.1938 13.3254 19.4753 13.6029C19.7568 13.8804 20.0921 14.0192 20.4813 14.0192ZM11.5308 14.0192C11.92 14.0192 12.2533 13.8784 12.5308 13.5969C12.8083 13.3154 12.947 12.9801 12.947 12.5909C12.947 12.2018 12.8062 11.8685 12.5247 11.591C12.2432 11.3135 11.9079 11.1747 11.5187 11.1747C11.1296 11.1747 10.7963 11.3155 10.5188 11.597C10.2413 11.8785 10.1026 12.2138 10.1026 12.603C10.1026 12.9921 10.2433 13.3254 10.5248 13.6029C10.8063 13.8804 11.1417 14.0192 11.5308 14.0192ZM16 22.5081C17.265 22.5081 18.4301 22.1652 19.4953 21.4794C20.5605 20.7937 21.3624 19.8796 21.9009 18.7371H10.0991C10.641 19.8796 11.4437 20.7937 12.5073 21.4794C13.5708 22.1652 14.735 22.5081 16 22.5081ZM16.0045 28.0004C14.3451 28.0004 12.785 27.6855 11.3241 27.0557C9.86331 26.426 8.59259 25.5713 7.51197 24.4917C6.43137 23.4121 5.57589 22.1425 4.94553 20.6831C4.31518 19.2236 4 17.6642 4 16.0048C4 14.3454 4.31488 12.7853 4.94463 11.3245C5.57441 9.86368 6.4291 8.59296 7.5087 7.51233C8.5883 6.43173 9.85782 5.57626 11.3173 4.9459C12.7767 4.31554 14.3362 4.00037 15.9955 4.00037C17.6549 4.00037 19.215 4.31524 20.6759 4.945C22.1367 5.57478 23.4074 6.42947 24.488 7.50907C25.5686 8.58867 26.4241 9.85819 27.0545 11.3176C27.6848 12.7771 28 14.3365 28 15.9959C28 17.6553 27.6851 19.2154 27.0554 20.6762C26.4256 22.1371 25.5709 23.4078 24.4913 24.4884C23.4117 25.569 22.1422 26.4245 20.6827 27.0548C19.2233 27.6852 17.6638 28.0004 16.0045 28.0004ZM15.9983 26.8722C19.0329 26.8722 21.6038 25.8191 23.711 23.713C25.8182 21.6069 26.8718 19.0366 26.8718 16.002C26.8718 12.9675 25.8188 10.3966 23.7127 8.28937C21.6066 6.18217 19.0362 5.12857 16.0017 5.12857C12.9671 5.12857 10.3962 6.18161 8.289 8.2877C6.1818 10.3938 5.1282 12.9641 5.1282 15.9987C5.1282 19.0333 6.18124 21.6042 8.28733 23.7114C10.3934 25.8186 12.9638 26.8722 15.9983 26.8722Z" fill="black"/>
</svg>
