<svg width="32" height="32" viewBox="0 0 32 32" fill="none" xmlns="http://www.w3.org/2000/svg">
<path d="M8.27712 16.9987C8.00174 16.9987 7.76704 16.9007 7.57302 16.7047C7.37899 16.5088 7.28198 16.2733 7.28198 15.9981C7.28198 15.723 7.37995 15.4882 7.57588 15.2937C7.77182 15.0993 8.00736 15.0021 8.28252 15.0021C8.55765 15.0021 8.79529 15.1001 8.99545 15.296C9.19558 15.4919 9.29565 15.7275 9.29565 16.0026C9.29565 16.2778 9.19592 16.5126 8.99645 16.707C8.797 16.9015 8.55723 16.9987 8.27712 16.9987ZM15.9977 16.9987C15.7226 16.9987 15.4878 16.9007 15.2933 16.7047C15.0989 16.5088 15.0016 16.2733 15.0016 15.9981C15.0016 15.723 15.0996 15.4882 15.2956 15.2937C15.4915 15.0993 15.727 15.0021 16.0022 15.0021C16.2773 15.0021 16.5121 15.1001 16.7066 15.296C16.901 15.4919 16.9983 15.7275 16.9983 16.0026C16.9983 16.2778 16.9003 16.5126 16.7043 16.707C16.5084 16.9015 16.2729 16.9987 15.9977 16.9987ZM23.7174 16.9987C23.4423 16.9987 23.2046 16.9007 23.0044 16.7047C22.8043 16.5088 22.7043 16.2733 22.7043 15.9981C22.7043 15.723 22.804 15.4882 23.0034 15.2937C23.2029 15.0993 23.4427 15.0021 23.7228 15.0021C23.9982 15.0021 24.2329 15.1001 24.4269 15.296C24.6209 15.4919 24.7179 15.7275 24.7179 16.0026C24.7179 16.2778 24.6199 16.5126 24.424 16.707C24.2281 16.9015 23.9925 16.9987 23.7174 16.9987Z" fill="black"/>
</svg>
