<svg width="32" height="32" viewBox="0 0 32 32" fill="none" xmlns="http://www.w3.org/2000/svg">
<path d="M15.9978 24.7183C15.7226 24.7183 15.4878 24.6204 15.2934 24.4244C15.0989 24.2285 15.0017 23.993 15.0017 23.7178C15.0017 23.4427 15.0997 23.205 15.2956 23.0049C15.4916 22.8047 15.7271 22.7047 16.0022 22.7047C16.2774 22.7047 16.5122 22.8044 16.7066 23.0039C16.9011 23.2033 16.9983 23.4431 16.9983 23.7232C16.9983 23.9986 16.9003 24.2333 16.7044 24.4273C16.5084 24.6213 16.2729 24.7183 15.9978 24.7183ZM15.9978 16.9987C15.7226 16.9987 15.4878 16.9007 15.2934 16.7047C15.0989 16.5088 15.0017 16.2733 15.0017 15.9981C15.0017 15.723 15.0997 15.4882 15.2956 15.2937C15.4916 15.0993 15.7271 15.0021 16.0022 15.0021C16.2774 15.0021 16.5122 15.1001 16.7066 15.296C16.9011 15.4919 16.9983 15.7275 16.9983 16.0026C16.9983 16.2778 16.9003 16.5126 16.7044 16.707C16.5084 16.9015 16.2729 16.9987 15.9978 16.9987ZM15.9978 9.29608C15.7226 9.29608 15.4878 9.19634 15.2934 8.99688C15.0989 8.79743 15.0017 8.55765 15.0017 8.27754C15.0017 8.00217 15.0997 7.76747 15.2956 7.57344C15.4916 7.37942 15.7271 7.28241 16.0022 7.28241C16.2774 7.28241 16.5122 7.38038 16.7066 7.57631C16.9011 7.77224 16.9983 8.00779 16.9983 8.28294C16.9983 8.55808 16.9003 8.79572 16.7044 8.99588C16.5084 9.19601 16.2729 9.29608 15.9978 9.29608Z" fill="black"/>
</svg>
