<svg width="32" height="32" viewBox="0 0 32 32" fill="none" xmlns="http://www.w3.org/2000/svg">
<path d="M4.44787 13.2636C4.44787 11.5428 4.81126 9.91304 5.53804 8.37431C6.26481 6.83555 7.27379 5.50008 8.56497 4.36791L9.36584 5.20381C8.16924 6.22316 7.23846 7.42757 6.5735 8.81704C5.90855 10.2065 5.57607 11.6887 5.57607 13.2636H4.44787ZM26.4291 13.2636C26.4291 11.6887 26.102 10.2065 25.4479 8.81704C24.7937 7.42757 23.8741 6.22316 22.6889 5.20381L23.4726 4.36791C24.7604 5.50351 25.7631 6.83983 26.4808 8.37687C27.1984 9.91389 27.5573 11.5428 27.5573 13.2636H26.4291ZM6 24.9747V23.8465H8.70427V13.5764C8.70427 11.7969 9.26467 10.2287 10.3855 8.87174C11.5063 7.51476 12.9459 6.67615 14.7043 6.35591V5.41747C14.7043 5.03969 14.8258 4.73471 15.0688 4.50251C15.3118 4.27031 15.6222 4.15421 16 4.15421C16.3778 4.15421 16.6882 4.27031 16.9312 4.50251C17.1742 4.73471 17.2957 5.03969 17.2957 5.41747V6.35591C19.0541 6.67615 20.4946 7.51476 21.6171 8.87174C22.7396 10.2287 23.3009 11.7969 23.3009 13.5764V23.8465H26V24.9747H6ZM16 28.8209C15.4239 28.8209 14.9209 28.6153 14.491 28.2042C14.0611 27.7931 13.8462 27.2807 13.8462 26.667H18.1538C18.1538 27.2807 17.9483 27.7931 17.5372 28.2042C17.1261 28.6153 16.6137 28.8209 16 28.8209Z" fill="black"/>
</svg>
