<svg width="32" height="32" viewBox="0 0 32 32" fill="none" xmlns="http://www.w3.org/2000/svg">
<path d="M6 24.9747V23.8465H8.70427V13.5764C8.70427 11.7945 9.26467 10.2256 10.3855 8.86987C11.5063 7.51414 12.9459 6.67615 14.7043 6.35591V5.41747C14.7043 5.03874 14.8258 4.73351 15.0688 4.50177C15.3118 4.27006 15.6222 4.15421 16 4.15421C16.3778 4.15421 16.6882 4.27006 16.9312 4.50177C17.1742 4.73351 17.2957 5.03874 17.2957 5.41747V6.35591C19.0541 6.67615 20.4946 7.51414 21.6171 8.86987C22.7396 10.2256 23.3009 11.7945 23.3009 13.5764V23.8465H26V24.9747H6ZM16 28.8209C15.4239 28.8209 14.9209 28.6153 14.491 28.2042C14.0611 27.7931 13.8462 27.2807 13.8462 26.667H18.1538C18.1538 27.2807 17.9483 27.7931 17.5372 28.2042C17.1261 28.6153 16.6137 28.8209 16 28.8209ZM9.83247 23.8465H22.1727V13.5764C22.1727 11.8545 21.5752 10.3944 20.3803 9.19611C19.1855 7.99779 17.7271 7.39864 16.0051 7.39864C14.2832 7.39864 12.8239 7.99779 11.6273 9.19611C10.4308 10.3944 9.83247 11.8545 9.83247 13.5764V23.8465Z" fill="black"/>
</svg>
