<svg width="32" height="32" viewBox="0 0 32 32" fill="none" xmlns="http://www.w3.org/2000/svg">
<path d="M5.97434 26.667C5.81394 26.667 5.67982 26.613 5.57198 26.505C5.46416 26.397 5.41024 26.2618 5.41024 26.0994C5.41024 25.9371 5.46416 25.8031 5.57198 25.6973C5.67982 25.5917 5.81394 25.5388 5.97434 25.5388H7.58971V16.5644H5.87178C5.71138 16.5644 5.57726 16.5104 5.46941 16.4024C5.36159 16.2944 5.30768 16.1592 5.30768 15.9969C5.30768 15.8345 5.36159 15.7005 5.46941 15.5948C5.57726 15.4891 5.71138 15.4362 5.87178 15.4362H7.58971V6.46188H5.97434C5.81394 6.46188 5.67982 6.40788 5.57198 6.29988C5.46416 6.19186 5.41024 6.05667 5.41024 5.89431C5.41024 5.73196 5.46416 5.59792 5.57198 5.49221C5.67982 5.38652 5.81394 5.33368 5.97434 5.33368H26C26.1598 5.33368 26.2938 5.38782 26.4019 5.49611C26.51 5.6044 26.5641 5.73859 26.5641 5.89868C26.5641 6.05932 26.51 6.19336 26.4019 6.30078C26.2938 6.40818 26.1598 6.46188 26 6.46188H24.4102V15.4362H26.1025C26.2624 15.4362 26.3963 15.4904 26.5045 15.5987C26.6126 15.707 26.6666 15.8412 26.6666 16.0012C26.6666 16.1619 26.6126 16.2959 26.5045 16.4033C26.3963 16.5107 26.2624 16.5644 26.1025 16.5644H24.4102V25.5388H26C26.1598 25.5388 26.2938 25.593 26.4019 25.7012C26.51 25.8095 26.5641 25.9437 26.5641 26.1038C26.5641 26.2645 26.51 26.3985 26.4019 26.5059C26.2938 26.6133 26.1598 26.667 26 26.667H5.97434ZM8.71791 25.5388H23.282V16.5644H22.6154C22.455 16.5644 22.3209 16.5104 22.213 16.4024C22.1052 16.2944 22.0513 16.1592 22.0513 15.9969C22.0513 15.8345 22.1052 15.7005 22.213 15.5948C22.3209 15.4891 22.455 15.4362 22.6154 15.4362H23.282V6.46188H8.71791V15.4362H9.38458C9.5444 15.4362 9.67838 15.4904 9.78651 15.5987C9.89462 15.707 9.94868 15.8412 9.94868 16.0012C9.94868 16.1619 9.89462 16.2959 9.78651 16.4033C9.67838 16.5107 9.5444 16.5644 9.38458 16.5644H8.71791V25.5388ZM16.0006 20.3525C16.8982 20.3525 17.6609 20.0425 18.2889 19.4225C18.9168 18.8026 19.2307 18.0524 19.2307 17.1718C19.2307 16.4705 19.0297 15.8732 18.6277 15.3799C18.2258 14.8866 17.3498 13.8564 16 12.2892C14.6629 13.8484 13.7902 14.8784 13.3818 15.3795C12.9734 15.8805 12.7692 16.4804 12.7692 17.179C12.7692 18.0568 13.0834 18.8051 13.7117 19.4241C14.34 20.043 15.103 20.3525 16.0006 20.3525Z" fill="black"/>
</svg>
