<svg width="32" height="32" viewBox="0 0 32 32" fill="none" xmlns="http://www.w3.org/2000/svg">
<path d="M7.28204 26.667C6.73589 26.667 6.27457 26.4788 5.89808 26.1023C5.52159 25.7258 5.33334 25.2645 5.33334 24.7183V7.28238C5.33334 6.73622 5.52159 6.2749 5.89808 5.89841C6.27457 5.52192 6.73589 5.33368 7.28204 5.33368H14.7641V6.46188H7.28204C7.07691 6.46188 6.88888 6.54735 6.71794 6.71828C6.54701 6.88921 6.46154 7.07725 6.46154 7.28238V24.7183C6.46154 24.9234 6.54701 25.1115 6.71794 25.2824C6.88888 25.4533 7.07691 25.5388 7.28204 25.5388H24.718C24.9231 25.5388 25.1111 25.4533 25.2821 25.2824C25.453 25.1115 25.5385 24.9234 25.5385 24.7183V17.2362H26.6667V24.7183C26.6667 25.2645 26.4784 25.7258 26.1019 26.1023C25.7255 26.4788 25.2641 26.667 24.718 26.667H7.28204ZM12.9197 19.8892L12.1162 19.0807L24.7351 6.46188H18.2513V5.33368H26.6667V13.7491H25.5385V7.27041L12.9197 19.8892Z" fill="black"/>
</svg>
