<svg width="32" height="32" viewBox="0 0 32 32" fill="none" xmlns="http://www.w3.org/2000/svg">
<path d="M24.4359 18.0004V13.8978H20.3333V12.7696H24.4359V8.66705H25.5641V12.7696H29.6666V13.8978H25.5641V18.0004H24.4359ZM12 15.1747C10.9 15.1747 9.97538 14.8002 9.22623 14.051C8.47709 13.3019 8.10253 12.3773 8.10253 11.2773C8.10253 10.1659 8.47709 9.23849 9.22623 8.49505C9.97538 7.75161 10.9 7.37988 12 7.37988C13.1 7.37988 14.0245 7.75161 14.7737 8.49505C15.5228 9.23849 15.8974 10.1659 15.8974 11.2773C15.8974 12.3773 15.5228 13.3019 14.7737 14.051C14.0245 14.8002 13.1 15.1747 12 15.1747ZM2.66663 24.8209V22.8038C2.66663 22.25 2.82688 21.7333 3.14739 21.2538C3.4679 20.7743 3.91164 20.4038 4.47859 20.1423C5.82675 19.532 7.11279 19.0823 8.33673 18.7931C9.56066 18.5039 10.7817 18.3594 12 18.3594C13.2182 18.3594 14.4384 18.5039 15.6606 18.7931C16.8828 19.0823 18.168 19.532 19.5162 20.1423C20.0831 20.4186 20.5277 20.7928 20.85 21.2649C21.1722 21.737 21.3333 22.25 21.3333 22.8038V24.8209H2.66663Z" fill="black"/>
</svg>
