<svg width="32" height="32" viewBox="0 0 32 32" fill="none" xmlns="http://www.w3.org/2000/svg">
<path d="M16 15.1747C14.9 15.1747 13.9754 14.8001 13.2263 14.051C12.4771 13.3019 12.1026 12.3744 12.1026 11.2687C12.1026 10.163 12.4771 9.23846 13.2263 8.49502C13.9754 7.75158 14.9 7.37985 16 7.37985C17.1 7.37985 18.0246 7.75158 18.7737 8.49502C19.5229 9.23846 19.8974 10.163 19.8974 11.2687C19.8974 12.3744 19.5229 13.3019 18.7737 14.051C18.0246 14.8001 17.1 15.1747 16 15.1747ZM6.66666 24.8209V22.8038C6.66666 22.2283 6.83233 21.7062 7.16366 21.2376C7.495 20.7689 7.93332 20.4038 8.47863 20.1423C9.77663 19.5536 11.0483 19.1093 12.2935 18.8093C13.5387 18.5093 14.774 18.3593 15.9995 18.3593C17.2249 18.3593 18.4595 18.5102 19.7034 18.8119C20.9473 19.1136 22.2151 19.5597 23.5069 20.1501C24.0645 20.4087 24.5083 20.7718 24.8383 21.2393C25.1683 21.7068 25.3333 22.2283 25.3333 22.8038V24.8209H6.66666ZM7.79486 23.6927H24.2051V22.8038C24.2051 22.4796 24.0973 22.1696 23.8816 21.8739C23.666 21.5781 23.3698 21.3314 22.9932 21.1337C21.8273 20.5656 20.6679 20.1492 19.5149 19.8846C18.3618 19.6199 17.1902 19.4875 16 19.4875C14.8098 19.4875 13.6336 19.6199 12.4715 19.8846C11.3093 20.1492 10.1527 20.5656 9.0017 21.1337C8.62505 21.3314 8.32975 21.5781 8.1158 21.8739C7.90184 22.1696 7.79486 22.4796 7.79486 22.8038V23.6927ZM16 14.0465C16.7766 14.0465 17.4323 13.7791 17.9671 13.2444C18.5019 12.7096 18.7692 12.0539 18.7692 11.2773C18.7692 10.5006 18.5019 9.84494 17.9671 9.31018C17.4323 8.77543 16.7766 8.50805 16 8.50805C15.2234 8.50805 14.5677 8.77543 14.0329 9.31018C13.4981 9.84494 13.2308 10.5006 13.2308 11.2773C13.2308 12.0539 13.4981 12.7096 14.0329 13.2444C14.5677 13.7791 15.2234 14.0465 16 14.0465Z" fill="black"/>
</svg>
