<svg width="32" height="32" viewBox="0 0 32 32" fill="none" xmlns="http://www.w3.org/2000/svg">
<path d="M21.5624 13.7679V12.6397H28.1539V13.7679H21.5624ZM12 15.1747C10.9 15.1747 9.97542 14.8002 9.22626 14.051C8.47713 13.3019 8.10256 12.3773 8.10256 11.2773C8.10256 10.1659 8.47713 9.23849 9.22626 8.49505C9.97542 7.75161 10.9 7.37988 12 7.37988C13.1 7.37988 14.0246 7.75161 14.7737 8.49505C15.5229 9.23849 15.8974 10.1659 15.8974 11.2773C15.8974 12.3773 15.5229 13.3019 14.7737 14.051C14.0246 14.8002 13.1 15.1747 12 15.1747ZM2.66666 24.8209V22.8038C2.66666 22.25 2.82692 21.7333 3.14743 21.2538C3.46794 20.7743 3.91168 20.4038 4.47863 20.1423C5.82679 19.532 7.11283 19.0823 8.33676 18.7931C9.5607 18.5039 10.7818 18.3594 12 18.3594C13.2182 18.3594 14.4384 18.5039 15.6607 18.7931C16.8829 19.0823 18.1681 19.532 19.5162 20.1423C20.0832 20.4186 20.5278 20.7928 20.85 21.2649C21.1722 21.737 21.3333 22.25 21.3333 22.8038V24.8209H2.66666Z" fill="black"/>
</svg>
