<svg width="32" height="32" viewBox="0 0 32 32" fill="none" xmlns="http://www.w3.org/2000/svg">
<path d="M24.4359 18.0004V13.8978H20.3333V12.7696H24.4359V8.66705H25.5641V12.7696H29.6666V13.8978H25.5641V18.0004H24.4359ZM12 15.1747C10.9 15.1747 9.97538 14.8002 9.22623 14.051C8.47709 13.3019 8.10253 12.3745 8.10253 11.2688C8.10253 10.1631 8.47709 9.23849 9.22623 8.49505C9.97538 7.75161 10.9 7.37988 12 7.37988C13.1 7.37988 14.0245 7.75161 14.7737 8.49505C15.5228 9.23849 15.8974 10.1631 15.8974 11.2688C15.8974 12.3745 15.5228 13.3019 14.7737 14.051C14.0245 14.8002 13.1 15.1747 12 15.1747ZM2.66663 24.8209V22.8038C2.66663 22.25 2.82688 21.7333 3.14739 21.2538C3.4679 20.7743 3.91164 20.4038 4.47859 20.1423C5.82675 19.532 7.11124 19.0823 8.33206 18.7931C9.5529 18.5039 10.774 18.3594 11.9953 18.3594C13.2166 18.3594 14.4384 18.5039 15.6606 18.7931C16.8828 19.0823 18.168 19.532 19.5162 20.1423C20.0831 20.4186 20.5277 20.7928 20.85 21.2649C21.1722 21.737 21.3333 22.25 21.3333 22.8038V24.8209H2.66663ZM3.79483 23.6927H20.2051V22.8038C20.2051 22.4796 20.0981 22.1696 19.8842 21.8739C19.6702 21.5782 19.3732 21.3314 18.9931 21.1337C17.7806 20.5588 16.6132 20.1407 15.4909 19.8794C14.3686 19.6182 13.205 19.4875 12 19.4875C10.7949 19.4875 9.62759 19.6182 8.49793 19.8794C7.36824 20.1407 6.20281 20.5588 5.00166 21.1337C4.61021 21.3314 4.31121 21.5782 4.10466 21.8739C3.8981 22.1696 3.79483 22.4796 3.79483 22.8038V23.6927ZM12 14.0465C12.7766 14.0465 13.4323 13.7792 13.9671 13.2444C14.5018 12.7096 14.7692 12.0539 14.7692 11.2773C14.7692 10.5007 14.5018 9.84497 13.9671 9.31022C13.4323 8.77546 12.7766 8.50808 12 8.50808C11.2233 8.50808 10.5676 8.77546 10.0329 9.31022C9.4981 9.84497 9.23073 10.5007 9.23073 11.2773C9.23073 12.0539 9.4981 12.7096 10.0329 13.2444C10.5676 13.7792 11.2233 14.0465 12 14.0465Z" fill="black"/>
</svg>
