<svg width="32" height="32" viewBox="0 0 32 32" fill="none" xmlns="http://www.w3.org/2000/svg">
<path d="M16 15.1747C14.9 15.1747 13.9754 14.8001 13.2263 14.051C12.4771 13.3019 12.1026 12.3773 12.1026 11.2773C12.1026 10.1659 12.4771 9.23846 13.2263 8.49502C13.9754 7.75158 14.9 7.37985 16 7.37985C17.1 7.37985 18.0246 7.75158 18.7737 8.49502C19.5229 9.23846 19.8974 10.1659 19.8974 11.2773C19.8974 12.3773 19.5229 13.3019 18.7737 14.051C18.0246 14.8001 17.1 15.1747 16 15.1747ZM6.66667 24.8209V22.8038C6.66667 22.2283 6.83234 21.7062 7.16367 21.2376C7.49501 20.7689 7.93333 20.4038 8.47864 20.1423C9.77664 19.5536 11.0484 19.1093 12.294 18.8093C13.5396 18.5093 14.7749 18.3593 16 18.3593C17.2251 18.3593 18.4596 18.5102 19.7034 18.8119C20.9473 19.1136 22.2182 19.5571 23.5162 20.1423C24.065 20.4038 24.505 20.7689 24.8363 21.2376C25.1677 21.7062 25.3333 22.2283 25.3333 22.8038V24.8209H6.66667Z" fill="black"/>
</svg>
