<svg width="32" height="32" viewBox="0 0 32 32" fill="none" xmlns="http://www.w3.org/2000/svg">
<path d="M21.5624 13.7679V12.6397H28.1539V13.7679H21.5624ZM12 15.1747C10.9 15.1747 9.97543 14.8002 9.22627 14.051C8.47714 13.3019 8.10257 12.3745 8.10257 11.2688C8.10257 10.1631 8.47714 9.23849 9.22627 8.49505C9.97543 7.75161 10.9 7.37988 12 7.37988C13.1 7.37988 14.0246 7.75161 14.7737 8.49505C15.5229 9.23849 15.8974 10.1631 15.8974 11.2688C15.8974 12.3745 15.5229 13.3019 14.7737 14.051C14.0246 14.8002 13.1 15.1747 12 15.1747ZM2.66667 24.8209V22.8038C2.66667 22.25 2.82693 21.7333 3.14744 21.2538C3.46795 20.7743 3.91168 20.4038 4.47864 20.1423C5.82679 19.532 7.11128 19.0823 8.33211 18.7931C9.55295 18.5039 10.774 18.3594 11.9954 18.3594C13.2167 18.3594 14.4385 18.5039 15.6607 18.7931C16.8829 19.0823 18.1681 19.532 19.5162 20.1423C20.0832 20.4186 20.5278 20.7928 20.85 21.2649C21.1722 21.737 21.3333 22.25 21.3333 22.8038V24.8209H2.66667ZM3.79487 23.6927H20.2051V22.8038C20.2051 22.4796 20.0982 22.1696 19.8842 21.8739C19.6702 21.5782 19.3732 21.3314 18.9932 21.1337C17.7806 20.5588 16.6132 20.1407 15.4909 19.8794C14.3687 19.6182 13.205 19.4875 12 19.4875C10.795 19.4875 9.62764 19.6182 8.49797 19.8794C7.36828 20.1407 6.20286 20.5588 5.0017 21.1337C4.61026 21.3314 4.31126 21.5782 4.10471 21.8739C3.89815 22.1696 3.79487 22.4796 3.79487 22.8038V23.6927ZM12 14.0465C12.7767 14.0465 13.4324 13.7792 13.9671 13.2444C14.5019 12.7096 14.7692 12.0539 14.7692 11.2773C14.7692 10.5007 14.5019 9.84497 13.9671 9.31022C13.4324 8.77546 12.7767 8.50808 12 8.50808C11.2234 8.50808 10.5677 8.77546 10.0329 9.31022C9.49815 9.84497 9.23077 10.5007 9.23077 11.2773C9.23077 12.0539 9.49815 12.7096 10.0329 13.2444C10.5677 13.7792 11.2234 14.0465 12 14.0465Z" fill="black"/>
</svg>
