<svg width="32" height="32" viewBox="0 0 32 32" fill="none" xmlns="http://www.w3.org/2000/svg">
<path d="M16.5641 15.4363H26.8615C26.7185 12.6488 25.6643 10.2618 23.6987 8.27513C21.7332 6.28853 19.355 5.2431 16.5641 5.13883V15.4363ZM15.4359 26.8619V5.13883C12.559 5.26474 10.1218 6.37742 8.12437 8.47687C6.12692 10.5763 5.1282 13.0841 5.1282 16.0004C5.1282 18.9166 6.12692 21.4244 8.12437 23.5239C10.1218 25.6233 12.559 26.736 15.4359 26.8619ZM16.5641 26.8619C19.355 26.7593 21.7308 25.7143 23.6915 23.7269C25.6522 21.7394 26.7088 19.3519 26.8615 16.5645H16.5641V26.8619ZM16.0045 28.0004C14.3451 28.0004 12.785 27.6855 11.3241 27.0557C9.86331 26.426 8.59259 25.5713 7.51197 24.4917C6.43137 23.4121 5.57589 22.1425 4.94553 20.6831C4.31518 19.2236 4 17.6642 4 16.0048C4 14.3454 4.31488 12.7853 4.94463 11.3245C5.57441 9.86368 6.4291 8.59296 7.5087 7.51233C8.5883 6.43173 9.85782 5.57626 11.3173 4.9459C12.7767 4.31554 14.3362 4.00037 15.9955 4.00037C17.6549 4.00037 19.2141 4.31618 20.6731 4.9478C22.132 5.57942 23.4021 6.43583 24.4833 7.51703C25.5645 8.59823 26.4209 9.86729 27.0526 11.3242C27.6842 12.7811 28 14.3425 28 16.0085C28 17.6578 27.6851 19.2111 27.0554 20.6685C26.4256 22.126 25.5709 23.3978 24.4913 24.4842C23.4117 25.5706 22.1422 26.4282 20.6827 27.0571C19.2233 27.6859 17.6638 28.0004 16.0045 28.0004Z" fill="black"/>
</svg>
