<svg width="32" height="32" viewBox="0 0 32 32" fill="none" xmlns="http://www.w3.org/2000/svg">
<path d="M13.3658 20.667L20.6667 16.0004L13.3658 11.3337V20.667ZM16.0045 28.0004C14.3485 28.0004 12.7929 27.6855 11.3378 27.0557C9.8827 26.426 8.61112 25.5676 7.5231 24.4806C6.43508 23.3936 5.57589 22.1232 4.94553 20.6694C4.31518 19.2156 4 17.6608 4 16.0048C4 14.3454 4.31488 12.7853 4.94463 11.3245C5.57441 9.86368 6.4328 8.59296 7.5198 7.51233C8.6068 6.43173 9.87719 5.57626 11.331 4.9459C12.7847 4.31554 14.3396 4.00037 15.9955 4.00037C17.6549 4.00037 19.215 4.31524 20.6759 4.945C22.1367 5.57478 23.4074 6.42947 24.488 7.50907C25.5686 8.58867 26.4241 9.85819 27.0545 11.3176C27.6848 12.7771 28 14.3365 28 15.9959C28 17.6519 27.6851 19.2074 27.0554 20.6625C26.4256 22.1177 25.5709 23.3892 24.4913 24.4773C23.4117 25.5653 22.1422 26.4245 20.6827 27.0548C19.2233 27.6852 17.6638 28.0004 16.0045 28.0004Z" fill="black"/>
</svg>
