<svg width="40" height="40" viewBox="0 0 40 40" fill="none" xmlns="http://www.w3.org/2000/svg">
<path d="M19.995 35.8338C17.8046 35.8338 15.7471 35.4232 13.8223 34.6019C11.8975 33.7806 10.2177 32.6525 8.78292 31.2177C7.34805 29.7828 6.21998 28.103 5.39871 26.1783C4.5774 24.2535 4.16675 22.1959 4.16675 20.0056C4.16675 17.8002 4.57826 15.7365 5.40129 13.8143C6.22429 11.8922 7.3516 10.2153 8.78321 8.7837C10.2148 7.35209 11.8949 6.22478 13.8235 5.40178C15.7521 4.57875 17.8109 4.16724 20 4.16724C20.2901 4.16724 20.5371 4.26928 20.7411 4.47336C20.945 4.67745 21.047 4.92459 21.047 5.21478C21.047 5.505 20.945 5.75196 20.7411 5.95565C20.5371 6.15935 20.2901 6.26119 20 6.26119C16.2002 6.26119 12.9603 7.60113 10.2805 10.281C7.60064 12.9608 6.26071 16.2007 6.26071 20.0005C6.26071 23.8004 7.60064 27.0402 10.2805 29.7201C12.9603 32.3999 16.2002 33.7399 20 33.7399C23.7999 33.7399 27.0397 32.3999 29.7196 29.7201C32.3994 27.0402 33.7394 23.8004 33.7394 20.0005C33.7394 19.7105 33.8414 19.4635 34.0455 19.2595C34.2495 19.0555 34.4967 18.9536 34.7869 18.9536C35.0771 18.9536 35.3241 19.0555 35.5277 19.2595C35.7315 19.4635 35.8333 19.7105 35.8333 20.0005C35.8333 22.1897 35.4218 24.2485 34.5988 26.1771C33.7758 28.1057 32.6485 29.7858 31.2169 31.2174C29.7853 32.649 28.1084 33.7763 26.1862 34.5993C24.2641 35.4223 22.2003 35.8338 19.995 35.8338Z" fill="black"/>
</svg>
