<svg width="32" height="32" viewBox="0 0 32 32" fill="none" xmlns="http://www.w3.org/2000/svg">
<path d="M10.6667 28.0004C9.56669 28.0004 8.62502 27.6087 7.84169 26.8254C7.05835 26.042 6.66669 25.1004 6.66669 24.0004V12.3081C6.66669 11.2465 7.0231 10.3388 7.73592 9.585C8.44874 8.83113 9.3231 8.41831 10.359 8.34653V5.94907C10.359 5.422 10.552 4.96546 10.9381 4.57943C11.3241 4.19339 11.7806 4.00037 12.3077 4.00037H19.6924C20.2194 4.00037 20.6759 4.19339 21.062 4.57943C21.448 4.96546 21.6411 5.422 21.6411 5.94907V8.34653C22.6769 8.41831 23.5513 8.83113 24.2641 9.585C24.9769 10.3388 25.3334 11.2465 25.3334 12.3081V24.0004C25.3334 25.1004 24.9417 26.042 24.1584 26.8254C23.375 27.6087 22.4334 28.0004 21.3334 28.0004H10.6667ZM7.79489 17.6927H24.2052V12.3081C24.2052 11.5072 23.9267 10.8284 23.3699 10.2715C22.8131 9.71469 22.1342 9.43627 21.3334 9.43627H10.6667C9.86582 9.43627 9.18698 9.71469 8.63015 10.2715C8.07331 10.8284 7.79489 11.5072 7.79489 12.3081V17.6927ZM10.6667 26.8722H21.3334C22.1342 26.8722 22.8131 26.5937 23.3699 26.0369C23.9267 25.4801 24.2052 24.8012 24.2052 24.0004V18.8209H7.79489V24.0004C7.79489 24.7987 8.07331 25.4769 8.63015 26.035C9.18698 26.5931 9.86582 26.8722 10.6667 26.8722ZM17.0257 8.30807H20.5129V5.94907C20.5129 5.70976 20.4359 5.51318 20.2821 5.35933C20.1282 5.20549 19.9317 5.12857 19.6924 5.12857H12.3077C12.0684 5.12857 11.8718 5.20549 11.718 5.35933C11.5641 5.51318 11.4872 5.70976 11.4872 5.94907V8.30807H14.9744C14.9744 8.03285 15.0765 7.7931 15.2808 7.58883C15.4851 7.38454 15.7248 7.2824 16 7.2824C16.2752 7.2824 16.515 7.38454 16.7193 7.58883C16.9235 7.7931 17.0257 8.03285 17.0257 8.30807Z" fill="black"/>
</svg>
