<svg width="32" height="32" viewBox="0 0 32 32" fill="none" xmlns="http://www.w3.org/2000/svg">
<path d="M16 21.1935C17.4456 21.1935 18.6725 20.6894 19.6808 19.6811C20.689 18.6729 21.1932 17.4459 21.1932 16.0004C21.1932 14.5548 20.689 13.3279 19.6808 12.3196C18.6725 11.3113 17.4456 10.8072 16 10.8072C14.5544 10.8072 13.3275 11.3113 12.3192 12.3196C11.311 13.3279 10.8068 14.5548 10.8068 16.0004C10.8068 17.4459 11.311 18.6729 12.3192 19.6811C13.3275 20.6894 14.5544 21.1935 16 21.1935ZM16.0045 28.0004C14.3485 28.0004 12.7929 27.6855 11.3378 27.0557C9.8827 26.426 8.61112 25.5676 7.5231 24.4806C6.43508 23.3936 5.57589 22.1232 4.94553 20.6694C4.31518 19.2156 4 17.6608 4 16.0048C4 14.3454 4.31488 12.7853 4.94463 11.3245C5.57441 9.86368 6.4328 8.59296 7.5198 7.51233C8.6068 6.43173 9.87719 5.57626 11.331 4.9459C12.7847 4.31554 14.3396 4.00037 15.9955 4.00037C17.6549 4.00037 19.215 4.31524 20.6759 4.945C22.1367 5.57478 23.4074 6.42947 24.488 7.50907C25.5686 8.58867 26.4241 9.85819 27.0545 11.3176C27.6848 12.7771 28 14.3365 28 15.9959C28 17.6519 27.6851 19.2074 27.0554 20.6625C26.4256 22.1177 25.5709 23.3892 24.4913 24.4773C23.4117 25.5653 22.1422 26.4245 20.6827 27.0548C19.2233 27.6852 17.6638 28.0004 16.0045 28.0004ZM16 26.8722C19.0279 26.8722 21.5969 25.8163 23.7068 23.7046C25.8168 21.593 26.8718 19.0249 26.8718 16.0004C26.8718 12.9725 25.8168 10.4035 23.7068 8.29353C21.5969 6.18355 19.0279 5.12857 16 5.12857C12.9755 5.12857 10.4074 6.18355 8.29573 8.29353C6.18404 10.4035 5.1282 12.9725 5.1282 16.0004C5.1282 19.0249 6.18404 21.593 8.29573 23.7046C10.4074 25.8163 12.9755 26.8722 16 26.8722Z" fill="black"/>
</svg>
