<svg width="32" height="32" viewBox="0 0 32 32" fill="none" xmlns="http://www.w3.org/2000/svg">
<path d="M13.2906 24.667C11.347 24.667 9.66734 24.0266 8.25167 22.7457C6.83601 21.4648 6.12817 19.8739 6.12817 17.973C6.12817 16.0836 6.83601 14.4984 8.25167 13.2175C9.66734 11.9366 11.347 11.2961 13.2906 11.2961H23.7008L19.4649 7.06021L20.2683 6.25677L25.8718 11.8602L20.2683 17.4636L19.4649 16.6602L23.7008 12.4243H13.2854C11.6393 12.4243 10.2229 12.9511 9.03631 14.0046C7.84969 15.0582 7.25637 16.381 7.25637 17.973C7.25637 19.5764 7.84969 20.9049 9.03631 21.9585C10.2229 23.0121 11.6393 23.5388 13.2854 23.5388H22.1282V24.667H13.2906Z" fill="black"/>
</svg>
