<svg width="32" height="32" viewBox="0 0 32 32" fill="none" xmlns="http://www.w3.org/2000/svg">
<path d="M16.1081 25.3337C13.5136 25.3337 11.3086 24.4262 9.49283 22.6113C7.67709 20.7963 6.76923 18.594 6.76923 16.0044C6.76923 13.4148 7.67709 11.2112 9.49283 9.39352C11.3086 7.57586 13.5118 6.66702 16.1026 6.66702C17.7988 6.66702 19.3402 7.06517 20.7265 7.86146C22.1128 8.65777 23.2382 9.75363 24.1026 11.1491V6.66702H25.2308V13.3713H18.5265V12.2431H23.4598C22.7225 10.8881 21.7127 9.80806 20.4303 9.00292C19.148 8.19779 17.7054 7.79522 16.1026 7.79522C13.8135 7.79522 11.8737 8.59028 10.2832 10.1804C8.69268 11.7705 7.89743 13.7098 7.89743 15.9984C7.89743 18.2869 8.69329 20.2269 10.285 21.8183C11.8768 23.4098 13.8181 24.2055 16.1089 24.2055C17.8591 24.2055 19.4464 23.7049 20.8709 22.7038C22.2954 21.7026 23.2946 20.3804 23.8684 18.7371H25.0513C24.4598 20.7189 23.3398 22.3137 21.6913 23.5217C20.0428 24.7297 18.1817 25.3337 16.1081 25.3337Z" fill="black"/>
</svg>
