<svg width="32" height="32" viewBox="0 0 32 32" fill="none" xmlns="http://www.w3.org/2000/svg">
<path d="M26.6666 9.86531V24.7183C26.6666 25.2645 26.4784 25.7258 26.1019 26.1023C25.7254 26.4788 25.2641 26.667 24.7179 26.667H7.28201C6.73586 26.667 6.27454 26.4788 5.89805 26.1023C5.52156 25.7258 5.33331 25.2645 5.33331 24.7183V7.28238C5.33331 6.73622 5.52156 6.2749 5.89805 5.89841C6.27454 5.52192 6.73586 5.33368 7.28201 5.33368H22.135L26.6666 9.86531ZM25.5384 10.3644L21.6359 6.46188H7.28201C7.0427 6.46188 6.84612 6.5388 6.69228 6.69265C6.53844 6.84649 6.46151 7.04307 6.46151 7.28238V24.7183C6.46151 24.9576 6.53844 25.1542 6.69228 25.308C6.84612 25.4619 7.0427 25.5388 7.28201 25.5388H24.7179C24.9573 25.5388 25.1538 25.4619 25.3077 25.308C25.4615 25.1542 25.5384 24.9576 25.5384 24.7183V10.3644ZM15.9947 21.9918C16.6818 21.9918 17.271 21.7479 17.7622 21.2601C18.2535 20.7724 18.4991 20.1849 18.4991 19.4979C18.4991 18.8108 18.2552 18.2217 17.7674 17.7304C17.2797 17.2391 16.6923 16.9935 16.0052 16.9935C15.3181 16.9935 14.729 17.2374 14.2377 17.7252C13.7465 18.213 13.5008 18.8004 13.5008 19.4874C13.5008 20.1745 13.7447 20.7636 14.2325 21.2549C14.7203 21.7462 15.3077 21.9918 15.9947 21.9918ZM8.95551 12.7832H18.8256V8.95588H8.95551V12.7832ZM6.46151 10.3644V25.5388V6.46188V10.3644Z" fill="black"/>
</svg>
