<svg width="32" height="32" viewBox="0 0 32 32" fill="none" xmlns="http://www.w3.org/2000/svg">
<path d="M21.0239 21.8482L21.8427 21.0294L16.5966 15.7604V9.19867H15.4684V16.2397L21.0239 21.8482ZM16.0045 28.0004C14.3485 28.0004 12.7929 27.6855 11.3378 27.0557C9.8827 26.426 8.61112 25.5676 7.5231 24.4806C6.43508 23.3936 5.57589 22.1232 4.94553 20.6694C4.31518 19.2156 4 17.6608 4 16.0048C4 14.3489 4.31488 12.7933 4.94463 11.3382C5.57441 9.88307 6.4328 8.61149 7.5198 7.52347C8.6068 6.43544 9.87719 5.57626 11.331 4.9459C12.7847 4.31554 14.3396 4.00037 15.9955 4.00037C17.6515 4.00037 19.2071 4.31524 20.6622 4.945C22.1173 5.57478 23.3889 6.43317 24.4769 7.52017C25.5649 8.60717 26.4241 9.87756 27.0545 11.3313C27.6848 12.7851 28 14.3399 28 15.9959C28 17.6519 27.6851 19.2074 27.0554 20.6625C26.4256 22.1177 25.5672 23.3892 24.4802 24.4773C23.3932 25.5653 22.1228 26.4245 20.669 27.0548C19.2153 27.6852 17.6604 28.0004 16.0045 28.0004ZM16 26.8722C19.0023 26.8722 21.5648 25.8108 23.6876 23.688C25.8104 21.5652 26.8718 19.0027 26.8718 16.0004C26.8718 12.9981 25.8104 10.4355 23.6876 8.31277C21.5648 6.18997 19.0023 5.12857 16 5.12857C12.9977 5.12857 10.4352 6.18997 8.3124 8.31277C6.1896 10.4355 5.1282 12.9981 5.1282 16.0004C5.1282 19.0027 6.1896 21.5652 8.3124 23.688C10.4352 25.8108 12.9977 26.8722 16 26.8722Z" fill="black"/>
</svg>
