<svg width="32" height="32" viewBox="0 0 32 32" fill="none" xmlns="http://www.w3.org/2000/svg">
<path d="M26.1094 26.867L17.6359 18.3935C16.9737 18.9802 16.2051 19.4297 15.3301 19.7421C14.4551 20.0545 13.5752 20.2106 12.6906 20.2106C10.5627 20.2106 8.76174 19.4751 7.2878 18.0041C5.81387 16.5331 5.0769 14.7384 5.0769 12.6199C5.0769 10.5015 5.81242 8.70535 7.28344 7.23157C8.75444 5.75777 10.5487 5.02087 12.6663 5.02087C14.7839 5.02087 16.5828 5.75678 18.0632 7.22861C19.5436 8.70043 20.2838 10.4952 20.2838 12.6129C20.2838 13.5322 20.1197 14.4297 19.7915 15.3055C19.4633 16.1813 19.0142 16.9411 18.4444 17.585L26.9231 26.0363L26.1094 26.867ZM12.6855 19.0824C14.4998 19.0824 16.0317 18.4592 17.2813 17.2128C18.5308 15.9663 19.1556 14.434 19.1556 12.6157C19.1556 10.7975 18.5308 9.26519 17.2813 8.01874C16.0317 6.7723 14.4998 6.14907 12.6855 6.14907C10.8683 6.14907 9.33394 6.7723 8.0824 8.01874C6.83089 9.26519 6.20514 10.7975 6.20514 12.6157C6.20514 14.434 6.83089 15.9663 8.0824 17.2128C9.33394 18.4592 10.8683 19.0824 12.6855 19.0824Z" fill="black"/>
</svg>
