<svg width="32" height="32" viewBox="0 0 32 32" fill="none" xmlns="http://www.w3.org/2000/svg">
<path d="M13.6906 28.0004L13.1709 24.1713C12.702 24.0249 12.1896 23.797 11.6338 23.4876C11.0779 23.1781 10.6065 22.8462 10.2197 22.4918L6.68546 24.0593L4.37093 19.979L7.48803 17.6559C7.44529 17.3967 7.41025 17.125 7.38289 16.841C7.35554 16.5569 7.34186 16.2853 7.34186 16.026C7.34186 15.7838 7.35554 15.5222 7.38289 15.241C7.41025 14.9598 7.44529 14.661 7.48803 14.3448L4.37093 12.0046L6.68546 7.99267L10.194 9.51747C10.6322 9.15736 11.1125 8.82687 11.635 8.526C12.1575 8.22515 12.661 8.00037 13.1453 7.85163L13.6906 4.00037H18.3094L18.8291 7.85507C19.3721 8.05278 19.8768 8.28411 20.3432 8.54907C20.8095 8.81402 21.263 9.13682 21.7034 9.51747L25.3316 7.99267L27.6291 12.0046L24.4094 14.3944C24.4863 14.6912 24.5328 14.9717 24.5487 15.2358C24.5647 15.4999 24.5727 15.7548 24.5727 16.0004C24.5727 16.2289 24.5604 16.4743 24.5359 16.7367C24.5114 16.9991 24.4684 17.2987 24.4068 17.6354L27.5923 19.979L25.2778 24.0593L21.7034 22.4662C21.2482 22.8548 20.7815 23.1947 20.3034 23.4858C19.8254 23.777 19.3339 23.997 18.8291 24.1457L18.3094 28.0004H13.6906ZM15.9368 19.2311C16.8416 19.2311 17.6063 18.9189 18.2308 18.2944C18.8553 17.6699 19.1675 16.9052 19.1675 16.0004C19.1675 15.0955 18.8553 14.3308 18.2308 13.7063C17.6063 13.0818 16.8416 12.7696 15.9368 12.7696C15.0416 12.7696 14.2793 13.0818 13.65 13.7063C13.0206 14.3308 12.706 15.0955 12.706 16.0004C12.706 16.9052 13.0206 17.6699 13.65 18.2944C14.2793 18.9189 15.0416 19.2311 15.9368 19.2311ZM15.9368 18.1029C15.3561 18.1029 14.8605 17.8977 14.45 17.4871C14.0395 17.0766 13.8342 16.581 13.8342 16.0004C13.8342 15.4197 14.0395 14.9242 14.45 14.5136C14.8605 14.1031 15.3561 13.8978 15.9368 13.8978C16.5288 13.8978 17.0272 14.1031 17.4321 14.5136C17.8369 14.9242 18.0393 15.4197 18.0393 16.0004C18.0393 16.581 17.8369 17.0766 17.4321 17.4871C17.0272 17.8977 16.5288 18.1029 15.9368 18.1029ZM14.6291 26.8722H17.3342L17.8265 23.197C18.5051 23.0192 19.1241 22.7698 19.6833 22.4487C20.2426 22.1276 20.81 21.6935 21.3855 21.1465L24.7812 22.6072L26.112 20.3029L23.1188 18.073C23.2151 17.6719 23.2849 17.3073 23.3282 16.9794C23.3715 16.6515 23.3932 16.3251 23.3932 16.0004C23.3932 15.6471 23.3724 15.315 23.3308 15.0042C23.2892 14.6934 23.2185 14.3516 23.1188 13.979L26.1633 11.6978L24.8325 9.39353L21.3598 10.8568C20.9416 10.3924 20.3967 9.95749 19.7252 9.55207C19.0537 9.14665 18.4123 8.89721 17.8009 8.80377L17.3709 5.12857H14.6316L14.2162 8.77813C13.5114 8.91831 12.8694 9.15321 12.2902 9.48283C11.711 9.81248 11.141 10.2611 10.5803 10.8286L7.16749 9.39353L5.83673 11.6978L8.82136 13.8995C8.71367 14.2169 8.63675 14.5533 8.59059 14.9089C8.54444 15.2645 8.52136 15.6368 8.52136 16.026C8.52136 16.3793 8.54444 16.7252 8.59059 17.0636C8.63675 17.4021 8.70513 17.7385 8.79573 18.073L5.83673 20.3029L7.16749 22.6072L10.5547 21.1696C11.0846 21.7126 11.642 22.1461 12.2269 22.47C12.8118 22.794 13.4664 23.0448 14.1906 23.2226L14.6291 26.8722Z" fill="black"/>
</svg>
