<svg width="32" height="32" viewBox="0 0 32 32" fill="none" xmlns="http://www.w3.org/2000/svg">
<path d="M14.2359 20.4106C14.6347 20.8152 15.1789 20.9945 15.8684 20.9487C16.5578 20.9028 17.0547 20.6528 17.359 20.1987L24.2889 10.4021L14.4786 17.3132C14.0108 17.6289 13.7537 18.1229 13.7073 18.7952C13.6608 19.4676 13.837 20.0061 14.2359 20.4106ZM15.9726 6.67218C17.1915 6.67218 18.3309 6.83044 19.391 7.14695C20.4511 7.46348 21.5071 7.96619 22.559 8.65508L21.5761 9.37815C20.7162 8.84766 19.8104 8.45208 18.8586 8.19141C17.9067 7.93073 16.9461 7.80038 15.9769 7.80038C12.9645 7.80038 10.4032 8.86253 8.29323 10.9868C6.18321 13.1111 5.1282 15.6841 5.1282 18.7058C5.1282 19.66 5.25769 20.6098 5.51667 21.5551C5.77564 22.5004 6.1491 23.3839 6.63703 24.2055H25.3077C25.8154 23.3793 26.1959 22.4844 26.4491 21.5209C26.7024 20.5574 26.8291 19.5833 26.8291 18.5987C26.8291 17.7554 26.7107 16.8414 26.4739 15.8568C26.2372 14.8722 25.8473 13.9719 25.3043 13.1559L26.0376 12.173C26.7487 13.3394 27.2414 14.4277 27.5158 15.438C27.7902 16.4482 27.9373 17.4841 27.9573 18.5457C27.9658 19.7029 27.8402 20.7827 27.5803 21.785C27.3205 22.7873 26.9162 23.7844 26.3675 24.7764C26.245 24.9827 26.096 25.1272 25.9205 25.2098C25.745 25.2924 25.5282 25.3337 25.2701 25.3337H6.67007C6.46056 25.3337 6.25903 25.2764 6.0655 25.1619C5.87197 25.0474 5.71509 24.8847 5.59487 24.6739C5.15384 23.8859 4.77778 23.0051 4.46667 22.0316C4.15556 21.0581 4 19.9491 4 18.7046C4 17.0653 4.31087 15.5165 4.9326 14.0581C5.55433 12.5997 6.4022 11.3236 7.4762 10.2299C8.55018 9.13615 9.81899 8.26976 11.2826 7.63071C12.7463 6.99169 14.3096 6.67218 15.9726 6.67218Z" fill="black"/>
</svg>
