<svg width="32" height="32" viewBox="0 0 32 32" fill="none" xmlns="http://www.w3.org/2000/svg">
<path d="M6.2752 25.7952V24.667H10.6085L9.20857 23.3047C8.09743 22.2596 7.28489 21.1354 6.77093 19.932C6.25698 18.7286 6 17.4591 6 16.1234C6 14.0215 6.5953 12.1096 7.7859 10.388C8.9765 8.66633 10.5584 7.42203 12.5316 6.65507V7.83797C10.8929 8.55137 9.58262 9.65949 8.60087 11.1623C7.61909 12.6652 7.1282 14.3189 7.1282 16.1234C7.1282 17.3388 7.35669 18.4698 7.81367 19.5162C8.27064 20.5626 8.94587 21.5109 9.83933 22.3611L11.4034 23.8448V19.5388H12.5316V25.7952H6.2752ZM19.4735 25.3508V24.1628C21.1271 23.4494 22.4402 22.3412 23.4128 20.8384C24.3855 19.3356 24.8718 17.6819 24.8718 15.8773C24.8718 14.7702 24.6433 13.6797 24.1863 12.6059C23.7294 11.5321 23.0633 10.5576 22.188 9.68241L20.6291 8.15594V12.4619H19.5009V6.20551H25.7573V7.33371H21.4188L22.8017 8.72344C23.894 9.79068 24.7001 10.943 25.2201 12.1803C25.74 13.4176 26 14.65 26 15.8773C26 17.9793 25.4056 19.892 24.2167 21.6153C23.0278 23.3387 21.4467 24.5838 19.4735 25.3508Z" fill="black"/>
</svg>
