<svg width="32" height="32" viewBox="0 0 32 32" fill="none" xmlns="http://www.w3.org/2000/svg">
<path d="M9.33335 22.667C7.48151 22.667 5.90743 22.0195 4.61112 20.7243C3.31483 19.4292 2.66669 17.8566 2.66669 16.0064C2.66669 14.1562 3.31483 12.5815 4.61112 11.2824C5.90743 9.98325 7.48151 9.33368 9.33335 9.33368H22.6667C24.5185 9.33368 26.0926 9.98124 27.3889 11.2763C28.6852 12.5715 29.3334 14.1441 29.3334 15.9943C29.3334 17.8445 28.6852 19.4192 27.3889 20.7183C26.0926 22.0174 24.5185 22.667 22.6667 22.667H9.33335ZM9.32592 19.1337C10.2004 19.1337 10.9416 18.8311 11.5496 18.226C12.1576 17.6209 12.4616 16.8805 12.4616 16.0047C12.4616 15.1289 12.159 14.387 11.5539 13.779C10.9488 13.171 10.209 12.867 9.33455 12.867C8.46009 12.867 7.71534 13.1696 7.10032 13.7746C6.4853 14.3798 6.17779 15.1202 6.17779 15.996C6.17779 16.8718 6.48385 17.6137 7.09599 18.2217C7.70812 18.8297 8.45143 19.1337 9.32592 19.1337Z" fill="black"/>
</svg>
