<svg width="32" height="32" viewBox="0 0 32 32" fill="none" xmlns="http://www.w3.org/2000/svg">
<path d="M9.33335 22.667C7.48151 22.667 5.90743 22.0195 4.61112 20.7243C3.31483 19.4292 2.66669 17.8566 2.66669 16.0064C2.66669 14.1562 3.31483 12.5815 4.61112 11.2824C5.90743 9.98325 7.48151 9.33368 9.33335 9.33368H22.6667C24.5185 9.33368 26.0926 9.98124 27.3889 11.2763C28.6852 12.5715 29.3334 14.1441 29.3334 15.9943C29.3334 17.8445 28.6852 19.4192 27.3889 20.7183C26.0926 22.0174 24.5185 22.667 22.6667 22.667H9.33335ZM22.6655 19.1337C23.54 19.1337 24.2847 18.8311 24.8997 18.226C25.5147 17.6209 25.8223 16.8805 25.8223 16.0047C25.8223 15.1289 25.5162 14.387 24.9041 13.779C24.2919 13.171 23.5486 12.867 22.6741 12.867C21.7997 12.867 21.0584 13.1696 20.4505 13.7746C19.8425 14.3798 19.5385 15.1202 19.5385 15.996C19.5385 16.8718 19.841 17.6137 20.4461 18.2217C21.0512 18.8297 21.791 19.1337 22.6655 19.1337Z" fill="black"/>
</svg>
