<svg width="32" height="32" viewBox="0 0 32 32" fill="none" xmlns="http://www.w3.org/2000/svg">
<path d="M15.9128 27.2824L21.0342 13.744H23.3624L28.5436 27.2824H26.1727L24.9829 23.7935H19.518L18.2752 27.2824H15.9128ZM20.188 21.8192H24.2086L22.2342 16.2824H22.1624L20.188 21.8192ZM7.02562 23.8978L5.42049 22.2927L11.1556 16.5747C10.4478 15.777 9.82405 14.9588 9.28416 14.12C8.74429 13.2813 8.2735 12.4038 7.87179 11.4875H10.2427C10.588 12.1462 10.95 12.7459 11.3286 13.2867C11.7072 13.8274 12.1567 14.3947 12.6769 14.9884C13.5214 14.079 14.2205 13.1558 14.7744 12.2187C15.3282 11.2817 15.792 10.2858 16.1658 9.23112H3.64099V6.97469H11.5385V4.71829H13.7949V6.97469H21.6923V9.23112H18.4222C18.0205 10.5343 17.4829 11.814 16.8094 13.0704C16.1359 14.3268 15.2986 15.5098 14.2974 16.6192L17.012 19.3952L16.1658 21.6961L12.6667 18.2568L7.02562 23.8978Z" fill="black"/>
</svg>
