<svg width="32" height="32" viewBox="0 0 32 32" fill="none" xmlns="http://www.w3.org/2000/svg">
<path d="M9.87177 24.667V23.5388H18.7316C20.3664 23.5388 21.777 23.0121 22.9636 21.9585C24.1503 20.9049 24.7436 19.5764 24.7436 17.973C24.7436 16.381 24.1503 15.0582 22.9636 14.0046C21.777 12.9511 20.3664 12.4243 18.7316 12.4243H8.29911L12.535 16.6602L11.7316 17.4636L6.12817 11.8602L11.7316 6.25677L12.535 7.06021L8.29911 11.2961H18.7094C20.653 11.2961 22.3326 11.9366 23.7483 13.2175C25.1639 14.4984 25.8718 16.0836 25.8718 17.973C25.8718 19.8739 25.1639 21.4648 23.7483 22.7457C22.3326 24.0266 20.653 24.667 18.7094 24.667H9.87177Z" fill="black"/>
</svg>
