<svg width="32" height="32" viewBox="0 0 32 32" fill="none" xmlns="http://www.w3.org/2000/svg">
<path d="M12.0787 23.4875H17.5573C17.771 23.4875 17.954 23.4113 18.1064 23.2589C18.2588 23.1065 18.3351 22.9234 18.3351 22.7098V20.6158L20.7966 21.9508V18.0499L18.3351 19.385V17.2739C18.3351 17.0716 18.2588 16.8943 18.1064 16.7418C17.954 16.5894 17.771 16.5132 17.5573 16.5132H12.0787C11.865 16.5132 11.6819 16.5894 11.5295 16.7418C11.3771 16.8943 11.3009 17.0716 11.3009 17.2739V22.7098C11.3009 22.9234 11.3771 23.1065 11.5295 23.2589C11.6819 23.4113 11.865 23.4875 12.0787 23.4875ZM8.61539 28.0004C8.06923 28.0004 7.60791 27.8121 7.23142 27.4356C6.85493 27.0591 6.66669 26.5978 6.66669 26.0517V5.94907C6.66669 5.40291 6.85493 4.94159 7.23142 4.5651C7.60791 4.18861 8.06923 4.00037 8.61539 4.00037H19.5436L25.3334 9.7901V26.0517C25.3334 26.5978 25.1451 27.0591 24.7686 27.4356C24.3921 27.8121 23.9308 28.0004 23.3847 28.0004H8.61539ZM18.9795 10.3217V5.12857H8.61539C8.41025 5.12857 8.22222 5.21403 8.05129 5.38497C7.88035 5.5559 7.79489 5.74393 7.79489 5.94907V26.0517C7.79489 26.2568 7.88035 26.4448 8.05129 26.6158C8.22222 26.7867 8.41025 26.8722 8.61539 26.8722H23.3847C23.5898 26.8722 23.7778 26.7867 23.9488 26.6158C24.1197 26.4448 24.2052 26.2568 24.2052 26.0517V10.3217H18.9795Z" fill="black"/>
</svg>
