<svg width="32" height="32" viewBox="0 0 32 32" fill="none" xmlns="http://www.w3.org/2000/svg">
<path d="M20.4496 16.9594L19.5282 16.038C19.8433 14.7007 19.5105 13.5876 18.5299 12.6987C17.5493 11.8098 16.4712 11.5121 15.2957 11.8055L14.3743 10.8841C14.5983 10.7816 14.8437 10.7026 15.1107 10.6474C15.3776 10.5921 15.6741 10.5645 16 10.5645C17.3339 10.5645 18.4622 11.0259 19.385 11.9487C20.3078 12.8714 20.7692 13.9998 20.7692 15.3337C20.7692 15.6596 20.7407 15.9655 20.6838 16.2512C20.6268 16.537 20.5487 16.773 20.4496 16.9594ZM24.6701 21.0893L23.8376 20.3474C24.7538 19.6562 25.5659 18.8931 26.2739 18.0581C26.9819 17.223 27.5567 16.3149 27.9983 15.3337C26.8872 13.0209 25.2674 11.1863 23.1389 9.82984C21.0104 8.47344 18.665 7.79524 16.1026 7.79524C15.3681 7.79524 14.6367 7.85507 13.9085 7.97474C13.1803 8.09438 12.5196 8.24823 11.9265 8.43627L11.053 7.55764C11.784 7.26875 12.59 7.04809 13.4709 6.89567C14.3518 6.74325 15.2148 6.66704 16.0598 6.66704C18.8923 6.66704 21.5123 7.45607 23.9197 9.03414C26.3271 10.6122 28.0974 12.7121 29.2308 15.3337C28.7322 16.4454 28.1058 17.4797 27.3517 18.4367C26.5976 19.3937 25.7037 20.2779 24.6701 21.0893ZM26.5402 28.1098L21.3504 22.9405C20.7607 23.2237 19.9999 23.4712 19.068 23.6829C18.136 23.8945 17.1134 24.0004 16 24.0004C13.1174 24.0004 10.4829 23.2113 8.09656 21.6333C5.71025 20.0552 3.93447 17.9553 2.76923 15.3337C3.28374 14.1593 3.97662 13.0455 4.84786 11.9922C5.71908 10.939 6.67007 10.0311 7.70083 9.26874L3.81536 5.39524L4.61879 4.58667L27.3111 27.279L26.5402 28.1098ZM8.48203 10.0722C7.66778 10.6306 6.82647 11.3947 5.95809 12.3645C5.08971 13.3343 4.43587 14.324 3.99656 15.3337C5.11109 17.6465 6.73973 19.4811 8.88246 20.8376C11.0252 22.194 13.4228 22.8722 16.0752 22.8722C16.9459 22.8722 17.814 22.792 18.6795 22.6316C19.545 22.4712 20.1618 22.3007 20.5299 22.12L18.0752 19.6602C17.8535 19.785 17.5359 19.89 17.1222 19.9752C16.7085 20.0603 16.3345 20.1029 16 20.1029C14.6695 20.1029 13.542 19.6424 12.6175 18.7213C11.693 17.8002 11.2308 16.671 11.2308 15.3337C11.2308 15.0129 11.2733 14.6516 11.3585 14.2499C11.4437 13.8482 11.5487 13.5177 11.6735 13.2585L8.48203 10.0722Z" fill="black"/>
</svg>
