<svg width="32" height="32" viewBox="0 0 32 32" fill="none" xmlns="http://www.w3.org/2000/svg">
<path d="M16.0086 20.1029C17.3254 20.1029 18.448 19.6358 19.3765 18.7016C20.305 17.7673 20.7692 16.6418 20.7692 15.3251C20.7692 14.0083 20.3021 12.8857 19.3679 11.9572C18.4336 11.0287 17.3081 10.5645 15.9914 10.5645C14.6746 10.5645 13.552 11.0316 12.6235 11.9658C11.695 12.9001 11.2308 14.0256 11.2308 15.3423C11.2308 16.6591 11.6979 17.7817 12.6321 18.7102C13.5664 19.6387 14.6919 20.1029 16.0086 20.1029ZM15.9918 18.9713C14.979 18.9713 14.1209 18.6168 13.4175 17.9079C12.7141 17.199 12.3624 16.3382 12.3624 15.3255C12.3624 14.3127 12.7168 13.4546 13.4258 12.7512C14.1347 12.0478 14.9955 11.6961 16.0082 11.6961C17.021 11.6961 17.8791 12.0505 18.5825 12.7595C19.2859 13.4684 19.6376 14.3292 19.6376 15.3419C19.6376 16.3547 19.2831 17.2128 18.5742 17.9162C17.8653 18.6196 17.0045 18.9713 15.9918 18.9713ZM16.0037 24.0004C13.1271 24.0004 10.5043 23.2119 8.13503 21.635C5.7658 20.0581 3.9772 17.9576 2.76923 15.3337C3.9772 12.7098 5.76458 10.6093 8.13136 9.03239C10.4982 7.45548 13.1198 6.66702 15.9963 6.66702C18.8728 6.66702 21.4957 7.45548 23.865 9.03239C26.2342 10.6093 28.0228 12.7098 29.2308 15.3337C28.0228 17.9576 26.2354 20.0581 23.8686 21.635C21.5018 23.2119 18.8802 24.0004 16.0037 24.0004ZM15.9963 22.8722C18.5714 22.8722 20.9323 22.1922 23.0791 20.8324C25.2258 19.4726 26.8655 17.6397 27.9983 15.3337C26.8655 13.0277 25.227 11.1948 23.0828 9.83496C20.9386 8.47513 18.5789 7.79522 16.0037 7.79522C13.4286 7.79522 11.0677 8.47513 8.92093 9.83496C6.77419 11.1948 5.13274 13.0277 3.99656 15.3337C5.13274 17.6397 6.77295 19.4726 8.91719 20.8324C11.0614 22.1922 13.4211 22.8722 15.9963 22.8722Z" fill="black"/>
</svg>
