<svg width="32" height="32" viewBox="0 0 32 32" fill="none" xmlns="http://www.w3.org/2000/svg">
<path d="M12.5993 24.026C12.3849 24.026 12.1901 23.9607 12.0149 23.83C11.8396 23.6994 11.7173 23.5342 11.6479 23.3346L8.82905 16.5645H2.79315V15.4363H9.63245L12.5966 22.6653L18.4547 8.65081C18.5234 8.46254 18.6447 8.30308 18.8185 8.17244C18.9922 8.04177 19.1863 7.97644 19.4007 7.97644C19.615 7.97644 19.8099 8.04177 19.9851 8.17244C20.1604 8.30308 20.2827 8.46254 20.3521 8.65081L23.2222 15.4363H29.2581V16.5645H22.4188L19.4034 9.32004L13.5453 23.3346C13.4766 23.5342 13.3553 23.6994 13.1815 23.83C13.0077 23.9607 12.8137 24.026 12.5993 24.026Z" fill="black"/>
</svg>
