<svg width="32" height="32" viewBox="0 0 32 32" fill="none" xmlns="http://www.w3.org/2000/svg">
<path d="M5.9487 26.667C5.40254 26.667 4.94122 26.4788 4.56473 26.1023C4.18824 25.7258 4 25.2645 4 24.7183V11.2824C4 10.7362 4.18824 10.2749 4.56473 9.89841C4.94122 9.52192 5.40254 9.33368 5.9487 9.33368H12V7.28238C12 6.73622 12.1882 6.2749 12.5647 5.89841C12.9412 5.52192 13.4025 5.33368 13.9487 5.33368H18.0513C18.5975 5.33368 19.0588 5.52192 19.4353 5.89841C19.8118 6.2749 20 6.73622 20 7.28238V9.33368H26.0513C26.5975 9.33368 27.0588 9.52192 27.4353 9.89841C27.8118 10.2749 28 10.7362 28 11.2824V24.7183C28 25.2645 27.8118 25.7258 27.4353 26.1023C27.0588 26.4788 26.5975 26.667 26.0513 26.667H5.9487ZM5.9487 25.5388H26.0513C26.2564 25.5388 26.4445 25.4533 26.6154 25.2824C26.7863 25.1115 26.8718 24.9234 26.8718 24.7183V11.2824C26.8718 11.0772 26.7863 10.8892 26.6154 10.7183C26.4445 10.5473 26.2564 10.4619 26.0513 10.4619H5.9487C5.74357 10.4619 5.55553 10.5473 5.3846 10.7183C5.21367 10.8892 5.1282 11.0772 5.1282 11.2824V24.7183C5.1282 24.9234 5.21367 25.1115 5.3846 25.2824C5.55553 25.4533 5.74357 25.5388 5.9487 25.5388ZM13.1282 9.33368H18.8718V7.28238C18.8718 7.07725 18.7863 6.88921 18.6154 6.71828C18.4445 6.54735 18.2564 6.46188 18.0513 6.46188H13.9487C13.7436 6.46188 13.5555 6.54735 13.3846 6.71828C13.2137 6.88921 13.1282 7.07725 13.1282 7.28238V9.33368Z" fill="black"/>
</svg>
