<svg width="24" height="24" viewBox="0 0 24 24" fill="none" xmlns="http://www.w3.org/2000/svg">
<path d="M6.19615 17.4849C7.04615 16.8733 7.94807 16.3897 8.90193 16.0339C9.85577 15.6781 10.8885 15.5002 12 15.5002C13.1115 15.5002 14.1442 15.6781 15.0981 16.0339C16.0519 16.3897 16.9538 16.8733 17.8039 17.4849C18.4641 16.8015 18.9952 15.9945 19.3971 15.0637C19.799 14.1329 20 13.1118 20 12.0002C20 9.78358 19.2208 7.89608 17.6625 6.33774C16.1042 4.77941 14.2167 4.00024 12 4.00024C9.78333 4.00024 7.89583 4.77941 6.3375 6.33774C4.77917 7.89608 4 9.78358 4 12.0002C4 13.1118 4.20096 14.1329 4.60288 15.0637C5.00481 15.9945 5.5359 16.8015 6.19615 17.4849ZM12 12.5002C11.1577 12.5002 10.4471 12.2108 9.86827 11.632C9.28942 11.0531 9 10.3426 9 9.50024C9 8.65793 9.28942 7.94735 9.86827 7.36852C10.4471 6.78967 11.1577 6.50024 12 6.50024C12.8423 6.50024 13.5529 6.78967 14.1317 7.36852C14.7106 7.94735 15 8.65793 15 9.50024C15 10.3426 14.7106 11.0531 14.1317 11.632C13.5529 12.2108 12.8423 12.5002 12 12.5002ZM12 21.0002C10.7449 21.0002 9.56987 20.7666 8.475 20.2993C7.38013 19.832 6.42757 19.1932 5.6173 18.3829C4.80705 17.5727 4.16827 16.6201 3.70095 15.5252C3.23365 14.4304 3 13.2554 3 12.0002C3 10.7451 3.23365 9.57011 3.70095 8.47524C4.16827 7.38038 4.80705 6.42781 5.6173 5.61754C6.42757 4.80729 7.38013 4.16851 8.475 3.70119C9.56987 3.23389 10.7449 3.00024 12 3.00024C13.2551 3.00024 14.4301 3.23389 15.525 3.70119C16.6199 4.16851 17.5724 4.80729 18.3827 5.61754C19.1929 6.42781 19.8317 7.38038 20.299 8.47524C20.7663 9.57011 21 10.7451 21 12.0002C21 13.2554 20.7663 14.4304 20.299 15.5252C19.8317 16.6201 19.1929 17.5727 18.3827 18.3829C17.5724 19.1932 16.6199 19.832 15.525 20.2993C14.4301 20.7666 13.2551 21.0002 12 21.0002Z" fill="black"/>
</svg>
