<svg width="24" height="24" viewBox="0 0 24 24" fill="none" xmlns="http://www.w3.org/2000/svg">
<path d="M12 21.0002C10.7487 21.0002 9.57243 20.7666 8.47115 20.2993C7.36987 19.832 6.41634 19.1954 5.61058 18.3897C4.80481 17.5839 4.16827 16.6304 3.70095 15.5291C3.23365 14.4278 3 13.2515 3 12.0002C3 10.7323 3.23365 9.55184 3.70095 8.45889C4.16827 7.36594 4.80481 6.41659 5.61058 5.61082C6.41634 4.80505 7.36987 4.16851 8.47115 3.70119C9.57243 3.23389 10.7487 3.00024 12 3.00024C13.268 3.00024 14.4484 3.23389 15.5414 3.70119C16.6343 4.16851 17.5837 4.80505 18.3894 5.61082C19.1952 6.41659 19.8317 7.36594 20.299 8.45889C20.7663 9.55184 21 10.7323 21 12.0002V12.9887C21 13.831 20.7106 14.5435 20.1317 15.1262C19.5529 15.7089 18.8423 16.0002 18 16.0002C17.3359 16.0002 16.7744 15.8381 16.3154 15.5137C15.8564 15.1894 15.5115 14.7528 15.2808 14.2041C14.9077 14.731 14.4715 15.1621 13.9721 15.4974C13.4728 15.8326 12.8154 16.0002 12 16.0002C10.8859 16.0002 9.94071 15.6121 9.16442 14.8358C8.38814 14.0595 8 13.1143 8 12.0002C8 10.8861 8.38814 9.94095 9.16442 9.16467C9.94071 8.38839 10.8859 8.00024 12 8.00024C13.1141 8.00024 14.0593 8.38839 14.8356 9.16467C15.6119 9.94095 16 10.8861 16 12.0002V12.9887C16 13.5618 16.1949 14.0403 16.5846 14.4243C16.9744 14.8083 17.4461 15.0002 18 15.0002C18.5539 15.0002 19.0256 14.8083 19.4154 14.4243C19.8051 14.0403 20 13.5618 20 12.9887V12.0002C20 9.81691 19.2125 7.93774 17.6375 6.36274C16.0625 4.78774 14.1833 4.00024 12 4.00024C9.81667 4.00024 7.9375 4.78774 6.3625 6.36274C4.7875 7.93774 4 9.81691 4 12.0002C4 14.1836 4.7875 16.0627 6.3625 17.6377C7.9375 19.2127 9.81667 20.0002 12 20.0002H17V21.0002H12ZM12 15.0002C12.8333 15.0002 13.5417 14.7086 14.125 14.1252C14.7083 13.5419 15 12.8336 15 12.0002C15 11.1669 14.7083 10.4586 14.125 9.87524C13.5417 9.29191 12.8333 9.00024 12 9.00024C11.1667 9.00024 10.4583 9.29191 9.875 9.87524C9.29167 10.4586 9 11.1669 9 12.0002C9 12.8336 9.29167 13.5419 9.875 14.1252C10.4583 14.7086 11.1667 15.0002 12 15.0002Z" fill="black"/>
</svg>
