<svg width="24" height="24" viewBox="0 0 24 24" fill="none" xmlns="http://www.w3.org/2000/svg">
<path d="M11.5 21.7695C10.1077 21.7695 8.91985 21.2778 7.93652 20.2945C6.95318 19.3111 6.46152 18.1233 6.46152 16.731V5.61562C6.46152 4.61082 6.81929 3.75064 7.53484 3.03509C8.25039 2.31956 9.11057 1.96179 10.1154 1.96179C11.1202 1.96179 11.9804 2.31956 12.6959 3.03509C13.4115 3.75064 13.7692 4.61082 13.7692 5.61562V15.6156C13.7692 16.251 13.5498 16.7881 13.111 17.2268C12.6722 17.6655 12.135 17.8849 11.4994 17.8849C10.8639 17.8849 10.3269 17.6655 9.88844 17.2268C9.44999 16.7881 9.23077 16.251 9.23077 15.6156V5.61562H10.1154V15.6156C10.1154 16.0079 10.2481 16.3368 10.5135 16.6022C10.7789 16.8675 11.1077 17.0002 11.5 17.0002C11.8923 17.0002 12.2211 16.8675 12.4865 16.6022C12.7519 16.3368 12.8846 16.0079 12.8846 15.6156V5.61562C12.8846 4.84023 12.6168 4.18485 12.0811 3.64947C11.5454 3.11408 10.8896 2.84639 10.1137 2.84639C9.33791 2.84639 8.68268 3.11408 8.14807 3.64947C7.61345 4.18485 7.34614 4.84023 7.34614 5.61562V16.731C7.34614 17.8823 7.75063 18.8624 8.55962 19.6714C9.36858 20.4804 10.3487 20.8849 11.5 20.8849C12.6513 20.8849 13.6314 20.4804 14.4404 19.6714C15.2494 18.8624 15.6538 17.8823 15.6538 16.731V5.61562H16.5385V16.731C16.5385 18.1233 16.0468 19.3111 15.0635 20.2945C14.0801 21.2778 12.8923 21.7695 11.5 21.7695V21.7695Z" fill="black"/>
</svg>
