<svg width="24" height="24" viewBox="0 0 24 24" fill="none" xmlns="http://www.w3.org/2000/svg">
<path d="M5.61538 21.0002C5.15513 21.0002 4.77083 20.8461 4.4625 20.5377C4.15417 20.2294 4 19.8451 4 19.3849V6.61562C4 6.15537 4.15417 5.77108 4.4625 5.46275C4.77083 5.15441 5.15513 5.00025 5.61538 5.00025H7.3846V2.76947H8.46152V5.00025H15.6154V2.76947H16.6154V5.00025H18.3846C18.8449 5.00025 19.2292 5.15441 19.5375 5.46275C19.8458 5.77108 20 6.15537 20 6.61562V19.3849C20 19.8451 19.8458 20.2294 19.5375 20.5377C19.2292 20.8461 18.8449 21.0002 18.3846 21.0002H5.61538ZM5.61538 20.0002H18.3846C18.5385 20.0002 18.6795 19.9361 18.8077 19.8079C18.9359 19.6797 19 19.5387 19 19.3849V10.6156H5V19.3849C5 19.5387 5.0641 19.6797 5.1923 19.8079C5.32052 19.9361 5.46154 20.0002 5.61538 20.0002ZM5 9.61562H19V6.61562C19 6.46179 18.9359 6.32076 18.8077 6.19255C18.6795 6.06435 18.5385 6.00025 18.3846 6.00025H5.61538C5.46154 6.00025 5.32052 6.06435 5.1923 6.19255C5.0641 6.32076 5 6.46179 5 6.61562V9.61562ZM12 14.1541C11.7936 14.1541 11.6138 14.0775 11.4606 13.9243C11.3074 13.7711 11.2308 13.5913 11.2308 13.3849C11.2308 13.1785 11.3074 12.9986 11.4606 12.8454C11.6138 12.6922 11.7936 12.6156 12 12.6156C12.2064 12.6156 12.3862 12.6922 12.5394 12.8454C12.6926 12.9986 12.7692 13.1785 12.7692 13.3849C12.7692 13.5913 12.6926 13.7711 12.5394 13.9243C12.3862 14.0775 12.2064 14.1541 12 14.1541ZM8 14.1541C7.79358 14.1541 7.61378 14.0775 7.46058 13.9243C7.30738 13.7711 7.23077 13.5913 7.23077 13.3849C7.23077 13.1785 7.30738 12.9986 7.46058 12.8454C7.61378 12.6922 7.79358 12.6156 8 12.6156C8.20642 12.6156 8.38622 12.6922 8.53942 12.8454C8.69263 12.9986 8.76923 13.1785 8.76923 13.3849C8.76923 13.5913 8.69263 13.7711 8.53942 13.9243C8.38622 14.0775 8.20642 14.1541 8 14.1541ZM16 14.1541C15.7936 14.1541 15.6138 14.0775 15.4606 13.9243C15.3074 13.7711 15.2308 13.5913 15.2308 13.3849C15.2308 13.1785 15.3074 12.9986 15.4606 12.8454C15.6138 12.6922 15.7936 12.6156 16 12.6156C16.2064 12.6156 16.3862 12.6922 16.5394 12.8454C16.6926 12.9986 16.7692 13.1785 16.7692 13.3849C16.7692 13.5913 16.6926 13.7711 16.5394 13.9243C16.3862 14.0775 16.2064 14.1541 16 14.1541ZM12 18.0002C11.7936 18.0002 11.6138 17.9236 11.4606 17.7704C11.3074 17.6172 11.2308 17.4374 11.2308 17.231C11.2308 17.0246 11.3074 16.8448 11.4606 16.6916C11.6138 16.5384 11.7936 16.4618 12 16.4618C12.2064 16.4618 12.3862 16.5384 12.5394 16.6916C12.6926 16.8448 12.7692 17.0246 12.7692 17.231C12.7692 17.4374 12.6926 17.6172 12.5394 17.7704C12.3862 17.9236 12.2064 18.0002 12 18.0002ZM8 18.0002C7.79358 18.0002 7.61378 17.9236 7.46058 17.7704C7.30738 17.6172 7.23077 17.4374 7.23077 17.231C7.23077 17.0246 7.30738 16.8448 7.46058 16.6916C7.61378 16.5384 7.79358 16.4618 8 16.4618C8.20642 16.4618 8.38622 16.5384 8.53942 16.6916C8.69263 16.8448 8.76923 17.0246 8.76923 17.231C8.76923 17.4374 8.69263 17.6172 8.53942 17.7704C8.38622 17.9236 8.20642 18.0002 8 18.0002ZM16 18.0002C15.7936 18.0002 15.6138 17.9236 15.4606 17.7704C15.3074 17.6172 15.2308 17.4374 15.2308 17.231C15.2308 17.0246 15.3074 16.8448 15.4606 16.6916C15.6138 16.5384 15.7936 16.4618 16 16.4618C16.2064 16.4618 16.3862 16.5384 16.5394 16.6916C16.6926 16.8448 16.7692 17.0246 16.7692 17.231C16.7692 17.4374 16.6926 17.6172 16.5394 17.7704C16.3862 17.9236 16.2064 18.0002 16 18.0002Z" fill="black"/>
</svg>
