<svg width="24" height="24" viewBox="0 0 24 24" fill="none" xmlns="http://www.w3.org/2000/svg">
<path d="M18.9116 19.8849C17.1718 19.8849 15.4157 19.441 13.6433 18.5531C11.8708 17.6653 10.274 16.5108 8.85288 15.0897C7.43173 13.6685 6.27404 12.0749 5.3798 10.3089C4.48557 8.54288 4.03845 6.78999 4.03845 5.05024C4.03845 4.75024 4.13845 4.50024 4.33845 4.30024C4.53845 4.10024 4.78845 4.00024 5.08845 4.00024H7.56155C7.84617 4.00024 8.08975 4.08486 8.2923 4.25409C8.49487 4.42331 8.62564 4.64382 8.68463 4.91562L9.18078 7.30024C9.22693 7.55921 9.22276 7.79414 9.16828 8.00504C9.11379 8.21594 8.99873 8.39639 8.82308 8.54639L6.64808 10.5925C7.52756 12.0746 8.53173 13.3727 9.66058 14.4868C10.7894 15.6009 12.1026 16.5797 13.6 17.4233L15.7192 15.2272C15.8949 15.0515 16.0843 14.9326 16.2875 14.8704C16.4907 14.8083 16.709 14.8002 16.9423 14.8464L19.0462 15.2772C19.318 15.34 19.5385 15.4717 19.7077 15.6724C19.8769 15.873 19.9616 16.1156 19.9616 16.4002V18.8349C19.9616 19.1349 19.8616 19.3849 19.6616 19.5849C19.4616 19.7849 19.2116 19.8849 18.9116 19.8849ZM6.15963 9.65409L8.07885 7.88869C8.14295 7.83741 8.18462 7.7669 8.20385 7.67717C8.22309 7.58742 8.21988 7.50409 8.19423 7.42717L7.75 5.30794C7.72435 5.20538 7.67948 5.12845 7.61538 5.07717C7.55128 5.02589 7.46794 5.00024 7.36538 5.00024H5.31345C5.23654 5.00024 5.17244 5.02589 5.12115 5.07717C5.06987 5.12845 5.04423 5.19255 5.04423 5.26947C5.06346 5.9528 5.17051 6.66627 5.36538 7.40987C5.56026 8.15345 5.82501 8.90153 6.15963 9.65409ZM14.5327 17.8733C15.2083 18.2079 15.9285 18.4554 16.6933 18.6156C17.458 18.7759 18.1244 18.8618 18.6923 18.8733C18.7692 18.8733 18.8333 18.8477 18.8846 18.7964C18.9359 18.7451 18.9616 18.681 18.9616 18.6041V16.5964C18.9616 16.4938 18.9359 16.4105 18.8846 16.3464C18.8333 16.2823 18.7564 16.2374 18.6539 16.2118L16.8039 15.8329C16.7269 15.8073 16.6596 15.8041 16.6019 15.8233C16.5442 15.8426 16.4833 15.8842 16.4192 15.9483L14.5327 17.8733Z" fill="black"/>
</svg>
