<svg width="24" height="24" viewBox="0 0 24 24" fill="none" xmlns="http://www.w3.org/2000/svg">
<path d="M3 20.0772V4.61562C3 4.15537 3.15417 3.77108 3.4625 3.46274C3.77083 3.15441 4.15513 3.00024 4.61538 3.00024H19.3846C19.8449 3.00024 20.2292 3.15441 20.5375 3.46274C20.8458 3.77108 21 4.15537 21 4.61562V15.3849C21 15.8451 20.8458 16.2294 20.5375 16.5377C20.2292 16.8461 19.8449 17.0002 19.3846 17.0002H6.07693L3 20.0772ZM5.65 16.0002H19.3846C19.5385 16.0002 19.6795 15.9361 19.8077 15.8079C19.9359 15.6797 20 15.5387 20 15.3849V4.61562C20 4.46179 19.9359 4.32076 19.8077 4.19254C19.6795 4.06434 19.5385 4.00024 19.3846 4.00024H4.61538C4.46154 4.00024 4.32052 4.06434 4.1923 4.19254C4.0641 4.32076 4 4.46179 4 4.61562V17.6445L5.65 16.0002Z" fill="black"/>
</svg>
