<svg width="24" height="24" viewBox="0 0 24 24" fill="none" xmlns="http://www.w3.org/2000/svg">
<path d="M5.61538 20.0002C5.16794 20.0002 4.78685 19.8429 4.4721 19.5281C4.15737 19.2134 4 18.8323 4 18.3849V5.61562C4 5.16818 4.15737 4.78709 4.4721 4.47234C4.78685 4.15761 5.16794 4.00024 5.61538 4.00024H10.2519C10.3455 3.60921 10.5532 3.28068 10.875 3.01467C11.1968 2.74863 11.5718 2.61562 12 2.61562C12.4359 2.61562 12.8138 2.74863 13.1337 3.01467C13.4535 3.28068 13.6603 3.60921 13.7538 4.00024H18.3846C18.8321 4.00024 19.2132 4.15761 19.5279 4.47234C19.8426 4.78709 20 5.16818 20 5.61562V18.3849C20 18.8323 19.8426 19.2134 19.5279 19.5281C19.2132 19.8429 18.8321 20.0002 18.3846 20.0002H5.61538ZM5.61538 19.0002H18.3846C18.5385 19.0002 18.6795 18.9361 18.8077 18.8079C18.9359 18.6797 19 18.5387 19 18.3849V5.61562C19 5.46178 18.9359 5.32076 18.8077 5.19254C18.6795 5.06434 18.5385 5.00024 18.3846 5.00024H16V7.23102H8V5.00024H5.61538C5.46154 5.00024 5.32052 5.06434 5.1923 5.19254C5.0641 5.32076 5 5.46178 5 5.61562V18.3849C5 18.5387 5.0641 18.6797 5.1923 18.8079C5.32052 18.9361 5.46154 19.0002 5.61538 19.0002ZM12 5.23102C12.232 5.23102 12.4247 5.15441 12.5779 5.00119C12.7311 4.84799 12.8077 4.65537 12.8077 4.42332C12.8077 4.19127 12.7311 3.99864 12.5779 3.84544C12.4247 3.69222 12.232 3.61562 12 3.61562C11.768 3.61562 11.5753 3.69222 11.4221 3.84544C11.2689 3.99864 11.1923 4.19127 11.1923 4.42332C11.1923 4.65537 11.2689 4.84799 11.4221 5.00119C11.5753 5.15441 11.768 5.23102 12 5.23102Z" fill="black"/>
</svg>
