<svg width="24" height="24" viewBox="0 0 24 24" fill="none" xmlns="http://www.w3.org/2000/svg">
<path d="M6.50004 20.6156C6.03978 20.6156 5.65548 20.4615 5.34714 20.1531C5.03881 19.8448 4.88464 19.4605 4.88464 19.0002V7.61562H5.88464V19.0002C5.88464 19.1541 5.94875 19.2951 6.07697 19.4233C6.20517 19.5515 6.34619 19.6156 6.50004 19.6156H14.8847V20.6156H6.50004ZM9.50004 17.6156C9.03978 17.6156 8.65548 17.4614 8.34714 17.1531C8.03881 16.8448 7.88464 16.4605 7.88464 16.0002V5.23099C7.88464 4.77074 8.03881 4.38645 8.34714 4.07812C8.65548 3.76978 9.03978 3.61562 9.50004 3.61562H17.2693C17.7295 3.61562 18.1138 3.76978 18.4222 4.07812C18.7305 4.38645 18.8847 4.77074 18.8847 5.23099V16.0002C18.8847 16.4605 18.7305 16.8448 18.4222 17.1531C18.1138 17.4614 17.7295 17.6156 17.2693 17.6156H9.50004ZM9.50004 16.6156H17.2693C17.4231 16.6156 17.5641 16.5515 17.6923 16.4233C17.8206 16.2951 17.8847 16.1541 17.8847 16.0002V5.23099C17.8847 5.07716 17.8206 4.93613 17.6923 4.80792C17.5641 4.67972 17.4231 4.61562 17.2693 4.61562H9.50004C9.34619 4.61562 9.20517 4.67972 9.07697 4.80792C8.94877 4.93613 8.88467 5.07716 8.88467 5.23099V16.0002C8.88467 16.1541 8.94877 16.2951 9.07697 16.4233C9.20517 16.5515 9.34619 16.6156 9.50004 16.6156Z" fill="black"/>
</svg>
