<svg width="24" height="24" viewBox="0 0 24 24" fill="none" xmlns="http://www.w3.org/2000/svg">
<path d="M6.61537 19.0002C6.15512 19.0002 5.77083 18.8461 5.4625 18.5377C5.15417 18.2294 5 17.8451 5 17.3849V15.0002H6V17.3849C6 17.5387 6.0641 17.6797 6.1923 17.8079C6.32052 17.9361 6.46154 18.0002 6.61537 18.0002H17.3846C17.5385 18.0002 17.6795 17.9361 17.8077 17.8079C17.9359 17.6797 18 17.5387 18 17.3849V15.0002H19V17.3849C19 17.8451 18.8458 18.2294 18.5375 18.5377C18.2292 18.8461 17.8449 19.0002 17.3846 19.0002H6.61537ZM12 15.231L8.46152 11.6925L9.16923 10.9733L11.5 13.3041V4.65409H12.5V13.3041L14.8308 10.9733L15.5385 11.6925L12 15.231Z" fill="black"/>
</svg>
