<svg width="24" height="24" viewBox="0 0 24 24" fill="none" xmlns="http://www.w3.org/2000/svg">
<path d="M9 19.231C8.66153 19.231 8.37179 19.1105 8.13078 18.8695C7.88974 18.6285 7.76923 18.3387 7.76923 18.0002C7.76923 17.6618 7.88974 17.372 8.13078 17.131C8.37179 16.89 8.66153 16.7695 9 16.7695C9.33847 16.7695 9.62821 16.89 9.86923 17.131C10.1103 17.372 10.2308 17.6618 10.2308 18.0002C10.2308 18.3387 10.1103 18.6285 9.86923 18.8695C9.62821 19.1105 9.33847 19.231 9 19.231ZM15 19.231C14.6615 19.231 14.3718 19.1105 14.1308 18.8695C13.8897 18.6285 13.7692 18.3387 13.7692 18.0002C13.7692 17.6618 13.8897 17.372 14.1308 17.131C14.3718 16.89 14.6615 16.7695 15 16.7695C15.3385 16.7695 15.6282 16.89 15.8692 17.131C16.1103 17.372 16.2308 17.6618 16.2308 18.0002C16.2308 18.3387 16.1103 18.6285 15.8692 18.8695C15.6282 19.1105 15.3385 19.231 15 19.231ZM9 13.231C8.66153 13.231 8.37179 13.1105 8.13078 12.8695C7.88974 12.6285 7.76923 12.3387 7.76923 12.0002C7.76923 11.6618 7.88974 11.372 8.13078 11.131C8.37179 10.89 8.66153 10.7695 9 10.7695C9.33847 10.7695 9.62821 10.89 9.86923 11.131C10.1103 11.372 10.2308 11.6618 10.2308 12.0002C10.2308 12.3387 10.1103 12.6285 9.86923 12.8695C9.62821 13.1105 9.33847 13.231 9 13.231ZM15 13.231C14.6615 13.231 14.3718 13.1105 14.1308 12.8695C13.8897 12.6285 13.7692 12.3387 13.7692 12.0002C13.7692 11.6618 13.8897 11.372 14.1308 11.131C14.3718 10.89 14.6615 10.7695 15 10.7695C15.3385 10.7695 15.6282 10.89 15.8692 11.131C16.1103 11.372 16.2308 11.6618 16.2308 12.0002C16.2308 12.3387 16.1103 12.6285 15.8692 12.8695C15.6282 13.1105 15.3385 13.231 15 13.231ZM9 7.23102C8.66153 7.23102 8.37179 7.1105 8.13078 6.86947C7.88974 6.62845 7.76923 6.33871 7.76923 6.00025C7.76923 5.66178 7.88974 5.37204 8.13078 5.13102C8.37179 4.88999 8.66153 4.76947 9 4.76947C9.33847 4.76947 9.62821 4.88999 9.86923 5.13102C10.1103 5.37204 10.2308 5.66178 10.2308 6.00025C10.2308 6.33871 10.1103 6.62845 9.86923 6.86947C9.62821 7.1105 9.33847 7.23102 9 7.23102ZM15 7.23102C14.6615 7.23102 14.3718 7.1105 14.1308 6.86947C13.8897 6.62845 13.7692 6.33871 13.7692 6.00025C13.7692 5.66178 13.8897 5.37204 14.1308 5.13102C14.3718 4.88999 14.6615 4.76947 15 4.76947C15.3385 4.76947 15.6282 4.88999 15.8692 5.13102C16.1103 5.37204 16.2308 5.66178 16.2308 6.00025C16.2308 6.33871 16.1103 6.62845 15.8692 6.86947C15.6282 7.1105 15.3385 7.23102 15 7.23102Z" fill="black"/>
</svg>
