<svg width="24" height="24" viewBox="0 0 24 24" fill="none" xmlns="http://www.w3.org/2000/svg">
<path d="M5.3077 19.0002H6.38078L16.275 9.10602L15.2019 8.03294L5.3077 17.9272V19.0002ZM18.4154 8.38679L15.9154 5.89832L17.1231 4.69062C17.3269 4.48677 17.5702 4.38484 17.8529 4.38484C18.1356 4.38484 18.3789 4.48677 18.5827 4.69062L19.6173 5.72524C19.8212 5.92909 19.925 6.17043 19.9289 6.44927C19.9327 6.72812 19.8327 6.96947 19.6289 7.17332L18.4154 8.38679ZM17.6962 9.11179L6.8077 20.0002H4.30768V17.5002L15.1962 6.61177L17.6962 9.11179ZM15.7289 8.55987L15.2019 8.03294L16.275 9.10602L15.7289 8.55987Z" fill="black"/>
</svg>
