<svg width="24" height="24" viewBox="0 0 24 24" fill="none" xmlns="http://www.w3.org/2000/svg">
<path d="M4.5 19.0002C4.0782 19.0002 3.72275 18.8557 3.43365 18.5666C3.14455 18.2775 3 17.922 3 17.5002V6.61562C3 6.19382 3.16378 5.81914 3.49135 5.49159C3.8189 5.16403 4.19358 5.00024 4.61538 5.00024H9.59615L11.5962 7.00024H19.3846C19.7295 7.00024 20.0305 7.09351 20.2875 7.28004C20.5445 7.46659 20.7244 7.70666 20.8269 8.00024H11.1942L9.19423 6.00024H4.61538C4.43589 6.00024 4.28846 6.05794 4.17308 6.17332C4.05769 6.2887 4 6.43614 4 6.61562V17.3849C4 17.5259 4.03526 17.6413 4.10578 17.731C4.17628 17.8208 4.26922 17.8977 4.38462 17.9618L6.65 10.3849H22.8654L20.5981 17.9406C20.5032 18.2586 20.3215 18.5147 20.0529 18.7089C19.7843 18.9031 19.4846 19.0002 19.1539 19.0002H4.5ZM5.42692 18.0002H19.5385L21.5115 11.3849H7.4L5.42692 18.0002Z" fill="black"/>
</svg>
