<svg width="24" height="24" viewBox="0 0 24 24" fill="none" xmlns="http://www.w3.org/2000/svg">
<path d="M4.61538 19.0002C4.15513 19.0002 3.77083 18.8461 3.4625 18.5377C3.15417 18.2294 3 17.8451 3 17.3849V6.61562C3 6.15537 3.15417 5.77108 3.4625 5.46274C3.77083 5.15441 4.15513 5.00024 4.61538 5.00024H9.59615L11.5962 7.00024H19.3846C19.8449 7.00024 20.2292 7.15441 20.5375 7.46274C20.8458 7.77108 21 8.15537 21 8.61562V17.3849C21 17.8451 20.8458 18.2294 20.5375 18.5377C20.2292 18.8461 19.8449 19.0002 19.3846 19.0002H4.61538ZM4.61538 18.0002H19.3846C19.5641 18.0002 19.7115 17.9426 19.8269 17.8272C19.9423 17.7118 20 17.5644 20 17.3849V8.61562C20 8.43614 19.9423 8.2887 19.8269 8.17332C19.7115 8.05794 19.5641 8.00024 19.3846 8.00024H11.1942L9.19423 6.00024H4.61538C4.43589 6.00024 4.28846 6.05794 4.17308 6.17332C4.05769 6.2887 4 6.43614 4 6.61562V17.3849C4 17.5644 4.05769 17.7118 4.17308 17.8272C4.28846 17.9426 4.43589 18.0002 4.61538 18.0002Z" fill="black"/>
</svg>
