<svg width="24" height="24" viewBox="0 0 24 24" fill="none" xmlns="http://www.w3.org/2000/svg">
<path d="M5.69232 19.2502V18.2502H18.3077V19.2502H5.69232ZM12 16.0579C10.5731 16.0579 9.45387 15.6387 8.64232 14.8002C7.83079 13.9618 7.42502 12.8233 7.42502 11.3849V3.82716H8.55772V11.4195C8.55772 12.5066 8.86156 13.3675 9.46925 14.0022C10.0769 14.6368 10.9205 14.9541 12 14.9541C13.0795 14.9541 13.9231 14.6368 14.5308 14.0022C15.1385 13.3675 15.4423 12.5066 15.4423 11.4195V3.82716H16.575V11.3849C16.575 12.8233 16.1693 13.9618 15.3577 14.8002C14.5462 15.6387 13.4269 16.0579 12 16.0579Z" fill="black"/>
</svg>
