<svg width="24" height="24" viewBox="0 0 24 24" fill="none" xmlns="http://www.w3.org/2000/svg">
<path d="M7.87695 18.2502V5.75024H12.075C13.0302 5.75024 13.8731 6.05153 14.6039 6.65409C15.3346 7.25666 15.7 8.04064 15.7 9.00602C15.7 9.65089 15.5308 10.2153 15.1924 10.6993C14.8539 11.1833 14.4347 11.5381 13.9347 11.7637C14.5436 11.9342 15.0606 12.2919 15.4856 12.8368C15.9106 13.3817 16.1231 14.0387 16.1231 14.8079C16.1231 15.881 15.7225 16.723 14.9212 17.3339C14.1199 17.9448 13.2378 18.2502 12.275 18.2502H7.87695ZM9.15195 17.0656H12.2135C12.9879 17.0656 13.6132 16.8326 14.0895 16.3666C14.5657 15.9006 14.8039 15.3579 14.8039 14.7387C14.8039 14.1195 14.5657 13.5769 14.0895 13.1108C13.6132 12.6448 12.9821 12.4118 12.1962 12.4118H9.15195V17.0656ZM9.15195 11.2502H12.0154C12.6808 11.2502 13.2443 11.0445 13.7058 10.6329C14.1673 10.2214 14.3981 9.70601 14.3981 9.08679C14.3981 8.45601 14.1635 7.9387 13.6943 7.53487C13.225 7.13102 12.6693 6.92909 12.027 6.92909H9.15195V11.2502Z" fill="black"/>
</svg>
