<svg width="24" height="24" viewBox="0 0 24 24" fill="none" xmlns="http://www.w3.org/2000/svg">
<path d="M9.61538 18.5003V17.5003H20V18.5003H9.61538ZM9.61538 12.5003V11.5003H20V12.5003H9.61538ZM9.61538 6.50025V5.50025H20V6.50025H9.61538ZM5.32692 19.3272C4.96202 19.3272 4.64964 19.1972 4.38978 18.9374C4.12993 18.6775 4 18.3652 4 18.0003C4 17.6354 4.12993 17.323 4.38978 17.0631C4.64964 16.8033 4.96202 16.6733 5.32692 16.6733C5.69182 16.6733 6.00421 16.8033 6.26408 17.0631C6.52393 17.323 6.65385 17.6354 6.65385 18.0003C6.65385 18.3652 6.52393 18.6775 6.26408 18.9374C6.00421 19.1972 5.69182 19.3272 5.32692 19.3272ZM5.32692 13.3272C4.96202 13.3272 4.64964 13.1973 4.38978 12.9374C4.12993 12.6775 4 12.3652 4 12.0003C4 11.6354 4.12993 11.323 4.38978 11.0631C4.64964 10.8032 4.96202 10.6733 5.32692 10.6733C5.69182 10.6733 6.00421 10.8032 6.26408 11.0631C6.52393 11.323 6.65385 11.6354 6.65385 12.0003C6.65385 12.3652 6.52393 12.6775 6.26408 12.9374C6.00421 13.1973 5.69182 13.3272 5.32692 13.3272ZM5.32692 7.32718C4.96202 7.32718 4.64964 7.19725 4.38978 6.9374C4.12993 6.67753 4 6.36515 4 6.00025C4 5.63535 4.12993 5.32297 4.38978 5.0631C4.64964 4.80325 4.96202 4.67332 5.32692 4.67332C5.69182 4.67332 6.00421 4.80325 6.26408 5.0631C6.52393 5.32297 6.65385 5.63535 6.65385 6.00025C6.65385 6.36515 6.52393 6.67753 6.26408 6.9374C6.00421 7.19725 5.69182 7.32718 5.32692 7.32718Z" fill="black"/>
</svg>
