<svg width="24" height="24" viewBox="0 0 24 24" fill="none" xmlns="http://www.w3.org/2000/svg">
<path d="M4 21.0002V20.1156H6.5V18.7502H5V17.8656H6.5V16.5002H4V15.6156H6.6923C6.88845 15.6156 7.05288 15.682 7.18558 15.8147C7.31828 15.9474 7.38463 16.1118 7.38463 16.3079V17.6925C7.38463 17.8887 7.31828 18.0531 7.18558 18.1858C7.05288 18.3185 6.88845 18.3849 6.6923 18.3849C6.88845 18.3849 7.05288 18.4512 7.18558 18.5839C7.31828 18.7166 7.38463 18.881 7.38463 19.0772V20.3079C7.38463 20.5041 7.31828 20.6685 7.18558 20.8012C7.05288 20.9339 6.88845 21.0002 6.6923 21.0002H4ZM4 14.6925V12.2502C4 12.0541 4.06634 11.8897 4.19902 11.757C4.33172 11.6243 4.49615 11.5579 4.6923 11.5579H6.5V10.1925H4V9.30794H6.6923C6.88845 9.30794 7.05288 9.37429 7.18558 9.50697C7.31828 9.63967 7.38463 9.80409 7.38463 10.0002V11.7502C7.38463 11.9464 7.31828 12.1108 7.18558 12.2435C7.05288 12.3762 6.88845 12.4425 6.6923 12.4425H4.88462V13.8079H7.38463V14.6925H4ZM5.5 8.38487V3.88487H4V3.00024H6.38462V8.38487H5.5ZM9.61538 18.5002V17.5002H20V18.5002H9.61538ZM9.61538 12.5002V11.5002H20V12.5002H9.61538ZM9.61538 6.50024V5.50024H20V6.50024H9.61538Z" fill="black"/>
</svg>
