<svg width="24" height="24" viewBox="0 0 24 24" fill="none" xmlns="http://www.w3.org/2000/svg">
<path d="M2.59616 18.6156V16.9695C2.59616 16.5054 2.71635 16.1063 2.95674 15.7724C3.19712 15.4384 3.52016 15.1715 3.92586 14.9716C4.79324 14.5587 5.65449 14.2294 6.50961 13.9839C7.36474 13.7384 8.39359 13.6156 9.59616 13.6156C10.7987 13.6156 11.8276 13.7384 12.6827 13.9839C13.5378 14.2294 14.3991 14.5587 15.2665 14.9716C15.6722 15.1715 15.9952 15.4384 16.2356 15.7724C16.476 16.1063 16.5962 16.5054 16.5962 16.9695V18.6156H2.59616ZM18.5962 18.6156V16.9233C18.5962 16.3438 18.4789 15.7968 18.2443 15.2823C18.0097 14.7678 17.677 14.3263 17.2462 13.9579C17.7372 14.0579 18.2103 14.1967 18.6654 14.3743C19.1205 14.5518 19.5705 14.7515 20.0154 14.9733C20.4487 15.1913 20.7885 15.4702 21.0346 15.81C21.2808 16.1499 21.4039 16.521 21.4039 16.9233V18.6156H18.5962ZM9.59616 11.3849C8.77116 11.3849 8.06491 11.0911 7.47741 10.5036C6.88991 9.91612 6.59616 9.20987 6.59616 8.38487C6.59616 7.55985 6.88991 6.85359 7.47741 6.26609C8.06491 5.67859 8.77116 5.38484 9.59616 5.38484C10.4212 5.38484 11.1274 5.67859 11.7149 6.26609C12.3024 6.85359 12.5962 7.55985 12.5962 8.38487C12.5962 9.20987 12.3024 9.91612 11.7149 10.5036C11.1274 11.0911 10.4212 11.3849 9.59616 11.3849ZM16.8654 8.38487C16.8654 9.20987 16.5717 9.91612 15.9842 10.5036C15.3967 11.0911 14.6904 11.3849 13.8654 11.3849C13.8231 11.3849 13.7692 11.3801 13.7039 11.3704C13.6385 11.3608 13.5846 11.3503 13.5423 11.3387C13.8811 10.9238 14.1414 10.4635 14.3233 9.95784C14.5052 9.45218 14.5962 8.92705 14.5962 8.38247C14.5962 7.8379 14.501 7.31754 14.3106 6.82139C14.1202 6.32524 13.8641 5.86178 13.5423 5.43099C13.5962 5.41178 13.65 5.39928 13.7039 5.39349C13.7577 5.38773 13.8116 5.38484 13.8654 5.38484C14.6904 5.38484 15.3967 5.67859 15.9842 6.26609C16.5717 6.85359 16.8654 7.55985 16.8654 8.38487ZM3.59616 17.6156H15.5962V16.9695C15.5962 16.7349 15.5375 16.5297 15.4202 16.3541C15.3029 16.1784 15.0923 16.0105 14.7885 15.8502C14.0423 15.4515 13.2558 15.1461 12.4289 14.9339C11.6019 14.7217 10.6577 14.6156 9.59616 14.6156C8.53463 14.6156 7.59039 14.7217 6.76346 14.9339C5.93654 15.1461 5.15001 15.4515 4.40386 15.8502C4.10001 16.0105 3.88943 16.1784 3.77211 16.3541C3.65481 16.5297 3.59616 16.7349 3.59616 16.9695V17.6156ZM9.59616 10.3849C10.1462 10.3849 10.617 10.189 11.0087 9.79737C11.4003 9.4057 11.5962 8.93487 11.5962 8.38487C11.5962 7.83487 11.4003 7.36403 11.0087 6.97237C10.617 6.5807 10.1462 6.38487 9.59616 6.38487C9.04616 6.38487 8.57533 6.5807 8.18366 6.97237C7.79199 7.36403 7.59616 7.83487 7.59616 8.38487C7.59616 8.93487 7.79199 9.4057 8.18366 9.79737C8.57533 10.189 9.04616 10.3849 9.59616 10.3849Z" fill="black"/>
</svg>
