<svg width="24" height="24" viewBox="0 0 24 24" fill="none" xmlns="http://www.w3.org/2000/svg">
<path d="M12.6923 11.3349C13.0603 10.9426 13.3189 10.4881 13.4683 9.97139C13.6176 9.45473 13.6923 8.92588 13.6923 8.38487C13.6923 7.84383 13.6176 7.31498 13.4683 6.79832C13.3189 6.28165 13.0603 5.82716 12.6923 5.43484C13.4487 5.50408 14.0737 5.82074 14.5673 6.38484C15.0609 6.94896 15.3077 7.61563 15.3077 8.38487C15.3077 9.15408 15.0609 9.82075 14.5673 10.3849C14.0737 10.949 13.4487 11.2656 12.6923 11.3349ZM17.6923 18.6156V16.9233C17.6923 16.433 17.6039 15.9665 17.4269 15.5238C17.25 15.0812 16.9705 14.7156 16.5885 14.4272C17.2718 14.6374 17.8959 14.9384 18.4606 15.33C19.0253 15.7217 19.3077 16.2528 19.3077 16.9233V18.6156H17.6923ZM22.3077 10.5002H17.3077V9.50024H22.3077V10.5002ZM8.69232 11.3849C7.86732 11.3849 7.16107 11.0911 6.57357 10.5036C5.98607 9.91612 5.69232 9.20987 5.69232 8.38487C5.69232 7.55985 5.98607 6.85359 6.57357 6.26609C7.16107 5.67859 7.86732 5.38484 8.69232 5.38484C9.51732 5.38484 10.2236 5.67859 10.8111 6.26609C11.3986 6.85359 11.6923 7.55985 11.6923 8.38487C11.6923 9.20987 11.3986 9.91612 10.8111 10.5036C10.2236 11.0911 9.51732 11.3849 8.69232 11.3849ZM1.69232 18.6156V16.9695C1.69232 16.5567 1.81251 16.1704 2.0529 15.8108C2.29328 15.4512 2.61668 15.172 3.0231 14.9733C3.96668 14.5208 4.91091 14.1813 5.85577 13.955C6.80066 13.7288 7.74617 13.6156 8.69232 13.6156C9.63847 13.6156 10.584 13.7288 11.5289 13.955C12.4737 14.1813 13.418 14.5208 14.3616 14.9733C14.768 15.172 15.0914 15.4512 15.3317 15.8108C15.5721 16.1704 15.6923 16.5567 15.6923 16.9695V18.6156H1.69232Z" fill="black"/>
</svg>
