<svg width="24" height="24" viewBox="0 0 24 24" fill="none" xmlns="http://www.w3.org/2000/svg">
<path d="M12.028 17.231C12.2491 17.231 12.4356 17.1547 12.5875 17.002C12.7394 16.8494 12.8154 16.6625 12.8154 16.4415C12.8154 16.2204 12.7391 16.0339 12.5864 15.882C12.4338 15.7301 12.2469 15.6541 12.0259 15.6541C11.8048 15.6541 11.6183 15.7304 11.4663 15.8831C11.3144 16.0357 11.2385 16.2226 11.2385 16.4436C11.2385 16.6647 11.3148 16.8512 11.4674 17.0031C11.6201 17.1551 11.8069 17.231 12.028 17.231ZM11.5115 13.9195H12.4769C12.5026 13.4849 12.5843 13.1317 12.7221 12.8599C12.8599 12.5881 13.1436 12.2413 13.5731 11.8195C14.0192 11.3733 14.3513 10.9736 14.5692 10.6204C14.7872 10.2672 14.8962 9.8584 14.8962 9.39397C14.8962 8.60584 14.6192 7.97779 14.0654 7.50984C13.5116 7.04189 12.8565 6.80792 12.1 6.80792C11.3808 6.80792 10.7702 7.00344 10.2683 7.39447C9.76634 7.7855 9.39871 8.23486 9.16537 8.74254L10.0846 9.12332C10.2449 8.75922 10.474 8.43743 10.7721 8.15794C11.0702 7.87844 11.5 7.73869 12.0616 7.73869C12.7103 7.73869 13.184 7.91659 13.4827 8.27237C13.7814 8.62814 13.9308 9.01948 13.9308 9.44639C13.9308 9.79254 13.8372 10.1018 13.65 10.3743C13.4628 10.6467 13.2192 10.9208 12.9192 11.1964C12.3397 11.731 11.9603 12.1842 11.7808 12.556C11.6013 12.9278 11.5115 13.3823 11.5115 13.9195ZM12.0034 21.0002C10.7588 21.0002 9.58872 20.7641 8.4931 20.2918C7.39748 19.8194 6.44444 19.1784 5.63397 18.3687C4.82352 17.559 4.18192 16.6069 3.70915 15.5123C3.23638 14.4177 3 13.2481 3 12.0036C3 10.759 3.23616 9.58896 3.70848 8.49334C4.18081 7.39773 4.82183 6.44469 5.63153 5.63422C6.44123 4.82377 7.39337 4.18216 8.48795 3.70939C9.58255 3.23663 10.7521 3.00024 11.9966 3.00024C13.2412 3.00024 14.4113 3.2364 15.5069 3.70872C16.6025 4.18105 17.5556 4.82207 18.366 5.63177C19.1765 6.44147 19.8181 7.39361 20.2908 8.48819C20.7636 9.58279 21 10.7524 21 11.9969C21 13.2414 20.7638 14.4115 20.2915 15.5071C19.8192 16.6028 19.1782 17.5558 18.3685 18.3663C17.5588 19.1767 16.6066 19.8183 15.512 20.2911C14.4174 20.7639 13.2479 21.0002 12.0034 21.0002ZM12 20.0002C14.2333 20.0002 16.125 19.2252 17.675 17.6752C19.225 16.1252 20 14.2336 20 12.0002C20 9.76691 19.225 7.87524 17.675 6.32524C16.125 4.77524 14.2333 4.00024 12 4.00024C9.76667 4.00024 7.875 4.77524 6.325 6.32524C4.775 7.87524 4 9.76691 4 12.0002C4 14.2336 4.775 16.1252 6.325 17.6752C7.875 19.2252 9.76667 20.0002 12 20.0002Z" fill="black"/>
</svg>
