<svg width="24" height="24" viewBox="0 0 24 24" fill="none" xmlns="http://www.w3.org/2000/svg">
<path d="M5.61538 20.0002C5.15513 20.0002 4.77083 19.8461 4.4625 19.5377C4.15417 19.2294 4 18.8451 4 18.3849V5.61562C4 5.15537 4.15417 4.77108 4.4625 4.46274C4.77083 4.15441 5.15513 4.00024 5.61538 4.00024H18.3846C18.8449 4.00024 19.2292 4.15441 19.5375 4.46274C19.8458 4.77108 20 5.15537 20 5.61562V18.3849C20 18.8451 19.8458 19.2294 19.5375 19.5377C19.2292 19.8461 18.8449 20.0002 18.3846 20.0002H5.61538ZM7.5 16.5002H16.6538L13.8269 12.731L11.2116 16.0387L9.46152 13.9233L7.5 16.5002Z" fill="black"/>
</svg>
