<svg width="24" height="24" viewBox="0 0 24 24" fill="none" xmlns="http://www.w3.org/2000/svg">
<path d="M6.61537 9.00024H15V7.00024C15 6.16691 14.7083 5.45858 14.125 4.87524C13.5417 4.29191 12.8333 4.00024 12 4.00024C11.1667 4.00024 10.4583 4.29191 9.875 4.87524C9.29167 5.45858 9 6.16691 9 7.00024H8C8 5.88614 8.38814 4.94095 9.16442 4.16467C9.94071 3.38839 10.8859 3.00024 12 3.00024C13.1141 3.00024 14.0593 3.38839 14.8356 4.16467C15.6119 4.94095 16 5.88614 16 7.00024V9.00024H17.3846C17.8321 9.00024 18.2132 9.15761 18.5279 9.47234C18.8426 9.78709 19 10.1682 19 10.6156V19.3849C19 19.8323 18.8426 20.2134 18.5279 20.5281C18.2132 20.8429 17.8321 21.0002 17.3846 21.0002H6.61537C6.16794 21.0002 5.78685 20.8429 5.4721 20.5281C5.15737 20.2134 5 19.8323 5 19.3849V10.6156C5 10.1682 5.15737 9.78709 5.4721 9.47234C5.78685 9.15761 6.16794 9.00024 6.61537 9.00024ZM6.61537 20.0002H17.3846C17.5641 20.0002 17.7115 19.9426 17.8269 19.8272C17.9423 19.7118 18 19.5644 18 19.3849V10.6156C18 10.4361 17.9423 10.2887 17.8269 10.1733C17.7115 10.0579 17.5641 10.0002 17.3846 10.0002H6.61537C6.43589 10.0002 6.28846 10.0579 6.17308 10.1733C6.05769 10.2887 6 10.4361 6 10.6156V19.3849C6 19.5644 6.05769 19.7118 6.17308 19.8272C6.28846 19.9426 6.43589 20.0002 6.61537 20.0002ZM12 16.5002C12.4218 16.5002 12.7772 16.3557 13.0663 16.0666C13.3554 15.7775 13.5 15.422 13.5 15.0002C13.5 14.5784 13.3554 14.223 13.0663 13.9339C12.7772 13.6448 12.4218 13.5002 12 13.5002C11.5782 13.5002 11.2228 13.6448 10.9337 13.9339C10.6446 14.223 10.5 14.5784 10.5 15.0002C10.5 15.422 10.6446 15.7775 10.9337 16.0666C11.2228 16.3557 11.5782 16.5002 12 16.5002Z" fill="black"/>
</svg>
