<svg width="24" height="24" viewBox="0 0 24 24" fill="none" xmlns="http://www.w3.org/2000/svg">
<path d="M5.80764 21.0002C5.34739 21.0002 4.96309 20.8461 4.65476 20.5377C4.34643 20.2294 4.19226 19.8451 4.19226 19.3849V5.61562C4.19226 5.15537 4.34643 4.77108 4.65476 4.46274C4.96309 4.15441 5.34739 4.00024 5.80764 4.00024H12.2307V5.00024H5.80764C5.6538 5.00024 5.51279 5.06434 5.38459 5.19254C5.25637 5.32076 5.19226 5.46179 5.19226 5.61562V19.3849C5.19226 19.5387 5.25637 19.6797 5.38459 19.8079C5.51279 19.9361 5.6538 20.0002 5.80764 20.0002H12.2307V21.0002H5.80764ZM16.2692 16.0387L15.5673 15.3195L17.8865 13.0002H9.23074V12.0002H17.8865L15.5673 9.68099L16.2692 8.96177L19.8077 12.5002L16.2692 16.0387Z" fill="black"/>
</svg>
