<svg width="24" height="24" viewBox="0 0 24 24" fill="none" xmlns="http://www.w3.org/2000/svg">
<path d="M12 13.0002C11.4359 13.0002 10.9615 12.8079 10.5769 12.4233C10.1923 12.0387 10 11.5643 10 11.0002V5.00024C10 4.43614 10.1923 3.96179 10.5769 3.57717C10.9615 3.19255 11.4359 3.00024 12 3.00024C12.5641 3.00024 13.0385 3.19255 13.4231 3.57717C13.8077 3.96179 14 4.43614 14 5.00024V11.0002C14 11.5643 13.8077 12.0387 13.4231 12.4233C13.0385 12.8079 12.5641 13.0002 12 13.0002ZM11.5 20.5002V16.9829C9.93333 16.8394 8.625 16.199 7.575 15.0618C6.525 13.9246 6 12.5708 6 11.0002H7C7 12.3836 7.4875 13.5627 8.4625 14.5377C9.4375 15.5127 10.6167 16.0002 12 16.0002C13.3833 16.0002 14.5625 15.5127 15.5375 14.5377C16.5125 13.5627 17 12.3836 17 11.0002H18C18 12.5708 17.475 13.9246 16.425 15.0618C15.375 16.199 14.0667 16.8394 12.5 16.9829V20.5002H11.5ZM12 12.0002C12.2833 12.0002 12.5208 11.9044 12.7125 11.7127C12.9042 11.5211 13 11.2836 13 11.0002V5.00024C13 4.71691 12.9042 4.47941 12.7125 4.28774C12.5208 4.09608 12.2833 4.00024 12 4.00024C11.7167 4.00024 11.4792 4.09608 11.2875 4.28774C11.0958 4.47941 11 4.71691 11 5.00024V11.0002C11 11.2836 11.0958 11.5211 11.2875 11.7127C11.4792 11.9044 11.7167 12.0002 12 12.0002Z" fill="black"/>
</svg>
