<svg width="24" height="24" viewBox="0 0 24 24" fill="none" xmlns="http://www.w3.org/2000/svg">
<path d="M15.3122 10.6156C15.6233 10.6156 15.8862 10.5067 16.101 10.289C16.3157 10.0712 16.4231 9.8068 16.4231 9.49572C16.4231 9.18464 16.3142 8.92172 16.0964 8.70697C15.8787 8.49224 15.6143 8.38487 15.3032 8.38487C14.9921 8.38487 14.7292 8.49374 14.5144 8.71149C14.2997 8.92926 14.1923 9.19369 14.1923 9.50477C14.1923 9.81585 14.3012 10.0788 14.519 10.2935C14.7367 10.5083 15.0011 10.6156 15.3122 10.6156ZM8.69682 10.6156C9.00791 10.6156 9.27083 10.5067 9.48558 10.289C9.70033 10.0712 9.8077 9.8068 9.8077 9.49572C9.8077 9.18464 9.69882 8.92172 9.48105 8.70697C9.26328 8.49224 8.99886 8.38487 8.68777 8.38487C8.37669 8.38487 8.11378 8.49374 7.89902 8.71149C7.68429 8.92926 7.57692 9.19369 7.57692 9.50477C7.57692 9.81585 7.6858 10.0788 7.90355 10.2935C8.12132 10.5083 8.38574 10.6156 8.69682 10.6156ZM12 16.8849C12.9538 16.8849 13.8324 16.6217 14.6356 16.0954C15.4388 15.5692 16.0423 14.8708 16.4462 14.0002H7.55385C7.95768 14.8708 8.56121 15.5692 9.36443 16.0954C10.1676 16.6217 11.0462 16.8849 12 16.8849ZM12.0034 21.0002C10.7588 21.0002 9.58872 20.7641 8.4931 20.2918C7.39748 19.8194 6.44444 19.1784 5.63397 18.3687C4.82352 17.559 4.18192 16.6069 3.70915 15.5123C3.23638 14.4177 3 13.2481 3 12.0036C3 10.759 3.23616 9.58896 3.70848 8.49334C4.18081 7.39773 4.82183 6.44469 5.63153 5.63422C6.44123 4.82377 7.39337 4.18216 8.48795 3.70939C9.58255 3.23663 10.7521 3.00024 11.9966 3.00024C13.2412 3.00024 14.4113 3.2364 15.5069 3.70872C16.6025 4.18105 17.5556 4.82207 18.366 5.63177C19.1765 6.44147 19.8181 7.39361 20.2908 8.48819C20.7636 9.58279 21 10.7524 21 11.9969C21 13.2414 20.7638 14.4115 20.2915 15.5071C19.8192 16.6028 19.1782 17.5558 18.3685 18.3663C17.5588 19.1767 16.6066 19.8183 15.512 20.2911C14.4174 20.7639 13.2479 21.0002 12.0034 21.0002ZM12 20.0002C14.2333 20.0002 16.125 19.2252 17.675 17.6752C19.225 16.1252 20 14.2336 20 12.0002C20 9.76691 19.225 7.87524 17.675 6.32524C16.125 4.77524 14.2333 4.00024 12 4.00024C9.76667 4.00024 7.875 4.77524 6.325 6.32524C4.775 7.87524 4 9.76691 4 12.0002C4 14.2336 4.775 16.1252 6.325 17.6752C7.875 19.2252 9.76667 20.0002 12 20.0002Z" fill="black"/>
</svg>
