<svg width="24" height="24" viewBox="0 0 24 24" fill="none" xmlns="http://www.w3.org/2000/svg">
<path d="M12 18.5387C11.725 18.5387 11.4896 18.4408 11.2938 18.245C11.0979 18.0491 11 17.8137 11 17.5387C11 17.2637 11.0979 17.0283 11.2938 16.8324C11.4896 16.6366 11.725 16.5387 12 16.5387C12.275 16.5387 12.5104 16.6366 12.7063 16.8324C12.9021 17.0283 13 17.2637 13 17.5387C13 17.8137 12.9021 18.0491 12.7063 18.245C12.5104 18.4408 12.275 18.5387 12 18.5387ZM12 13.0002C11.725 13.0002 11.4896 12.9023 11.2938 12.7065C11.0979 12.5107 11 12.2752 11 12.0002C11 11.7252 11.0979 11.4898 11.2938 11.294C11.4896 11.0982 11.725 11.0002 12 11.0002C12.275 11.0002 12.5104 11.0982 12.7063 11.294C12.9021 11.4898 13 11.7252 13 12.0002C13 12.2752 12.9021 12.5107 12.7063 12.7065C12.5104 12.9023 12.275 13.0002 12 13.0002ZM12 7.46179C11.725 7.46179 11.4896 7.36388 11.2938 7.16804C11.0979 6.97221 11 6.73679 11 6.46177C11 6.18677 11.0979 5.95135 11.2938 5.75552C11.4896 5.55969 11.725 5.46177 12 5.46177C12.275 5.46177 12.5104 5.55969 12.7063 5.75552C12.9021 5.95135 13 6.18677 13 6.46177C13 6.73679 12.9021 6.97221 12.7063 7.16804C12.5104 7.36388 12.275 7.46179 12 7.46179Z" fill="black"/>
</svg>
