<svg width="24" height="24" viewBox="0 0 24 24" fill="none" xmlns="http://www.w3.org/2000/svg">
<path d="M6.46155 13.0002C6.18655 13.0002 5.95113 12.9023 5.7553 12.7065C5.55946 12.5107 5.46155 12.2752 5.46155 12.0002C5.46155 11.7252 5.55946 11.4898 5.7553 11.294C5.95113 11.0982 6.18655 11.0002 6.46155 11.0002C6.73656 11.0002 6.97199 11.0982 7.16782 11.294C7.36366 11.4898 7.46157 11.7252 7.46157 12.0002C7.46157 12.2752 7.36366 12.5107 7.16782 12.7065C6.97199 12.9023 6.73656 13.0002 6.46155 13.0002ZM12 13.0002C11.725 13.0002 11.4896 12.9023 11.2938 12.7065C11.0979 12.5107 11 12.2752 11 12.0002C11 11.7252 11.0979 11.4898 11.2938 11.294C11.4896 11.0982 11.725 11.0002 12 11.0002C12.275 11.0002 12.5104 11.0982 12.7063 11.294C12.9021 11.4898 13 11.7252 13 12.0002C13 12.2752 12.9021 12.5107 12.7063 12.7065C12.5104 12.9023 12.275 13.0002 12 13.0002ZM17.5385 13.0002C17.2635 13.0002 17.0281 12.9023 16.8322 12.7065C16.6364 12.5107 16.5385 12.2752 16.5385 12.0002C16.5385 11.7252 16.6364 11.4898 16.8322 11.294C17.0281 11.0982 17.2635 11.0002 17.5385 11.0002C17.8135 11.0002 18.0489 11.0982 18.2447 11.294C18.4406 11.4898 18.5385 11.7252 18.5385 12.0002C18.5385 12.2752 18.4406 12.5107 18.2447 12.7065C18.0489 12.9023 17.8135 13.0002 17.5385 13.0002Z" fill="black"/>
</svg>
