<svg width="24" height="24" viewBox="0 0 24 24" fill="none" xmlns="http://www.w3.org/2000/svg">
<path d="M4.5 18.731V17.731H6.5V10.231C6.5 8.89897 6.92308 7.72749 7.76923 6.71659C8.61538 5.70569 9.6923 5.07204 11 4.81562V4.11562C11 3.82715 11.0946 3.58837 11.2837 3.39927C11.4728 3.21017 11.7115 3.11562 12 3.11562C12.2885 3.11562 12.5273 3.21017 12.7163 3.39927C12.9054 3.58837 13 3.82715 13 4.11562V4.81562C14.3077 5.07204 15.3846 5.70569 16.2308 6.71659C17.0769 7.72749 17.5 8.89897 17.5 10.231V17.731H19.5V18.731H4.5ZM12 21.6156C11.5654 21.6156 11.1875 21.4615 10.8663 21.1531C10.5452 20.8448 10.3846 20.4605 10.3846 20.0002H13.6154C13.6154 20.4605 13.4612 20.8448 13.1529 21.1531C12.8445 21.4615 12.4602 21.6156 12 21.6156Z" fill="black"/>
</svg>
