<svg width="24" height="24" viewBox="0 0 24 24" fill="none" xmlns="http://www.w3.org/2000/svg">
<path d="M4.48077 20.0002C4.33911 20.0002 4.22036 19.9523 4.12452 19.8563C4.02869 19.7603 3.98077 19.6414 3.98077 19.4996C3.98077 19.3577 4.02869 19.239 4.12452 19.1435C4.22036 19.048 4.33911 19.0002 4.48077 19.0002H5.6923V12.5002H4.48077C4.33911 12.5002 4.22036 12.4523 4.12452 12.3563C4.02869 12.2603 3.98077 12.1414 3.98077 11.9996C3.98077 11.8577 4.02869 11.739 4.12452 11.6435C4.22036 11.548 4.33911 11.5002 4.48077 11.5002H5.6923V5.00024H4.48077C4.33911 5.00024 4.22036 4.95226 4.12452 4.85629C4.02869 4.76033 3.98077 4.64142 3.98077 4.49957C3.98077 4.3577 4.02869 4.23902 4.12452 4.14352C4.22036 4.048 4.33911 4.00024 4.48077 4.00024H19.5C19.6417 4.00024 19.7604 4.04823 19.8562 4.14419C19.9521 4.24014 20 4.35905 20 4.50092C20 4.64277 19.9521 4.76145 19.8562 4.85697C19.7604 4.95249 19.6417 5.00024 19.5 5.00024H18.3077V11.5002H19.5C19.6417 11.5002 19.7604 11.5482 19.8562 11.6442C19.9521 11.7401 20 11.8591 20 12.0009C20 12.1428 19.9521 12.2615 19.8562 12.357C19.7604 12.4525 19.6417 12.5002 19.5 12.5002H18.3077V19.0002H19.5C19.6417 19.0002 19.7604 19.0482 19.8562 19.1442C19.9521 19.2402 20 19.3591 20 19.5009C20 19.6428 19.9521 19.7615 19.8562 19.857C19.7604 19.9525 19.6417 20.0002 19.5 20.0002H4.48077ZM6.6923 19.0002H17.3077V12.5002H16.8077C16.666 12.5002 16.5473 12.4523 16.4514 12.3563C16.3556 12.2603 16.3077 12.1414 16.3077 11.9996C16.3077 11.8577 16.3556 11.739 16.4514 11.6435C16.5473 11.548 16.666 11.5002 16.8077 11.5002H17.3077V5.00024H6.6923V11.5002H7.1923C7.33397 11.5002 7.45271 11.5482 7.54855 11.6442C7.64438 11.7401 7.6923 11.8591 7.6923 12.0009C7.6923 12.1428 7.64438 12.2615 7.54855 12.357C7.45271 12.4525 7.33397 12.5002 7.1923 12.5002H6.6923V19.0002ZM11.9977 15.3656C12.6916 15.3656 13.2821 15.126 13.7692 14.6468C14.2564 14.1676 14.5 13.5877 14.5 12.907C14.5 12.3653 14.3437 11.9 14.0312 11.5112C13.7187 11.1224 13.0417 10.3238 12 9.11562C10.9679 10.3182 10.2933 11.1167 9.97595 11.511C9.65865 11.9054 9.5 12.3724 9.5 12.912C9.5 13.5901 9.74283 14.1685 10.2285 14.6474C10.7142 15.1262 11.3039 15.3656 11.9977 15.3656Z" fill="black"/>
</svg>
