<svg width="24" height="24" viewBox="0 0 24 24" fill="none" xmlns="http://www.w3.org/2000/svg">
<path d="M5.61538 20.0002C5.15513 20.0002 4.77083 19.8461 4.4625 19.5377C4.15417 19.2294 4 18.8451 4 18.3849V5.61562C4 5.15537 4.15417 4.77108 4.4625 4.46274C4.77083 4.15441 5.15513 4.00024 5.61538 4.00024H11.2308V5.00024H5.61538C5.46154 5.00024 5.32052 5.06434 5.1923 5.19254C5.0641 5.32076 5 5.46179 5 5.61562V18.3849C5 18.5387 5.0641 18.6797 5.1923 18.8079C5.32052 18.9361 5.46154 19.0002 5.61538 19.0002H18.3846C18.5385 19.0002 18.6795 18.9361 18.8077 18.8079C18.9359 18.6797 19 18.5387 19 18.3849V12.7695H20V18.3849C20 18.8451 19.8458 19.2294 19.5375 19.5377C19.2292 19.8461 18.8449 20.0002 18.3846 20.0002H5.61538ZM9.73845 14.9695L9.03077 14.2618L18.2923 5.00024H14V4.00024H20V10.0002H19V5.70794L9.73845 14.9695Z" fill="black"/>
</svg>
