<svg width="24" height="24" viewBox="0 0 24 24" fill="none" xmlns="http://www.w3.org/2000/svg">
<path d="M16.1154 10.5002V9.50024H21.1154V10.5002H16.1154ZM9 11.3849C8.175 11.3849 7.46875 11.0911 6.88125 10.5036C6.29375 9.91612 6 9.20987 6 8.38487C6 7.55985 6.29375 6.85359 6.88125 6.26609C7.46875 5.67859 8.175 5.38484 9 5.38484C9.825 5.38484 10.5312 5.67859 11.1188 6.26609C11.7063 6.85359 12 7.55985 12 8.38487C12 9.20987 11.7063 9.91612 11.1188 10.5036C10.5312 11.0911 9.825 11.3849 9 11.3849ZM2 18.6156V16.9695C2 16.5567 2.12019 16.1704 2.36057 15.8108C2.60096 15.4512 2.92436 15.172 3.33078 14.9733C4.27436 14.5208 5.21858 14.1813 6.16345 13.955C7.10833 13.7288 8.05385 13.6156 9 13.6156C9.94615 13.6156 10.8917 13.7288 11.8366 13.955C12.7814 14.1813 13.7256 14.5208 14.6692 14.9733C15.0756 15.172 15.399 15.4512 15.6394 15.8108C15.8798 16.1704 16 16.5567 16 16.9695V18.6156H2Z" fill="black"/>
</svg>
