<svg width="24" height="24" viewBox="0 0 24 24" fill="none" xmlns="http://www.w3.org/2000/svg">
<path d="M12 11.3849C11.175 11.3849 10.4688 11.0911 9.88125 10.5036C9.29375 9.91612 9 9.20987 9 8.38487C9 7.55985 9.29375 6.85359 9.88125 6.26609C10.4688 5.67859 11.175 5.38484 12 5.38484C12.825 5.38484 13.5312 5.67859 14.1188 6.26609C14.7063 6.85359 15 7.55985 15 8.38487C15 9.20987 14.7063 9.91612 14.1188 10.5036C13.5312 11.0911 12.825 11.3849 12 11.3849ZM5 18.6156V16.9695C5 16.5567 5.12019 16.1704 5.36058 15.8108C5.60096 15.4512 5.92436 15.172 6.33078 14.9733C7.27436 14.5208 8.21858 14.1813 9.16345 13.955C10.1083 13.7288 11.0539 13.6156 12 13.6156C12.9462 13.6156 13.8917 13.7288 14.8365 13.955C15.7814 14.1813 16.7256 14.5208 17.6692 14.9733C18.0756 15.172 18.399 15.4512 18.6394 15.8108C18.8798 16.1704 19 16.5567 19 16.9695V18.6156H5Z" fill="black"/>
</svg>
