<svg width="24" height="24" viewBox="0 0 24 24" fill="none" xmlns="http://www.w3.org/2000/svg">
<path d="M12 11.3849C11.175 11.3849 10.4688 11.0911 9.88125 10.5036C9.29375 9.91612 9 9.20987 9 8.38487C9 7.55985 9.29375 6.85359 9.88125 6.26609C10.4688 5.67859 11.175 5.38484 12 5.38484C12.825 5.38484 13.5312 5.67859 14.1188 6.26609C14.7063 6.85359 15 7.55985 15 8.38487C15 9.20987 14.7063 9.91612 14.1188 10.5036C13.5312 11.0911 12.825 11.3849 12 11.3849ZM5 18.6156V16.9695C5 16.5567 5.12019 16.1704 5.36058 15.8108C5.60096 15.4512 5.92436 15.172 6.33078 14.9733C7.27436 14.5208 8.21858 14.1813 9.16345 13.955C10.1083 13.7288 11.0539 13.6156 12 13.6156C12.9462 13.6156 13.8917 13.7288 14.8365 13.955C15.7814 14.1813 16.7256 14.5208 17.6692 14.9733C18.0756 15.172 18.399 15.4512 18.6394 15.8108C18.8798 16.1704 19 16.5567 19 16.9695V18.6156H5ZM6 17.6156H18V16.9695C18 16.7477 17.9285 16.5394 17.7856 16.3445C17.6426 16.1496 17.4449 15.9849 17.1923 15.8502C16.3692 15.4515 15.5206 15.1461 14.6464 14.9339C13.7722 14.7217 12.8901 14.6156 12 14.6156C11.1099 14.6156 10.2278 14.7217 9.3536 14.9339C8.4794 15.1461 7.63077 15.4515 6.8077 15.8502C6.55513 15.9849 6.35737 16.1496 6.21442 16.3445C6.07147 16.5394 6 16.7477 6 16.9695V17.6156ZM12 10.3849C12.55 10.3849 13.0208 10.189 13.4125 9.79737C13.8042 9.4057 14 8.93487 14 8.38487C14 7.83487 13.8042 7.36404 13.4125 6.97237C13.0208 6.5807 12.55 6.38487 12 6.38487C11.45 6.38487 10.9792 6.5807 10.5875 6.97237C10.1958 7.36404 10 7.83487 10 8.38487C10 8.93487 10.1958 9.4057 10.5875 9.79737C10.9792 10.189 11.45 10.3849 12 10.3849Z" fill="black"/>
</svg>
