<svg width="24" height="24" viewBox="0 0 24 24" fill="none" xmlns="http://www.w3.org/2000/svg">
<path d="M16.1154 10.5002V9.50024H21.1154V10.5002H16.1154ZM9 11.3849C8.175 11.3849 7.46875 11.0911 6.88125 10.5036C6.29375 9.91612 6 9.20987 6 8.38487C6 7.55985 6.29375 6.85359 6.88125 6.26609C7.46875 5.67859 8.175 5.38484 9 5.38484C9.825 5.38484 10.5312 5.67859 11.1188 6.26609C11.7063 6.85359 12 7.55985 12 8.38487C12 9.20987 11.7063 9.91612 11.1188 10.5036C10.5312 11.0911 9.825 11.3849 9 11.3849ZM2 18.6156V16.9695C2 16.5567 2.12019 16.1704 2.36057 15.8108C2.60096 15.4512 2.92436 15.172 3.33078 14.9733C4.27436 14.5208 5.21858 14.1813 6.16345 13.955C7.10833 13.7288 8.05385 13.6156 9 13.6156C9.94615 13.6156 10.8917 13.7288 11.8366 13.955C12.7814 14.1813 13.7256 14.5208 14.6692 14.9733C15.0756 15.172 15.399 15.4512 15.6394 15.8108C15.8798 16.1704 16 16.5567 16 16.9695V18.6156H2ZM3 17.6156H15V16.9695C15 16.7477 14.9285 16.5394 14.7856 16.3445C14.6426 16.1496 14.4449 15.9849 14.1923 15.8502C13.3692 15.4515 12.5206 15.1461 11.6464 14.9339C10.7722 14.7217 9.89008 14.6156 9 14.6156C8.10992 14.6156 7.22778 14.7217 6.3536 14.9339C5.4794 15.1461 4.63077 15.4515 3.8077 15.8502C3.55513 15.9849 3.35737 16.1496 3.21442 16.3445C3.07147 16.5394 3 16.7477 3 16.9695V17.6156ZM9 10.3849C9.55 10.3849 10.0208 10.189 10.4125 9.79737C10.8042 9.4057 11 8.93487 11 8.38487C11 7.83487 10.8042 7.36403 10.4125 6.97237C10.0208 6.5807 9.55 6.38487 9 6.38487C8.45 6.38487 7.97917 6.5807 7.5875 6.97237C7.19583 7.36403 7 7.83487 7 8.38487C7 8.93487 7.19583 9.4057 7.5875 9.79737C7.97917 10.189 8.45 10.3849 9 10.3849Z" fill="black"/>
</svg>
