<svg width="24" height="24" viewBox="0 0 24 24" fill="none" xmlns="http://www.w3.org/2000/svg">
<path d="M12.5 11.5002H19.9885C19.8538 9.47459 19.0785 7.75055 17.6625 6.32812C16.2465 4.90569 14.5257 4.13358 12.5 4.01179V11.5002ZM11.5 19.9887V4.01179C9.39358 4.13358 7.61698 4.96146 6.1702 6.49544C4.7234 8.02941 4 9.86434 4 12.0002C4 14.1361 4.7234 15.9711 6.1702 17.505C7.61698 19.039 9.39358 19.8669 11.5 19.9887ZM12.5 19.9887C14.5257 19.8707 16.2474 19.0996 17.6654 17.6752C19.0833 16.2509 19.8577 14.5259 19.9885 12.5002H12.5V19.9887ZM12.0034 21.0002C10.7588 21.0002 9.58872 20.7641 8.4931 20.2918C7.39748 19.8194 6.44444 19.1784 5.63397 18.3687C4.82352 17.559 4.18192 16.6069 3.70915 15.5123C3.23638 14.4177 3 13.2481 3 12.0036C3 10.759 3.23616 9.58896 3.70848 8.49334C4.18081 7.39773 4.82183 6.44469 5.63153 5.63422C6.44123 4.82377 7.39337 4.18216 8.48795 3.70939C9.58255 3.23663 10.7521 3.00024 11.9966 3.00024C13.2412 3.00024 14.4099 3.2371 15.5029 3.71082C16.5958 4.18454 17.5484 4.82749 18.3606 5.63967C19.1728 6.45185 19.8157 7.40364 20.2894 8.49504C20.7631 9.58643 21 10.7569 21 12.0063C21 13.2407 20.7638 14.4045 20.2915 15.4975C19.8192 16.5906 19.1782 17.5451 18.3685 18.3612C17.5588 19.1772 16.6066 19.8211 15.512 20.2928C14.4174 20.7644 13.2479 21.0002 12.0034 21.0002Z" fill="black"/>
</svg>
