<svg width="24" height="24" viewBox="0 0 24 24" fill="none" xmlns="http://www.w3.org/2000/svg">
<path d="M11.9969 21.5002C10.6964 21.5002 9.4687 21.2511 8.31385 20.7527C7.159 20.2544 6.15048 19.5741 5.28828 18.712C4.42609 17.8498 3.74583 16.8412 3.2475 15.6864C2.74917 14.5315 2.5 13.3038 2.5 12.0033C2.5 10.6869 2.74968 9.45377 3.24905 8.3039C3.7484 7.15405 4.4282 6.14899 5.28845 5.28873C6.14872 4.42848 7.15742 3.74868 8.31455 3.24933C9.4717 2.74996 10.7002 2.50027 12 2.50027C12.2125 2.50027 12.3906 2.57218 12.5343 2.716C12.6781 2.85982 12.75 3.03802 12.75 3.2506C12.75 3.4632 12.6781 3.64129 12.5343 3.78488C12.3906 3.92846 12.2125 4.00025 12 4.00025C9.78331 4.00025 7.89581 4.77942 6.33748 6.33775C4.77914 7.89608 3.99998 9.78358 3.99998 12.0003C3.99998 14.2169 4.77914 16.1044 6.33748 17.6628C7.89581 19.2211 9.78331 20.0003 12 20.0003C14.2166 20.0003 16.1041 19.2211 17.6625 17.6628C19.2208 16.1044 20 14.2169 20 12.0003C20 11.7878 20.0719 11.6096 20.2157 11.4659C20.3595 11.3222 20.5377 11.2503 20.7503 11.2503C20.9629 11.2503 21.141 11.3222 21.2846 11.4659C21.4282 11.6096 21.5 11.7878 21.5 12.0003C21.5 13.3001 21.2503 14.5285 20.7509 15.6857C20.2516 16.8428 19.5718 17.8515 18.7115 18.7118C17.8512 19.572 16.8462 20.2518 15.6963 20.7512C14.5465 21.2505 13.3133 21.5002 11.9969 21.5002Z" fill="black"/>
</svg>
