<svg width="24" height="24" viewBox="0 0 24 24" fill="none" xmlns="http://www.w3.org/2000/svg">
<path d="M8 21.0002C7.175 21.0002 6.46875 20.7065 5.88125 20.119C5.29375 19.5315 5 18.8252 5 18.0002V9.23102C5 8.43487 5.26731 7.7541 5.80192 7.18872C6.33654 6.62332 6.99231 6.3137 7.76923 6.25987V4.61562C7.76923 4.17139 7.9274 3.7911 8.24375 3.47477C8.5601 3.15842 8.94039 3.00024 9.38463 3.00024H14.6154C15.0596 3.00024 15.4399 3.15842 15.7563 3.47477C16.0726 3.7911 16.2308 4.17139 16.2308 4.61562V6.25987C17.0077 6.3137 17.6635 6.62332 18.1981 7.18872C18.7327 7.7541 19 8.43487 19 9.23102V18.0002C19 18.8252 18.7063 19.5315 18.1188 20.119C17.5312 20.7065 16.825 21.0002 16 21.0002H8ZM6 13.1156H18V9.23102C18 8.68102 17.8042 8.21019 17.4125 7.81852C17.0208 7.42685 16.55 7.23102 16 7.23102H8C7.45 7.23102 6.97917 7.42685 6.5875 7.81852C6.19583 8.21019 6 8.68102 6 9.23102V13.1156ZM8 20.0002H16C16.55 20.0002 17.0208 19.8044 17.4125 19.4127C17.8042 19.0211 18 18.5502 18 18.0002V14.1156H6V18.0002C6 18.5502 6.19583 19.0211 6.5875 19.4127C6.97917 19.8044 7.45 20.0002 8 20.0002ZM12.7692 6.23102H15.2308V4.61562C15.2308 4.43614 15.1731 4.2887 15.0577 4.17332C14.9423 4.05794 14.7949 4.00024 14.6154 4.00024H9.38463C9.20513 4.00024 9.05768 4.05794 8.9423 4.17332C8.82692 4.2887 8.76923 4.43614 8.76923 4.61562V6.23102H11.2308C11.2308 6.0246 11.3074 5.84479 11.4606 5.69159C11.6138 5.53838 11.7936 5.46177 12 5.46177C12.2064 5.46177 12.3862 5.53838 12.5394 5.69159C12.6926 5.84479 12.7692 6.0246 12.7692 6.23102Z" fill="black"/>
</svg>
