<svg width="24" height="24" viewBox="0 0 24 24" fill="none" xmlns="http://www.w3.org/2000/svg">
<path d="M9.99616 18.5003C8.53334 18.5003 7.26764 18.0233 6.19904 17.0695C5.13045 16.1156 4.59616 14.9259 4.59616 13.5003C4.59616 12.0746 5.13045 10.8849 6.19904 9.93103C7.26764 8.97718 8.53334 8.50025 9.99616 8.50025H17.4885L14.3885 5.40025L15.0962 4.69255L19.4039 9.00025L15.0962 13.308L14.3885 12.6003L17.4885 9.50025H9.99616C8.80514 9.50025 7.77405 9.87846 6.90289 10.6349C6.03174 11.3913 5.59616 12.3464 5.59616 13.5003C5.59616 14.6541 6.03174 15.6092 6.90289 16.3656C7.77405 17.122 8.80514 17.5003 9.99616 17.5003H16.5962V18.5003H9.99616Z" fill="black"/>
</svg>
