<svg width="24" height="24" viewBox="0 0 24 24" fill="none" xmlns="http://www.w3.org/2000/svg">
<path d="M12.0769 19.0002C10.1227 19.0002 8.46753 18.3224 7.11128 16.9668C5.75503 15.6111 5.0769 13.9566 5.0769 12.0033C5.0769 10.05 5.75503 8.39447 7.11128 7.03677C8.46753 5.67909 10.1227 5.00024 12.0769 5.00024C13.2654 5.00024 14.3782 5.28261 15.4154 5.84734C16.4525 6.41209 17.2884 7.20024 17.9231 8.21177V5.00024H18.9231V10.231H13.6923V9.23102H17.3923C16.8718 8.23359 16.1394 7.44576 15.1952 6.86754C14.2509 6.28934 13.2115 6.00024 12.0769 6.00024C10.4102 6.00024 8.99357 6.58358 7.8269 7.75024C6.66024 8.91691 6.0769 10.3336 6.0769 12.0002C6.0769 13.6669 6.66024 15.0836 7.8269 16.2502C8.99357 17.4169 10.4102 18.0002 12.0769 18.0002C13.3602 18.0002 14.5186 17.6336 15.5519 16.9002C16.5852 16.1669 17.3102 15.2002 17.7269 14.0002H18.7885C18.3474 15.4977 17.5096 16.7054 16.275 17.6233C15.0404 18.5413 13.641 19.0002 12.0769 19.0002Z" fill="black"/>
</svg>
