<svg width="24" height="24" viewBox="0 0 24 24" fill="none" xmlns="http://www.w3.org/2000/svg">
<path d="M20 7.42332V18.3849C20 18.8451 19.8458 19.2294 19.5375 19.5377C19.2292 19.8461 18.8449 20.0002 18.3846 20.0002H5.61538C5.15513 20.0002 4.77083 19.8461 4.4625 19.5377C4.15417 19.2294 4 18.8451 4 18.3849V5.61562C4 5.15537 4.15417 4.77108 4.4625 4.46274C4.77083 4.15441 5.15513 4.00024 5.61538 4.00024H16.5769L20 7.42332ZM19 7.85024L16.15 5.00024H5.61538C5.43589 5.00024 5.28846 5.05794 5.17308 5.17332C5.05769 5.2887 5 5.43614 5 5.61562V18.3849C5 18.5644 5.05769 18.7118 5.17308 18.8272C5.28846 18.9426 5.43589 19.0002 5.61538 19.0002H18.3846C18.5641 19.0002 18.7115 18.9426 18.8269 18.8272C18.9423 18.7118 19 18.5644 19 18.3849V7.85024ZM12 16.5387C12.5513 16.5387 13.0224 16.3432 13.4135 15.9522C13.8045 15.5612 14 15.09 14 14.5387C14 13.9874 13.8045 13.5163 13.4135 13.1252C13.0224 12.7342 12.5513 12.5387 12 12.5387C11.4487 12.5387 10.9776 12.7342 10.5865 13.1252C10.1955 13.5163 10 13.9874 10 14.5387C10 15.09 10.1955 15.5612 10.5865 15.9522C10.9776 16.3432 11.4487 16.5387 12 16.5387ZM6.76923 9.76947H14.1923V6.76947H6.76923V9.76947ZM5 7.85024V19.0002V5.00024V7.85024Z" fill="black"/>
</svg>
