<svg width="24" height="24" viewBox="0 0 24 24" fill="none" xmlns="http://www.w3.org/2000/svg">
<path d="M15.6462 16.3541L16.3539 15.6464L12.5 11.7921V7.00024H11.5V12.2079L15.6462 16.3541ZM12.0034 21.0002C10.7588 21.0002 9.58872 20.7641 8.4931 20.2918C7.39748 19.8194 6.44444 19.1784 5.63397 18.3687C4.82352 17.559 4.18192 16.6069 3.70915 15.5123C3.23638 14.4177 3 13.2481 3 12.0036C3 10.759 3.23616 9.58896 3.70848 8.49334C4.18081 7.39773 4.82183 6.44469 5.63153 5.63422C6.44123 4.82377 7.39337 4.18216 8.48795 3.70939C9.58255 3.23663 10.7521 3.00024 11.9966 3.00024C13.2412 3.00024 14.4113 3.2364 15.5069 3.70872C16.6025 4.18105 17.5556 4.82207 18.366 5.63177C19.1765 6.44147 19.8181 7.39361 20.2908 8.48819C20.7636 9.58279 21 10.7524 21 11.9969C21 13.2414 20.7638 14.4115 20.2915 15.5071C19.8192 16.6028 19.1782 17.5558 18.3685 18.3663C17.5588 19.1767 16.6066 19.8183 15.512 20.2911C14.4174 20.7639 13.2479 21.0002 12.0034 21.0002ZM12 20.0002C14.2167 20.0002 16.1042 19.2211 17.6625 17.6627C19.2208 16.1044 20 14.2169 20 12.0002C20 9.78358 19.2208 7.89608 17.6625 6.33774C16.1042 4.77941 14.2167 4.00024 12 4.00024C9.78333 4.00024 7.89583 4.77941 6.3375 6.33774C4.77917 7.89608 4 9.78358 4 12.0002C4 14.2169 4.77917 16.1044 6.3375 17.6627C7.89583 19.2211 9.78333 20.0002 12 20.0002Z" fill="black"/>
</svg>
