<svg width="24" height="24" viewBox="0 0 24 24" fill="none" xmlns="http://www.w3.org/2000/svg">
<path d="M19.4846 20.1541L13.2231 13.8926C12.7231 14.3182 12.1481 14.6477 11.4981 14.881C10.8481 15.1144 10.1949 15.231 9.53845 15.231C7.93679 15.231 6.58124 14.6766 5.47183 13.5678C4.36239 12.459 3.80768 11.1042 3.80768 9.50337C3.80768 7.90257 4.36209 6.54672 5.4709 5.43582C6.57972 4.32492 7.93453 3.76947 9.53533 3.76947C11.1361 3.76947 12.492 4.32418 13.6029 5.43359C14.7138 6.54301 15.2692 7.89856 15.2692 9.50024C15.2692 10.1951 15.1462 10.8675 14.9 11.5175C14.6539 12.1675 14.3308 12.7233 13.9308 13.1849L20.1923 19.4464L19.4846 20.1541ZM9.53845 14.231C10.8654 14.231 11.9856 13.7743 12.899 12.8608C13.8125 11.9474 14.2692 10.8272 14.2692 9.50024C14.2692 8.17333 13.8125 7.05314 12.899 6.13967C11.9856 5.2262 10.8654 4.76947 9.53845 4.76947C8.21154 4.76947 7.09134 5.2262 6.17788 6.13967C5.26443 7.05314 4.8077 8.17333 4.8077 9.50024C4.8077 10.8272 5.26443 11.9474 6.17788 12.8608C7.09134 13.7743 8.21154 14.231 9.53845 14.231Z" fill="black"/>
</svg>
