<svg width="24" height="24" viewBox="0 0 24 24" fill="none" xmlns="http://www.w3.org/2000/svg">
<path d="M10.1346 21.0002L9.77309 18.1079C9.45386 18.0118 9.10867 17.8605 8.73752 17.6541C8.36637 17.4477 8.05066 17.2265 7.79039 16.9906L5.12309 18.1252L3.25769 14.8752L5.56347 13.1368C5.53398 12.956 5.50962 12.7698 5.49039 12.5781C5.47116 12.3865 5.46154 12.2002 5.46154 12.0195C5.46154 11.8515 5.47116 11.6749 5.49039 11.4897C5.50962 11.3044 5.53398 11.0958 5.56347 10.8637L3.25769 9.12524L5.12309 5.91369L7.77117 7.02909C8.06988 6.78038 8.39296 6.55602 8.74039 6.35602C9.08782 6.15602 9.42565 6.00153 9.75387 5.89254L10.1346 3.00024H13.8654L14.2269 5.91177C14.6103 6.04639 14.9491 6.20088 15.2433 6.37524C15.5375 6.54959 15.8404 6.76754 16.1519 7.02909L18.8769 5.91369L20.7423 9.12524L18.3596 10.9214C18.4148 11.1278 18.4455 11.3172 18.4519 11.4897C18.4584 11.6621 18.4616 11.8323 18.4616 12.0002C18.4616 12.1554 18.4552 12.3192 18.4423 12.4916C18.4295 12.664 18.4 12.8727 18.3539 13.1175L20.6981 14.8752L18.8327 18.1252L16.1519 16.9714C15.8404 17.2329 15.5269 17.4573 15.2116 17.6445C14.8962 17.8317 14.568 17.9797 14.2269 18.0887L13.8654 21.0002H10.1346ZM11.9731 14.5002C12.6705 14.5002 13.2615 14.2579 13.7462 13.7733C14.2308 13.2887 14.4731 12.6977 14.4731 12.0002C14.4731 11.3028 14.2308 10.7118 13.7462 10.2272C13.2615 9.74255 12.6705 9.50024 11.9731 9.50024C11.2718 9.50024 10.6798 9.74255 10.1971 10.2272C9.71443 10.7118 9.47309 11.3028 9.47309 12.0002C9.47309 12.6977 9.71443 13.2887 10.1971 13.7733C10.6798 14.2579 11.2718 14.5002 11.9731 14.5002Z" fill="black"/>
</svg>
