<svg width="24" height="24" viewBox="0 0 24 24" fill="none" xmlns="http://www.w3.org/2000/svg">
<path d="M10.1346 21.0002L9.77309 18.1079C9.45386 18.0118 9.10867 17.8605 8.73752 17.6541C8.36637 17.4477 8.05066 17.2265 7.79039 16.9906L5.12309 18.1252L3.25769 14.8752L5.56347 13.1368C5.53398 12.956 5.50962 12.7698 5.49039 12.5781C5.47116 12.3865 5.46154 12.2002 5.46154 12.0195C5.46154 11.8515 5.47116 11.6749 5.49039 11.4897C5.50962 11.3044 5.53398 11.0958 5.56347 10.8637L3.25769 9.12524L5.12309 5.91369L7.77117 7.02909C8.06988 6.78038 8.39296 6.55602 8.74039 6.35602C9.08782 6.15602 9.42565 6.00153 9.75387 5.89254L10.1346 3.00024H13.8654L14.2269 5.91177C14.6103 6.04639 14.9491 6.20088 15.2433 6.37524C15.5375 6.54959 15.8404 6.76754 16.1519 7.02909L18.8769 5.91369L20.7423 9.12524L18.3596 10.9214C18.4148 11.1278 18.4455 11.3172 18.4519 11.4897C18.4584 11.6621 18.4616 11.8323 18.4616 12.0002C18.4616 12.1554 18.4552 12.3192 18.4423 12.4916C18.4295 12.664 18.4 12.8727 18.3539 13.1175L20.6981 14.8752L18.8327 18.1252L16.1519 16.9714C15.8404 17.2329 15.5269 17.4573 15.2116 17.6445C14.8962 17.8317 14.568 17.9797 14.2269 18.0887L13.8654 21.0002H10.1346ZM11.9731 14.5002C12.6705 14.5002 13.2615 14.2579 13.7462 13.7733C14.2308 13.2887 14.4731 12.6977 14.4731 12.0002C14.4731 11.3028 14.2308 10.7118 13.7462 10.2272C13.2615 9.74255 12.6705 9.50024 11.9731 9.50024C11.2718 9.50024 10.6798 9.74255 10.1971 10.2272C9.71443 10.7118 9.47309 11.3028 9.47309 12.0002C9.47309 12.6977 9.71443 13.2887 10.1971 13.7733C10.6798 14.2579 11.2718 14.5002 11.9731 14.5002ZM11.9731 13.5002C11.5564 13.5002 11.2023 13.3544 10.9106 13.0627C10.6189 12.7711 10.4731 12.4169 10.4731 12.0002C10.4731 11.5836 10.6189 11.2294 10.9106 10.9377C11.2023 10.6461 11.5564 10.5002 11.9731 10.5002C12.3898 10.5002 12.7439 10.6461 13.0356 10.9377C13.3273 11.2294 13.4731 11.5836 13.4731 12.0002C13.4731 12.4169 13.3273 12.7711 13.0356 13.0627C12.7439 13.3544 12.3898 13.5002 11.9731 13.5002ZM11 20.0002H12.9558L13.325 17.2925C13.8289 17.1592 14.2824 16.9762 14.6856 16.7435C15.0888 16.5108 15.4994 16.1919 15.9173 15.7868L18.4116 16.8502L19.4058 15.1502L17.2173 13.506C17.3006 13.2214 17.3558 12.9595 17.3827 12.7204C17.4096 12.4813 17.4231 12.2413 17.4231 12.0002C17.4231 11.7464 17.4096 11.5063 17.3827 11.28C17.3558 11.0538 17.3006 10.8047 17.2173 10.5329L19.4442 8.85024L18.45 7.15024L15.8981 8.21947C15.5955 7.88742 15.1978 7.5762 14.7048 7.28582C14.2119 6.99544 13.7455 6.80281 13.3058 6.70794L13 4.00024H11.0058L10.6942 6.68869C10.1904 6.79639 9.72725 6.96979 9.30481 7.20889C8.88238 7.44799 8.46219 7.77652 8.04424 8.19447L5.55002 7.15024L4.55579 8.85024L6.72502 10.4695C6.64168 10.6938 6.58335 10.9374 6.55002 11.2002C6.51668 11.4631 6.50002 11.7361 6.50002 12.0195C6.50002 12.2733 6.51668 12.5252 6.55002 12.7752C6.58335 13.0252 6.63527 13.2688 6.70579 13.506L4.55579 15.1502L5.55002 16.8502L8.02502 15.8002C8.41732 16.1964 8.82469 16.514 9.24714 16.7531C9.66957 16.9922 10.1455 17.1785 10.675 17.3118L11 20.0002Z" fill="black"/>
</svg>
