<svg width="24" height="24" viewBox="0 0 24 24" fill="none" xmlns="http://www.w3.org/2000/svg">
<path d="M10.7577 15.1925C11.068 15.5028 11.466 15.6442 11.9519 15.6166C12.4378 15.589 12.7923 15.4143 13.0154 15.0925L18.2692 7.76947L10.9077 12.9849C10.5731 13.2079 10.3869 13.5541 10.349 14.0233C10.3112 14.4926 10.4474 14.8823 10.7577 15.1925ZM12 5.00024C12.9192 5.00024 13.7561 5.1121 14.5106 5.33582C15.2651 5.55954 16.0167 5.90152 16.7654 6.36177L15.8462 6.98487C15.2577 6.66307 14.6484 6.41851 14.0183 6.25119C13.3881 6.08389 12.7154 6.00024 12 6.00024C9.78333 6.00024 7.89583 6.77941 6.3375 8.33774C4.77917 9.89608 4 11.7836 4 14.0002C4 14.7002 4.09583 15.3919 4.2875 16.0752C4.47917 16.7586 4.75 17.4002 5.1 18.0002H18.9C19.2833 17.3669 19.5625 16.7086 19.7375 16.0252C19.9125 15.3419 20 14.6336 20 13.9002C20 13.3002 19.9228 12.6688 19.7683 12.006C19.6138 11.3432 19.3692 10.7259 19.0346 10.1541L19.6577 9.23484C20.1449 10.0695 20.4894 10.8547 20.6914 11.5906C20.8933 12.3265 20.9962 13.0925 21 13.8887C21.0039 14.749 20.9083 15.5515 20.7135 16.2964C20.5186 17.0413 20.2154 17.7926 19.8039 18.5502C19.7231 18.6836 19.6013 18.7919 19.4385 18.8752C19.2756 18.9586 19.0962 19.0002 18.9 19.0002H5.1C4.91667 19.0002 4.74679 18.9554 4.59038 18.8656C4.43398 18.7759 4.30257 18.6451 4.19615 18.4733C3.86538 17.89 3.58333 17.232 3.35 16.4993C3.11667 15.7666 3 14.9336 3 14.0002C3 12.7708 3.23315 11.6104 3.69945 10.5192C4.16575 9.42794 4.80229 8.47216 5.60908 7.65184C6.41584 6.83154 7.36987 6.18454 8.47115 5.71082C9.57243 5.2371 10.7487 5.00024 12 5.00024Z" fill="black"/>
</svg>
