<svg width="24" height="24" viewBox="0 0 24 24" fill="none" xmlns="http://www.w3.org/2000/svg">
<path d="M4.65385 19.3464V18.3464H7.75L6.69615 17.3041C5.91923 16.5502 5.35898 15.7233 5.01538 14.8233C4.67179 13.9233 4.5 13.0118 4.5 12.0887C4.5 10.4823 4.95801 9.02877 5.87402 7.72812C6.79006 6.42748 7.99872 5.49896 9.5 4.94254V6.00409C8.28718 6.51434 7.31732 7.32235 6.5904 8.42812C5.86347 9.5339 5.5 10.7541 5.5 12.0887C5.5 12.9028 5.65449 13.6929 5.96348 14.4589C6.27244 15.2249 6.75257 15.9336 7.40385 16.5849L8.42308 17.6041V14.5772H9.42308V19.3464H4.65385ZM14.5 19.0579V17.9964C15.7128 17.4861 16.6827 16.6781 17.4096 15.5724C18.1365 14.4666 18.5 13.2464 18.5 11.9118C18.5 11.0977 18.3455 10.3076 18.0365 9.54159C17.7276 8.77556 17.2474 8.0669 16.5962 7.41562L15.5769 6.39639V9.42332H14.5769V4.65409H19.3462V5.65409H16.25L17.3039 6.69639C18.0692 7.46177 18.6266 8.29158 18.976 9.18582C19.3253 10.08 19.5 10.9887 19.5 11.9118C19.5 13.5182 19.042 14.9717 18.126 16.2724C17.2099 17.573 16.0013 18.5015 14.5 19.0579Z" fill="black"/>
</svg>
