<svg width="24" height="24" viewBox="0 0 24 24" fill="none" xmlns="http://www.w3.org/2000/svg">
<path d="M7 17.0002C5.61112 17.0002 4.43056 16.5146 3.45832 15.5432C2.48611 14.5719 2 13.3924 2 12.0048C2 10.6171 2.48611 9.43614 3.45832 8.46177C4.43056 7.48742 5.61112 7.00024 7 7.00024H17C18.3889 7.00024 19.5694 7.48591 20.5417 8.45724C21.5139 9.42859 22 10.6081 22 11.9957C22 13.3834 21.5139 14.5644 20.5417 15.5387C19.5694 16.5131 18.3889 17.0002 17 17.0002H7ZM16.9977 14.5002C17.6916 14.5002 18.2821 14.2574 18.7692 13.7717C19.2564 13.2861 19.5 12.6963 19.5 12.0025C19.5 11.3087 19.2572 10.7182 18.7715 10.231C18.2858 9.74384 17.6961 9.50024 17.0023 9.50024C16.3084 9.50024 15.7179 9.74308 15.2308 10.2287C14.7436 10.7144 14.5 11.3042 14.5 11.998C14.5 12.6918 14.7428 13.2823 15.2285 13.7695C15.7142 14.2567 16.3039 14.5002 16.9977 14.5002Z" fill="black"/>
</svg>
