<svg width="24" height="24" viewBox="0 0 24 24" fill="none" xmlns="http://www.w3.org/2000/svg">
<path d="M7 17.0002C5.61112 17.0002 4.43056 16.5146 3.45832 15.5432C2.48611 14.5719 2 13.3924 2 12.0048C2 10.6171 2.48611 9.43614 3.45832 8.46177C4.43056 7.48742 5.61112 7.00024 7 7.00024H17C18.3889 7.00024 19.5694 7.48591 20.5417 8.45724C21.5139 9.42859 22 10.6081 22 11.9957C22 13.3834 21.5139 14.5644 20.5417 15.5387C19.5694 16.5131 18.3889 17.0002 17 17.0002H7ZM6.99775 14.5002C7.69157 14.5002 8.28206 14.2574 8.76923 13.7717C9.25641 13.2861 9.5 12.6963 9.5 12.0025C9.5 11.3087 9.25717 10.7182 8.7715 10.231C8.28583 9.74384 7.69608 9.50024 7.00225 9.50024C6.30843 9.50024 5.71794 9.74308 5.23078 10.2287C4.74359 10.7144 4.5 11.3042 4.5 11.998C4.5 12.6918 4.74283 13.2823 5.2285 13.7695C5.71417 14.2567 6.30392 14.5002 6.99775 14.5002Z" fill="black"/>
</svg>
