<svg width="24" height="24" viewBox="0 0 24 24" fill="none" xmlns="http://www.w3.org/2000/svg">
<path d="M11.9384 20.4618L15.7961 10.3079H17.55L21.4077 20.4618H19.6538L18.7577 17.8733H14.6385L13.7308 20.4618H11.9384ZM15.1615 16.3926H18.1846L16.7038 12.2118H16.6423L15.1615 16.3926ZM5.26922 17.9233L4.06152 16.7156L8.34229 12.4349C7.81153 11.8503 7.3471 11.2406 6.94902 10.606C6.55095 9.9714 6.20256 9.30794 5.90384 8.61562H7.65767C7.91922 9.12589 8.19198 9.58102 8.47594 9.98102C8.75993 10.381 9.10512 10.8092 9.51152 11.2656C10.1423 10.581 10.6641 9.88517 11.0769 9.17812C11.4897 8.47107 11.8308 7.71947 12.1 6.92332H2.73074V5.231H8.65384V3.5387H10.3461V5.231H16.2692V6.92332H13.7923C13.4936 7.91434 13.0923 8.88165 12.5884 9.82525C12.0846 10.7688 11.4615 11.6554 10.7192 12.4849L12.7346 14.5502L12.1 16.2926L9.49999 13.6925L5.26922 17.9233Z" fill="black"/>
</svg>
