<svg width="24" height="24" viewBox="0 0 24 24" fill="none" xmlns="http://www.w3.org/2000/svg">
<path d="M7.40386 18.5003V17.5003H14.0039C15.1949 17.5003 16.226 17.122 17.0971 16.3656C17.9683 15.6092 18.4039 14.6541 18.4039 13.5003C18.4039 12.3464 17.9683 11.3913 17.0971 10.6349C16.226 9.87846 15.1949 9.50025 14.0039 9.50025H6.51156L9.61156 12.6003L8.90386 13.308L4.59616 9.00025L8.90386 4.69255L9.61156 5.40025L6.51156 8.50025H14.0039C15.4667 8.50025 16.7324 8.97718 17.801 9.93103C18.8696 10.8849 19.4039 12.0746 19.4039 13.5003C19.4039 14.9259 18.8696 16.1156 17.801 17.0695C16.7324 18.0233 15.4667 18.5003 14.0039 18.5003H7.40386Z" fill="black"/>
</svg>
