<svg width="24" height="24" viewBox="0 0 24 24" fill="none" xmlns="http://www.w3.org/2000/svg">
<path d="M9.11538 17.6156H13.1154C13.2833 17.6156 13.4279 17.555 13.549 17.4339C13.6702 17.3127 13.7308 17.1682 13.7308 17.0002V15.5387L15.5769 16.5118V13.4887L13.7308 14.4618V13.0002C13.7308 12.8323 13.6702 12.6877 13.549 12.5666C13.4279 12.4454 13.2833 12.3849 13.1154 12.3849H9.11538C8.94742 12.3849 8.80288 12.4454 8.68173 12.5666C8.56058 12.6877 8.5 12.8323 8.5 13.0002V17.0002C8.5 17.1682 8.56058 17.3127 8.68173 17.4339C8.80288 17.555 8.94742 17.6156 9.11538 17.6156ZM6.61537 21.0002C6.15512 21.0002 5.77083 20.8461 5.4625 20.5377C5.15417 20.2294 5 19.8451 5 19.3849V4.61562C5 4.15537 5.15417 3.77108 5.4625 3.46274C5.77083 3.15441 6.15512 3.00024 6.61537 3.00024H14.5L19 7.50024V19.3849C19 19.8451 18.8458 20.2294 18.5375 20.5377C18.2292 20.8461 17.8449 21.0002 17.3846 21.0002H6.61537ZM14 8.00024V4.00024H6.61537C6.46154 4.00024 6.32052 4.06434 6.1923 4.19254C6.0641 4.32076 6 4.46179 6 4.61562V19.3849C6 19.5387 6.0641 19.6797 6.1923 19.8079C6.32052 19.9361 6.46154 20.0002 6.61537 20.0002H17.3846C17.5385 20.0002 17.6795 19.9361 17.8077 19.8079C17.9359 19.6797 18 19.5387 18 19.3849V8.00024H14Z" fill="black"/>
</svg>
