<svg width="24" height="24" viewBox="0 0 24 24" fill="none" xmlns="http://www.w3.org/2000/svg">
<path d="M15.4462 12.6464L14.65 11.8502C14.8 10.9772 14.5526 10.2214 13.9077 9.58294C13.2628 8.94448 12.5103 8.70024 11.65 8.85024L10.8539 8.05409C11.0218 7.98486 11.1971 7.93294 11.3798 7.89832C11.5625 7.8637 11.7692 7.8464 12 7.8464C13.0192 7.8464 13.883 8.20056 14.5914 8.9089C15.2997 9.61723 15.6539 10.481 15.6539 11.5002C15.6539 11.731 15.6366 11.9442 15.6019 12.1397C15.5673 12.3352 15.5154 12.5041 15.4462 12.6464ZM18.6077 15.7195L17.85 15.0502C18.4833 14.5669 19.0458 14.0377 19.5375 13.4627C20.0292 12.8877 20.45 12.2336 20.8 11.5002C19.9667 9.81691 18.7708 8.47941 17.2125 7.48775C15.6542 6.49608 13.9167 6.00024 12 6.00024C11.5167 6.00024 11.0417 6.03358 10.575 6.10024C10.1083 6.16691 9.65001 6.26691 9.20001 6.40024L8.41924 5.61947C9 5.40024 9.59103 5.24222 10.1923 5.14542C10.7936 5.04864 11.3962 5.00024 12 5.00024C14.1705 5.00024 16.1558 5.59672 17.9558 6.78967C19.7558 7.98262 21.0782 9.55281 21.9231 11.5002C21.5654 12.3041 21.1125 13.0595 20.5644 13.7666C20.0164 14.4736 19.3641 15.1246 18.6077 15.7195ZM19.7231 21.1387L15.8308 17.2579C15.3885 17.4541 14.8394 17.6269 14.1837 17.7762C13.5279 17.9256 12.8 18.0002 12 18.0002C9.81668 18.0002 7.83142 17.4038 6.04423 16.2108C4.25705 15.0179 2.93462 13.4477 2.07693 11.5002C2.46538 10.6169 2.97756 9.78967 3.61346 9.01852C4.24936 8.24737 4.92821 7.60025 5.65001 7.07717L2.86153 4.27717L3.56923 3.56947L20.4308 20.431L19.7231 21.1387ZM6.35769 7.78487C5.78462 8.19255 5.19873 8.72845 4.60001 9.39255C4.00129 10.0567 3.53463 10.7592 3.20001 11.5002C4.03334 13.1836 5.22918 14.5211 6.78751 15.5127C8.34584 16.5044 10.0833 17.0002 12 17.0002C12.5769 17.0002 13.1583 16.9442 13.7442 16.832C14.3301 16.7198 14.7705 16.6067 15.0654 16.4925L13.4346 14.8502C13.2769 14.9387 13.0571 15.0115 12.775 15.0685C12.493 15.1256 12.2346 15.1541 12 15.1541C10.9808 15.1541 10.117 14.7999 9.40866 14.0916C8.70033 13.3833 8.34616 12.5195 8.34616 11.5002C8.34616 11.2784 8.37469 11.0297 8.43174 10.7541C8.48879 10.4784 8.56154 10.249 8.65001 10.0656L6.35769 7.78487Z" fill="black"/>
</svg>
