<svg width="24" height="24" viewBox="0 0 24 24" fill="none" xmlns="http://www.w3.org/2000/svg">
<path d="M12.0045 15.1541C13.0207 15.1541 13.883 14.7984 14.5913 14.0871C15.2997 13.3757 15.6538 12.5119 15.6538 11.4957C15.6538 10.4795 15.2982 9.61723 14.5868 8.90889C13.8755 8.20056 13.0117 7.84639 11.9955 7.84639C10.9793 7.84639 10.117 8.20207 9.40865 8.91342C8.70031 9.62477 8.34615 10.4886 8.34615 11.5048C8.34615 12.521 8.70182 13.3833 9.41317 14.0916C10.1245 14.7999 10.9883 15.1541 12.0045 15.1541ZM12 14.2002C11.25 14.2002 10.6125 13.9377 10.0875 13.4127C9.56249 12.8877 9.29999 12.2502 9.29999 11.5002C9.29999 10.7502 9.56249 10.1127 10.0875 9.58774C10.6125 9.06274 11.25 8.80024 12 8.80024C12.75 8.80024 13.3875 9.06274 13.9125 9.58774C14.4375 10.1127 14.7 10.7502 14.7 11.5002C14.7 12.2502 14.4375 12.8877 13.9125 13.4127C13.3875 13.9377 12.75 14.2002 12 14.2002ZM12.0027 18.0002C9.83681 18.0002 7.86282 17.4108 6.08077 16.232C4.2987 15.0531 2.96409 13.4759 2.07692 11.5002C2.96409 9.52459 4.29779 7.94735 6.07802 6.76852C7.85824 5.58967 9.83131 5.00024 11.9972 5.00024C14.1632 5.00024 16.1372 5.58967 17.9192 6.76852C19.7013 7.94735 21.0359 9.52459 21.9231 11.5002C21.0359 13.4759 19.7022 15.0531 17.922 16.232C16.1418 17.4108 14.1687 18.0002 12.0027 18.0002ZM12 17.0002C13.8833 17.0002 15.6125 16.5044 17.1875 15.5127C18.7625 14.5211 19.9667 13.1836 20.8 11.5002C19.9667 9.81691 18.7625 8.47941 17.1875 7.48774C15.6125 6.49608 13.8833 6.00024 12 6.00024C10.1167 6.00024 8.38749 6.49608 6.81249 7.48774C5.23749 8.47941 4.03333 9.81691 3.19999 11.5002C4.03333 13.1836 5.23749 14.5211 6.81249 15.5127C8.38749 16.5044 10.1167 17.0002 12 17.0002Z" fill="black"/>
</svg>
