<svg width="24" height="24" viewBox="0 0 24 24" fill="none" xmlns="http://www.w3.org/2000/svg">
<path d="M9.42513 18.2502C9.24812 18.2502 9.08918 18.1966 8.94833 18.0892C8.80748 17.9818 8.70419 17.8451 8.63846 17.6791L6.56923 12.5002H2.03848V11.5002H7.27693L9.42308 16.9464L13.7923 6.30217C13.8575 6.13619 13.96 5.9995 14.0998 5.8921C14.2395 5.7847 14.3979 5.731 14.5749 5.731C14.7519 5.731 14.9108 5.7847 15.0517 5.8921C15.1925 5.9995 15.2958 6.13619 15.3616 6.30217L17.4693 11.5002H22V12.5002H16.7616L14.5769 7.03487L10.2077 17.6791C10.1425 17.8451 10.04 17.9818 9.90026 18.0892C9.76052 18.1966 9.60215 18.2502 9.42513 18.2502Z" fill="black"/>
</svg>
