<svg width="24" height="24" viewBox="0 0 24 24" fill="none" xmlns="http://www.w3.org/2000/svg">
<path d="M4.61538 20.0002C4.15513 20.0002 3.77083 19.8461 3.4625 19.5377C3.15417 19.2294 3 18.8451 3 18.3849V8.61562C3 8.15537 3.15417 7.77108 3.4625 7.46274C3.77083 7.15441 4.15513 7.00024 4.61538 7.00024H9V5.61562C9 5.15537 9.15417 4.77108 9.4625 4.46274C9.77083 4.15441 10.1551 4.00024 10.6154 4.00024H13.3846C13.8449 4.00024 14.2292 4.15441 14.5375 4.46274C14.8458 4.77108 15 5.15537 15 5.61562V7.00024H19.3846C19.8449 7.00024 20.2292 7.15441 20.5375 7.46274C20.8458 7.77108 21 8.15537 21 8.61562V18.3849C21 18.8451 20.8458 19.2294 20.5375 19.5377C20.2292 19.8461 19.8449 20.0002 19.3846 20.0002H4.61538ZM4.61538 19.0002H19.3846C19.5385 19.0002 19.6795 18.9361 19.8077 18.8079C19.9359 18.6797 20 18.5387 20 18.3849V8.61562C20 8.46179 19.9359 8.32076 19.8077 8.19254C19.6795 8.06434 19.5385 8.00024 19.3846 8.00024H4.61538C4.46154 8.00024 4.32052 8.06434 4.1923 8.19254C4.0641 8.32076 4 8.46179 4 8.61562V18.3849C4 18.5387 4.0641 18.6797 4.1923 18.8079C4.32052 18.9361 4.46154 19.0002 4.61538 19.0002ZM10 7.00024H14V5.61562C14 5.46177 13.9359 5.32074 13.8077 5.19254C13.6795 5.06434 13.5385 5.00024 13.3846 5.00024H10.6154C10.4615 5.00024 10.3205 5.06434 10.1923 5.19254C10.0641 5.32074 10 5.46177 10 5.61562V7.00024Z" fill="black"/>
</svg>
