<svg width="12" height="12" viewBox="0 0 12 12" fill="none" xmlns="http://www.w3.org/2000/svg">
<path d="M3.94922 10.5C3.87422 10.5 3.80334 10.4707 3.75047 10.4175C3.64097 10.308 3.64097 10.1295 3.75047 10.0196L7.77047 6L3.75047 1.98C3.69722 1.92712 3.66797 1.85625 3.66797 1.78125C3.66797 1.70625 3.69722 1.63537 3.75047 1.5825C3.80334 1.52925 3.87422 1.5 3.94922 1.5C4.02422 1.5 4.09509 1.52925 4.14797 1.5825L8.16797 5.6025C8.38697 5.8215 8.38734 6.17812 8.16834 6.39713L4.14797 10.4175C4.09509 10.4707 4.02422 10.5 3.94922 10.5Z" fill="#67738B"/>
</svg>
