<svg width="40" height="40" viewBox="0 0 40 40" fill="none" xmlns="http://www.w3.org/2000/svg">
<path d="M10.1645 29.4043C11.6894 28.3808 13.24 27.5804 14.8162 27.0032C16.3924 26.4259 18.1204 26.1372 20 26.1372C21.8796 26.1372 23.6086 26.4259 25.187 27.0032C26.7653 27.5804 28.317 28.3808 29.8419 29.4043C31.0093 28.1529 31.9258 26.738 32.5914 25.1597C33.257 23.5813 33.5898 21.8616 33.5898 20.0005C33.5898 16.212 32.2719 12.9999 29.6362 10.3643C27.0005 7.72859 23.7885 6.41074 20 6.41074C16.2115 6.41074 12.9995 7.72859 10.3638 10.3643C7.7281 12.9999 6.41025 16.212 6.41025 20.0005C6.41025 21.8616 6.74411 23.5813 7.41183 25.1597C8.07958 26.738 8.99714 28.1529 10.1645 29.4043ZM19.9948 20.7056C18.5987 20.7056 17.424 20.2272 16.4706 19.2704C15.5173 18.3136 15.0406 17.1372 15.0406 15.741C15.0406 14.3449 15.519 13.1702 16.4758 12.2168C17.4326 11.2635 18.609 10.7868 20.0052 10.7868C21.4013 10.7868 22.576 11.2652 23.5294 12.222C24.4827 13.1788 24.9594 14.3553 24.9594 15.7514C24.9594 17.1475 24.481 18.3223 23.5242 19.2756C22.5674 20.2289 21.391 20.7056 19.9948 20.7056ZM19.9888 35.0005C17.9084 35.0005 15.9547 34.6111 14.1275 33.8322C12.3003 33.0534 10.7106 31.9841 9.35842 30.6244C8.00622 29.2648 6.94176 27.6775 6.16504 25.8628C5.38835 24.0481 5 22.0894 5 19.9866C5 17.8981 5.38942 15.9429 6.16825 14.1211C6.94711 12.2992 8.01637 10.7131 9.37604 9.36266C10.7357 8.01224 12.3229 6.9476 14.1377 6.16874C15.9524 5.38991 17.9111 5.00049 20.0139 5.00049C22.1024 5.00049 24.0576 5.38991 25.8794 6.16874C27.7013 6.9476 29.2874 8.01224 30.6378 9.36266C31.9883 10.7131 33.0529 12.3007 33.8317 14.1255C34.6106 15.9503 35 17.9061 35 19.9931C35 22.0943 34.6106 24.0516 33.8317 25.8649C33.0529 27.6782 31.9883 29.2648 30.6378 30.6244C29.2874 31.9841 27.6986 33.0534 25.8714 33.8322C24.0443 34.6111 22.0834 35.0005 19.9888 35.0005Z" fill="black"/>
</svg>
