<svg width="40" height="40" viewBox="0 0 40 40" fill="none" xmlns="http://www.w3.org/2000/svg">
<path d="M20 35.0005C17.896 35.0005 15.9298 34.6111 14.1015 33.8322C12.2731 33.0534 10.6886 31.9935 9.34775 30.6527C8.00694 29.3119 6.94711 27.7274 6.16825 25.899C5.38942 24.0707 5 22.1045 5 20.0005C5 17.8872 5.38942 15.9188 6.16825 14.095C6.94711 12.2713 8.00694 10.689 9.34775 9.34824C10.6886 8.00743 12.2731 6.9476 14.1015 6.16874C15.9298 5.38991 17.896 5.00049 20 5.00049C22.1133 5.00049 24.0817 5.38991 25.9055 6.16874C27.7292 6.9476 29.3114 8.00743 30.6523 9.34824C31.9931 10.689 33.0529 12.2713 33.8317 14.095C34.6106 15.9188 35 17.8872 35 20.0005V21.5732C35 22.9642 34.5233 24.1317 33.57 25.0758C32.6166 26.0199 31.4423 26.4919 30.047 26.4919C28.9402 26.4919 28.0021 26.2149 27.2329 25.6607C26.4637 25.1066 25.9003 24.3452 25.5428 23.3766C24.9252 24.3132 24.1914 25.0666 23.3413 25.6367C22.4913 26.2069 21.3775 26.4919 20 26.4919C18.193 26.4919 16.6583 25.8618 15.3958 24.6014C14.1334 23.3411 13.5021 21.8075 13.5021 20.0005C13.5021 18.1793 14.1334 16.6399 15.3958 15.3824C16.6583 14.1249 18.193 13.4962 20 13.4962C21.807 13.4962 23.3417 14.1249 24.6042 15.3824C25.8666 16.6399 26.4979 18.1793 26.4979 20.0005V21.5732C26.4979 22.5511 26.843 23.3803 27.5331 24.0609C28.2233 24.7414 29.0613 25.0817 30.047 25.0817C31.0285 25.0817 31.8643 24.7414 32.5545 24.0609C33.2447 23.3803 33.5898 22.5511 33.5898 21.5732V20.0005C33.5898 16.2718 32.257 13.0747 29.5914 10.4091C26.9258 7.74353 23.7286 6.41074 20 6.41074C16.2714 6.41074 13.0743 7.74353 10.4087 10.4091C7.74306 13.0747 6.41025 16.2718 6.41025 20.0005C6.41025 23.7291 7.74306 26.9262 10.4087 29.5918C13.0743 32.2574 16.2714 33.5902 20 33.5902H28.5085V35.0005H20ZM20 25.0817C21.4159 25.0817 22.6179 24.5888 23.6058 23.6031C24.5937 22.6173 25.0876 21.4164 25.0876 20.0005C25.0876 18.5803 24.5937 17.3762 23.6058 16.3883C22.6179 15.4004 21.4159 14.9065 20 14.9065C18.5841 14.9065 17.3821 15.4004 16.3942 16.3883C15.4063 17.3762 14.9124 18.5803 14.9124 20.0005C14.9124 21.4164 15.4063 22.6173 16.3942 23.6031C17.3821 24.5888 18.5841 25.0817 20 25.0817Z" fill="black"/>
</svg>
