<svg width="40" height="40" viewBox="0 0 40 40" fill="none" xmlns="http://www.w3.org/2000/svg">
<path d="M19.1667 36.2826C16.8504 36.2826 14.8718 35.4699 13.2308 33.8445C11.5897 32.2192 10.7692 30.2484 10.7692 27.9322V9.27832C10.7692 7.62643 11.3588 6.21203 12.5378 5.03511C13.7168 3.85822 15.1394 3.26978 16.8056 3.26978C18.4617 3.26978 19.8783 3.85822 21.0552 5.03511C22.2321 6.21203 22.8205 7.62857 22.8205 9.28473V26.148C22.8205 27.1756 22.4684 28.0425 21.7641 28.7488C21.0598 29.4551 20.1937 29.8082 19.1658 29.8082C18.1379 29.8082 17.2721 29.4437 16.5684 28.7146C15.8647 27.9856 15.5129 27.1051 15.5129 26.0732V9.26549H16.7308V26.1138C16.7308 26.8175 16.9655 27.4062 17.4349 27.8798C17.9042 28.3535 18.4815 28.5903 19.1667 28.5903C19.8519 28.5903 20.4292 28.3545 20.8985 27.883C21.3679 27.4115 21.6026 26.8332 21.6026 26.148V9.27832C21.6026 7.94612 21.1359 6.81464 20.2024 5.88386C19.269 4.95308 18.1358 4.48769 16.8029 4.48769C15.4557 4.48769 14.3163 4.95308 13.3846 5.88386C12.453 6.81464 11.9872 7.94612 11.9872 9.27832V27.9664C11.9872 29.9436 12.6884 31.6209 14.0908 32.9984C15.4933 34.3759 17.1852 35.0647 19.1667 35.0647C21.1667 35.0647 22.8633 34.3748 24.2564 32.9952C25.6496 31.6156 26.3462 29.9279 26.3462 27.9322V9.26549H27.5641V27.9257C27.5641 30.242 26.7436 32.2139 25.1026 33.8414C23.4616 35.4689 21.4829 36.2826 19.1667 36.2826Z" fill="black"/>
</svg>
