<svg width="40" height="40" viewBox="0 0 40 40" fill="none" xmlns="http://www.w3.org/2000/svg">
<path d="M17.8761 31.2484C18.8091 31.2484 19.6022 30.9282 20.2553 30.2878C20.9085 29.6474 21.2351 28.8572 21.2351 27.9172V20.6073H25.7393V18.2996H19.953V25.5293C19.6902 25.2387 19.3828 25.0167 19.031 24.8632C18.6791 24.7097 18.2941 24.6329 17.8761 24.6329C16.9587 24.6329 16.183 24.9541 15.5491 25.5964C14.9152 26.2386 14.5983 27.0182 14.5983 27.9351C14.5983 28.8519 14.9152 29.6333 15.5491 30.2793C16.183 30.9254 16.9587 31.2484 17.8761 31.2484ZM10.7692 35.0005C10.0865 35.0005 9.50987 34.7652 9.03926 34.2946C8.56865 33.824 8.33334 33.2473 8.33334 32.5646V7.43636C8.33334 6.75367 8.56865 6.17702 9.03926 5.70641C9.50987 5.23579 10.0865 5.00049 10.7692 5.00049H24.4295L31.6667 12.2377V32.5646C31.6667 33.2473 31.4314 33.824 30.9608 34.2946C30.4901 34.7652 29.9135 35.0005 29.2308 35.0005H10.7692ZM23.7244 12.9022V6.41074H10.7692C10.5128 6.41074 10.2778 6.51757 10.0641 6.73124C9.85043 6.94491 9.74359 7.17995 9.74359 7.43636V32.5646C9.74359 32.821 9.85043 33.0561 10.0641 33.2697C10.2778 33.4834 10.5128 33.5902 10.7692 33.5902H29.2308C29.4872 33.5902 29.7223 33.4834 29.9359 33.2697C30.1496 33.0561 30.2564 32.821 30.2564 32.5646V12.9022H23.7244Z" fill="black"/>
</svg>
