<svg width="40" height="40" viewBox="0 0 40 40" fill="none" xmlns="http://www.w3.org/2000/svg">
<path d="M20.0056 35.0005C17.9313 35.0005 15.9812 34.6069 14.1552 33.8197C12.3291 33.0325 10.7407 31.9641 9.38996 30.6146C8.03921 29.2651 6.96986 27.6782 6.18192 25.8539C5.39397 24.0296 5 22.0803 5 20.0061C5 17.9318 5.3936 15.9817 6.18079 14.1557C6.96801 12.3296 8.03638 10.7412 9.38588 9.39045C10.7354 8.0397 12.3223 6.97035 14.1466 6.18241C15.9709 5.39446 17.9202 5.00049 19.9944 5.00049C22.0687 5.00049 24.0188 5.39409 25.8448 6.18128C27.6709 6.9685 29.2593 8.03686 30.61 9.38636C31.9608 10.7359 33.0301 12.3228 33.8181 14.1471C34.606 15.9714 35 17.9207 35 19.9949C35 22.0692 34.6064 24.0193 33.8192 25.8453C33.032 27.6714 31.9636 29.2598 30.6141 30.6105C29.2646 31.9613 27.6777 33.0306 25.8534 33.8186C24.0291 34.6065 22.0798 35.0005 20.0056 35.0005ZM20 33.5902C23.7918 33.5902 27.0048 32.2732 29.6388 29.6392C32.2728 27.0053 33.5898 23.7924 33.5898 20.0005C33.5898 18.3067 33.284 16.6849 32.6725 15.1351C32.0611 13.5852 31.1973 12.1721 30.0812 10.8958L10.8953 30.0817C12.1531 31.2234 13.56 32.0936 15.1158 32.6923C16.6717 33.2909 18.2997 33.5902 20 33.5902ZM9.92521 29.1052L29.1047 9.9257C27.864 8.77684 26.4616 7.90379 24.8978 7.30657C23.3338 6.70935 21.7013 6.41074 20 6.41074C16.2081 6.41074 12.9952 7.72774 10.3612 10.3617C7.72725 12.9957 6.41025 16.2087 6.41025 20.0005C6.41025 21.7008 6.71633 23.3288 7.3285 24.8847C7.94069 26.4405 8.80626 27.8474 9.92521 29.1052Z" fill="black"/>
</svg>
