<svg width="40" height="40" viewBox="0 0 40 40" fill="none" xmlns="http://www.w3.org/2000/svg">
<path d="M9.10256 35.0005C8.41987 35.0005 7.84321 34.7652 7.3726 34.2946C6.90199 33.8239 6.66669 33.2473 6.66669 32.5646V10.5133C6.66669 9.83057 6.90199 9.25392 7.3726 8.78331C7.84321 8.31269 8.41987 8.07739 9.10256 8.07739H12.3825V4.61584H13.9744V8.07739H26.1539V4.61584H27.6389V8.07739H30.8975C31.5802 8.07739 32.1568 8.31269 32.6274 8.78331C33.098 9.25392 33.3334 9.83057 33.3334 10.5133V32.5646C33.3334 33.2473 33.098 33.8239 32.6274 34.2946C32.1568 34.7652 31.5802 35.0005 30.8975 35.0005H9.10256ZM9.10256 33.5902H30.8975C31.1539 33.5902 31.3889 33.4834 31.6026 33.2697C31.8163 33.0561 31.9231 32.821 31.9231 32.5646V17.5646H8.07694V32.5646C8.07694 32.821 8.18377 33.0561 8.39744 33.2697C8.6111 33.4834 8.84615 33.5902 9.10256 33.5902ZM8.07694 16.1543H31.9231V10.5133C31.9231 10.2568 31.8163 10.0218 31.6026 9.80814C31.3889 9.59447 31.1539 9.48764 30.8975 9.48764H9.10256C8.84615 9.48764 8.6111 9.59447 8.39744 9.80814C8.18377 10.0218 8.07694 10.2568 8.07694 10.5133V16.1543ZM20 23.5902C19.656 23.5902 19.3563 23.4625 19.101 23.2072C18.8456 22.9518 18.718 22.6522 18.718 22.3082C18.718 21.9642 18.8456 21.6645 19.101 21.4091C19.3563 21.1538 19.656 21.0261 20 21.0261C20.344 21.0261 20.6437 21.1538 20.8991 21.4091C21.1544 21.6645 21.2821 21.9642 21.2821 22.3082C21.2821 22.6522 21.1544 22.9518 20.8991 23.2072C20.6437 23.4625 20.344 23.5902 20 23.5902ZM13.3334 23.5902C12.9893 23.5902 12.6896 23.4625 12.4343 23.2072C12.179 22.9518 12.0513 22.6522 12.0513 22.3082C12.0513 21.9642 12.179 21.6645 12.4343 21.4091C12.6896 21.1538 12.9893 21.0261 13.3334 21.0261C13.6774 21.0261 13.9771 21.1538 14.2324 21.4091C14.4877 21.6645 14.6154 21.9642 14.6154 22.3082C14.6154 22.6522 14.4877 22.9518 14.2324 23.2072C13.9771 23.4625 13.6774 23.5902 13.3334 23.5902ZM26.6667 23.5902C26.3227 23.5902 26.023 23.4625 25.7676 23.2072C25.5123 22.9518 25.3846 22.6522 25.3846 22.3082C25.3846 21.9642 25.5123 21.6645 25.7676 21.4091C26.023 21.1538 26.3227 21.0261 26.6667 21.0261C27.0107 21.0261 27.3104 21.1538 27.5657 21.4091C27.8211 21.6645 27.9487 21.9642 27.9487 22.3082C27.9487 22.6522 27.8211 22.9518 27.5657 23.2072C27.3104 23.4625 27.0107 23.5902 26.6667 23.5902ZM20 30.0005C19.656 30.0005 19.3563 29.8728 19.101 29.6175C18.8456 29.3621 18.718 29.0624 18.718 28.7184C18.718 28.3744 18.8456 28.0747 19.101 27.8194C19.3563 27.564 19.656 27.4363 20 27.4363C20.344 27.4363 20.6437 27.564 20.8991 27.8194C21.1544 28.0747 21.2821 28.3744 21.2821 28.7184C21.2821 29.0624 21.1544 29.3621 20.8991 29.6175C20.6437 29.8728 20.344 30.0005 20 30.0005ZM13.3334 30.0005C12.9893 30.0005 12.6896 29.8728 12.4343 29.6175C12.179 29.3621 12.0513 29.0624 12.0513 28.7184C12.0513 28.3744 12.179 28.0747 12.4343 27.8194C12.6896 27.564 12.9893 27.4363 13.3334 27.4363C13.6774 27.4363 13.9771 27.564 14.2324 27.8194C14.4877 28.0747 14.6154 28.3744 14.6154 28.7184C14.6154 29.0624 14.4877 29.3621 14.2324 29.6175C13.9771 29.8728 13.6774 30.0005 13.3334 30.0005ZM26.6667 30.0005C26.3227 30.0005 26.023 29.8728 25.7676 29.6175C25.5123 29.3621 25.3846 29.0624 25.3846 28.7184C25.3846 28.3744 25.5123 28.0747 25.7676 27.8194C26.023 27.564 26.3227 27.4363 26.6667 27.4363C27.0107 27.4363 27.3104 27.564 27.5657 27.8194C27.8211 28.0747 27.9487 28.3744 27.9487 28.7184C27.9487 29.0624 27.8211 29.3621 27.5657 29.6175C27.3104 29.8728 27.0107 30.0005 26.6667 30.0005Z" fill="black"/>
</svg>
