<svg width="40" height="40" viewBox="0 0 40 40" fill="none" xmlns="http://www.w3.org/2000/svg">
<path d="M31.4786 33.1415C28.6375 33.1415 25.7477 32.3892 22.8093 30.8845C19.8709 29.3799 17.2106 27.4401 14.8285 25.0651C12.4464 22.6901 10.5012 20.0387 8.99304 17.111C7.48484 14.1833 6.73074 11.2989 6.73074 8.4577C6.73074 7.94611 6.90129 7.51978 7.24237 7.1787C7.58342 6.83764 8.00976 6.66711 8.52137 6.66711H12.3525C12.8253 6.66711 13.2298 6.80921 13.566 7.09341C13.9023 7.37757 14.1218 7.75754 14.2243 8.23332L15.079 12.0325C15.156 12.4641 15.1455 12.8557 15.0475 13.2072C14.9496 13.5587 14.7647 13.8489 14.493 14.078L10.8237 17.5325C12.4063 20.1778 14.1654 22.4559 16.101 24.3669C18.0365 26.2779 20.2991 27.9478 22.8889 29.3765L26.4487 25.6692C26.7315 25.368 27.039 25.1619 27.3712 25.0512C27.7035 24.9404 28.062 24.9257 28.4466 25.0069L31.703 25.712C32.1803 25.8094 32.5607 26.031 32.8441 26.3769C33.1275 26.7228 33.2692 27.1429 33.2692 27.6372V31.3509C33.2692 31.8625 33.0987 32.2888 32.7576 32.6299C32.4166 32.9709 31.9902 33.1415 31.4786 33.1415ZM10.1036 16.2526L13.5053 13.1009C13.5979 13.0154 13.6602 12.8979 13.6923 12.7483C13.7243 12.5987 13.7261 12.4598 13.6976 12.3317L12.876 8.5902C12.8476 8.41925 12.7763 8.29104 12.6624 8.20557C12.5484 8.1201 12.406 8.07736 12.235 8.07736H8.59291C8.46472 8.07736 8.35788 8.1201 8.27241 8.20557C8.18694 8.29104 8.1442 8.39788 8.1442 8.52607C8.1264 9.64218 8.29342 10.8516 8.64529 12.1543C8.99715 13.457 9.48326 14.8231 10.1036 16.2526ZM24.2147 30.0047C25.3494 30.5852 26.5878 31.0168 27.93 31.2996C29.2723 31.5824 30.4323 31.7312 31.4102 31.7462C31.5385 31.7462 31.6453 31.7035 31.7308 31.618C31.8163 31.5325 31.859 31.4257 31.859 31.2975V27.7013C31.859 27.5304 31.8163 27.3879 31.7308 27.2739C31.6453 27.16 31.5171 27.0888 31.3462 27.0603L28.141 26.3947C28.0128 26.3662 27.9006 26.368 27.8045 26.4C27.7083 26.4321 27.6068 26.4944 27.5 26.587L24.2147 30.0047Z" fill="black"/>
</svg>
