<svg width="40" height="40" viewBox="0 0 40 40" fill="none" xmlns="http://www.w3.org/2000/svg">
<path d="M31.4786 33.1415C28.6375 33.1415 25.7477 32.3892 22.8093 30.8845C19.8709 29.3799 17.2106 27.4401 14.8285 25.0651C12.4464 22.6901 10.5012 20.0387 8.99304 17.111C7.48484 14.1833 6.73074 11.2989 6.73074 8.4577C6.73074 7.95342 6.9031 7.52892 7.24783 7.1842C7.59258 6.83947 8.01709 6.66711 8.52137 6.66711H12.3525C12.8269 6.66711 13.2318 6.80921 13.5673 7.09341C13.9028 7.37757 14.1218 7.75754 14.2243 8.23332L15.079 12.0325C15.156 12.4641 15.1455 12.8557 15.0475 13.2072C14.9496 13.5587 14.7635 13.8502 14.4893 14.0817L10.8269 17.5325C12.4095 20.1778 14.1681 22.4559 16.1026 24.3669C18.0371 26.2779 20.2991 27.9478 22.8889 29.3765L26.4487 25.6692C26.7315 25.368 27.039 25.1619 27.3712 25.0512C27.7035 24.9404 28.062 24.9257 28.4466 25.0069L31.703 25.712C32.1745 25.8024 32.5534 26.0216 32.8397 26.3696C33.1261 26.7175 33.2692 27.1401 33.2692 27.6372V31.3509C33.2692 31.8551 33.0969 32.2797 32.7522 32.6244C32.4074 32.9691 31.9829 33.1415 31.4786 33.1415Z" fill="black"/>
</svg>
