<svg width="40" height="40" viewBox="0 0 40 40" fill="none" xmlns="http://www.w3.org/2000/svg">
<path d="M10.8333 22.5069H22.4124V21.0967H10.8333V22.5069ZM10.8333 17.3787H29.1667V15.9684H10.8333V17.3787ZM10.8333 12.2505H29.1667V10.8402H10.8333V12.2505ZM5 33.462V7.43636C5 6.75367 5.23531 6.17702 5.70592 5.70641C6.17653 5.23579 6.75318 5.00049 7.43587 5.00049H32.5641C33.2468 5.00049 33.8235 5.23579 34.2941 5.70641C34.7647 6.17702 35 6.75367 35 7.43636V25.8979C35 26.5806 34.7647 27.1573 34.2941 27.6279C33.8235 28.0985 33.2468 28.3338 32.5641 28.3338H10.1282L5 33.462ZM9.51067 26.9236H32.5641C32.8205 26.9236 33.0556 26.8167 33.2692 26.6031C33.4829 26.3894 33.5898 26.1544 33.5898 25.8979V7.43636C33.5898 7.17995 33.4829 6.94491 33.2692 6.73124C33.0556 6.51757 32.8205 6.41074 32.5641 6.41074H7.43587C7.17946 6.41074 6.94442 6.51757 6.73075 6.73124C6.51708 6.94491 6.41025 7.17995 6.41025 7.43636V30.102L9.51067 26.9236Z" fill="black"/>
</svg>
