<svg width="40" height="40" viewBox="0 0 40 40" fill="none" xmlns="http://www.w3.org/2000/svg">
<path d="M17.6132 25.7248L28.3611 14.9705L27.3504 13.9598L17.6132 23.7034L12.7884 18.9L11.7778 19.9107L17.6132 25.7248ZM9.10253 33.3338C8.41664 33.3338 7.83918 33.0993 7.37016 32.6303C6.90116 32.1613 6.66666 31.5838 6.66666 30.8979V9.10299C6.66666 8.4171 6.90116 7.83964 7.37016 7.37061C7.83918 6.90161 8.41664 6.66711 9.10253 6.66711H30.8974C31.5833 6.66711 32.1608 6.90161 32.6298 7.37061C33.0988 7.83964 33.3333 8.4171 33.3333 9.10299V30.8979C33.3333 31.5838 33.0988 32.1613 32.6298 32.6303C32.1608 33.0993 31.5833 33.3338 30.8974 33.3338H9.10253Z" fill="black"/>
</svg>
