<svg width="40" height="40" viewBox="0 0 40 40" fill="none" xmlns="http://www.w3.org/2000/svg">
<path d="M12.1154 20.6714H27.891V19.2611H12.1154V20.6714ZM9.10253 33.3338C8.41984 33.3338 7.84318 33.0985 7.37257 32.6279C6.90196 32.1573 6.66666 31.5806 6.66666 30.8979V9.10299C6.66666 8.42029 6.90196 7.84364 7.37257 7.37303C7.84318 6.90242 8.41984 6.66711 9.10253 6.66711H30.8974C31.5801 6.66711 32.1568 6.90242 32.6274 7.37303C33.098 7.84364 33.3333 8.42029 33.3333 9.10299V30.8979C33.3333 31.5806 33.098 32.1573 32.6274 32.6279C32.1568 33.0985 31.5801 33.3338 30.8974 33.3338H9.10253Z" fill="black"/>
</svg>
