<svg width="40" height="40" viewBox="0 0 40 40" fill="none" xmlns="http://www.w3.org/2000/svg">
<path d="M9.10255 33.3338C8.41985 33.3338 7.8432 33.0985 7.37259 32.6279C6.90198 32.1573 6.66667 31.5806 6.66667 30.8979V9.10299C6.66667 8.42029 6.90198 7.84364 7.37259 7.37303C7.8432 6.90242 8.41985 6.66711 9.10255 6.66711H30.8975C31.5802 6.66711 32.1568 6.90242 32.6274 7.37303C33.098 7.84364 33.3333 8.42029 33.3333 9.10299V30.8979C33.3333 31.5806 33.098 32.1573 32.6274 32.6279C32.1568 33.0985 31.5802 33.3338 30.8975 33.3338H9.10255ZM9.10255 31.9235H30.8975C31.1539 31.9235 31.3889 31.8167 31.6026 31.603C31.8163 31.3894 31.9231 31.1543 31.9231 30.8979V9.10299C31.9231 8.84657 31.8163 8.61153 31.6026 8.39787C31.3889 8.1842 31.1539 8.07736 30.8975 8.07736H9.10255C8.84613 8.07736 8.61109 8.1842 8.39742 8.39787C8.18375 8.61153 8.07692 8.84657 8.07692 9.10299V30.8979C8.07692 31.1543 8.18375 31.3894 8.39742 31.603C8.61109 31.8167 8.84613 31.9235 9.10255 31.9235Z" fill="black"/>
</svg>
