<svg width="40" height="40" viewBox="0 0 40 40" fill="none" xmlns="http://www.w3.org/2000/svg">
<path d="M10.5769 34.353C9.89421 34.353 9.31755 34.1177 8.84691 33.6471C8.3763 33.1765 8.14099 32.5998 8.14099 31.9171V12.3893H9.55124V31.9171C9.55124 32.1735 9.65809 32.4086 9.87178 32.6222C10.0854 32.8359 10.3205 32.9428 10.5769 32.9428H24.9829V34.353H10.5769ZM15.0641 29.8659C14.3814 29.8659 13.8047 29.6306 13.3341 29.1599C12.8635 28.6893 12.6282 28.1126 12.6282 27.4299V8.45557C12.6282 7.77287 12.8635 7.19621 13.3341 6.72557C13.8047 6.25496 14.3814 6.01965 15.0641 6.01965H29.0384C29.7211 6.01965 30.2978 6.25496 30.7684 6.72557C31.2391 7.19621 31.4744 7.77287 31.4744 8.45557V27.4299C31.4744 28.1126 31.2391 28.6893 30.7684 29.1599C30.2978 29.6306 29.7211 29.8659 29.0384 29.8659H15.0641ZM15.0641 28.4556H29.0384C29.2949 28.4556 29.5299 28.3488 29.7436 28.1351C29.9573 27.9214 30.0641 27.6864 30.0641 27.4299V8.45557C30.0641 8.19915 29.9573 7.96411 29.7436 7.75045C29.5299 7.53675 29.2949 7.4299 29.0384 7.4299H15.0641C14.8077 7.4299 14.5726 7.53675 14.3589 7.75045C14.1453 7.96411 14.0384 8.19915 14.0384 8.45557V27.4299C14.0384 27.6864 14.1453 27.9214 14.3589 28.1351C14.5726 28.3488 14.8077 28.4556 15.0641 28.4556Z" fill="black"/>
</svg>
