<svg width="40" height="40" viewBox="0 0 40 40" fill="none" xmlns="http://www.w3.org/2000/svg">
<path d="M9.10256 33.3339C8.41526 33.3339 7.83745 33.0997 7.36915 32.6314C6.90084 32.1631 6.66669 31.5853 6.66669 30.898V9.10308C6.66669 8.41578 6.90084 7.83797 7.36915 7.36966C7.83745 6.90136 8.41526 6.66721 9.10256 6.66721H17.2896C17.4 6.01548 17.7066 5.46794 18.2094 5.02458C18.7123 4.58119 19.3091 4.3595 20 4.3595C20.7022 4.3595 21.3025 4.58119 21.8007 5.02458C22.299 5.46794 22.6033 6.01548 22.7137 6.66721H30.8975C31.5848 6.66721 32.1626 6.90136 32.6309 7.36966C33.0992 7.83797 33.3334 8.41578 33.3334 9.10308V30.898C33.3334 31.5853 33.0992 32.1631 32.6309 32.6314C32.1626 33.0997 31.5848 33.3339 30.8975 33.3339H9.10256ZM9.10256 31.9236H30.8975C31.1539 31.9236 31.3889 31.8168 31.6026 31.6031C31.8163 31.3895 31.9231 31.1544 31.9231 30.898V9.10308C31.9231 8.84666 31.8163 8.61162 31.6026 8.39796C31.3889 8.18429 31.1539 8.07746 30.8975 8.07746H27.1795V11.4108H12.8205V8.07746H9.10256C8.84615 8.07746 8.6111 8.18429 8.39744 8.39796C8.18377 8.61162 8.07694 8.84666 8.07694 9.10308V30.898C8.07694 31.1544 8.18377 31.3895 8.39744 31.6031C8.6111 31.8168 8.84615 31.9236 9.10256 31.9236ZM20 8.46208C20.3868 8.46208 20.7078 8.3344 20.9631 8.07904C21.2185 7.8237 21.3462 7.50266 21.3462 7.11591C21.3462 6.72916 21.2185 6.40812 20.9631 6.15279C20.7078 5.89743 20.3868 5.76975 20 5.76975C19.6133 5.76975 19.2922 5.89743 19.0369 6.15279C18.7815 6.40812 18.6539 6.72916 18.6539 7.11591C18.6539 7.50266 18.7815 7.8237 19.0369 8.07904C19.2922 8.3344 19.6133 8.46208 20 8.46208Z" fill="black"/>
</svg>
