<svg width="40" height="40" viewBox="0 0 40 40" fill="none" xmlns="http://www.w3.org/2000/svg">
<path d="M10.7692 31.6672C10.0865 31.6672 9.50984 31.4319 9.03923 30.9613C8.56862 30.4907 8.33331 29.914 8.33331 29.2313V24.96H9.74356V29.2313C9.74356 29.4878 9.8504 29.7228 10.0641 29.9365C10.2777 30.1501 10.5128 30.257 10.7692 30.257H29.2308C29.4872 30.257 29.7222 30.1501 29.9359 29.9365C30.1496 29.7228 30.2564 29.4878 30.2564 29.2313V24.96H31.6666V29.2313C31.6666 29.914 31.4313 30.4907 30.9607 30.9613C30.4901 31.4319 29.9135 31.6672 29.2308 31.6672H10.7692ZM20 25.4728L14.1901 19.6629L15.2008 18.6672L19.2949 22.7399V7.75696H20.7051V22.7399L24.7991 18.6672L25.8098 19.6629L20 25.4728Z" fill="black"/>
</svg>
