<svg width="40" height="40" viewBox="0 0 40 40" fill="none" xmlns="http://www.w3.org/2000/svg">
<path d="M10.7692 35.0005C10.0866 35.0005 9.5099 34.7652 9.03929 34.2946C8.56868 33.824 8.33337 33.2473 8.33337 32.5646V7.43636C8.33337 6.75367 8.56868 6.17702 9.03929 5.70641C9.5099 5.23579 10.0866 5.00049 10.7692 5.00049H24.4295L31.6667 12.2377V32.5646C31.6667 33.2473 31.4314 33.824 30.9608 34.2946C30.4902 34.7652 29.9135 35.0005 29.2308 35.0005H10.7692ZM23.7244 12.9022V6.41074H10.7692C10.5128 6.41074 10.2778 6.51757 10.0641 6.73124C9.85046 6.94491 9.74362 7.17995 9.74362 7.43636V32.5646C9.74362 32.821 9.85046 33.0561 10.0641 33.2697C10.2778 33.4834 10.5128 33.5902 10.7692 33.5902H29.2308C29.4872 33.5902 29.7223 33.4834 29.936 33.2697C30.1496 33.0561 30.2565 32.821 30.2565 32.5646V12.9022H23.7244Z" fill="black"/>
</svg>
