<svg width="40" height="40" viewBox="0 0 40 40" fill="none" xmlns="http://www.w3.org/2000/svg">
<path d="M14.8694 32.0518C14.3525 32.0518 13.9031 31.8601 13.5214 31.4767C13.1396 31.0933 12.9487 30.6432 12.9487 30.1263C12.9487 29.6094 13.1404 29.1601 13.5239 28.7783C13.9072 28.3965 14.3574 28.2056 14.8743 28.2056C15.3912 28.2056 15.8405 28.3973 16.2222 28.7808C16.604 29.1642 16.7949 29.6143 16.7949 30.1312C16.7949 30.6481 16.6032 31.0974 16.2198 31.4791C15.8364 31.8609 15.3862 32.0518 14.8694 32.0518ZM25.1258 32.0518C24.6089 32.0518 24.1596 31.8601 23.7778 31.4767C23.396 31.0933 23.2051 30.6432 23.2051 30.1263C23.2051 29.6094 23.3969 29.1601 23.7803 28.7783C24.1637 28.3965 24.6138 28.2056 25.1307 28.2056C25.6476 28.2056 26.0969 28.3973 26.4786 28.7808C26.8604 29.1642 27.0513 29.6143 27.0513 30.1312C27.0513 30.6481 26.8596 31.0974 26.4762 31.4791C26.0928 31.8609 25.6427 32.0518 25.1258 32.0518ZM14.8694 21.9236C14.3525 21.9236 13.9031 21.7319 13.5214 21.3485C13.1396 20.9651 12.9487 20.5149 12.9487 19.9981C12.9487 19.4812 13.1404 19.0318 13.5239 18.6501C13.9072 18.2683 14.3574 18.0774 14.8743 18.0774C15.3912 18.0774 15.8405 18.2691 16.2222 18.6526C16.604 19.0359 16.7949 19.4861 16.7949 20.003C16.7949 20.5199 16.6032 20.9692 16.2198 21.3509C15.8364 21.7327 15.3862 21.9236 14.8694 21.9236ZM25.1258 21.9236C24.6089 21.9236 24.1596 21.7319 23.7778 21.3485C23.396 20.9651 23.2051 20.5149 23.2051 19.9981C23.2051 19.4812 23.3969 19.0318 23.7803 18.6501C24.1637 18.2683 24.6138 18.0774 25.1307 18.0774C25.6476 18.0774 26.0969 18.2691 26.4786 18.6526C26.8604 19.0359 27.0513 19.4861 27.0513 20.003C27.0513 20.5199 26.8596 20.9692 26.4762 21.3509C26.0928 21.7327 25.6427 21.9236 25.1258 21.9236ZM14.8694 11.7954C14.3525 11.7954 13.9031 11.6037 13.5214 11.2203C13.1396 10.8369 12.9487 10.3867 12.9487 9.86985C12.9487 9.35296 13.1404 8.90364 13.5239 8.52189C13.9072 8.14011 14.3574 7.94922 14.8743 7.94922C15.3912 7.94922 15.8405 8.14093 16.2222 8.52435C16.604 8.90773 16.7949 9.35787 16.7949 9.87476C16.7949 10.3916 16.6032 10.841 16.2198 11.2227C15.8364 11.6045 15.3862 11.7954 14.8694 11.7954ZM25.1258 11.7954C24.6089 11.7954 24.1596 11.6037 23.7778 11.2203C23.396 10.8369 23.2051 10.3867 23.2051 9.86985C23.2051 9.35296 23.3969 8.90364 23.7803 8.52189C24.1637 8.14011 24.6138 7.94922 25.1307 7.94922C25.6476 7.94922 26.0969 8.14093 26.4786 8.52435C26.8604 8.90773 27.0513 9.35787 27.0513 9.87476C27.0513 10.3916 26.8596 10.841 26.4762 11.2227C26.0928 11.6045 25.6427 11.7954 25.1258 11.7954Z" fill="black"/>
</svg>
