<svg width="40" height="40" viewBox="0 0 40 40" fill="none" xmlns="http://www.w3.org/2000/svg">
<path d="M8.58974 31.9236H10.2158L27.9754 14.1853L26.328 12.5379L8.58974 30.2975V31.9236ZM30.9829 13.1682L27.3419 9.53358L29.1795 7.696C29.4651 7.41039 29.8075 7.26758 30.2067 7.26758C30.606 7.26758 30.9484 7.41039 31.234 7.696L32.8173 9.27933C33.1029 9.56494 33.2432 9.90629 33.2382 10.3034C33.2333 10.7005 33.088 11.0489 32.8024 11.3488L30.9829 13.1682ZM29.9722 14.1607L10.7991 33.3338H7.17944V29.7142L26.3526 10.5411L29.9722 14.1607ZM27.1464 13.3349L26.328 12.5379L27.9754 14.1853L27.1464 13.3349Z" fill="black"/>
</svg>
