<svg width="40" height="40" viewBox="0 0 40 40" fill="none" xmlns="http://www.w3.org/2000/svg">
<path d="M19.9995 27.4364C20.2776 27.4364 20.5036 27.3497 20.6773 27.1762C20.8511 27.0027 20.938 26.7769 20.938 26.4989C20.938 26.2208 20.8513 25.9948 20.6778 25.821C20.5044 25.6472 20.2786 25.5603 20.0005 25.5603C19.7224 25.5603 19.4964 25.6471 19.3227 25.8205C19.1489 25.994 19.062 26.2198 19.062 26.4979C19.062 26.776 19.1487 27.0019 19.3222 27.1757C19.4956 27.3495 19.7214 27.4364 19.9995 27.4364ZM19.3355 22.0112H20.7457V11.8424H19.3355V22.0112ZM20.013 35.0005C17.9294 35.0005 15.9803 34.6069 14.1658 33.8197C12.3512 33.0325 10.7639 31.9595 9.40387 30.6007C8.04385 29.242 6.96986 27.6555 6.18192 25.8412C5.39397 24.027 5 22.0773 5 19.9922C5 17.9213 5.3936 15.9743 6.18079 14.1512C6.96801 12.3282 8.041 10.7412 9.39975 9.39045C10.7585 8.0397 12.345 6.97035 14.1593 6.18241C15.9735 5.39446 17.9232 5.00049 20.0083 5.00049C22.0792 5.00049 24.0262 5.39409 25.8493 6.18128C27.6723 6.9685 29.2593 8.03686 30.61 9.38636C31.9608 10.7359 33.0301 12.3228 33.8181 14.1471C34.606 15.9714 35 17.9182 35 19.9875C35 22.0711 34.6064 24.0201 33.8192 25.8347C33.032 27.6493 31.9636 29.2349 30.6141 30.5915C29.2646 31.9481 27.6777 33.0221 25.8534 33.8134C24.0291 34.6048 22.0823 35.0005 20.013 35.0005Z" fill="black"/>
</svg>
