<svg width="40" height="40" viewBox="0 0 40 40" fill="none" xmlns="http://www.w3.org/2000/svg">
<path d="M7.43587 31.6672C6.75318 31.6672 6.17653 31.4316 5.70592 30.9605C5.23531 30.4893 5 29.9129 5 29.2313V10.7697C5 10.0881 5.23531 9.51174 5.70592 9.04057C6.17653 8.56943 6.75318 8.33386 7.43587 8.33386H16.2564L19.3333 11.4108H32.5641C33.2457 11.4108 33.8221 11.6463 34.2933 12.1175C34.7644 12.5887 35 13.165 35 13.8467V29.2313C35 29.9129 34.7644 30.4893 34.2933 30.9605C33.8221 31.4316 33.2457 31.6672 32.5641 31.6672H7.43587ZM7.43587 30.2569H32.5641C32.8633 30.2569 33.109 30.1608 33.3013 29.9685C33.4936 29.7762 33.5898 29.5305 33.5898 29.2313V13.8467C33.5898 13.5475 33.4936 13.3018 33.3013 13.1095C33.109 12.9172 32.8633 12.821 32.5641 12.821H18.7788L15.7019 9.74411H7.43587C7.13674 9.74411 6.89101 9.84026 6.69871 10.0326C6.5064 10.2249 6.41025 10.4706 6.41025 10.7697V29.2313C6.41025 29.5305 6.5064 29.7762 6.69871 29.9685C6.89101 30.1608 7.13674 30.2569 7.43587 30.2569Z" fill="black"/>
</svg>
