<svg width="40" height="40" viewBox="0 0 40 40" fill="none" xmlns="http://www.w3.org/2000/svg">
<path d="M7.24358 31.6672C6.62606 31.6672 6.09774 31.4477 5.65863 31.0086C5.21954 30.5695 5 30.0411 5 29.4236V10.7697C5 10.1522 5.2516 9.59185 5.75479 9.08865C6.25799 8.58546 6.81835 8.33386 7.43587 8.33386H16.2564L19.3333 11.4108H32.5641C33.0534 11.4108 33.4909 11.5449 33.8766 11.813C34.2623 12.0812 34.5406 12.4172 34.7115 12.821H18.7511L15.6742 9.74411H7.43587C7.13674 9.74411 6.89101 9.84026 6.69871 10.0326C6.5064 10.2249 6.41025 10.4706 6.41025 10.7697V29.2313C6.41025 29.4663 6.46901 29.6587 6.58654 29.8082C6.70404 29.9578 6.85894 30.086 7.05125 30.1929L10.9081 16.5389H38.109L34.2831 30.0358C34.1335 30.5572 33.8609 30.9594 33.4653 31.2425C33.0696 31.5256 32.5983 31.6672 32.0513 31.6672H7.24358ZM8.52563 30.2569H32.7671L36.1966 17.9492H11.9551L8.52563 30.2569Z" fill="black"/>
</svg>
