<svg width="40" height="40" viewBox="0 0 40 40" fill="none" xmlns="http://www.w3.org/2000/svg">
<path d="M16.2415 30.868V29.4578H33.3333V30.868H16.2415ZM16.2415 20.7056V19.2954H33.3333V20.7056H16.2415ZM16.2415 10.5368V9.12657H33.3333V10.5368H16.2415ZM8.74546 32.2056C8.17071 32.2056 7.68162 32.0058 7.27821 31.6062C6.87479 31.2066 6.67308 30.723 6.67308 30.1554C6.67308 29.5878 6.87396 29.1031 7.27571 28.7014C7.67746 28.2997 8.16212 28.0988 8.72971 28.0988C9.29726 28.0988 9.78086 28.3041 10.1805 28.7146C10.5801 29.1252 10.7799 29.6136 10.7799 30.18C10.7799 30.7311 10.5807 31.2064 10.1823 31.6061C9.78387 32.0058 9.30493 32.2056 8.74546 32.2056ZM8.74546 22.0432C8.17071 22.0432 7.68162 21.8407 7.27821 21.4356C6.87479 21.0305 6.67308 20.5521 6.67308 20.0005C6.67308 19.4489 6.87623 18.9705 7.28254 18.5654C7.68887 18.1603 8.17733 17.9577 8.74791 17.9577C9.30322 17.9577 9.78072 18.1603 10.1804 18.5654C10.5801 18.9705 10.7799 19.4489 10.7799 20.0005C10.7799 20.5521 10.5807 21.0305 10.1823 21.4356C9.78387 21.8407 9.30493 22.0432 8.74546 22.0432ZM8.71579 11.8744C8.16421 11.8744 7.68586 11.6718 7.28075 11.2667C6.87564 10.8616 6.67308 10.3833 6.67308 9.83169C6.67308 9.28008 6.87564 8.80172 7.28075 8.39661C7.68586 7.9915 8.16777 7.78894 8.7265 7.78894C9.28522 7.78894 9.76714 7.9915 10.1722 8.39661C10.5774 8.80172 10.7799 9.28008 10.7799 9.83169C10.7799 10.3833 10.5778 10.8616 10.1736 11.2667C9.76936 11.6718 9.28343 11.8744 8.71579 11.8744Z" fill="black"/>
</svg>
