<svg width="40" height="40" viewBox="0 0 40 40" fill="none" xmlns="http://www.w3.org/2000/svg">
<path d="M13.1688 30.4172V9.58386H20.2532C21.8493 9.58386 23.2283 10.0974 24.3899 11.1244C25.5516 12.1515 26.1325 13.4332 26.1325 14.9695C26.1325 15.946 25.8618 16.8543 25.3205 17.6944C24.7792 18.5345 24.0242 19.1604 23.0555 19.5721V19.6533C24.2329 19.9646 25.1565 20.5978 25.8264 21.5529C26.4962 22.508 26.8312 23.5661 26.8312 24.727C26.8312 26.326 26.2186 27.6741 24.9936 28.7714C23.7685 29.8686 22.2973 30.4172 20.5801 30.4172H13.1688ZM14.8343 28.9087H20.4498C21.6549 28.9087 22.7309 28.5157 23.6778 27.7297C24.6248 26.9437 25.0983 25.92 25.0983 24.6587C25.0983 23.4158 24.6284 22.4013 23.6886 21.6154C22.7487 20.8294 21.673 20.4364 20.4615 20.4364H14.8343V28.9087ZM14.8343 18.9664H20.1602C21.292 18.9664 22.2863 18.5963 23.1431 17.8563C24 17.1163 24.4284 16.1718 24.4284 15.0229C24.4284 13.8962 24.0014 12.9567 23.1474 12.2046C22.2934 11.4524 21.2998 11.0764 20.1666 11.0764H14.8343V18.9664Z" fill="black"/>
</svg>
