<svg width="40" height="40" viewBox="0 0 40 40" fill="none" xmlns="http://www.w3.org/2000/svg">
<path d="M9.48718 31.8274V30.4171H30.5128V31.8274H9.48718ZM20 26.7633C17.6403 26.7633 15.7796 26.0813 14.4178 24.7173C13.0559 23.3534 12.375 21.4955 12.375 19.1436V6.37866H14.0064V19.1201C14.0064 20.9905 14.5399 22.4681 15.6068 23.5528C16.6738 24.6376 18.1382 25.18 20 25.18C21.8618 25.18 23.3262 24.6376 24.3932 23.5528C25.4601 22.4681 25.9936 20.9905 25.9936 19.1201V6.37866H27.625V19.1436C27.625 21.4955 26.9441 23.3534 25.5823 24.7173C24.2205 26.0813 22.3597 26.7633 20 26.7633Z" fill="black"/>
</svg>
