<svg width="40" height="40" viewBox="0 0 40 40" fill="none" xmlns="http://www.w3.org/2000/svg">
<path d="M6.66667 35.0005V33.5261H10.8333V31.2505H8.33334V29.7761H10.8333V27.5005H6.66667V26.0261H11.1538C11.4808 26.0261 11.7548 26.1367 11.976 26.3579C12.1971 26.579 12.3077 26.8531 12.3077 27.18V29.4877C12.3077 29.8146 12.1971 30.0886 11.976 30.3098C11.7548 30.5309 11.4808 30.6415 11.1538 30.6415C11.4808 30.6415 11.7548 30.7521 11.976 30.9732C12.1971 31.1944 12.3077 31.4684 12.3077 31.7954V33.8467C12.3077 34.1736 12.1971 34.4476 11.976 34.6688C11.7548 34.8899 11.4808 35.0005 11.1538 35.0005H6.66667ZM6.66667 24.4877V20.4172C6.66667 20.0902 6.77724 19.8162 6.99838 19.595C7.21955 19.3739 7.49359 19.2633 7.82051 19.2633H10.8333V16.9877H6.66667V15.5133H11.1538C11.4808 15.5133 11.7548 15.6239 11.976 15.845C12.1971 16.0662 12.3077 16.3402 12.3077 16.6672V19.5838C12.3077 19.9107 12.1971 20.1848 11.976 20.4059C11.7548 20.6271 11.4808 20.7377 11.1538 20.7377H8.14105V23.0133H12.3077V24.4877H6.66667ZM9.16667 13.9749V6.47486H6.66667V5.00049H10.641V13.9749H9.16667ZM16.1474 30.712V29.3018H33.3333V30.712H16.1474ZM16.1474 20.6714V19.2612H33.3333V20.6714H16.1474ZM16.1474 10.6308V9.22057H33.3333V10.6308H16.1474Z" fill="black"/>
</svg>
