<svg width="40" height="40" viewBox="0 0 40 40" fill="none" xmlns="http://www.w3.org/2000/svg">
<path d="M20.8162 18.8445C21.4024 18.1907 21.81 17.4624 22.039 16.6597C22.268 15.857 22.3825 14.999 22.3825 14.0859C22.3825 13.1728 22.268 12.3185 22.039 11.5229C21.81 10.7273 21.4024 10.0026 20.8162 9.34877C22.2165 9.24335 23.4046 9.64292 24.3803 10.5475C25.3561 11.452 25.844 12.6351 25.844 14.0966C25.844 15.5582 25.3561 16.7377 24.3803 17.6351C23.4046 18.5325 22.2165 18.9357 20.8162 18.8445ZM29.1025 31.0261V28.5432C29.1025 27.5853 28.9124 26.6929 28.532 25.8659C28.1517 25.039 27.4836 24.3602 26.5277 23.8295C28.7151 24.2113 30.3613 24.7859 31.4664 25.5534C32.5714 26.3208 33.124 27.3175 33.124 28.5432V31.0261H29.1025ZM32.1795 20.712V17.1223H28.5897V15.712H32.1795V12.1223H33.5897V15.712H37.1795V17.1223H33.5897V20.712H32.1795ZM14.4231 18.9684C13.0409 18.9684 11.8852 18.5002 10.9559 17.5638C10.0266 16.6274 9.56195 15.4681 9.56195 14.0859C9.56195 12.7038 10.0266 11.5481 10.9559 10.6188C11.8852 9.68951 13.0409 9.22485 14.4231 9.22485C15.8052 9.22485 16.9645 9.68951 17.9009 10.6188C18.8373 11.5481 19.3055 12.7038 19.3055 14.0859C19.3055 15.4681 18.8373 16.6274 17.9009 17.5638C16.9645 18.5002 15.8052 18.9684 14.4231 18.9684ZM2.8205 31.0261V28.5048C2.8205 27.8125 3.02295 27.1666 3.42787 26.5673C3.83279 25.9679 4.38532 25.5048 5.08545 25.1779C6.74357 24.4335 8.32975 23.876 9.844 23.5053C11.3582 23.1345 12.8846 22.9492 14.4231 22.9492C15.9615 22.9492 17.4832 23.1345 18.9882 23.5053C20.4932 23.876 22.0819 24.4335 23.7542 25.1779C24.4402 25.5048 24.9902 25.9679 25.4044 26.5673C25.8185 27.1666 26.0256 27.8125 26.0256 28.5048V31.0261H2.8205ZM14.4337 17.5582C15.4046 17.5582 16.2242 17.224 16.8926 16.5555C17.5611 15.887 17.8953 15.0674 17.8953 14.0966C17.8953 13.1258 17.5611 12.3062 16.8926 11.6378C16.2242 10.9693 15.401 10.6351 14.4231 10.6351C13.4451 10.6351 12.6255 10.9693 11.9642 11.6378C11.3029 12.3062 10.9722 13.1258 10.9722 14.0966C10.9722 15.0674 11.3025 15.887 11.963 16.5555C12.6235 17.224 13.4471 17.5582 14.4337 17.5582ZM4.23075 29.6159H24.6154V28.5048C24.6154 28.1019 24.4873 27.7161 24.2313 27.3474C23.9752 26.9786 23.5983 26.6686 23.1004 26.4171C21.6075 25.7028 20.1618 25.1812 18.7632 24.8525C17.3647 24.5238 15.9179 24.3594 14.4231 24.3594C12.9282 24.3594 11.4825 24.5238 10.0861 24.8525C8.68968 25.1812 7.24073 25.7028 5.73929 26.4171C5.24998 26.6643 4.87623 26.9727 4.61804 27.3424C4.35984 27.712 4.23075 28.0995 4.23075 28.5048V29.6159Z" fill="black"/>
</svg>
