<svg width="40" height="40" viewBox="0 0 40 40" fill="none" xmlns="http://www.w3.org/2000/svg">
<path d="M4.29269 31.0261V28.5048C4.29269 27.727 4.49408 27.0598 4.89686 26.5031C5.29964 25.9465 5.85978 25.5038 6.57728 25.1751C8.11264 24.4825 9.57049 23.9383 10.9508 23.5427C12.3312 23.147 14.0007 22.9492 15.9594 22.9492C17.9323 22.9492 19.6043 23.147 20.9754 23.5427C22.3465 23.9383 23.8068 24.4825 25.3564 25.1751C26.0597 25.5038 26.6138 25.9465 27.0187 26.5031C27.4236 27.0598 27.6261 27.727 27.6261 28.5048V31.0261H4.29269ZM30.703 31.0261V28.5432C30.703 27.4107 30.4737 26.4157 30.015 25.5582C29.5564 24.7007 28.946 23.9806 28.1837 23.3979C29.1503 23.5874 30.0826 23.8322 30.9807 24.1324C31.8789 24.4326 32.6966 24.7654 33.4338 25.1308C34.1147 25.4898 34.6638 25.9671 35.0812 26.5628C35.4986 27.1584 35.7073 27.8186 35.7073 28.5432V31.0261H30.703ZM15.9594 18.9684C14.5844 18.9684 13.4287 18.5002 12.4922 17.5638C11.5558 16.6274 11.0876 15.4716 11.0876 14.0966C11.0876 12.7074 11.5558 11.5481 12.4922 10.6188C13.4287 9.68951 14.5844 9.22485 15.9594 9.22485C17.3486 9.22485 18.5079 9.68951 19.4372 10.6188C20.3665 11.5481 20.8312 12.7074 20.8312 14.0966C20.8312 15.4716 20.3665 16.6274 19.4372 17.5638C18.5079 18.5002 17.3486 18.9684 15.9594 18.9684ZM27.5619 14.0966C27.5619 15.4716 27.0973 16.6274 26.168 17.5638C25.2387 18.5002 24.0794 18.9684 22.6902 18.9684C22.6197 18.9684 22.5481 18.9626 22.4754 18.9508C22.4028 18.9391 22.3312 18.9214 22.2607 18.8979C22.7982 18.2648 23.2071 17.5393 23.4875 16.7215C23.7679 15.9036 23.9081 15.0274 23.9081 14.0927C23.9081 13.158 23.7573 12.2975 23.4557 11.5111C23.154 10.7248 22.7557 9.97912 22.2607 9.27398C22.3233 9.26473 22.3949 9.25423 22.4754 9.24248C22.5559 9.23073 22.6275 9.22485 22.6902 9.22485C24.0794 9.22485 25.2387 9.68951 26.168 10.6188C27.0973 11.5481 27.5619 12.7074 27.5619 14.0966Z" fill="black"/>
</svg>
