<svg width="40" height="40" viewBox="0 0 40 40" fill="none" xmlns="http://www.w3.org/2000/svg">
<path d="M20.1279 28.6308C20.4465 28.6308 20.7178 28.5147 20.9418 28.2823C21.1658 28.05 21.2778 27.7746 21.2778 27.4559C21.2778 27.1516 21.1652 26.8839 20.94 26.6527C20.7148 26.4216 20.4429 26.306 20.1243 26.306C19.8057 26.306 19.5308 26.4222 19.2997 26.6545C19.0686 26.8869 18.953 27.1552 18.953 27.4596C18.953 27.7782 19.0692 28.053 19.3015 28.2842C19.5338 28.5153 19.8093 28.6308 20.1279 28.6308ZM19.2735 23.2056H20.7009C20.7293 22.5397 20.8563 21.9677 21.0818 21.4898C21.3072 21.0119 21.7756 20.4464 22.4872 19.7932C23.2664 19.0496 23.8298 18.3767 24.1773 17.7745C24.5249 17.1723 24.6987 16.4977 24.6987 15.7507C24.6987 14.4642 24.2653 13.4232 23.3985 12.6276C22.5318 11.832 21.4659 11.4342 20.2009 11.4342C19.0648 11.4342 18.0707 11.7377 17.2185 12.3445C16.3663 12.9513 15.7322 13.68 15.3162 14.5304L16.6795 15.0838C16.9865 14.4058 17.4087 13.8563 17.946 13.4353C18.4834 13.0144 19.2001 12.8039 20.0962 12.8039C21.1859 12.8039 22.0011 13.1025 22.5417 13.6997C23.0823 14.297 23.3526 14.9898 23.3526 15.7783C23.3526 16.3638 23.1945 16.8949 22.8782 17.3717C22.562 17.8486 22.1246 18.3367 21.5663 18.8359C20.7173 19.6144 20.1229 20.3395 19.7831 21.0112C19.4434 21.6828 19.2735 22.4143 19.2735 23.2056ZM20.0056 35.0005C17.9356 35.0005 15.9912 34.6069 14.1723 33.8197C12.3534 33.0325 10.7639 31.9595 9.40387 30.6007C8.04385 29.242 6.96986 27.654 6.18192 25.8368C5.39397 24.0196 5 22.076 5 20.0061C5 17.9318 5.3936 15.9817 6.18079 14.1557C6.96801 12.3296 8.041 10.7412 9.39975 9.39045C10.7585 8.0397 12.3465 6.97035 14.1637 6.18241C15.9809 5.39446 17.9245 5.00049 19.9944 5.00049C22.0687 5.00049 24.0188 5.39409 25.8448 6.18128C27.6709 6.9685 29.2593 8.03686 30.61 9.38636C31.9608 10.7359 33.0301 12.3228 33.8181 14.1471C34.606 15.9714 35 17.9207 35 19.9949C35 22.0649 34.6064 24.0093 33.8192 25.8282C33.032 27.6471 31.9636 29.2366 30.6141 30.5966C29.2646 31.9566 27.6777 33.0306 25.8534 33.8186C24.0291 34.6065 22.0798 35.0005 20.0056 35.0005ZM20 33.5902C23.7849 33.5902 26.9961 32.2704 29.6335 29.6308C32.271 26.9912 33.5898 23.7811 33.5898 20.0005C33.5898 16.2156 32.271 13.0044 29.6335 10.3669C26.9961 7.72947 23.7849 6.41074 20 6.41074C16.2194 6.41074 13.0092 7.72947 10.3697 10.3669C7.73006 13.0044 6.41025 16.2156 6.41025 20.0005C6.41025 23.7811 7.73006 26.9912 10.3697 29.6308C13.0092 32.2704 16.2194 33.5902 20 33.5902Z" fill="black"/>
</svg>
