<svg width="40" height="40" viewBox="0 0 40 40" fill="none" xmlns="http://www.w3.org/2000/svg">
<path d="M9.10256 33.3338C8.41987 33.3338 7.84321 33.0985 7.3726 32.6279C6.90199 32.1573 6.66669 31.5806 6.66669 30.8979V9.10299C6.66669 8.42029 6.90199 7.84364 7.3726 7.37303C7.84321 6.90242 8.41987 6.66711 9.10256 6.66711H30.8975C31.5802 6.66711 32.1568 6.90242 32.6274 7.37303C33.098 7.84364 33.3334 8.42029 33.3334 9.10299V30.8979C33.3334 31.5806 33.098 32.1573 32.6274 32.6279C32.1568 33.0985 31.5802 33.3338 30.8975 33.3338H9.10256ZM9.10256 31.9235H30.8975C31.1539 31.9235 31.3889 31.8167 31.6026 31.603C31.8163 31.3894 31.9231 31.1543 31.9231 30.8979V9.10299C31.9231 8.84657 31.8163 8.61153 31.6026 8.39787C31.3889 8.1842 31.1539 8.07736 30.8975 8.07736H9.10256C8.84615 8.07736 8.6111 8.1842 8.39744 8.39787C8.18377 8.61153 8.07694 8.84657 8.07694 9.10299V30.8979C8.07694 31.1543 8.18377 31.3894 8.39744 31.603C8.6111 31.8167 8.84615 31.9235 9.10256 31.9235ZM12.453 27.5411H27.8312L23.1389 21.306L18.6389 26.9534L15.6816 23.3402L12.453 27.5411Z" fill="black"/>
</svg>
