<svg width="40" height="40" viewBox="0 0 40 40" fill="none" xmlns="http://www.w3.org/2000/svg">
<path d="M9.10256 33.3338C8.41667 33.3338 7.83921 33.0993 7.37019 32.6303C6.90119 32.1613 6.66669 31.5838 6.66669 30.8979V9.10299C6.66669 8.4171 6.90119 7.83964 7.37019 7.37061C7.83921 6.90161 8.41667 6.66711 9.10256 6.66711H30.8975C31.5834 6.66711 32.1608 6.90161 32.6299 7.37061C33.0989 7.83964 33.3334 8.4171 33.3334 9.10299V30.8979C33.3334 31.5838 33.0989 32.1613 32.6299 32.6303C32.1608 33.0993 31.5834 33.3338 30.8975 33.3338H9.10256ZM12.453 27.5411H27.8312L23.1389 21.306L18.6389 26.9534L15.6816 23.3402L12.453 27.5411Z" fill="black"/>
</svg>
