<svg width="40" height="40" viewBox="0 0 40 40" fill="none" xmlns="http://www.w3.org/2000/svg">
<path d="M19.3355 27.5005H20.7457V18.3338H19.3355V27.5005ZM19.9995 16.0432C20.2634 16.0432 20.4858 15.9556 20.6667 15.7802C20.8476 15.6048 20.938 15.382 20.938 15.1116C20.938 14.8397 20.8478 14.6143 20.6672 14.4355C20.4866 14.2566 20.2644 14.1672 20.0005 14.1672C19.7224 14.1672 19.4964 14.2566 19.3227 14.4355C19.1489 14.6143 19.062 14.8397 19.062 15.1116C19.062 15.382 19.1523 15.6048 19.3328 15.7802C19.5134 15.9556 19.7356 16.0432 19.9995 16.0432ZM20.013 35.0005C17.9294 35.0005 15.9803 34.6069 14.1658 33.8197C12.3512 33.0325 10.7639 31.9595 9.40387 30.6007C8.04385 29.242 6.96986 27.6555 6.18192 25.8412C5.39397 24.027 5 22.0773 5 19.9922C5 17.9213 5.3936 15.9743 6.18079 14.1512C6.96801 12.3282 8.041 10.7412 9.39975 9.39045C10.7585 8.0397 12.345 6.97035 14.1593 6.18241C15.9735 5.39446 17.9232 5.00049 20.0083 5.00049C22.0792 5.00049 24.0262 5.39409 25.8493 6.18128C27.6723 6.9685 29.2593 8.03686 30.61 9.38636C31.9608 10.7359 33.0301 12.3228 33.8181 14.1471C34.606 15.9714 35 17.9182 35 19.9875C35 22.0711 34.6064 24.0201 33.8192 25.8347C33.032 27.6493 31.9636 29.2349 30.6141 30.5915C29.2646 31.9481 27.6777 33.0221 25.8534 33.8134C24.0291 34.6048 22.0823 35.0005 20.013 35.0005Z" fill="black"/>
</svg>
