<svg width="40" height="40" viewBox="0 0 40 40" fill="none" xmlns="http://www.w3.org/2000/svg">
<path d="M10.7692 15.0817H25.1282V11.5389C25.1282 10.1144 24.6301 8.90361 23.6338 7.90645C22.6375 6.90931 21.4278 6.41074 20.0046 6.41074C18.5813 6.41074 17.37 6.90931 16.3707 7.90645C15.3714 8.90361 14.8718 10.1144 14.8718 11.5389H13.4616C13.4616 9.71345 14.0964 8.16732 15.366 6.90057C16.6357 5.63385 18.1818 5.00049 20.0044 5.00049C21.827 5.00049 23.3716 5.63488 24.6384 6.90366C25.9051 8.17246 26.5385 9.71756 26.5385 11.5389V15.0817H29.2308C29.895 15.0817 30.467 15.3189 30.9469 15.7932C31.4267 16.2676 31.6667 16.8423 31.6667 17.5176V32.5646C31.6667 33.2288 31.4267 33.8008 30.9469 34.2807C30.467 34.7606 29.895 35.0005 29.2308 35.0005H10.7692C10.1051 35.0005 9.53302 34.7606 9.05313 34.2807C8.57327 33.8008 8.33334 33.2288 8.33334 32.5646V17.5176C8.33334 16.8423 8.57327 16.2676 9.05313 15.7932C9.53302 15.3189 10.1051 15.0817 10.7692 15.0817ZM10.7692 33.5902H29.2308C29.5299 33.5902 29.7757 33.4941 29.968 33.3018C30.1603 33.1095 30.2564 32.8638 30.2564 32.5646V17.5176C30.2564 17.2184 30.1603 16.9727 29.968 16.7804C29.7757 16.5881 29.5299 16.4919 29.2308 16.4919H10.7692C10.4701 16.4919 10.2244 16.5881 10.0321 16.7804C9.83975 16.9727 9.74359 17.2184 9.74359 17.5176V32.5646C9.74359 32.8638 9.83975 33.1095 10.0321 33.3018C10.2244 33.4941 10.4701 33.5902 10.7692 33.5902ZM20.0047 27.5005C20.686 27.5005 21.2655 27.2625 21.7431 26.7865C22.2206 26.3105 22.4594 25.733 22.4594 25.0539C22.4594 24.3922 22.2191 23.8148 21.7384 23.3215C21.2577 22.8283 20.6767 22.5817 19.9953 22.5817C19.314 22.5817 18.7345 22.8283 18.257 23.3215C17.7794 23.8148 17.5406 24.3969 17.5406 25.0678C17.5406 25.7387 17.7809 26.3119 18.2616 26.7874C18.7423 27.2628 19.3233 27.5005 20.0047 27.5005Z" fill="black"/>
</svg>
