<svg width="40" height="40" viewBox="0 0 40 40" fill="none" xmlns="http://www.w3.org/2000/svg">
<path d="M9.42303 35.0005C8.74036 35.0005 8.16371 34.7652 7.69307 34.2946C7.22246 33.824 6.98715 33.2473 6.98715 32.5646V9.10305C6.98715 8.42036 7.22246 7.8437 7.69307 7.37309C8.16371 6.90248 8.74036 6.66718 9.42303 6.66718H20.2628V8.07743H9.42303C9.16664 8.07743 8.9316 8.18426 8.7179 8.39793C8.50424 8.61159 8.3974 8.84663 8.3974 9.10305V32.5646C8.3974 32.821 8.50424 33.0561 8.7179 33.2698C8.9316 33.4834 9.16664 33.5903 9.42303 33.5903H20.2628V35.0005H9.42303ZM27.453 26.4001L26.4242 25.4043L30.2895 21.539H15.5876V20.1287H30.2767L26.4113 16.2633L27.4188 15.2462L33.0128 20.8509L27.453 26.4001Z" fill="black"/>
</svg>
