<svg width="40" height="40" viewBox="0 0 40 40" fill="none" xmlns="http://www.w3.org/2000/svg">
<path d="M7.43587 31.6672C6.75318 31.6672 6.17653 31.4319 5.70592 30.9613C5.23531 30.4907 5 29.914 5 29.2313V10.7697C5 10.087 5.23531 9.51039 5.70592 9.03978C6.17653 8.56917 6.75318 8.33386 7.43587 8.33386H32.5641C33.2468 8.33386 33.8235 8.56917 34.2941 9.03978C34.7647 9.51039 35 10.087 35 10.7697V29.2313C35 29.914 34.7647 30.4907 34.2941 30.9613C33.8235 31.4319 33.2468 31.6672 32.5641 31.6672H7.43587ZM20 19.9022L6.41025 10.8873V29.2313C6.41025 29.5305 6.5064 29.7762 6.69871 29.9685C6.89101 30.1608 7.13674 30.2569 7.43587 30.2569H32.5641C32.8633 30.2569 33.109 30.1608 33.3013 29.9685C33.4936 29.7762 33.5898 29.5305 33.5898 29.2313V10.8873L20 19.9022ZM20 18.2997L33.0299 9.74411H6.99783L20 18.2997ZM6.41025 10.8873V9.74411V29.2313C6.41025 29.5305 6.5064 29.7762 6.69871 29.9685C6.89101 30.1608 7.13674 30.2569 7.43587 30.2569H6.41025V10.8873Z" fill="black"/>
</svg>
