<svg width="40" height="40" viewBox="0 0 40 40" fill="none" xmlns="http://www.w3.org/2000/svg">
<path d="M7.43587 31.6671C6.75318 31.6671 6.17653 31.4318 5.70592 30.9612C5.23531 30.4906 5 29.914 5 29.2313V10.7697C5 10.087 5.23531 9.51033 5.70592 9.03972C6.17653 8.56911 6.75318 8.3338 7.43587 8.3338H32.5641C33.2468 8.3338 33.8235 8.56911 34.2941 9.03972C34.7647 9.51033 35 10.087 35 10.7697V29.2313C35 29.914 34.7647 30.4906 34.2941 30.9612C33.8235 31.4318 33.2468 31.6671 32.5641 31.6671H7.43587ZM20 19.9022L6.41025 10.8872V29.2313C6.41025 29.5304 6.5064 29.7761 6.69871 29.9684C6.89101 30.1607 7.13674 30.2569 7.43587 30.2569H32.5641C32.8633 30.2569 33.109 30.1607 33.3013 29.9684C33.4936 29.7761 33.5898 29.5304 33.5898 29.2313V10.8872L20 19.9022ZM20 18.2996L33.0299 9.74405H6.99783L20 18.2996ZM6.41025 10.8872V9.74405V29.2313C6.41025 29.5304 6.5064 29.7761 6.69871 29.9684C6.89101 30.1607 7.13674 30.2569 7.43587 30.2569H6.41025V10.8872Z" fill="black"/>
</svg>
