<svg width="40" height="40" viewBox="0 0 40 40" fill="none" xmlns="http://www.w3.org/2000/svg">
<path d="M20 21.3702C19.1123 21.3702 18.3765 21.0667 17.7925 20.4597C17.2086 19.8528 16.9167 19.1035 16.9167 18.212V8.07741C16.9167 7.22032 17.2127 6.49322 17.8048 5.89611C18.3969 5.29903 19.1281 5.00049 19.9984 5.00049C20.8687 5.00049 21.6004 5.29903 22.1935 5.89611C22.7867 6.49322 23.0833 7.22032 23.0833 8.07741V18.212C23.0833 19.1035 22.7914 19.8528 22.2075 20.4597C21.6235 21.0667 20.8877 21.3702 20 21.3702ZM19.2949 34.1672V28.1362C16.6752 27.9239 14.4711 26.8723 12.6827 24.9813C10.8942 23.0903 10 20.8338 10 18.212H11.4103C11.4103 20.5945 12.2469 22.6128 13.9202 24.267C15.5935 25.9213 17.6172 26.7484 19.9913 26.7484C22.3653 26.7484 24.3919 25.9213 26.071 24.267C27.7502 22.6128 28.5898 20.5945 28.5898 18.212H30C30 20.8338 29.1058 23.0903 27.3173 24.9813C25.5289 26.8723 23.3248 27.9239 20.7051 28.1362V34.1672H19.2949ZM20 19.9599C20.4765 19.9599 20.8745 19.7923 21.1939 19.4572C21.5134 19.1221 21.6731 18.7041 21.6731 18.2034V8.07741C21.6731 7.60518 21.5127 7.20935 21.1921 6.88991C20.8714 6.57046 20.474 6.41074 20 6.41074C19.526 6.41074 19.1286 6.57046 18.8079 6.88991C18.4873 7.20935 18.3269 7.60518 18.3269 8.07741V18.2034C18.3269 18.7041 18.4866 19.1221 18.8061 19.4572C19.1255 19.7923 19.5235 19.9599 20 19.9599Z" fill="black"/>
</svg>
