<svg width="40" height="40" viewBox="0 0 40 40" fill="none" xmlns="http://www.w3.org/2000/svg">
<path d="M25.6016 17.524C26.088 17.524 26.5046 17.348 26.8515 16.9962C27.1984 16.6443 27.3718 16.2251 27.3718 15.7387C27.3718 15.2522 27.1958 14.8356 26.844 14.4887C26.4921 14.1419 26.0729 13.9684 25.5865 13.9684C25.1001 13.9684 24.6834 14.1444 24.3365 14.4963C23.9897 14.8482 23.8163 15.2673 23.8163 15.7537C23.8163 16.2402 23.9922 16.6568 24.3441 17.0037C24.696 17.3506 25.1151 17.524 25.6016 17.524ZM14.4135 17.524C14.8999 17.524 15.3166 17.348 15.6635 16.9962C16.0103 16.6443 16.1838 16.2251 16.1838 15.7387C16.1838 15.2522 16.0078 14.8356 15.6559 14.4887C15.304 14.1419 14.8849 13.9684 14.3984 13.9684C13.912 13.9684 13.4954 14.1444 13.1485 14.4963C12.8016 14.8482 12.6282 15.2673 12.6282 15.7537C12.6282 16.2402 12.8042 16.6568 13.156 17.0037C13.5079 17.3506 13.9271 17.524 14.4135 17.524ZM20 28.1351C21.5812 28.1351 23.0376 27.7065 24.3691 26.8493C25.7007 25.9921 26.703 24.8495 27.3761 23.4214H12.6239C13.3013 24.8495 14.3047 25.9921 15.6341 26.8493C16.9635 27.7065 18.4188 28.1351 20 28.1351ZM20.0056 35.0005C17.9313 35.0005 15.9812 34.6069 14.1552 33.8197C12.3291 33.0325 10.7407 31.9641 9.38996 30.6146C8.03921 29.2651 6.96986 27.6782 6.18192 25.8539C5.39397 24.0296 5 22.0803 5 20.0061C5 17.9318 5.3936 15.9817 6.18079 14.1557C6.96801 12.3296 8.03638 10.7412 9.38588 9.39045C10.7354 8.0397 12.3223 6.97035 14.1466 6.18241C15.9709 5.39446 17.9202 5.00049 19.9944 5.00049C22.0687 5.00049 24.0188 5.39409 25.8448 6.18128C27.6709 6.9685 29.2593 8.03686 30.61 9.38636C31.9608 10.7359 33.0301 12.3228 33.8181 14.1471C34.606 15.9714 35 17.9207 35 19.9949C35 22.0692 34.6064 24.0193 33.8192 25.8453C33.032 27.6714 31.9636 29.2598 30.6141 30.6105C29.2646 31.9613 27.6777 33.0306 25.8534 33.8186C24.0291 34.6065 22.0798 35.0005 20.0056 35.0005ZM19.9979 33.5902C23.7911 33.5902 27.0048 32.2739 29.6388 29.6413C32.2728 27.0087 33.5898 23.7958 33.5898 20.0026C33.5898 16.2093 32.2734 12.9957 29.6408 10.3617C27.0082 7.72774 23.7953 6.41074 20.0021 6.41074C16.2088 6.41074 12.9952 7.72704 10.3612 10.3597C7.72725 12.9923 6.41025 16.2052 6.41025 19.9984C6.41025 23.7917 7.72656 27.0053 10.3592 29.6392C12.9918 32.2732 16.2047 33.5902 19.9979 33.5902Z" fill="black"/>
</svg>
