<svg width="40" height="40" viewBox="0 0 40 40" fill="none" xmlns="http://www.w3.org/2000/svg">
<path d="M19.9972 30.8979C19.6533 30.8979 19.3598 30.7755 19.1167 30.5306C18.8737 30.2857 18.7521 29.9912 18.7521 29.6473C18.7521 29.3034 18.8746 29.0063 19.1196 28.7561C19.3645 28.5059 19.6589 28.3809 20.0028 28.3809C20.3467 28.3809 20.6402 28.5055 20.8833 28.7549C21.1264 29.0042 21.2479 29.3039 21.2479 29.654C21.2479 29.9983 21.1254 30.2916 20.8805 30.5342C20.6356 30.7767 20.3411 30.8979 19.9972 30.8979ZM19.9972 21.2484C19.6533 21.2484 19.3598 21.1259 19.1167 20.8809C18.8737 20.636 18.7521 20.3416 18.7521 19.9977C18.7521 19.6538 18.8746 19.3602 19.1196 19.1172C19.3645 18.8741 19.6589 18.7526 20.0028 18.7526C20.3467 18.7526 20.6402 18.8751 20.8833 19.12C21.1264 19.3649 21.2479 19.6594 21.2479 20.0033C21.2479 20.3472 21.1254 20.6407 20.8805 20.8838C20.6356 21.1268 20.3411 21.2484 19.9972 21.2484ZM19.9972 11.6201C19.6533 11.6201 19.3598 11.4954 19.1167 11.2461C18.8737 10.9968 18.7521 10.6971 18.7521 10.3469C18.7521 10.0027 18.8746 9.70935 19.1196 9.46682C19.3645 9.22429 19.6589 9.10303 20.0028 9.10303C20.3467 9.10303 20.6402 9.22549 20.8833 9.4704C21.1264 9.71532 21.2479 10.0097 21.2479 10.3537C21.2479 10.6976 21.1254 10.9947 20.8805 11.2449C20.6356 11.495 20.3411 11.6201 19.9972 11.6201Z" fill="black"/>
</svg>
