<svg width="40" height="40" viewBox="0 0 40 40" fill="none" xmlns="http://www.w3.org/2000/svg">
<path d="M10.3465 21.2483C10.0022 21.2483 9.70886 21.1258 9.46633 20.8809C9.2238 20.636 9.10254 20.3416 9.10254 19.9976C9.10254 19.6537 9.225 19.3602 9.46991 19.1171C9.71483 18.8741 10.0093 18.7526 10.3532 18.7526C10.6971 18.7526 10.9942 18.875 11.2444 19.12C11.4945 19.3649 11.6196 19.6593 11.6196 20.0032C11.6196 20.3472 11.495 20.6407 11.2456 20.8837C10.9963 21.1268 10.6966 21.2483 10.3465 21.2483ZM19.9972 21.2483C19.6533 21.2483 19.3598 21.1258 19.1167 20.8809C18.8737 20.636 18.7521 20.3416 18.7521 19.9976C18.7521 19.6537 18.8746 19.3602 19.1195 19.1171C19.3645 18.8741 19.6589 18.7526 20.0028 18.7526C20.3467 18.7526 20.6402 18.875 20.8833 19.12C21.1263 19.3649 21.2479 19.6593 21.2479 20.0032C21.2479 20.3472 21.1254 20.6407 20.8805 20.8837C20.6355 21.1268 20.3411 21.2483 19.9972 21.2483ZM29.6468 21.2483C29.3029 21.2483 29.0058 21.1258 28.7556 20.8809C28.5055 20.636 28.3804 20.3416 28.3804 19.9976C28.3804 19.6537 28.505 19.3602 28.7544 19.1171C29.0037 18.8741 29.3034 18.7526 29.6535 18.7526C29.9978 18.7526 30.2911 18.875 30.5337 19.12C30.7762 19.3649 30.8975 19.6593 30.8975 20.0032C30.8975 20.3472 30.775 20.6407 30.5301 20.8837C30.2852 21.1268 29.9907 21.2483 29.6468 21.2483Z" fill="black"/>
</svg>
