<svg width="40" height="40" viewBox="0 0 40 40" fill="none" xmlns="http://www.w3.org/2000/svg">
<path d="M7.5 31.2184V29.8082H10.8803V16.9705C10.8803 14.7431 11.5808 12.782 12.9818 11.0873C14.3828 9.39267 16.1823 8.34518 18.3803 7.94488V6.77183C18.3803 6.29842 18.5322 5.91687 18.836 5.62721C19.1398 5.33757 19.5278 5.19275 20 5.19275C20.4722 5.19275 20.8602 5.33757 21.164 5.62721C21.4678 5.91687 21.6197 6.29842 21.6197 6.77183V7.94488C23.8177 8.34518 25.6182 9.39267 27.0214 11.0873C28.4245 12.782 29.1261 14.7431 29.1261 16.9705V29.8082H32.5V31.2184H7.5ZM20 36.0261C19.2799 36.0261 18.6512 35.7692 18.1138 35.2552C17.5764 34.7414 17.3077 34.1009 17.3077 33.3338H22.6923C22.6923 34.1009 22.4353 34.7414 21.9215 35.2552C21.4076 35.7691 20.7671 36.0261 20 36.0261ZM12.2906 29.8082H27.7158V16.9705C27.7158 14.8181 26.969 12.993 25.4754 11.4951C23.9818 9.99724 22.1588 9.24829 20.0064 9.24829C17.854 9.24829 16.0299 9.99724 14.5342 11.4951C13.0384 12.993 12.2906 14.8181 12.2906 16.9705V29.8082Z" fill="black"/>
</svg>
