<svg width="40" height="40" viewBox="0 0 40 40" fill="none" xmlns="http://www.w3.org/2000/svg">
<path d="M5.55984 16.5795C5.55984 14.4285 6.01408 12.3913 6.92255 10.4679C7.83103 8.54443 9.09225 6.8751 10.7062 5.45987L11.7073 6.50475C10.2116 7.77895 9.04808 9.28446 8.21689 11.0213C7.38569 12.7581 6.97009 14.6109 6.97009 16.5795H5.55984ZM33.0363 16.5795C33.0363 14.6109 32.6275 12.7581 31.8098 11.0213C30.9922 9.28446 29.8426 7.77895 28.3611 6.50475L29.3408 5.45987C30.9505 6.87937 32.2039 8.54978 33.101 10.4711C33.9981 12.3924 34.4466 14.4285 34.4466 16.5795H33.0363ZM7.50001 31.2184V29.8082H10.8803V16.9705C10.8803 14.7462 11.5808 12.7859 12.9818 11.0897C14.3828 9.39344 16.1823 8.34518 18.3803 7.94488V6.77183C18.3803 6.29961 18.5322 5.91838 18.836 5.62813C19.1398 5.33788 19.5278 5.19275 20 5.19275C20.4722 5.19275 20.8602 5.33788 21.164 5.62813C21.4678 5.91838 21.6197 6.29961 21.6197 6.77183V7.94488C23.8177 8.34518 25.6182 9.39344 27.0214 11.0897C28.4245 12.7859 29.1261 14.7462 29.1261 16.9705V29.8082H32.5V31.2184H7.50001ZM20 36.0261C19.2799 36.0261 18.6512 35.7692 18.1138 35.2552C17.5764 34.7414 17.3077 34.1009 17.3077 33.3338H22.6923C22.6923 34.1009 22.4354 34.7414 21.9215 35.2552C21.4076 35.7691 20.7671 36.0261 20 36.0261ZM12.2906 29.8082H27.7158V16.9705C27.7158 14.8181 26.969 12.993 25.4754 11.4951C23.9818 9.99724 22.1588 9.24829 20.0064 9.24829C17.854 9.24829 16.0299 9.99724 14.5342 11.4951C13.0385 12.993 12.2906 14.8181 12.2906 16.9705V29.8082Z" fill="black"/>
</svg>
