<svg width="40" height="40" viewBox="0 0 40 40" fill="none" xmlns="http://www.w3.org/2000/svg">
<path d="M7.5 31.2184V29.8082H10.8803V16.9705C10.8803 14.7462 11.5808 12.7859 12.9818 11.0897C14.3828 9.39344 16.1823 8.34518 18.3803 7.94488V6.77183C18.3803 6.29961 18.5322 5.91838 18.836 5.62813C19.1398 5.33788 19.5278 5.19275 20 5.19275C20.4722 5.19275 20.8602 5.33788 21.164 5.62813C21.4678 5.91838 21.6197 6.29961 21.6197 6.77183V7.94488C23.8177 8.34518 25.6182 9.39344 27.0214 11.0897C28.4245 12.7859 29.1261 14.7462 29.1261 16.9705V29.8082H32.5V31.2184H7.5ZM20 36.0261C19.2799 36.0261 18.6512 35.7692 18.1138 35.2552C17.5764 34.7414 17.3077 34.1009 17.3077 33.3338H22.6923C22.6923 34.1009 22.4353 34.7414 21.9215 35.2552C21.4076 35.7691 20.7671 36.0261 20 36.0261Z" fill="black"/>
</svg>
