<svg width="40" height="40" viewBox="0 0 40 40" fill="none" xmlns="http://www.w3.org/2000/svg">
<path d="M7.46798 33.3338C7.26748 33.3338 7.09982 33.2663 6.96502 33.1313C6.83024 32.9963 6.76285 32.8273 6.76285 32.6243C6.76285 32.4214 6.83024 32.2538 6.96502 32.1217C7.09982 31.9896 7.26748 31.9235 7.46798 31.9235H9.48719V20.7056H7.33977C7.13927 20.7056 6.97162 20.6381 6.83681 20.5031C6.70203 20.368 6.63464 20.1991 6.63464 19.9961C6.63464 19.7932 6.70203 19.6256 6.83681 19.4935C6.97162 19.3614 7.13927 19.2953 7.33977 19.2953H9.48719V8.07736H7.46798C7.26748 8.07736 7.09982 8.00987 6.96502 7.87487C6.83024 7.73984 6.76285 7.57085 6.76285 7.3679C6.76285 7.16496 6.83024 6.99742 6.96502 6.86528C7.09982 6.73317 7.26748 6.66711 7.46798 6.66711H32.5C32.6998 6.66711 32.8673 6.73479 33.0024 6.87016C33.1376 7.00552 33.2051 7.17325 33.2051 7.37336C33.2051 7.57417 33.1376 7.74171 33.0024 7.87599C32.8673 8.01024 32.6998 8.07736 32.5 8.07736H30.5129V19.2953H32.6282C32.828 19.2953 32.9955 19.363 33.1306 19.4984C33.2658 19.6337 33.3334 19.8015 33.3334 20.0016C33.3334 20.2024 33.2658 20.3699 33.1306 20.5042C32.9955 20.6384 32.828 20.7056 32.6282 20.7056H30.5129V31.9235H32.5C32.6998 31.9235 32.8673 31.9912 33.0024 32.1266C33.1376 32.2619 33.2051 32.4297 33.2051 32.6298C33.2051 32.8306 33.1376 32.9982 33.0024 33.1324C32.8673 33.2667 32.6998 33.3338 32.5 33.3338H7.46798ZM10.8974 31.9235H29.1026V20.7056H28.2693C28.0688 20.7056 27.9011 20.6381 27.7663 20.5031C27.6315 20.368 27.5641 20.1991 27.5641 19.9961C27.5641 19.7932 27.6315 19.6256 27.7663 19.4935C27.9011 19.3614 28.0688 19.2953 28.2693 19.2953H29.1026V8.07736H10.8974V19.2953H11.7308C11.9305 19.2953 12.098 19.363 12.2332 19.4984C12.3683 19.6337 12.4359 19.8015 12.4359 20.0016C12.4359 20.2024 12.3683 20.3699 12.2332 20.5042C12.098 20.6384 11.9305 20.7056 11.7308 20.7056H10.8974V31.9235ZM20.0008 25.4406C21.1228 25.4406 22.0762 25.0531 22.8611 24.2782C23.646 23.5033 24.0385 22.5655 24.0385 21.4648C24.0385 20.5882 23.7872 19.8415 23.2847 19.2249C22.7823 18.6083 21.6874 17.3205 20 15.3616C18.3287 17.3105 17.2378 18.5981 16.7273 19.2244C16.2168 19.8507 15.9616 20.6005 15.9616 21.4738C15.9616 22.571 16.3543 23.5064 17.1396 24.2801C17.9251 25.0538 18.8788 25.4406 20.0008 25.4406Z" fill="black"/>
</svg>
