<svg width="40" height="40" viewBox="0 0 40 40" fill="none" xmlns="http://www.w3.org/2000/svg">
<path d="M26.953 17.2099V15.7996H35.1923V17.2099H26.953ZM15 18.9684C13.625 18.9684 12.4693 18.5002 11.5328 17.5638C10.5964 16.6274 10.1282 15.4681 10.1282 14.0859C10.1282 12.7038 10.5964 11.5481 11.5328 10.6188C12.4693 9.68951 13.625 9.22485 15 9.22485C16.375 9.22485 17.5307 9.68951 18.4672 10.6188C19.4036 11.5481 19.8718 12.7038 19.8718 14.0859C19.8718 15.4681 19.4036 16.6274 18.4672 17.5638C17.5307 18.5002 16.375 18.9684 15 18.9684ZM3.33333 31.0261V28.5048C3.33333 27.8125 3.53365 27.1666 3.93429 26.5673C4.33493 25.9679 4.88959 25.5048 5.59829 25.1779C7.28348 24.415 8.88909 23.8529 10.4151 23.4914C11.9412 23.1299 13.4675 22.9492 14.9942 22.9492C16.5208 22.9492 18.0481 23.1299 19.5758 23.4914C21.1036 23.8529 22.7101 24.415 24.3953 25.1779C25.104 25.5233 25.6597 25.991 26.0625 26.5811C26.4653 27.1713 26.6667 27.8125 26.6667 28.5048V31.0261H3.33333ZM4.74358 29.6159H25.2564V28.5048C25.2564 28.0995 25.1227 27.712 24.8552 27.3424C24.5878 26.9727 24.2165 26.6643 23.7415 26.4171C22.2258 25.6985 20.7665 25.1759 19.3637 24.8493C17.9608 24.5227 16.5063 24.3594 15 24.3594C13.4937 24.3594 12.0345 24.5227 10.6225 24.8493C9.21034 25.1759 7.75356 25.6985 6.25212 26.4171C5.76281 26.6643 5.38906 26.9727 5.13087 27.3424C4.87268 27.712 4.74358 28.0995 4.74358 28.5048V29.6159ZM15 17.5582C15.9708 17.5582 16.7904 17.224 17.4589 16.5555C18.1273 15.887 18.4615 15.0674 18.4615 14.0966C18.4615 13.1258 18.1273 12.3062 17.4589 11.6378C16.7904 10.9693 15.9708 10.6351 15 10.6351C14.0292 10.6351 13.2096 10.9693 12.5411 11.6378C11.8727 12.3062 11.5385 13.1258 11.5385 14.0966C11.5385 15.0674 11.8727 15.887 12.5411 16.5555C13.2096 17.224 14.0292 17.5582 15 17.5582Z" fill="black"/>
</svg>
