<svg width="40" height="40" viewBox="0 0 40 40" fill="none" xmlns="http://www.w3.org/2000/svg">
<path d="M30.5449 22.5005V17.3723H25.4167V15.962H30.5449V10.8338H31.9552V15.962H37.0834V17.3723H31.9552V22.5005H30.5449ZM15 18.9684C13.625 18.9684 12.4693 18.5002 11.5329 17.5638C10.5965 16.6274 10.1282 15.4716 10.1282 14.0966C10.1282 12.7074 10.5965 11.5481 11.5329 10.6188C12.4693 9.68951 13.625 9.22485 15 9.22485C16.375 9.22485 17.5308 9.68951 18.4672 10.6188C19.4036 11.5481 19.8718 12.7074 19.8718 14.0966C19.8718 15.4716 19.4036 16.6274 18.4672 17.5638C17.5308 18.5002 16.375 18.9684 15 18.9684ZM3.33337 31.0261V28.5048C3.33337 27.8125 3.53369 27.1666 3.93433 26.5673C4.33497 25.9679 4.88964 25.5048 5.59833 25.1779C7.28353 24.415 8.89108 23.8529 10.421 23.4914C11.9509 23.1299 13.4773 22.9492 15 22.9492C16.5228 22.9492 18.0481 23.1299 19.5759 23.4914C21.1037 23.8529 22.7101 24.415 24.3953 25.1779C25.104 25.5233 25.6598 25.991 26.0625 26.5811C26.4653 27.1713 26.6667 27.8125 26.6667 28.5048V31.0261H3.33337Z" fill="black"/>
</svg>
