<svg width="40" height="40" viewBox="0 0 40 40" fill="none" xmlns="http://www.w3.org/2000/svg">
<path d="M20 18.9684C18.625 18.9684 17.4693 18.5002 16.5328 17.5638C15.5964 16.6274 15.1282 15.4681 15.1282 14.0859C15.1282 12.7038 15.5964 11.5481 16.5328 10.6188C17.4693 9.68951 18.625 9.22485 20 9.22485C21.375 9.22485 22.5307 9.68951 23.4672 10.6188C24.4036 11.5481 24.8718 12.7038 24.8718 14.0859C24.8718 15.4681 24.4036 16.6274 23.4672 17.5638C22.5307 18.5002 21.375 18.9684 20 18.9684ZM8.33334 31.0261V28.5048C8.33334 27.7854 8.54042 27.1328 8.95459 26.547C9.36875 25.9611 9.91666 25.5048 10.5983 25.1779C12.2208 24.4421 13.8103 23.8867 15.3669 23.5117C16.9234 23.1367 18.4676 22.9492 19.9993 22.9492C21.5311 22.9492 23.0744 23.1378 24.6293 23.5149C26.1841 23.892 27.7689 24.4496 29.3836 25.1876C30.0806 25.5109 30.6354 25.9648 31.0479 26.5491C31.4604 27.1335 31.6667 27.7854 31.6667 28.5048V31.0261H8.33334ZM9.74359 29.6159H30.2564V28.5048C30.2564 28.0995 30.1216 27.712 29.852 27.3424C29.5825 26.9727 29.2123 26.6643 28.7415 26.4171C27.2842 25.707 25.8349 25.1866 24.3936 24.8557C22.9523 24.5249 21.4878 24.3594 20 24.3594C18.5123 24.3594 17.042 24.5249 15.5893 24.8557C14.1366 25.1866 12.6909 25.707 11.2521 26.4171C10.7813 26.6643 10.4122 26.9727 10.1448 27.3424C9.87731 27.712 9.74359 28.0995 9.74359 28.5048V29.6159ZM20 17.5582C20.9708 17.5582 21.7904 17.224 22.4589 16.5555C23.1273 15.887 23.4615 15.0674 23.4615 14.0966C23.4615 13.1258 23.1273 12.3062 22.4589 11.6378C21.7904 10.9693 20.9708 10.6351 20 10.6351C19.0292 10.6351 18.2096 10.9693 17.5411 11.6378C16.8727 12.3062 16.5385 13.1258 16.5385 14.0966C16.5385 15.0674 16.8727 15.887 17.5411 16.5555C18.2096 17.224 19.0292 17.5582 20 17.5582Z" fill="black"/>
</svg>
