<svg width="40" height="40" viewBox="0 0 40 40" fill="none" xmlns="http://www.w3.org/2000/svg">
<path d="M20 18.9684C18.625 18.9684 17.4693 18.5002 16.5328 17.5638C15.5964 16.6274 15.1282 15.4716 15.1282 14.0966C15.1282 12.7074 15.5964 11.5481 16.5328 10.6188C17.4693 9.68951 18.625 9.22485 20 9.22485C21.375 9.22485 22.5307 9.68951 23.4672 10.6188C24.4036 11.5481 24.8718 12.7074 24.8718 14.0966C24.8718 15.4716 24.4036 16.6274 23.4672 17.5638C22.5307 18.5002 21.375 18.9684 20 18.9684ZM8.33333 31.0261V28.5048C8.33333 27.7854 8.54041 27.1328 8.95458 26.547C9.36875 25.9611 9.91665 25.5048 10.5983 25.1779C12.2208 24.4421 13.8105 23.8867 15.3675 23.5117C16.9245 23.1367 18.4687 22.9492 20 22.9492C21.5313 22.9492 23.0744 23.1378 24.6293 23.5149C26.1841 23.892 27.7728 24.4464 29.3953 25.1779C30.0812 25.5048 30.6312 25.9611 31.0454 26.547C31.4596 27.1328 31.6667 27.7854 31.6667 28.5048V31.0261H8.33333Z" fill="black"/>
</svg>
