<svg width="40" height="40" viewBox="0 0 40 40" fill="none" xmlns="http://www.w3.org/2000/svg">
<path d="M20.7051 19.2954H33.5769C33.3982 15.811 32.0803 12.8272 29.6234 10.3439C27.1665 7.8607 24.1937 6.5539 20.7051 6.42357V19.2954ZM19.2949 33.5774V6.42357C15.6987 6.58096 12.6522 7.97181 10.1555 10.5961C7.65865 13.2204 6.41025 16.3552 6.41025 20.0005C6.41025 23.6458 7.65865 26.7806 10.1555 29.4049C12.6522 32.0292 15.6987 33.42 19.2949 33.5774ZM20.7051 33.5774C24.1937 33.4492 27.1635 32.1429 29.6143 29.6586C32.0652 27.1743 33.3861 24.1899 33.5769 20.7056H20.7051V33.5774ZM20.0056 35.0005C17.9313 35.0005 15.9812 34.6069 14.1552 33.8197C12.3291 33.0325 10.7407 31.9641 9.38996 30.6146C8.03921 29.2651 6.96986 27.6782 6.18192 25.8539C5.39397 24.0296 5 22.0803 5 20.0061C5 17.9318 5.3936 15.9817 6.18079 14.1557C6.96801 12.3296 8.03638 10.7412 9.38588 9.39045C10.7354 8.0397 12.3223 6.97035 14.1466 6.18241C15.9709 5.39446 17.9202 5.00049 19.9944 5.00049C22.0687 5.00049 24.0176 5.39525 25.8413 6.18478C27.6651 6.97431 29.2527 8.04482 30.6042 9.39632C31.9557 10.7478 33.0262 12.3341 33.8157 14.1553C34.6052 15.9764 35 17.9282 35 20.0106C35 22.0723 34.6064 24.0139 33.8192 25.8357C33.032 27.6575 31.9636 29.2473 30.6141 30.6053C29.2646 31.9632 27.6777 33.0353 25.8534 33.8214C24.0291 34.6074 22.0798 35.0005 20.0056 35.0005Z" fill="black"/>
</svg>
