<svg width="32" height="32" viewBox="0 0 32 32" fill="none" xmlns="http://www.w3.org/2000/svg">
<path d="M15.9959 28.667C14.2437 28.667 12.5976 28.3385 11.0578 27.6814C9.51801 27.0244 8.17417 26.122 7.02631 24.9741C5.87842 23.8262 4.97596 22.4824 4.31894 20.9426C3.6619 19.4028 3.33337 17.7567 3.33337 16.0044C3.33337 14.2401 3.66259 12.5891 4.32101 11.0514C4.97941 9.5137 5.88125 8.1722 7.02654 7.02691C8.17183 5.88162 9.51591 4.97977 11.0588 4.32137C12.6016 3.66295 14.2487 3.33374 16 3.33374C16.2321 3.33374 16.4297 3.41538 16.5928 3.57864C16.756 3.74191 16.8376 3.93962 16.8376 4.17178C16.8376 4.40395 16.756 4.60152 16.5928 4.76447C16.4297 4.92743 16.2321 5.00891 16 5.00891C12.9601 5.00891 10.3682 6.08085 8.22437 8.22474C6.08049 10.3686 5.00854 12.9605 5.00854 16.0004C5.00854 19.0403 6.08049 21.6321 8.22437 23.776C10.3682 25.9199 12.9601 26.9918 16 26.9918C19.0399 26.9918 21.6318 25.9199 23.7756 23.776C25.9195 21.6321 26.9915 19.0403 26.9915 16.0004C26.9915 15.7683 27.0731 15.5707 27.2363 15.4075C27.3996 15.2444 27.5973 15.1628 27.8295 15.1628C28.0617 15.1628 28.2592 15.2444 28.4222 15.4075C28.5852 15.5707 28.6666 15.7683 28.6666 16.0004C28.6666 17.7517 28.3374 19.3988 27.679 20.9416C27.0206 22.4845 26.1188 23.8286 24.9735 24.9738C23.8282 26.1191 22.4867 27.021 20.949 27.6794C19.4113 28.3378 17.7603 28.667 15.9959 28.667Z" fill="black"/>
</svg>
