<svg width="40" height="40" viewBox="0 0 40 40" fill="none" xmlns="http://www.w3.org/2000/svg">
<path d="M13.3333 35.0005C11.9583 35.0005 10.7812 34.5109 9.80206 33.5317C8.8229 32.5526 8.33331 31.3755 8.33331 30.0005V15.3851C8.33331 14.0582 8.77883 12.9236 9.66985 11.9813C10.5609 11.0389 11.6538 10.5229 12.9487 10.4332V7.43636C12.9487 6.77753 13.19 6.20685 13.6725 5.72432C14.1551 5.24177 14.7258 5.00049 15.3846 5.00049H24.6154C25.2742 5.00049 25.8449 5.24177 26.3274 5.72432C26.81 6.20685 27.0513 6.77753 27.0513 7.43636V10.4332C28.3461 10.5229 29.4391 11.0389 30.3301 11.9813C31.2211 12.9236 31.6666 14.0582 31.6666 15.3851V30.0005C31.6666 31.3755 31.1771 32.5526 30.1979 33.5317C29.2187 34.5109 28.0416 35.0005 26.6666 35.0005H13.3333ZM9.74356 22.1159H30.2564V15.3851C30.2564 14.384 29.9084 13.5355 29.2123 12.8394C28.5163 12.1434 27.6677 11.7954 26.6666 11.7954H13.3333C12.3322 11.7954 11.4837 12.1434 10.7876 12.8394C10.0916 13.5355 9.74356 14.384 9.74356 15.3851V22.1159ZM13.3333 33.5902H26.6666C27.6677 33.5902 28.5163 33.2422 29.2123 32.5462C29.9084 31.8501 30.2564 31.0016 30.2564 30.0005V23.5262H9.74356V30.0005C9.74356 30.9984 10.0916 31.8461 10.7876 32.5438C11.4837 33.2414 12.3322 33.5902 13.3333 33.5902ZM21.282 10.3851H25.641V7.43636C25.641 7.13722 25.5449 6.8915 25.3526 6.6992C25.1603 6.50689 24.9145 6.41074 24.6154 6.41074H15.3846C15.0854 6.41074 14.8397 6.50689 14.6474 6.6992C14.4551 6.8915 14.3589 7.13722 14.3589 7.43636V10.3851H18.7179C18.7179 10.0411 18.8456 9.7414 19.1009 9.48607C19.3563 9.23071 19.656 9.10303 20 9.10303C20.344 9.10303 20.6437 9.23071 20.899 9.48607C21.1544 9.7414 21.282 10.0411 21.282 10.3851Z" fill="black"/>
</svg>
