<svg width="40" height="40" viewBox="0 0 40 40" fill="none" xmlns="http://www.w3.org/2000/svg">
<path d="M20.0056 35.0005C17.9356 35.0005 15.9912 34.6069 14.1723 33.8197C12.3534 33.0325 10.7639 31.9595 9.40387 30.6007C8.04385 29.242 6.96986 27.654 6.18192 25.8368C5.39397 24.0196 5 22.076 5 20.0061C5 17.9318 5.3936 15.9817 6.18079 14.1557C6.96801 12.3296 8.041 10.7412 9.39975 9.39045C10.7585 8.0397 12.3465 6.97035 14.1637 6.18241C15.9809 5.39446 17.9245 5.00049 19.9944 5.00049C22.0687 5.00049 24.0188 5.39409 25.8448 6.18128C27.6709 6.9685 29.2593 8.03686 30.61 9.38636C31.9608 10.7359 33.0301 12.3228 33.8181 14.1471C34.606 15.9714 35 17.9207 35 19.9949C35 22.0649 34.6064 24.0093 33.8192 25.8282C33.032 27.6471 31.9636 29.2366 30.6141 30.5966C29.2646 31.9566 27.6777 33.0306 25.8534 33.8186C24.0291 34.6065 22.0798 35.0005 20.0056 35.0005ZM20 33.5902C23.7849 33.5902 26.9961 32.2704 29.6335 29.6308C32.271 26.9912 33.5898 23.7811 33.5898 20.0005C33.5898 16.2156 32.271 13.0044 29.6335 10.3669C26.9961 7.72947 23.7849 6.41074 20 6.41074C16.2194 6.41074 13.0092 7.72947 10.3697 10.3669C7.73006 13.0044 6.41025 16.2156 6.41025 20.0005C6.41025 23.7811 7.73006 26.9912 10.3697 29.6308C13.0092 32.2704 16.2194 33.5902 20 33.5902Z" fill="black"/>
</svg>
