<svg width="40" height="40" viewBox="0 0 40 40" fill="none" xmlns="http://www.w3.org/2000/svg">
<path d="M16.6133 30.8339C14.1838 30.8339 12.0842 30.0333 10.3147 28.4322C8.54507 26.831 7.66028 24.8424 7.66028 22.4663C7.66028 20.1045 8.54507 18.1231 10.3147 16.5219C12.0842 14.9208 14.1838 14.1202 16.6133 14.1202H29.6261L24.3312 8.82534L25.3355 7.82104L32.3398 14.8253L25.3355 21.8296L24.3312 20.8253L29.6261 15.5305H16.6069C14.5492 15.5305 12.7787 16.1889 11.2954 17.5059C9.81217 18.8228 9.07053 20.4763 9.07053 22.4663C9.07053 24.4706 9.81217 26.1312 11.2954 27.4482C12.7787 28.7652 14.5492 29.4236 16.6069 29.4236H27.6603V30.8339H16.6133Z" fill="black"/>
</svg>
