<svg width="40" height="40" viewBox="0 0 40 40" fill="none" xmlns="http://www.w3.org/2000/svg">
<path d="M20.1351 31.6672C16.8921 31.6672 14.1357 30.5328 11.866 28.2642C9.59638 25.9955 8.46155 23.2426 8.46155 20.0056C8.46155 16.7686 9.59638 14.0141 11.866 11.742C14.1357 9.4699 16.8898 8.33386 20.1282 8.33386C22.2486 8.33386 24.1752 8.83154 25.9081 9.8269C27.641 10.8223 29.0477 12.1921 30.1282 13.9364V8.33386H31.5385V16.7142H23.1581V15.3039H29.3248C28.4032 13.6102 27.1409 12.2602 25.5379 11.2537C23.935 10.2473 22.1318 9.74411 20.1282 9.74411C17.2669 9.74411 14.8421 10.7379 12.854 12.7256C10.8659 14.7132 9.8718 17.1374 9.8718 19.998C9.8718 22.8587 10.8666 25.2837 12.8563 27.273C14.846 29.2623 17.2726 30.2569 20.1362 30.2569C22.3239 30.2569 24.3081 29.6312 26.0887 28.3798C27.8693 27.1284 29.1183 25.4756 29.8355 23.4215H31.3141C30.5748 25.8987 29.1748 27.8923 27.1142 29.4022C25.0535 30.9122 22.7272 31.6672 20.1351 31.6672Z" fill="black"/>
</svg>
