<svg width="40" height="40" viewBox="0 0 40 40" fill="none" xmlns="http://www.w3.org/2000/svg">
<path d="M33.3334 12.3317V30.8979C33.3334 31.5806 33.098 32.1573 32.6274 32.6279C32.1568 33.0985 31.5802 33.3338 30.8975 33.3338H9.10256C8.41987 33.3338 7.84321 33.0985 7.3726 32.6279C6.90199 32.1573 6.66669 31.5806 6.66669 30.8979V9.10299C6.66669 8.42029 6.90199 7.84364 7.3726 7.37303C7.84321 6.90242 8.41987 6.66711 9.10256 6.66711H27.6688L33.3334 12.3317ZM31.9231 12.9556L27.0449 8.07736H9.10256C8.80342 8.07736 8.5577 8.17352 8.3654 8.36582C8.17309 8.55813 8.07694 8.80385 8.07694 9.10299V30.8979C8.07694 31.197 8.17309 31.4428 8.3654 31.6351C8.5577 31.8274 8.80342 31.9235 9.10256 31.9235H30.8975C31.1966 31.9235 31.4423 31.8274 31.6346 31.6351C31.827 31.4428 31.9231 31.197 31.9231 30.8979V12.9556ZM19.9935 27.4898C20.8523 27.4898 21.5888 27.1849 22.2029 26.5752C22.8169 25.9655 23.1239 25.2312 23.1239 24.3724C23.1239 23.5136 22.8191 22.7771 22.2094 22.163C21.5996 21.5489 20.8654 21.2419 20.0066 21.2419C19.1477 21.2419 18.4113 21.5468 17.7972 22.1565C17.1831 22.7662 16.8761 23.5005 16.8761 24.3593C16.8761 25.2181 17.181 25.9546 17.7907 26.5687C18.4004 27.1827 19.1347 27.4898 19.9935 27.4898ZM11.1944 15.9791H23.5321V11.1949H11.1944V15.9791ZM8.07694 12.9556V31.9235V8.07736V12.9556Z" fill="black"/>
</svg>
