<svg width="40" height="40" viewBox="0 0 40 40" fill="none" xmlns="http://www.w3.org/2000/svg">
<path d="M26.2799 27.3103L27.3034 26.2868L20.7457 19.7006V11.4984H19.3355V20.2997L26.2799 27.3103ZM20.0056 35.0005C17.9356 35.0005 15.9912 34.6069 14.1723 33.8197C12.3534 33.0325 10.7639 31.9595 9.40387 30.6007C8.04385 29.242 6.96986 27.654 6.18192 25.8368C5.39397 24.0196 5 22.076 5 20.0061C5 17.9361 5.3936 15.9917 6.18079 14.1728C6.96801 12.3539 8.041 10.7644 9.39975 9.40436C10.7585 8.04434 12.3465 6.97035 14.1637 6.18241C15.9809 5.39446 17.9245 5.00049 19.9944 5.00049C22.0644 5.00049 24.0088 5.39409 25.8277 6.18128C27.6466 6.9685 29.2361 8.04149 30.5961 9.40024C31.9562 10.759 33.0301 12.347 33.8181 14.1642C34.606 15.9814 35 17.925 35 19.9949C35 22.0649 34.6064 24.0093 33.8192 25.8282C33.032 27.6471 31.959 29.2366 30.6003 30.5966C29.2415 31.9566 27.6535 33.0306 25.8363 33.8186C24.0191 34.6065 22.0755 35.0005 20.0056 35.0005ZM20 33.5902C23.7529 33.5902 26.956 32.2635 29.6095 29.61C32.263 26.9565 33.5898 23.7533 33.5898 20.0005C33.5898 16.2476 32.263 13.0445 29.6095 10.391C26.956 7.73749 23.7529 6.41074 20 6.41074C16.2471 6.41074 13.044 7.73749 10.3905 10.391C7.737 13.0445 6.41025 16.2476 6.41025 20.0005C6.41025 23.7533 7.737 26.9565 10.3905 29.61C13.044 32.2635 16.2471 33.5902 20 33.5902Z" fill="black"/>
</svg>
