<svg width="40" height="40" viewBox="0 0 40 40" fill="none" xmlns="http://www.w3.org/2000/svg">
<path d="M32.6368 33.5838L22.0449 22.992C21.2172 23.7252 20.2564 24.2871 19.1626 24.6776C18.0689 25.0681 16.9691 25.2633 15.8633 25.2633C13.2033 25.2633 10.9522 24.3439 9.10976 22.5052C7.26734 20.6664 6.34613 18.423 6.34613 15.775C6.34613 13.1269 7.26552 10.8817 9.1043 9.0395C10.943 7.19725 13.1859 6.27612 15.8329 6.27612C18.4798 6.27612 20.7285 7.19601 22.579 9.03579C24.4295 10.8756 25.3547 13.119 25.3547 15.7662C25.3547 16.9153 25.1496 18.0372 24.7393 19.1319C24.3291 20.2266 23.7678 21.1764 23.0555 21.9812L33.6539 32.5454L32.6368 33.5838ZM15.8568 23.8531C18.1248 23.8531 20.0397 23.0741 21.6016 21.516C23.1635 19.9579 23.9445 18.0425 23.9445 15.7697C23.9445 13.4969 23.1635 11.5815 21.6016 10.0235C20.0397 8.4654 18.1248 7.68637 15.8568 7.68637C13.5854 7.68637 11.6674 8.4654 10.103 10.0235C8.53862 11.5815 7.75642 13.4969 7.75642 15.7697C7.75642 18.0425 8.53862 19.9579 10.103 21.516C11.6674 23.0741 13.5854 23.8531 15.8568 23.8531Z" fill="black"/>
</svg>
