<svg width="40" height="40" viewBox="0 0 40 40" fill="none" xmlns="http://www.w3.org/2000/svg">
<path d="M17.1133 35.0005L16.4637 30.2142C15.8775 30.0311 15.237 29.7462 14.5422 29.3595C13.8474 28.9727 13.2582 28.5578 12.7746 28.1148L8.35685 30.0742L5.46368 24.9738L9.36006 22.0699C9.30664 21.7459 9.26284 21.4063 9.22864 21.0512C9.19445 20.6962 9.17735 20.3566 9.17735 20.0325C9.17735 19.7298 9.19445 19.4027 9.22864 19.0512C9.26284 18.6997 9.30664 18.3263 9.36006 17.931L5.46368 15.0058L8.35685 9.99086L12.7425 11.8969C13.2902 11.4467 13.8907 11.0336 14.5438 10.6575C15.1969 10.2815 15.8262 10.0005 16.4316 9.81457L17.1133 5.00049H22.8868L23.5364 9.81886C24.2151 10.066 24.846 10.3552 25.429 10.6864C26.0119 11.0176 26.5787 11.4211 27.1293 11.8969L31.6646 9.99086L34.5364 15.0058L30.5118 17.993C30.6079 18.3641 30.666 18.7147 30.6859 19.0448C30.7059 19.375 30.7159 19.6935 30.7159 20.0005C30.7159 20.2861 30.7005 20.5929 30.6699 20.9209C30.6393 21.2489 30.5855 21.6234 30.5086 22.0443L34.4904 24.9738L31.5973 30.0742L27.1293 28.0827C26.5602 28.5685 25.9769 28.9934 25.3793 29.3573C24.7817 29.7213 24.1674 29.9962 23.5364 30.1821L22.8868 35.0005H17.1133ZM19.921 24.0389C21.052 24.0389 22.0079 23.6486 22.7885 22.868C23.5691 22.0874 23.9594 21.1315 23.9594 20.0005C23.9594 18.8694 23.5691 17.9136 22.7885 17.1329C22.0079 16.3523 21.052 15.962 19.921 15.962C18.802 15.962 17.8492 16.3523 17.0625 17.1329C16.2758 17.9136 15.8825 18.8694 15.8825 20.0005C15.8825 21.1315 16.2758 22.0874 17.0625 22.868C17.8492 23.6486 18.802 24.0389 19.921 24.0389Z" fill="black"/>
</svg>
