<svg width="40" height="40" viewBox="0 0 40 40" fill="none" xmlns="http://www.w3.org/2000/svg">
<path d="M17.7949 25.5133C18.2934 26.019 18.9736 26.2432 19.8355 26.1858C20.6973 26.1285 21.3184 25.816 21.6987 25.2483L30.3611 13.0026L18.0983 21.6415C17.5135 22.0361 17.1921 22.6536 17.1341 23.494C17.076 24.3345 17.2963 25.0076 17.7949 25.5133ZM19.9658 8.34021C21.4893 8.34021 22.9137 8.53803 24.2388 8.93367C25.5639 9.32933 26.8839 9.95772 28.1988 10.8188L26.9701 11.7227C25.8953 11.0596 24.763 10.5651 23.5732 10.2393C22.3834 9.91339 21.1827 9.75046 19.9711 9.75046C16.2056 9.75046 13.004 11.0781 10.3665 13.7335C7.72901 16.3888 6.41025 19.6051 6.41025 23.3823C6.41025 24.575 6.57211 25.7622 6.89583 26.9438C7.21956 28.1255 7.68637 29.2298 8.29629 30.2569H31.6346C32.2692 29.2241 32.7448 28.1055 33.0614 26.9011C33.378 25.6967 33.5363 24.4791 33.5363 23.2483C33.5363 22.1942 33.3884 21.0517 33.0924 19.821C32.7965 18.5902 32.3091 17.4648 31.6303 16.4449L32.547 15.2163C33.4359 16.6742 34.0518 18.0346 34.3948 19.2975C34.7377 20.5603 34.9217 21.8552 34.9466 23.1821C34.9573 24.6287 34.8002 25.9784 34.4754 27.2313C34.1506 28.4841 33.6453 29.7305 32.9594 30.9705C32.8063 31.2284 32.62 31.4089 32.4006 31.5122C32.1813 31.6155 31.9103 31.6671 31.5876 31.6671H8.33758C8.07569 31.6671 7.82379 31.5955 7.58187 31.4524C7.33996 31.3092 7.14386 31.1059 6.99358 30.8423C6.44231 29.8573 5.97222 28.7563 5.58333 27.5395C5.19444 26.3226 5 24.9363 5 23.3808C5 21.3317 5.38858 19.3956 6.16575 17.5726C6.94292 15.7496 8.00275 14.1545 9.34525 12.7873C10.6877 11.4202 12.2737 10.3372 14.1033 9.53838C15.9328 8.7396 17.887 8.34021 19.9658 8.34021Z" fill="black"/>
</svg>
