<svg width="40" height="40" viewBox="0 0 40 40" fill="none" xmlns="http://www.w3.org/2000/svg">
<path d="M7.844 32.2441V30.8339H13.2607L11.5107 29.1309C10.1218 27.8246 9.10611 26.4194 8.46367 24.9151C7.82122 23.4108 7.5 21.8239 7.5 20.1544C7.5 17.5269 8.24412 15.1371 9.73237 12.985C11.2206 10.833 13.198 9.27761 15.6645 8.31892V9.79754C13.6161 10.6893 11.9783 12.0744 10.7511 13.953C9.52386 15.8316 8.91025 17.8987 8.91025 20.1544C8.91025 21.6736 9.19586 23.0873 9.76708 24.3953C10.3383 25.7034 11.1823 26.8887 12.2992 27.9514L14.2543 29.8061V24.4236H15.6645V32.2441H7.844ZM24.3419 31.6886V30.2035C26.4088 29.3118 28.0502 27.9266 29.266 26.0481C30.4818 24.1695 31.0898 22.1024 31.0898 19.8467C31.0898 18.4628 30.8041 17.0997 30.2329 15.7575C29.6617 14.4152 28.8291 13.1971 27.735 12.1031L25.7863 10.195V15.5775H24.3761V7.75696H32.1966V9.16721H26.7735L28.5021 10.9044C29.8675 12.2384 30.8752 13.6788 31.5251 15.2254C32.175 16.7721 32.5 18.3125 32.5 19.8467C32.5 22.4742 31.7569 24.865 30.2708 27.0193C28.7847 29.1734 26.8084 30.7299 24.3419 31.6886Z" fill="black"/>
</svg>
