<svg width="40" height="40" viewBox="0 0 40 40" fill="none" xmlns="http://www.w3.org/2000/svg">
<path d="M11.6667 28.3338C9.35187 28.3338 7.38427 27.5243 5.76389 25.9054C4.14352 24.2865 3.33334 22.3207 3.33334 20.008C3.33334 17.6953 4.14352 15.7269 5.76389 14.103C7.38427 12.4791 9.35187 11.6671 11.6667 11.6671H28.3333C30.6482 11.6671 32.6157 12.4766 34.2361 14.0954C35.8565 15.7144 36.6667 17.6802 36.6667 19.9929C36.6667 22.3056 35.8565 24.274 34.2361 25.8979C32.6157 27.5218 30.6482 28.3338 28.3333 28.3338H11.6667ZM11.6574 23.9171C12.7505 23.9171 13.677 23.5389 14.437 22.7826C15.1969 22.0262 15.5769 21.1006 15.5769 20.0059C15.5769 18.9111 15.1987 17.9837 14.4424 17.2237C13.686 16.4638 12.7613 16.0838 11.6682 16.0838C10.5751 16.0838 9.64416 16.462 8.87539 17.2183C8.10661 17.9747 7.72222 18.9003 7.72222 19.995C7.72222 21.0898 8.1048 22.0172 8.86997 22.7772C9.63514 23.5371 10.5643 23.9171 11.6574 23.9171Z" fill="black"/>
</svg>
