<svg width="40" height="40" viewBox="0 0 40 40" fill="none" xmlns="http://www.w3.org/2000/svg">
<path d="M11.6667 28.3338C9.35187 28.3338 7.38427 27.5243 5.76389 25.9054C4.14352 24.2865 3.33334 22.3207 3.33334 20.008C3.33334 17.6953 4.14352 15.7269 5.76389 14.103C7.38427 12.4791 9.35187 11.6671 11.6667 11.6671H28.3333C30.6482 11.6671 32.6157 12.4766 34.2361 14.0954C35.8565 15.7144 36.6667 17.6802 36.6667 19.9929C36.6667 22.3056 35.8565 24.274 34.2361 25.8979C32.6157 27.5218 30.6482 28.3338 28.3333 28.3338H11.6667ZM28.3318 23.9171C29.4249 23.9171 30.3559 23.5389 31.1246 22.7826C31.8934 22.0262 32.2778 21.1006 32.2778 20.0059C32.2778 18.9111 31.8952 17.9837 31.1301 17.2237C30.3649 16.4638 29.4358 16.0838 28.3426 16.0838C27.2496 16.0838 26.323 16.462 25.5631 17.2183C24.8031 17.9747 24.4231 18.9003 24.4231 19.995C24.4231 21.0898 24.8013 22.0172 25.5576 22.7772C26.314 23.5371 27.2387 23.9171 28.3318 23.9171Z" fill="black"/>
</svg>
