<svg width="40" height="40" viewBox="0 0 40 40" fill="none" xmlns="http://www.w3.org/2000/svg">
<path d="M19.8911 34.1031L26.2928 17.18H29.203L35.6795 34.1031H32.7159L31.2286 29.7419H24.3975L22.844 34.1031H19.8911ZM25.2351 27.274H30.2607L27.7928 20.3531H27.703L25.2351 27.274ZM8.78206 29.8723L6.77564 27.8658L13.9445 20.7184C13.0598 19.7213 12.2801 18.6985 11.6052 17.6501C10.9304 16.6016 10.3419 15.5047 9.83977 14.3594H12.8034C13.235 15.1828 13.6875 15.9324 14.1608 16.6084C14.6341 17.2843 15.1959 17.9933 15.8462 18.7355C16.9017 17.5988 17.7757 16.4447 18.468 15.2734C19.1603 14.1021 19.74 12.8573 20.2073 11.5389H4.55127V8.71839H14.4231V5.89789H17.2436V8.71839H27.1154V11.5389H23.0278C22.5257 13.1678 21.8537 14.7676 21.0118 16.3381C20.1699 17.9086 19.1232 19.3872 17.8718 20.774L21.265 24.2441L20.2073 27.1201L15.8334 22.821L8.78206 29.8723Z" fill="black"/>
</svg>
