<svg width="40" height="40" viewBox="0 0 40 40" fill="none" xmlns="http://www.w3.org/2000/svg">
<path d="M12.3398 30.8339V29.4236H23.4146C25.458 29.4236 27.2214 28.7652 28.7046 27.4482C30.1879 26.1312 30.9295 24.4706 30.9295 22.4663C30.9295 20.4763 30.1879 18.8228 28.7046 17.5059C27.2214 16.1889 25.458 15.5305 23.4146 15.5305H10.3739L15.6688 20.8253L14.6646 21.8296L7.66028 14.8253L14.6646 7.82104L15.6688 8.82534L10.3739 14.1202H23.3868C25.8163 14.1202 27.9158 14.9208 29.6854 16.5219C31.455 18.1231 32.3398 20.1045 32.3398 22.4663C32.3398 24.8424 31.455 26.831 29.6854 28.4322C27.9158 30.0333 25.8163 30.8339 23.3868 30.8339H12.3398Z" fill="black"/>
</svg>
