<svg width="40" height="40" viewBox="0 0 40 40" fill="none" xmlns="http://www.w3.org/2000/svg">
<path d="M15.0983 29.3594H21.9466C22.2137 29.3594 22.4425 29.2642 22.633 29.0737C22.8235 28.8831 22.9188 28.6543 22.9188 28.3872V25.7697L25.9958 27.4385V22.5624L22.9188 24.2312V21.5924C22.9188 21.3395 22.8235 21.1178 22.633 20.9273C22.4425 20.7368 22.2137 20.6415 21.9466 20.6415H15.0983C14.8312 20.6415 14.6024 20.7368 14.4118 20.9273C14.2213 21.1178 14.1261 21.3395 14.1261 21.5924V28.3872C14.1261 28.6543 14.2213 28.8831 14.4118 29.0737C14.6024 29.2642 14.8312 29.3594 15.0983 29.3594ZM10.7692 35.0005C10.0865 35.0005 9.50987 34.7652 9.03926 34.2946C8.56865 33.824 8.33334 33.2473 8.33334 32.5646V7.43636C8.33334 6.75367 8.56865 6.17702 9.03926 5.70641C9.50987 5.23579 10.0865 5.00049 10.7692 5.00049H24.4295L31.6667 12.2377V32.5646C31.6667 33.2473 31.4314 33.824 30.9608 34.2946C30.4901 34.7652 29.9135 35.0005 29.2308 35.0005H10.7692ZM23.7244 12.9022V6.41074H10.7692C10.5128 6.41074 10.2778 6.51757 10.0641 6.73124C9.85043 6.94491 9.74359 7.17995 9.74359 7.43636V32.5646C9.74359 32.821 9.85043 33.0561 10.0641 33.2697C10.2778 33.4834 10.5128 33.5902 10.7692 33.5902H29.2308C29.4872 33.5902 29.7223 33.4834 29.9359 33.2697C30.1496 33.0561 30.2564 32.821 30.2564 32.5646V12.9022H23.7244Z" fill="black"/>
</svg>
