<svg width="40" height="40" viewBox="0 0 40 40" fill="none" xmlns="http://www.w3.org/2000/svg">
<path d="M25.562 21.1992L24.4103 20.0475C24.8041 18.3758 24.3882 16.9844 23.1624 15.8733C21.9366 14.7622 20.589 14.3901 19.1197 14.7569L17.9679 13.6052C18.2478 13.4769 18.5546 13.3783 18.8883 13.3092C19.222 13.2401 19.5926 13.2056 20 13.2056C21.6674 13.2056 23.0778 13.7823 24.2313 14.9358C25.3848 16.0893 25.9615 17.4997 25.9615 19.1671C25.9615 19.5745 25.9259 19.9569 25.8547 20.314C25.7835 20.6712 25.6859 20.9663 25.562 21.1992ZM30.8376 26.3616L29.797 25.4343C30.9423 24.5703 31.9575 23.6164 32.8424 22.5726C33.7274 21.5288 34.4459 20.3936 34.9979 19.1671C33.609 16.2761 31.5842 13.9828 28.9236 12.2873C26.263 10.5918 23.3312 9.74405 20.1282 9.74405C19.2101 9.74405 18.296 9.81884 17.3857 9.96842C16.4754 10.118 15.6496 10.3103 14.9081 10.5453L13.8162 9.44705C14.73 9.08594 15.7375 8.81012 16.8387 8.61959C17.9398 8.42906 19.0185 8.3338 20.0748 8.3338C23.6154 8.3338 26.8903 9.32009 29.8996 11.2927C32.9088 13.2653 35.1218 15.8901 36.5385 19.1671C35.9152 20.5567 35.1323 21.8497 34.1896 23.0459C33.247 24.2421 32.1296 25.3473 30.8376 26.3616ZM33.1752 35.1372L26.688 28.6757C25.9509 29.0297 24.9999 29.339 23.835 29.6036C22.6701 29.8682 21.3918 30.0005 20 30.0005C16.3967 30.0005 13.1036 29.0142 10.1207 27.0416C7.13783 25.069 4.9181 22.4442 3.46155 19.1671C4.10469 17.6992 4.97078 16.3069 6.05984 14.9903C7.14887 13.6737 8.3376 12.5389 9.62605 11.5859L4.76921 6.74405L5.77351 5.73334L34.1389 34.0988L33.1752 35.1372ZM10.6025 12.5902C9.58474 13.2882 8.5331 14.2433 7.44763 15.4556C6.36216 16.6678 5.54485 17.905 4.99571 19.1671C6.38888 22.0582 8.42467 24.3514 11.1031 26.047C13.7815 27.7425 16.7785 28.5902 20.094 28.5902C21.1824 28.5902 22.2675 28.49 23.3494 28.2895C24.4313 28.089 25.2023 27.8758 25.6624 27.65L22.594 24.5753C22.3169 24.7312 21.9199 24.8625 21.4028 24.969C20.8857 25.0754 20.4181 25.1287 20 25.1287C18.3369 25.1287 16.9275 24.553 15.7719 23.4016C14.6163 22.2503 14.0385 20.8388 14.0385 19.1671C14.0385 18.7661 14.0917 18.3146 14.1982 17.8124C14.3047 17.3103 14.4359 16.8972 14.5919 16.5731L10.6025 12.5902Z" fill="black"/>
</svg>
