<svg width="40" height="40" viewBox="0 0 40 40" fill="none" xmlns="http://www.w3.org/2000/svg">
<path d="M20.0108 25.1287C21.6567 25.1287 23.06 24.5448 24.2206 23.377C25.3812 22.2091 25.9615 20.8023 25.9615 19.1563C25.9615 17.5104 25.3776 16.1071 24.2098 14.9465C23.042 13.7859 21.6351 13.2056 19.9892 13.2056C18.3433 13.2056 16.94 13.7895 15.7794 14.9573C14.6188 16.1251 14.0385 17.532 14.0385 19.1779C14.0385 20.8239 14.6224 22.2271 15.7902 23.3878C16.958 24.5484 18.3649 25.1287 20.0108 25.1287ZM19.9897 23.7141C18.7238 23.7141 17.6512 23.2711 16.7719 22.3849C15.8926 21.4988 15.453 20.4228 15.453 19.1568C15.453 17.8909 15.8961 16.8183 16.7822 15.9391C17.6684 15.0598 18.7444 14.6201 20.0103 14.6201C21.2762 14.6201 22.3488 15.0632 23.2281 15.9493C24.1074 16.8355 24.547 17.9115 24.547 19.1774C24.547 20.4434 24.1039 21.516 23.2178 22.3952C22.3317 23.2745 21.2556 23.7141 19.9897 23.7141ZM20.0046 30.0005C16.409 30.0005 13.1304 29.0149 10.1688 27.0438C7.20727 25.0726 4.97152 22.4471 3.46155 19.1671C4.97152 15.8872 7.20574 13.2617 10.1642 11.2905C13.1227 9.31937 16.3998 8.3338 19.9954 8.3338C23.5911 8.3338 26.8697 9.31937 29.8312 11.2905C32.7927 13.2617 35.0285 15.8872 36.5385 19.1671C35.0285 22.4471 32.7943 25.0726 29.8358 27.0438C26.8773 29.0149 23.6002 30.0005 20.0046 30.0005ZM19.9953 28.5902C23.2143 28.5902 26.1654 27.7403 28.8488 26.0406C31.5323 24.3407 33.5819 22.0496 34.9979 19.1671C33.5819 16.2847 31.5338 13.9935 28.8535 12.2937C26.1732 10.5939 23.2236 9.74405 20.0047 9.74405C16.7858 9.74405 13.8346 10.5939 11.1512 12.2937C8.46776 13.9935 6.41594 16.2847 4.99571 19.1671C6.41594 22.0496 8.4662 24.3407 11.1465 26.0406C13.8268 27.7403 16.7764 28.5902 19.9953 28.5902Z" fill="black"/>
</svg>
