<svg width="40" height="40" viewBox="0 0 40 40" fill="none" xmlns="http://www.w3.org/2000/svg">
<path d="M15.7491 30.0325C15.4812 30.0325 15.2377 29.9509 15.0186 29.7876C14.7995 29.6243 14.6466 29.4178 14.5598 29.1682L11.0363 20.7056H3.49146V19.2954H12.0406L15.7457 28.3317L23.0684 10.8135C23.1543 10.5782 23.3058 10.3789 23.5231 10.2156C23.7403 10.0522 23.9829 9.97058 24.2509 9.97058C24.5188 9.97058 24.7623 10.0522 24.9814 10.2156C25.2005 10.3789 25.3534 10.5782 25.4402 10.8135L29.0278 19.2954H36.5727V20.7056H28.0235L24.2543 11.6501L16.9316 29.1682C16.8457 29.4178 16.6942 29.6243 16.4769 29.7876C16.2597 29.9509 16.0171 30.0325 15.7491 30.0325Z" fill="black"/>
</svg>
