<svg width="40" height="40" viewBox="0 0 40 40" fill="none" xmlns="http://www.w3.org/2000/svg">
<path d="M7.43587 33.3338C6.75318 33.3338 6.17653 33.0985 5.70592 32.6279C5.23531 32.1573 5 31.5806 5 30.8979V14.103C5 13.4203 5.23531 12.8436 5.70592 12.373C6.17653 11.9024 6.75318 11.6671 7.43587 11.6671H15V9.10299C15 8.42029 15.2353 7.84364 15.7059 7.37303C16.1765 6.90242 16.7532 6.66711 17.4359 6.66711H22.5641C23.2468 6.66711 23.8235 6.90242 24.2941 7.37303C24.7647 7.84364 25 8.42029 25 9.10299V11.6671H32.5641C33.2468 11.6671 33.8235 11.9024 34.2941 12.373C34.7647 12.8436 35 13.4203 35 14.103V30.8979C35 31.5806 34.7647 32.1573 34.2941 32.6279C33.8235 33.0985 33.2468 33.3338 32.5641 33.3338H7.43587ZM7.43587 31.9235H32.5641C32.8205 31.9235 33.0556 31.8167 33.2692 31.603C33.4829 31.3894 33.5898 31.1543 33.5898 30.8979V14.103C33.5898 13.8466 33.4829 13.6115 33.2692 13.3979C33.0556 13.1842 32.8205 13.0774 32.5641 13.0774H7.43587C7.17946 13.0774 6.94442 13.1842 6.73075 13.3979C6.51708 13.6115 6.41025 13.8466 6.41025 14.103V30.8979C6.41025 31.1543 6.51708 31.3894 6.73075 31.603C6.94442 31.8167 7.17946 31.9235 7.43587 31.9235ZM16.4103 11.6671H23.5898V9.10299C23.5898 8.84657 23.4829 8.61153 23.2692 8.39787C23.0556 8.1842 22.8205 8.07736 22.5641 8.07736H17.4359C17.1795 8.07736 16.9444 8.1842 16.7308 8.39787C16.5171 8.61153 16.4103 8.84657 16.4103 9.10299V11.6671Z" fill="black"/>
</svg>
