<svg width="20" height="20" viewBox="0 0 20 20" fill="none" xmlns="http://www.w3.org/2000/svg">
<path d="M5.22595 14.3831C5.97595 13.8874 6.73797 13.5191 7.51202 13.2782C8.28606 13.0372 9.11538 12.9168 10 12.9168C10.8846 12.9168 11.7139 13.0372 12.488 13.2782C13.262 13.5191 14.024 13.8874 14.774 14.3831C15.3242 13.8137 15.7495 13.155 16.0497 12.4072C16.3499 11.6593 16.5 10.857 16.5 10.0001C16.5 8.19908 15.8665 6.66548 14.5994 5.39933C13.3323 4.13319 11.7976 3.50012 9.9952 3.50012C8.19284 3.50012 6.65972 4.13319 5.39583 5.39933C4.13194 6.66548 3.49999 8.19908 3.49999 10.0001C3.49999 10.857 3.6501 11.6593 3.95031 12.4072C4.25053 13.155 4.67574 13.8137 5.22595 14.3831ZM10 11.0835C9.28418 11.0835 8.67467 10.8318 8.17147 10.3286C7.66827 9.82544 7.41666 9.21594 7.41666 8.50012C7.41666 7.7843 7.66827 7.17479 8.17147 6.6716C8.67467 6.16839 9.28418 5.91678 10 5.91678C10.7158 5.91678 11.3253 6.16839 11.8285 6.6716C12.3317 7.17479 12.5833 7.7843 12.5833 8.50012C12.5833 9.21594 12.3317 9.82544 11.8285 10.3286C11.3253 10.8318 10.7158 11.0835 10 11.0835ZM10.0057 17.1668C9.01152 17.1668 8.07905 16.9825 7.20833 16.6139C6.33761 16.2453 5.57505 15.7338 4.92066 15.0795C4.26629 14.4251 3.7548 13.6628 3.3862 12.7927C3.01762 11.9225 2.83333 10.9885 2.83333 9.99058C2.83333 8.99266 3.01762 8.06181 3.3862 7.19803C3.7548 6.33426 4.26629 5.57517 4.92066 4.92078C5.57505 4.26641 6.33731 3.75492 7.20745 3.38633C8.07761 3.01774 9.01163 2.83345 10.0095 2.83345C11.0075 2.83345 11.9383 3.01774 12.8021 3.38633C13.6659 3.75492 14.4249 4.26641 15.0793 4.92078C15.7337 5.57517 16.2452 6.33581 16.6138 7.2027C16.9824 8.0696 17.1667 9.00016 17.1667 9.99437C17.1667 10.9886 16.9824 11.9211 16.6138 12.7918C16.2452 13.6625 15.7337 14.4251 15.0793 15.0795C14.4249 15.7338 13.6643 16.2453 12.7974 16.6139C11.9305 16.9825 11 17.1668 10.0057 17.1668Z" fill="black"/>
</svg>
