<svg width="20" height="20" viewBox="0 0 20 20" fill="none" xmlns="http://www.w3.org/2000/svg">
<path d="M10 17.1668C9.00283 17.1668 8.06565 16.9808 7.18847 16.6089C6.31129 16.237 5.5521 15.7304 4.91091 15.0892C4.26971 14.448 3.76315 13.6889 3.39122 12.8117C3.0193 11.9345 2.83334 10.9973 2.83334 10.0001C2.83334 8.98962 3.0193 8.0491 3.39122 7.17859C3.76315 6.30808 4.26971 5.55222 4.91091 4.91103C5.5521 4.26983 6.31129 3.76327 7.18847 3.39134C8.06565 3.01942 9.00283 2.83347 10 2.83347C11.0105 2.83347 11.951 3.01942 12.8216 3.39134C13.6921 3.76327 14.4479 4.26983 15.0891 4.91103C15.7303 5.55222 16.2369 6.30808 16.6088 7.17859C16.9807 8.0491 17.1667 8.98962 17.1667 10.0001V10.8655C17.1667 11.5097 16.9394 12.0543 16.4848 12.4993C16.0302 12.9443 15.4778 13.1668 14.8276 13.1668C14.3058 13.1668 13.871 13.0247 13.5232 12.7405C13.1755 12.4563 12.9055 12.0717 12.7132 11.5867C12.3884 12.0536 12.0179 12.4336 11.6018 12.7269C11.1856 13.0202 10.6499 13.1668 9.99451 13.1668C9.11372 13.1668 8.36666 12.8591 7.75332 12.2438C7.14 11.6285 6.83334 10.879 6.83334 9.99542C6.83334 9.11181 7.141 8.36392 7.75632 7.75174C8.37164 7.13956 9.12111 6.83347 10.0047 6.83347C10.8883 6.83347 11.6362 7.14067 12.2484 7.75507C12.8606 8.36947 13.1667 9.11783 13.1667 10.0001V10.8655C13.1667 11.2875 13.3256 11.6655 13.6434 11.9993C13.9613 12.3332 14.3579 12.5001 14.8333 12.5001C15.3088 12.5001 15.7054 12.3332 16.0232 11.9993C16.3411 11.6655 16.5 11.2875 16.5 10.8655V10.0001C16.5 8.19458 15.8681 6.65985 14.6042 5.39597C13.3403 4.13208 11.8056 3.50013 10 3.50013C8.19445 3.50013 6.65973 4.13208 5.39584 5.39597C4.13195 6.65985 3.50001 8.19458 3.50001 10.0001C3.50001 11.8057 4.13195 13.3404 5.39584 14.6043C6.65973 15.8682 8.19445 16.5001 10 16.5001H14V17.1668H10ZM10 12.5001C10.6945 12.5001 11.2847 12.2571 11.7708 11.771C12.257 11.2849 12.5 10.6946 12.5 10.0001C12.5 9.30569 12.257 8.71541 11.7708 8.2293C11.2847 7.74319 10.6945 7.50013 10 7.50013C9.30557 7.50013 8.71529 7.74319 8.22918 8.2293C7.74307 8.71541 7.50001 9.30569 7.50001 10.0001C7.50001 10.6946 7.74307 11.2849 8.22918 11.771C8.71529 12.2571 9.30557 12.5001 10 12.5001Z" fill="black"/>
</svg>
