<svg width="20" height="20" viewBox="0 0 20 20" fill="none" xmlns="http://www.w3.org/2000/svg">
<path d="M9.5 17.8078C8.33974 17.8078 7.36377 17.3877 6.57211 16.5474C5.78044 15.7071 5.38461 14.7138 5.38461 13.5674V4.95043C5.38461 4.12699 5.67233 3.42406 6.24779 2.84166C6.82325 2.25927 7.5227 1.96808 8.34615 1.96808C9.19738 1.96808 9.90379 2.27663 10.4654 2.89375C11.0269 3.51087 11.3077 4.2381 11.3077 5.07543V13.1171C11.3077 13.6188 11.1283 14.0421 10.7696 14.3868C10.4108 14.7316 9.9875 14.904 9.49954 14.904C8.96993 14.904 8.53632 14.7142 8.19871 14.3347C7.86111 13.9552 7.69231 13.5146 7.69231 13.0129V4.6796H8.67948V13.1171C8.67948 13.3468 8.75881 13.541 8.91748 13.6996C9.07613 13.8583 9.27031 13.9376 9.5 13.9376C9.7297 13.9376 9.92387 13.8583 10.0825 13.6996C10.2412 13.541 10.3205 13.3468 10.3205 13.1171V4.95043C10.3205 4.4015 10.1286 3.93174 9.74465 3.54114C9.36073 3.15054 8.89411 2.95525 8.34479 2.95525C7.79549 2.95525 7.32933 3.15402 6.94631 3.55156C6.5633 3.9491 6.37179 4.42928 6.37179 4.9921V13.7133C6.37179 14.5893 6.67762 15.3262 7.28927 15.924C7.90091 16.5218 8.63782 16.8206 9.5 16.8206C10.4038 16.8206 11.1512 16.5044 11.742 15.8719C12.3328 15.2394 12.6282 14.4852 12.6282 13.6091V4.6796H13.6154V13.7133C13.6154 14.8457 13.2161 15.8113 12.4175 16.6099C11.6189 17.4085 10.6464 17.8078 9.5 17.8078Z" fill="black"/>
</svg>
