<svg width="20" height="20" viewBox="0 0 20 20" fill="none" xmlns="http://www.w3.org/2000/svg">
<path d="M10.0028 17.1668C9.02123 17.1668 8.09477 16.9804 7.22343 16.6077C6.35208 16.2349 5.58913 15.7215 4.93457 15.0676C4.28003 14.4137 3.76619 13.6515 3.39305 12.781C3.01991 11.9105 2.83334 10.9845 2.83334 10.0029C2.83334 9.00747 3.01973 8.07754 3.39249 7.21313C3.76527 6.34873 4.27861 5.58925 4.93253 4.9347C5.58645 4.28015 6.34865 3.76631 7.21914 3.39317C8.08964 3.02004 9.01566 2.83347 9.99722 2.83347C10.9927 2.83347 11.9226 3.01985 12.787 3.39261C13.6514 3.76539 14.4109 4.27874 15.0654 4.93265C15.72 5.58657 16.2338 6.3453 16.607 7.20884C16.9801 8.0724 17.1667 9.0019 17.1667 9.99734C17.1667 10.9789 16.9803 11.9054 16.6075 12.7767C16.2348 13.6481 15.7214 14.411 15.0675 15.0656C14.4136 15.7201 13.6548 16.234 12.7913 16.6071C11.9277 16.9802 10.9982 17.1668 10.0028 17.1668ZM10 16.5001C11.8056 16.5001 13.3403 15.8682 14.6042 14.6043C15.8681 13.3404 16.5 11.8057 16.5 10.0001C16.5 9.17256 16.351 8.38901 16.0529 7.64949C15.7548 6.90996 15.3462 6.24639 14.8269 5.65878L5.65866 14.827C6.24627 15.357 6.90984 15.7683 7.64936 16.061C8.38889 16.3538 9.17244 16.5001 10 16.5001ZM5.17309 14.3415L14.3414 5.17322C13.7644 4.63262 13.1045 4.21862 12.3615 3.93122C11.6185 3.64383 10.8313 3.50013 10 3.50013C8.19445 3.50013 6.65973 4.13208 5.39584 5.39597C4.13195 6.65985 3.50001 8.19458 3.50001 10.0001C3.50001 10.8277 3.64638 11.6113 3.93911 12.3508C4.23185 13.0903 4.64318 13.7539 5.17309 14.3415Z" fill="black"/>
</svg>
