<svg width="20" height="20" viewBox="0 0 20 20" fill="none" xmlns="http://www.w3.org/2000/svg">
<path d="M5.01282 17.1668C4.67511 17.1668 4.39411 17.0522 4.1698 16.823C3.9455 16.5939 3.83334 16.3153 3.83334 15.9873V6.01294C3.83334 5.68495 3.9455 5.40637 4.1698 5.17721C4.39411 4.94804 4.67511 4.83346 5.01282 4.83346H7.15384V2.64114H7.88461V4.83346H12.1795V2.64114H12.8462V4.83346H14.9872C15.3249 4.83346 15.6059 4.94804 15.8302 5.17721C16.0545 5.40637 16.1667 5.68495 16.1667 6.01294V15.9873C16.1667 16.3153 16.0545 16.5939 15.8302 16.823C15.6059 17.0522 15.3249 17.1668 14.9872 17.1668H5.01282ZM5.01282 16.5001H14.9872C15.1154 16.5001 15.2329 16.4467 15.3398 16.3399C15.4466 16.233 15.5 16.1155 15.5 15.9873V9.51294H4.50001V15.9873C4.50001 16.1155 4.55343 16.233 4.66026 16.3399C4.76711 16.4467 4.88463 16.5001 5.01282 16.5001ZM4.50001 8.84627H15.5V6.01294C15.5 5.88474 15.4466 5.76722 15.3398 5.66037C15.2329 5.55354 15.1154 5.50012 14.9872 5.50012H5.01282C4.88463 5.50012 4.76711 5.55354 4.66026 5.66037C4.55343 5.76722 4.50001 5.88474 4.50001 6.01294V8.84627ZM10.0044 12.1283C9.85724 12.1283 9.72677 12.0729 9.61299 11.962C9.49921 11.8512 9.44232 11.7222 9.44232 11.575C9.44232 11.4279 9.49775 11.2974 9.60861 11.1836C9.71946 11.0698 9.84846 11.0129 9.99561 11.0129C10.1428 11.0129 10.2733 11.0684 10.387 11.1792C10.5008 11.2901 10.5577 11.4191 10.5577 11.5662C10.5577 11.7134 10.5023 11.8439 10.3914 11.9576C10.2806 12.0714 10.1516 12.1283 10.0044 12.1283ZM6.75441 12.1283C6.60724 12.1283 6.47677 12.0729 6.36299 11.962C6.24921 11.8512 6.19232 11.7222 6.19232 11.575C6.19232 11.4279 6.24775 11.2974 6.35861 11.1836C6.46946 11.0698 6.59846 11.0129 6.74561 11.0129C6.89278 11.0129 7.02325 11.0684 7.13703 11.1792C7.25081 11.2901 7.3077 11.4191 7.3077 11.5662C7.3077 11.7134 7.25227 11.8439 7.14141 11.9576C7.03056 12.0714 6.90156 12.1283 6.75441 12.1283ZM13.2544 12.1283C13.1072 12.1283 12.9768 12.0729 12.863 11.962C12.7492 11.8512 12.6923 11.7222 12.6923 11.575C12.6923 11.4279 12.7478 11.2974 12.8586 11.1836C12.9695 11.0698 13.0985 11.0129 13.2456 11.0129C13.3928 11.0129 13.5233 11.0684 13.637 11.1792C13.7508 11.2901 13.8077 11.4191 13.8077 11.5662C13.8077 11.7134 13.7523 11.8439 13.6414 11.9576C13.5306 12.0714 13.4016 12.1283 13.2544 12.1283ZM10.0044 15.0001C9.85724 15.0001 9.72677 14.9447 9.61299 14.8338C9.49921 14.723 9.44232 14.594 9.44232 14.4468C9.44232 14.2997 9.49775 14.1692 9.60861 14.0554C9.71946 13.9416 9.84846 13.8847 9.99561 13.8847C10.1428 13.8847 10.2733 13.9402 10.387 14.051C10.5008 14.1619 10.5577 14.2909 10.5577 14.438C10.5577 14.5852 10.5023 14.7157 10.3914 14.8295C10.2806 14.9432 10.1516 15.0001 10.0044 15.0001ZM6.75441 15.0001C6.60724 15.0001 6.47677 14.9447 6.36299 14.8338C6.24921 14.723 6.19232 14.594 6.19232 14.4468C6.19232 14.2997 6.24775 14.1692 6.35861 14.0554C6.46946 13.9416 6.59846 13.8847 6.74561 13.8847C6.89278 13.8847 7.02325 13.9402 7.13703 14.051C7.25081 14.1619 7.3077 14.2909 7.3077 14.438C7.3077 14.5852 7.25227 14.7157 7.14141 14.8295C7.03056 14.9432 6.90156 15.0001 6.75441 15.0001ZM13.2544 15.0001C13.1072 15.0001 12.9768 14.9447 12.863 14.8338C12.7492 14.723 12.6923 14.594 12.6923 14.4468C12.6923 14.2997 12.7478 14.1692 12.8586 14.0554C12.9695 13.9416 13.0985 13.8847 13.2456 13.8847C13.3928 13.8847 13.5233 13.9402 13.637 14.051C13.7508 14.1619 13.8077 14.2909 13.8077 14.438C13.8077 14.5852 13.7523 14.7157 13.6414 14.8295C13.5306 14.9432 13.4016 15.0001 13.2544 15.0001Z" fill="black"/>
</svg>
