<svg width="20" height="20" viewBox="0 0 20 20" fill="none" xmlns="http://www.w3.org/2000/svg">
<path d="M15.0305 16.0498C13.664 15.9109 12.336 15.5132 11.0465 14.8567C9.75695 14.2002 8.60337 13.3596 7.58573 12.3351C6.56811 11.3105 5.72489 10.1561 5.05609 8.87191C4.38728 7.58773 3.99038 6.26241 3.86538 4.89596C3.8376 4.60429 3.92292 4.35082 4.12134 4.13554C4.31975 3.92026 4.56777 3.81262 4.86538 3.81262H6.38463C6.66347 3.81262 6.89771 3.89008 7.08734 4.045C7.27697 4.1999 7.41026 4.41143 7.48719 4.6796L7.85898 5.97929C7.89744 6.16732 7.89049 6.35268 7.83815 6.53537C7.7858 6.71807 7.68644 6.87191 7.54006 6.99691L5.72756 8.70204C6.46047 9.99264 7.27991 11.0883 8.1859 11.9889C9.09188 12.8895 10.1688 13.6636 11.4167 14.311L13.2869 12.4392C13.4471 12.279 13.5932 12.1868 13.725 12.1628C13.8569 12.1387 14.002 12.146 14.1603 12.1844L15.2676 12.4392C15.5358 12.5055 15.7473 12.6389 15.9023 12.8394C16.0572 13.0399 16.1346 13.281 16.1346 13.5626V15.0498C16.1346 15.4248 16.0027 15.6887 15.7388 15.8415C15.4749 15.9943 15.2388 16.0637 15.0305 16.0498ZM5.42469 8.045L7.10738 6.4905C7.16079 6.44776 7.19552 6.389 7.21154 6.31423C7.22757 6.23944 7.2249 6.16999 7.20352 6.10589L6.83 4.73571C6.80863 4.65023 6.77123 4.58613 6.71781 4.54339C6.6644 4.50066 6.59495 4.47929 6.50948 4.47929H4.78204C4.71795 4.47929 4.66453 4.50066 4.62179 4.54339C4.57906 4.58613 4.55769 4.63955 4.55769 4.70364C4.57372 5.23142 4.66293 5.77737 4.82531 6.34148C4.98772 6.90557 5.18751 7.47341 5.42469 8.045ZM12.1106 14.6027C12.6194 14.8432 13.1644 15.019 13.7454 15.1301C14.3265 15.2411 14.8259 15.3153 15.2436 15.3527C15.3077 15.3527 15.3611 15.3313 15.4039 15.2886C15.4466 15.2458 15.468 15.1924 15.468 15.1283V13.4136C15.468 13.3281 15.4466 13.2587 15.4039 13.2052C15.3611 13.1518 15.297 13.1144 15.2115 13.0931L14.0657 12.8399C14.0016 12.8185 13.9455 12.8158 13.8974 12.8319C13.8494 12.8479 13.7986 12.8826 13.7452 12.936L12.1106 14.6027Z" fill="black"/>
</svg>
