<svg width="20" height="20" viewBox="0 0 20 20" fill="none" xmlns="http://www.w3.org/2000/svg">
<path d="M15.0305 16.0498C13.664 15.9109 12.336 15.5132 11.0465 14.8567C9.75698 14.2002 8.6034 13.3596 7.58576 12.3351C6.56813 11.3105 5.72492 10.1561 5.05611 8.87191C4.38731 7.58773 3.9904 6.26241 3.8654 4.89596C3.83762 4.60429 3.92443 4.35082 4.12582 4.13554C4.32721 3.92026 4.57374 3.81262 4.8654 3.81262H6.38465C6.6635 3.81262 6.89774 3.89008 7.08736 4.045C7.277 4.1999 7.41028 4.41143 7.48722 4.6796L7.85901 5.97929C7.89746 6.16732 7.89052 6.35268 7.83817 6.53537C7.78583 6.71807 7.68647 6.87191 7.54009 6.99691L5.71157 8.70204C6.44447 9.99264 7.26658 11.0883 8.1779 11.9889C9.08924 12.8895 10.1688 13.6636 11.4167 14.311L13.2869 12.4392C13.4471 12.279 13.5946 12.1868 13.7292 12.1628C13.8638 12.1387 14.0075 12.146 14.1603 12.1844L15.2677 12.4392C15.5358 12.5055 15.7474 12.6395 15.9023 12.8415C16.0572 13.0434 16.1347 13.2838 16.1347 13.5626V15.0498C16.1347 15.4248 16.0027 15.6887 15.7388 15.8415C15.4749 15.9943 15.2388 16.0637 15.0305 16.0498Z" fill="black"/>
</svg>
