<svg width="20" height="20" viewBox="0 0 20 20" fill="none" xmlns="http://www.w3.org/2000/svg">
<path d="M7.06251 13.4232L10 10.4857L12.9375 13.4232L13.4231 12.9376L10.4856 10.0001L13.4231 7.06263L12.9375 6.57705L10 9.51455L7.06251 6.57705L6.57693 7.06263L9.51443 10.0001L6.57693 12.9376L7.06251 13.4232ZM10.0028 17.1668C9.02123 17.1668 8.09477 16.9804 7.22343 16.6077C6.35208 16.2349 5.58913 15.7215 4.93457 15.0676C4.28003 14.4137 3.76619 13.6515 3.39305 12.781C3.01991 11.9105 2.83334 10.9845 2.83334 10.0029C2.83334 9.00747 3.01973 8.07754 3.39249 7.21313C3.76527 6.34873 4.27861 5.58925 4.93253 4.9347C5.58645 4.28015 6.34865 3.76631 7.21914 3.39317C8.08964 3.02004 9.01566 2.83347 9.99722 2.83347C10.9927 2.83347 11.9226 3.01985 12.787 3.39261C13.6514 3.76539 14.4109 4.27874 15.0654 4.93265C15.72 5.58657 16.2338 6.3453 16.607 7.20884C16.9801 8.0724 17.1667 9.0019 17.1667 9.99734C17.1667 10.9789 16.9803 11.9054 16.6075 12.7767C16.2348 13.6481 15.7214 14.411 15.0675 15.0656C14.4136 15.7201 13.6548 16.234 12.7913 16.6071C11.9277 16.9802 10.9982 17.1668 10.0028 17.1668Z" fill="black"/>
</svg>
