<svg width="20" height="20" viewBox="0 0 20 20" fill="none" xmlns="http://www.w3.org/2000/svg">
<path d="M5.41665 11.5835H11.5833V10.9168H5.41665V11.5835ZM5.41665 8.83347H14.5833V8.1668H5.41665V8.83347ZM5.41665 6.08347H14.5833V5.4168H5.41665V6.08347ZM2.83331 16.3976V4.01294C2.83331 3.67524 2.94547 3.39423 3.16977 3.16992C3.39408 2.94562 3.67508 2.83347 4.01279 2.83347H15.9872C16.3249 2.83347 16.6059 2.94562 16.8302 3.16992C17.0545 3.39423 17.1666 3.67524 17.1666 4.01294V12.9873C17.1666 13.325 17.0545 13.606 16.8302 13.8303C16.6059 14.0546 16.3249 14.1668 15.9872 14.1668H5.06408L2.83331 16.3976ZM4.79165 13.5001H15.9872C16.1154 13.5001 16.2329 13.4467 16.3397 13.3399C16.4466 13.233 16.5 13.1155 16.5 12.9873V4.01294C16.5 3.88475 16.4466 3.76723 16.3397 3.66038C16.2329 3.55355 16.1154 3.50013 15.9872 3.50013H4.01279C3.8846 3.50013 3.76708 3.55355 3.66023 3.66038C3.5534 3.76723 3.49998 3.88475 3.49998 4.01294V14.8078L4.79165 13.5001Z" fill="black"/>
</svg>
