<svg width="20" height="20" viewBox="0 0 20 20" fill="none" xmlns="http://www.w3.org/2000/svg">
<path d="M2.83334 16.3976V4.01294C2.83334 3.67524 2.9455 3.39423 3.1698 3.16992C3.39411 2.94562 3.67511 2.83347 4.01282 2.83347H15.9872C16.3249 2.83347 16.6059 2.94562 16.8302 3.16992C17.0545 3.39423 17.1667 3.67524 17.1667 4.01294V12.9873C17.1667 13.325 17.0545 13.606 16.8302 13.8303C16.6059 14.0546 16.3249 14.1668 15.9872 14.1668H5.06411L2.83334 16.3976ZM4.79168 13.5001H15.9872C16.1154 13.5001 16.2329 13.4467 16.3398 13.3399C16.4466 13.233 16.5 13.1155 16.5 12.9873V4.01294C16.5 3.88475 16.4466 3.76723 16.3398 3.66038C16.2329 3.55355 16.1154 3.50013 15.9872 3.50013H4.01282C3.88463 3.50013 3.76711 3.55355 3.66026 3.66038C3.55343 3.76723 3.50001 3.88475 3.50001 4.01294V14.8078L4.79168 13.5001Z" fill="black"/>
</svg>
