<svg width="20" height="20" viewBox="0 0 20 20" fill="none" xmlns="http://www.w3.org/2000/svg">
<path d="M8.9375 12.4232L13.351 8.03059L12.8654 7.54501L8.9375 11.452L7.16667 9.70205L6.68109 10.1876L8.9375 12.4232ZM5.01282 16.1668C4.67511 16.1668 4.3941 16.0546 4.16979 15.8303C3.94549 15.606 3.83334 15.325 3.83334 14.9873V5.01294C3.83334 4.67524 3.94549 4.39423 4.16979 4.16992C4.3941 3.94562 4.67511 3.83347 5.01282 3.83347H14.9872C15.3249 3.83347 15.6059 3.94562 15.8302 4.16992C16.0545 4.39423 16.1667 4.67524 16.1667 5.01294V14.9873C16.1667 15.325 16.0545 15.606 15.8302 15.8303C15.6059 16.0546 15.3249 16.1668 14.9872 16.1668H5.01282Z" fill="black"/>
</svg>
