<svg width="20" height="20" viewBox="0 0 20 20" fill="none" xmlns="http://www.w3.org/2000/svg">
<path d="M8.90544 12.4232L13.3189 8.03059L12.8333 7.54501L8.90544 11.452L7.1346 9.70205L6.64902 10.1876L8.90544 12.4232ZM10.0028 17.1668C9.0212 17.1668 8.09474 16.9804 7.2234 16.6077C6.35205 16.2349 5.5891 15.7215 4.93454 15.0676C4.28 14.4137 3.76616 13.6515 3.39302 12.781C3.01988 11.9105 2.83331 10.9845 2.83331 10.0029C2.83331 9.00747 3.0197 8.07754 3.39246 7.21313C3.76524 6.34873 4.27858 5.58925 4.9325 4.9347C5.58642 4.28015 6.34862 3.76631 7.2191 3.39317C8.0896 3.02004 9.01563 2.83347 9.99719 2.83347C10.9926 2.83347 11.9226 3.01985 12.787 3.39261C13.6514 3.76539 14.4109 4.27874 15.0654 4.93265C15.72 5.58657 16.2338 6.3453 16.6069 7.20884C16.9801 8.0724 17.1666 9.0019 17.1666 9.99734C17.1666 10.9789 16.9803 11.9054 16.6075 12.7767C16.2347 13.6481 15.7214 14.411 15.0675 15.0656C14.4135 15.7201 13.6548 16.234 12.7913 16.6071C11.9277 16.9802 10.9982 17.1668 10.0028 17.1668Z" fill="black"/>
</svg>
