<svg width="20" height="20" viewBox="0 0 20 20" fill="none" xmlns="http://www.w3.org/2000/svg">
<path d="M5.01285 16.1668C4.67515 16.1668 4.39414 16.0546 4.16983 15.8303C3.94553 15.606 3.83337 15.325 3.83337 14.9873V5.01294C3.83337 4.67524 3.94553 4.39423 4.16983 4.16992C4.39414 3.94562 4.67515 3.83347 5.01285 3.83347H14.9872C15.3249 3.83347 15.6059 3.94562 15.8302 4.16992C16.0546 4.39423 16.1667 4.67524 16.1667 5.01294V14.9873C16.1667 15.325 16.0546 15.606 15.8302 15.8303C15.6059 16.0546 15.3249 16.1668 14.9872 16.1668H5.01285ZM5.01285 15.5001H14.9872C15.1154 15.5001 15.2329 15.4467 15.3398 15.3399C15.4466 15.233 15.5 15.1155 15.5 14.9873V5.01294C15.5 4.88475 15.4466 4.76723 15.3398 4.66038C15.2329 4.55355 15.1154 4.50013 14.9872 4.50013H5.01285C4.88466 4.50013 4.76714 4.55355 4.66029 4.66038C4.55346 4.76723 4.50004 4.88475 4.50004 5.01294V14.9873C4.50004 15.1155 4.55346 15.233 4.66029 15.3399C4.76714 15.4467 4.88466 15.5001 5.01285 15.5001Z" fill="black"/>
</svg>
