<svg width="20" height="20" viewBox="0 0 20 20" fill="none" xmlns="http://www.w3.org/2000/svg">
<path d="M5.75 16.8463C5.41227 16.8463 5.13126 16.7341 4.90695 16.5098C4.68265 16.2855 4.5705 16.0045 4.5705 15.6668V6.34625H5.23716V15.6668C5.23716 15.795 5.29059 15.9125 5.39743 16.0193C5.50427 16.1262 5.62179 16.1796 5.75 16.1796H13.0705V16.8463H5.75ZM7.91666 14.6796C7.57894 14.6796 7.29793 14.5674 7.07362 14.3431C6.84931 14.1188 6.73716 13.8378 6.73716 13.5001V4.52573C6.73716 4.18802 6.84931 3.90702 7.07362 3.68271C7.29793 3.45841 7.57894 3.34625 7.91666 3.34625H14.891C15.2287 3.34625 15.5098 3.45841 15.7341 3.68271C15.9584 3.90702 16.0705 4.18802 16.0705 4.52573V13.5001C16.0705 13.8378 15.9584 14.1188 15.7341 14.3431C15.5098 14.5674 15.2287 14.6796 14.891 14.6796H7.91666ZM7.91666 14.0129H14.891C15.0192 14.0129 15.1367 13.9595 15.2436 13.8527C15.3504 13.7458 15.4038 13.6283 15.4038 13.5001V4.52573C15.4038 4.39754 15.3504 4.28002 15.2436 4.17317C15.1367 4.06634 15.0192 4.01292 14.891 4.01292H7.91666C7.78845 4.01292 7.67093 4.06634 7.5641 4.17317C7.45727 4.28002 7.40385 4.39754 7.40385 4.52573V13.5001C7.40385 13.6283 7.45727 13.7458 7.5641 13.8527C7.67093 13.9595 7.78845 14.0129 7.91666 14.0129Z" fill="black"/>
</svg>
