<svg width="20" height="20" viewBox="0 0 20 20" fill="none" xmlns="http://www.w3.org/2000/svg">
<path d="M5.01279 16.1668C4.68576 16.1668 4.40742 16.052 4.17777 15.8223C3.94813 15.5927 3.83331 15.3143 3.83331 14.9873V5.01292C3.83331 4.68589 3.94813 4.40755 4.17777 4.1779C4.40742 3.94826 4.68576 3.83344 5.01279 3.83344H8.95992C8.99624 3.56313 9.10334 3.33103 9.28123 3.13713C9.45912 2.94321 9.6987 2.84625 9.99998 2.84625C10.2799 2.84625 10.5115 2.94321 10.6947 3.13713C10.8779 3.33103 10.9877 3.56313 11.024 3.83344H14.9872C15.3142 3.83344 15.5925 3.94826 15.8222 4.1779C16.0518 4.40755 16.1666 4.68589 16.1666 5.01292V14.9873C16.1666 15.3143 16.0518 15.5927 15.8222 15.8223C15.5925 16.052 15.3142 16.1668 14.9872 16.1668H5.01279ZM5.01279 15.5001H14.9872C15.1154 15.5001 15.2329 15.4467 15.3397 15.3399C15.4466 15.233 15.5 15.1155 15.5 14.9873V5.01292C15.5 4.88472 15.4466 4.7672 15.3397 4.66036C15.2329 4.55352 15.1154 4.50011 14.9872 4.50011H13.1666V6.35909H6.83331V4.50011H5.01279C4.8846 4.50011 4.76708 4.55352 4.66023 4.66036C4.5534 4.7672 4.49998 4.88472 4.49998 5.01292V14.9873C4.49998 15.1155 4.5534 15.233 4.66023 15.3399C4.76708 15.4467 4.8846 15.5001 5.01279 15.5001ZM9.99558 4.69242C10.1641 4.69242 10.3053 4.63699 10.419 4.52613C10.5328 4.41527 10.5897 4.27557 10.5897 4.10704C10.5897 3.93853 10.5343 3.79738 10.4234 3.68361C10.3126 3.56981 10.1729 3.51292 10.0044 3.51292C9.83585 3.51292 9.6947 3.56835 9.58092 3.67921C9.46713 3.79007 9.41023 3.92976 9.41023 4.09827C9.41023 4.2668 9.46566 4.40795 9.57652 4.52173C9.68738 4.63552 9.82707 4.69242 9.99558 4.69242Z" fill="black"/>
</svg>
