<svg width="20" height="20" viewBox="0 0 20 20" fill="none" xmlns="http://www.w3.org/2000/svg">
<path d="M6.0069 15.1668C5.66895 15.1668 5.38887 15.0546 5.16665 14.8303C4.94442 14.606 4.83331 14.325 4.83331 13.9873V13.0001H5.49998V13.9873C5.49998 14.1155 5.5534 14.233 5.66023 14.3399C5.76708 14.4467 5.8846 14.5001 6.01279 14.5001H13.9872C14.1154 14.5001 14.2329 14.4467 14.3397 14.3399C14.4466 14.233 14.5 14.1155 14.5 13.9873V13.0001H15.1666V13.9873C15.1666 14.325 15.0544 14.606 14.8299 14.8303C14.6055 15.0546 14.3243 15.1668 13.9863 15.1668H6.0069ZM9.99998 12.3591L7.21792 9.57702L7.7035 9.1235L9.66665 11.0866V3.54498H10.3333V11.0866L12.2965 9.1235L12.782 9.57702L9.99998 12.3591Z" fill="black"/>
</svg>
