<svg width="20" height="20" viewBox="0 0 20 20" fill="none" xmlns="http://www.w3.org/2000/svg">
<path d="M6.0069 17.1668C5.66895 17.1668 5.38887 17.0546 5.16665 16.8303C4.94442 16.606 4.83331 16.325 4.83331 15.9873V4.01294C4.83331 3.67524 4.94547 3.39423 5.16977 3.16992C5.39408 2.94562 5.67508 2.83347 6.01279 2.83347H12.4166L15.1666 5.58347V15.9873C15.1666 16.325 15.0544 16.606 14.8299 16.8303C14.6055 17.0546 14.3243 17.1668 13.9863 17.1668H6.0069ZM11.8333 6.1668V3.50013H6.01279C5.8846 3.50013 5.76708 3.55355 5.66023 3.66038C5.5534 3.76723 5.49998 3.88475 5.49998 4.01294V15.9873C5.49998 16.1155 5.5534 16.233 5.66023 16.3399C5.76708 16.4467 5.8846 16.5001 6.01279 16.5001H13.9872C14.1154 16.5001 14.2329 16.4467 14.3397 16.3399C14.4466 16.233 14.5 16.1155 14.5 15.9873V6.1668H11.8333Z" fill="black"/>
</svg>
