<svg width="20" height="20" viewBox="0 0 20 20" fill="none" xmlns="http://www.w3.org/2000/svg">
<path d="M7.49558 15.3591C7.25814 15.3591 7.05635 15.2746 6.89023 15.1055C6.72409 14.9364 6.64102 14.7331 6.64102 14.4957C6.64102 14.2583 6.72556 14.0565 6.89465 13.8904C7.06373 13.7242 7.26699 13.6411 7.50442 13.6411C7.74186 13.6411 7.94365 13.7257 8.10977 13.8948C8.27591 14.0639 8.35898 14.2671 8.35898 14.5045C8.35898 14.742 8.27444 14.9438 8.10536 15.1099C7.93627 15.276 7.73301 15.3591 7.49558 15.3591ZM12.4956 15.3591C12.2581 15.3591 12.0564 15.2746 11.8902 15.1055C11.7241 14.9364 11.641 14.7331 11.641 14.4957C11.641 14.2583 11.7256 14.0565 11.8946 13.8904C12.0637 13.7242 12.267 13.6411 12.5044 13.6411C12.7419 13.6411 12.9436 13.7257 13.1098 13.8948C13.2759 14.0639 13.359 14.2671 13.359 14.5045C13.359 14.742 13.2744 14.9438 13.1054 15.1099C12.9363 15.276 12.733 15.3591 12.4956 15.3591ZM7.49558 10.8591C7.25814 10.8591 7.05635 10.7746 6.89023 10.6055C6.72409 10.4364 6.64102 10.2331 6.64102 9.99571C6.64102 9.75826 6.72556 9.55648 6.89465 9.39035C7.06373 9.22421 7.26699 9.14114 7.50442 9.14114C7.74186 9.14114 7.94365 9.22569 8.10977 9.39477C8.27591 9.56385 8.35898 9.76711 8.35898 10.0045C8.35898 10.242 8.27444 10.4438 8.10536 10.6099C7.93627 10.776 7.73301 10.8591 7.49558 10.8591ZM12.4956 10.8591C12.2581 10.8591 12.0564 10.7746 11.8902 10.6055C11.7241 10.4364 11.641 10.2331 11.641 9.99571C11.641 9.75826 11.7256 9.55648 11.8946 9.39035C12.0637 9.22421 12.267 9.14114 12.5044 9.14114C12.7419 9.14114 12.9436 9.22569 13.1098 9.39477C13.2759 9.56385 13.359 9.76711 13.359 10.0045C13.359 10.242 13.2744 10.4438 13.1054 10.6099C12.9363 10.776 12.733 10.8591 12.4956 10.8591ZM7.49558 6.3591C7.25814 6.3591 7.05635 6.27456 6.89023 6.10548C6.72409 5.93639 6.64102 5.73314 6.64102 5.49571C6.64102 5.25826 6.72556 5.05648 6.89465 4.89035C7.06373 4.72421 7.26699 4.64114 7.50442 4.64114C7.74186 4.64114 7.94365 4.72569 8.10977 4.89477C8.27591 5.06385 8.35898 5.26711 8.35898 5.50454C8.35898 5.74198 8.27444 5.94377 8.10536 6.10989C7.93627 6.27603 7.73301 6.3591 7.49558 6.3591ZM12.4956 6.3591C12.2581 6.3591 12.0564 6.27456 11.8902 6.10548C11.7241 5.93639 11.641 5.73314 11.641 5.49571C11.641 5.25826 11.7256 5.05648 11.8946 4.89035C12.0637 4.72421 12.267 4.64114 12.5044 4.64114C12.7419 4.64114 12.9436 4.72569 13.1098 4.89477C13.2759 5.06385 13.359 5.26711 13.359 5.50454C13.359 5.74198 13.2744 5.94377 13.1054 6.10989C12.9363 6.27603 12.733 6.3591 12.4956 6.3591Z" fill="black"/>
</svg>
