<svg width="20" height="20" viewBox="0 0 20 20" fill="none" xmlns="http://www.w3.org/2000/svg">
<path d="M4.50641 15.7501H5.46314L13.5208 7.69243L12.5641 6.7357L4.50641 14.7934V15.7501ZM15.4503 7.09308L13.1795 4.79018L14.0401 3.9296C14.2377 3.73194 14.4613 3.63312 14.7107 3.63312C14.9602 3.63312 15.1838 3.73194 15.3814 3.9296L16.3269 4.87512C16.5107 5.05888 16.5972 5.28778 16.5865 5.56181C16.5759 5.83585 16.4786 6.06475 16.2949 6.24851L15.4503 7.09308ZM14.8301 7.69724L5.86058 16.6668H3.58972V14.396L12.5593 5.42639L14.8301 7.69724ZM13.0449 7.21647L12.5641 6.7357L13.5208 7.69243L13.0449 7.21647Z" fill="black"/>
</svg>
