<svg width="20" height="20" viewBox="0 0 20 20" fill="none" xmlns="http://www.w3.org/2000/svg">
<path d="M9.99561 13.5514C10.1161 13.5514 10.2185 13.5107 10.3029 13.4292C10.3873 13.3477 10.4295 13.2468 10.4295 13.1263C10.4295 13.0059 10.3888 12.9035 10.3073 12.819C10.2258 12.7346 10.1249 12.6924 10.0044 12.6924C9.88395 12.6924 9.78152 12.7332 9.69711 12.8147C9.61273 12.8961 9.57053 12.9971 9.57053 13.1175C9.57053 13.238 9.61127 13.3404 9.69274 13.4248C9.77421 13.5092 9.87517 13.5514 9.99561 13.5514ZM9.66668 11.1283H10.3333V6.12834H9.66668V11.1283ZM10.0085 17.1668C9.02314 17.1668 8.09477 16.9804 7.22343 16.6077C6.35208 16.2349 5.58913 15.7215 4.93457 15.0676C4.28003 14.4137 3.76619 13.6518 3.39305 12.7819C3.01991 11.9119 2.83334 10.9824 2.83334 9.99336C2.83334 9.00428 3.01973 8.07754 3.39249 7.21313C3.76527 6.34873 4.27861 5.58925 4.93253 4.9347C5.58645 4.28015 6.34836 3.76631 7.21828 3.39317C8.0882 3.02004 9.0177 2.83347 10.0068 2.83347C10.9959 2.83347 11.9226 3.01985 12.787 3.39261C13.6514 3.76539 14.4109 4.27874 15.0654 4.93265C15.72 5.58657 16.2338 6.34686 16.607 7.21353C16.9801 8.08019 17.1667 9.00622 17.1667 9.99161C17.1667 10.977 16.9803 11.9054 16.6075 12.7767C16.2348 13.6481 15.7214 14.411 15.0675 15.0656C14.4136 15.7201 13.6533 16.234 12.7866 16.6071C11.9199 16.9802 10.9939 17.1668 10.0085 17.1668ZM10 16.5001C11.8056 16.5001 13.3403 15.8682 14.6042 14.6043C15.8681 13.3404 16.5 11.8057 16.5 10.0001C16.5 8.19458 15.8681 6.65985 14.6042 5.39597C13.3403 4.13208 11.8056 3.50013 10 3.50013C8.19445 3.50013 6.65973 4.13208 5.39584 5.39597C4.13195 6.65985 3.50001 8.19458 3.50001 10.0001C3.50001 11.8057 4.13195 13.3404 5.39584 14.6043C6.65973 15.8682 8.19445 16.5001 10 16.5001Z" fill="black"/>
</svg>
