<svg width="20" height="20" viewBox="0 0 20 20" fill="none" xmlns="http://www.w3.org/2000/svg">
<path d="M3.91665 15.1668C3.57904 15.1668 3.31408 15.0626 3.12177 14.8541C2.92947 14.6457 2.83331 14.3885 2.83331 14.0826V6.00705C2.83331 5.70115 2.94549 5.42908 3.16985 5.19084C3.3942 4.95259 3.67518 4.83347 4.01279 4.83347H7.66344L9.66344 6.83347H16.008C16.2676 6.83347 16.4767 6.89383 16.6354 7.01455C16.794 7.13529 16.93 7.29715 17.0433 7.50013H9.41183L7.41183 5.50013H4.01279C3.86322 5.50013 3.74036 5.54821 3.64421 5.64436C3.54806 5.74051 3.49998 5.86338 3.49998 6.01294V13.9873C3.49998 14.1048 3.52936 14.201 3.58813 14.2758C3.64688 14.3506 3.72433 14.4147 3.8205 14.4681L5.33331 9.32065H18.9711L17.4567 14.4088C17.3777 14.6321 17.2852 14.8142 17.1795 14.9553C17.0737 15.0963 16.8899 15.1668 16.6282 15.1668H3.91665ZM4.50158 14.5001H16.7195L18.0929 9.98732H5.83331L4.50158 14.5001Z" fill="black"/>
</svg>
