<svg width="20" height="20" viewBox="0 0 20 20" fill="none" xmlns="http://www.w3.org/2000/svg">
<path d="M4.01279 15.1668C3.68481 15.1668 3.40623 15.0522 3.17706 14.823C2.9479 14.5939 2.83331 14.3153 2.83331 13.9873V6.01294C2.83331 5.67524 2.9479 5.39423 3.17706 5.16992C3.40623 4.94562 3.68481 4.83347 4.01279 4.83347H7.66344L9.66344 6.83347H15.9872C16.3249 6.83347 16.6059 6.94562 16.8302 7.16992C17.0545 7.39423 17.1666 7.67524 17.1666 8.01294V13.9873C17.1666 14.3153 17.0545 14.5939 16.8302 14.823C16.6059 15.0522 16.3249 15.1668 15.9872 15.1668H4.01279ZM4.01279 14.5001H15.9872C16.1367 14.5001 16.2596 14.4521 16.3558 14.3559C16.4519 14.2598 16.5 14.1369 16.5 13.9873V8.01294C16.5 7.86338 16.4519 7.74051 16.3558 7.64436C16.2596 7.54821 16.1367 7.50013 15.9872 7.50013H9.391L7.391 5.50013H4.01279C3.86322 5.50013 3.74036 5.54821 3.64421 5.64436C3.54806 5.74051 3.49998 5.86338 3.49998 6.01294V13.9873C3.49998 14.1369 3.54806 14.2598 3.64421 14.3559C3.74036 14.4521 3.86322 14.5001 4.01279 14.5001Z" fill="black"/>
</svg>
