<svg width="20" height="20" viewBox="0 0 20 20" fill="none" xmlns="http://www.w3.org/2000/svg">
<path d="M6.4391 15.3751V4.62512H10.0824C10.9067 4.62512 11.6338 4.88539 12.2636 5.40591C12.8934 5.92646 13.2083 6.6053 13.2083 7.44244C13.2083 7.97982 13.0708 8.45712 12.7957 8.87433C12.5206 9.29152 12.1747 9.60139 11.758 9.80391C12.2794 9.95929 12.7137 10.271 13.0609 10.7389C13.4081 11.2069 13.5817 11.7613 13.5817 12.4024C13.5817 13.3244 13.2338 14.0503 12.5378 14.5802C11.8419 15.1102 11.0803 15.3751 10.2532 15.3751H6.4391ZM7.6266 14.2629H10.1921C10.8418 14.2629 11.3616 14.0688 11.7516 13.6804C12.1416 13.2921 12.3365 12.8399 12.3365 12.3238C12.3365 11.8078 12.1381 11.3556 11.7412 10.9673C11.3443 10.5789 10.8184 10.3847 10.1635 10.3847H7.6266V14.2629ZM7.6266 9.33346H10.0128C10.5673 9.33346 11.0403 9.15851 11.4319 8.80862C11.8235 8.45872 12.0192 8.03271 12.0192 7.53058C12.0192 7.00493 11.823 6.57384 11.4304 6.23731C11.0379 5.90077 10.5728 5.7325 10.0351 5.7325H7.6266V9.33346Z" fill="black"/>
</svg>
