<svg width="20" height="20" viewBox="0 0 20 20" fill="none" xmlns="http://www.w3.org/2000/svg">
<path d="M8.01282 14.5835V13.9168H16.1667V14.5835H8.01282ZM8.01282 10.3335V9.66679H16.1667V10.3335H8.01282ZM8.01282 6.08346V5.41679H16.1667V6.08346H8.01282ZM4.76801 15.1892C4.50855 15.1892 4.28791 15.0968 4.10607 14.9121C3.92425 14.7273 3.83334 14.5052 3.83334 14.2457C3.83334 13.9862 3.92573 13.7656 4.11051 13.5837C4.29527 13.4019 4.51739 13.311 4.77686 13.311C5.03634 13.311 5.25699 13.4034 5.43882 13.5882C5.62064 13.773 5.71155 13.9951 5.71155 14.2545C5.71155 14.514 5.61916 14.7347 5.43439 14.9165C5.24961 15.0983 5.02748 15.1892 4.76801 15.1892ZM4.76801 10.9392C4.50855 10.9392 4.28791 10.8468 4.10607 10.6621C3.92425 10.4773 3.83334 10.2552 3.83334 9.99571C3.83334 9.73624 3.92573 9.51558 4.11051 9.33375C4.29527 9.15193 4.51739 9.06102 4.77686 9.06102C5.03634 9.06102 5.25699 9.15341 5.43882 9.33819C5.62064 9.52295 5.71155 9.74507 5.71155 10.0045C5.71155 10.264 5.61916 10.4847 5.43439 10.6665C5.24961 10.8483 5.02748 10.9392 4.76801 10.9392ZM4.76801 6.68923C4.50855 6.68923 4.28791 6.59684 4.10607 6.41206C3.92425 6.22728 3.83334 6.00517 3.83334 5.74571C3.83334 5.48624 3.92573 5.26558 4.11051 5.08375C4.29527 4.90193 4.51739 4.81102 4.77686 4.81102C5.03634 4.81102 5.25699 4.90341 5.43882 5.08819C5.62064 5.27296 5.71155 5.49508 5.71155 5.75454C5.71155 6.01401 5.61916 6.23467 5.43439 6.4165C5.24961 6.59832 5.02748 6.68923 4.76801 6.68923Z" fill="black"/>
</svg>
