<svg width="20" height="20" viewBox="0 0 20 20" fill="none" xmlns="http://www.w3.org/2000/svg">
<path d="M3.83334 16.1668V15.6796H5.83334V14.6668H4.83334V14.1796H5.83334V13.1668H3.83334V12.6796H6.07693C6.14594 12.6796 6.2038 12.7029 6.25049 12.7496C6.29718 12.7963 6.32053 12.8542 6.32053 12.9232V14.2437C6.32053 14.3127 6.29718 14.3706 6.25049 14.4173C6.2038 14.464 6.14594 14.4873 6.07693 14.4873C6.14594 14.4873 6.2038 14.5106 6.25049 14.5573C6.29718 14.604 6.32053 14.6619 6.32053 14.7309V15.9232C6.32053 15.9922 6.29718 16.0501 6.25049 16.0968C6.2038 16.1434 6.14594 16.1668 6.07693 16.1668H3.83334ZM3.83334 11.7437V10.0001C3.83334 9.9311 3.85668 9.87325 3.90336 9.82655C3.95006 9.77987 4.00791 9.75653 4.07693 9.75653H5.83334V8.7437H3.83334V8.25653H6.07693C6.14594 8.25653 6.2038 8.27987 6.25049 8.32655C6.29718 8.37325 6.32053 8.4311 6.32053 8.50012V10.0001C6.32053 10.0691 6.29718 10.127 6.25049 10.1737C6.2038 10.2204 6.14594 10.2437 6.07693 10.2437H4.32053V11.2565H6.32053V11.7437H3.83334ZM4.83334 7.32064V4.32064H3.83334V3.83345H5.32053V7.32064H4.83334ZM8.01282 14.5835V13.9168H16.1667V14.5835H8.01282ZM8.01282 10.3335V9.66678H16.1667V10.3335H8.01282ZM8.01282 6.08345V5.41678H16.1667V6.08345H8.01282Z" fill="black"/>
</svg>
