<svg width="20" height="20" viewBox="0 0 20 20" fill="none" xmlns="http://www.w3.org/2000/svg">
<path d="M5.57692 15.5418V14.8751H14.4231V15.5418H5.57692ZM10 13.2149C8.88035 13.2149 8.00668 12.8905 7.379 12.2418C6.75134 11.5931 6.4375 10.7106 6.4375 9.59443V3.68922H7.26086V9.6222C7.26086 10.4844 7.50314 11.1663 7.98771 11.6678C8.47227 12.1693 9.14327 12.42 10.0007 12.42C10.8581 12.42 11.5291 12.1693 12.0135 11.6678C12.4979 11.1663 12.74 10.4844 12.74 9.6222V3.68922H13.5625V9.59443C13.5625 10.7106 13.2487 11.5931 12.621 12.2418C11.9933 12.8905 11.1197 13.2149 10 13.2149Z" fill="black"/>
</svg>
