<svg width="20" height="20" viewBox="0 0 20 20" fill="none" xmlns="http://www.w3.org/2000/svg">
<path d="M9.53525 9.4248C9.80021 9.12565 9.98451 8.79552 10.0881 8.43441C10.1918 8.0733 10.2436 7.70204 10.2436 7.32064C10.2436 6.95311 10.1918 6.58879 10.0881 6.22768C9.98451 5.86657 9.80021 5.52949 9.53525 5.21645C9.64636 5.18867 9.75053 5.17131 9.84775 5.16436C9.94497 5.15742 10.0491 5.15395 10.1602 5.15395C10.7906 5.10053 11.3253 5.28803 11.7644 5.71645C12.2035 6.14488 12.4231 6.67961 12.4231 7.32064C12.4231 7.96165 12.2035 8.49637 11.7644 8.9248C11.3253 9.35322 10.7906 9.54072 10.1602 9.4873C10.0491 9.4873 9.9415 9.48383 9.83733 9.47689C9.73317 9.46994 9.63247 9.45258 9.53525 9.4248ZM13.2436 14.8463V14.0193C13.2436 13.5413 13.149 13.097 12.9599 12.6864C12.7708 12.2759 12.4615 11.9504 12.032 11.7101C12.8376 11.8575 13.6042 12.0909 14.3317 12.4104C15.0593 12.7298 15.4231 13.2661 15.4231 14.0193V14.8463H13.2436ZM18.0897 8.83345H13.9231V8.16678H18.0897V8.83345ZM6.57691 9.4873C5.97275 9.4873 5.4606 9.27723 5.04046 8.85709C4.62032 8.43696 4.41025 7.9248 4.41025 7.32064C4.41025 6.71646 4.62032 6.2043 5.04046 5.78416C5.4606 5.36402 5.97275 5.15395 6.57691 5.15395C7.18108 5.15395 7.69323 5.36402 8.11337 5.78416C8.53351 6.2043 8.74358 6.71646 8.74358 7.32064C8.74358 7.9248 8.53351 8.43696 8.11337 8.85709C7.69323 9.27723 7.18108 9.4873 6.57691 9.4873ZM1.41025 14.8463V13.8911C1.41025 13.6721 1.47569 13.4614 1.60656 13.2589C1.73744 13.0565 1.9236 12.8794 2.16506 12.7277C2.84027 12.3089 3.55421 12.0017 4.30687 11.8062C5.05955 11.6107 5.81623 11.5129 6.57691 11.5129C7.32371 11.5129 8.06997 11.6176 8.81571 11.827C9.56143 12.0364 10.2858 12.3366 10.9888 12.7277C11.2163 12.8794 11.399 13.0565 11.5369 13.2589C11.6747 13.4614 11.7436 13.6721 11.7436 13.8911V14.8463H1.41025Z" fill="black"/>
</svg>
