<svg width="20" height="20" viewBox="0 0 20 20" fill="none" xmlns="http://www.w3.org/2000/svg">
<path d="M3.33008 14.8463V13.8911C3.33008 13.6155 3.39552 13.3871 3.52639 13.2061C3.65727 13.025 3.84313 12.865 4.08399 12.7263C4.6957 12.3682 5.33355 12.0765 5.99754 11.8511C6.66154 11.6256 7.49461 11.5129 8.49675 11.5129C9.49888 11.5129 10.332 11.6256 10.996 11.8511C11.6599 12.0765 12.2978 12.3682 12.9095 12.7263C13.1504 12.865 13.3362 13.025 13.4671 13.2061C13.598 13.3871 13.6634 13.6155 13.6634 13.8911V14.8463H3.33008ZM15.1634 14.8463V14.0193C15.1634 13.5642 15.1004 13.1535 14.9744 12.7873C14.8483 12.421 14.6891 12.126 14.4967 11.9023C14.7393 12.0135 14.9911 12.1361 15.2523 12.2701C15.5136 12.4042 15.7879 12.5567 16.0753 12.7277C16.242 12.8121 16.3827 12.9751 16.4976 13.2166C16.6124 13.4582 16.6698 13.7258 16.6698 14.0193V14.8463H15.1634ZM8.49675 9.4873C7.89258 9.4873 7.38043 9.27724 6.96029 8.8571C6.54015 8.43696 6.33008 7.9248 6.33008 7.32064C6.33008 6.71646 6.54015 6.2043 6.96029 5.78416C7.38043 5.36402 7.89258 5.15395 8.49675 5.15395C9.10091 5.15395 9.61306 5.36402 10.0332 5.78416C10.4533 6.2043 10.6634 6.71646 10.6634 7.32064C10.6634 7.9248 10.4533 8.43696 10.0332 8.8571C9.61306 9.27724 9.10091 9.4873 8.49675 9.4873ZM13.2211 7.32064C13.2211 7.9248 13.0111 8.43696 12.5909 8.8571C12.1708 9.27724 11.6586 9.4873 11.0545 9.4873C11.0609 9.4873 11.1063 9.49719 11.1907 9.51695C11.2751 9.53671 11.3205 9.54874 11.3269 9.55301C11.5814 9.24892 11.7844 8.91048 11.936 8.5377C12.0876 8.16492 12.1634 7.75857 12.1634 7.31864C12.1634 6.87872 12.0841 6.47634 11.9254 6.11149C11.7668 5.74664 11.5673 5.40556 11.3269 5.08824C11.2884 5.11389 11.243 5.13126 11.1907 5.14032C11.1383 5.14941 11.0929 5.15395 11.0545 5.15395C11.6586 5.15395 12.1708 5.36402 12.5909 5.78416C13.0111 6.2043 13.2211 6.71646 13.2211 7.32064Z" fill="black"/>
</svg>
