<svg width="20" height="20" viewBox="0 0 20 20" fill="none" xmlns="http://www.w3.org/2000/svg">
<path d="M9.53525 9.4248C9.80021 9.12565 9.98451 8.79469 10.0881 8.43193C10.1918 8.06916 10.2436 7.69873 10.2436 7.32064C10.2436 6.94737 10.1918 6.58162 10.0881 6.22337C9.98451 5.86513 9.80021 5.52949 9.53525 5.21645C9.64636 5.18867 9.75053 5.17131 9.84775 5.16436C9.94497 5.15742 10.0491 5.15395 10.1602 5.15395C10.7906 5.10053 11.3253 5.28803 11.7644 5.71645C12.2035 6.14488 12.4231 6.67961 12.4231 7.32064C12.4231 7.96165 12.2035 8.49637 11.7644 8.9248C11.3253 9.35322 10.7906 9.54072 10.1602 9.4873C10.0491 9.4873 9.9415 9.48383 9.83733 9.47689C9.73317 9.46994 9.63247 9.45258 9.53525 9.4248ZM13.2436 14.8463V14.0193C13.2436 13.5413 13.149 13.097 12.9599 12.6864C12.7708 12.2759 12.4615 11.9504 12.032 11.7101C12.8376 11.8575 13.6042 12.0909 14.3317 12.4104C15.0593 12.7298 15.4231 13.2661 15.4231 14.0193V14.8463H13.2436ZM18.0897 8.83345H13.9231V8.16678H18.0897V8.83345ZM6.57691 9.4873C5.97275 9.4873 5.4606 9.27723 5.04046 8.85709C4.62032 8.43696 4.41025 7.9248 4.41025 7.32064C4.41025 6.71646 4.62032 6.2043 5.04046 5.78416C5.4606 5.36402 5.97275 5.15395 6.57691 5.15395C7.18108 5.15395 7.69323 5.36402 8.11337 5.78416C8.53351 6.2043 8.74358 6.71646 8.74358 7.32064C8.74358 7.9248 8.53351 8.43696 8.11337 8.85709C7.69323 9.27723 7.18108 9.4873 6.57691 9.4873ZM1.41025 14.8463V13.8911C1.41025 13.6665 1.47569 13.4543 1.60656 13.2547C1.73744 13.0551 1.9236 12.8794 2.16506 12.7277C2.84027 12.3089 3.55448 12.0017 4.30769 11.8062C5.06089 11.6107 5.8141 11.5129 6.56731 11.5129C7.32051 11.5129 8.06997 11.6176 8.81571 11.827C9.56143 12.0364 10.2858 12.3366 10.9888 12.7277C11.2163 12.8794 11.399 13.0551 11.5369 13.2547C11.6747 13.4543 11.7436 13.6665 11.7436 13.8911V14.8463H1.41025ZM6.5666 8.82064C6.97626 8.82064 7.33039 8.67477 7.629 8.38303C7.92761 8.09131 8.07692 7.74062 8.07692 7.33095C8.07692 6.9213 7.92761 6.56716 7.629 6.26855C7.33039 5.96994 6.97626 5.82064 6.5666 5.82064C6.15694 5.82064 5.80624 5.96994 5.51452 6.26855C5.22278 6.56716 5.07691 6.9213 5.07691 7.33095C5.07691 7.74062 5.22278 8.09131 5.51452 8.38303C5.80624 8.67477 6.15694 8.82064 6.5666 8.82064ZM2.07691 14.1796H11.0769V13.8911C11.0769 13.7748 11.0347 13.6635 10.9503 13.5571C10.8659 13.4507 10.7463 13.3484 10.5914 13.2501C9.98878 12.9317 9.34756 12.6737 8.66769 12.4761C7.9878 12.2784 7.2874 12.1796 6.5665 12.1796C5.8456 12.1796 5.14521 12.2749 4.46533 12.4657C3.78544 12.6564 3.15116 12.9179 2.5625 13.2501C2.40758 13.3484 2.28792 13.4507 2.20352 13.5571C2.11912 13.6635 2.07691 13.7748 2.07691 13.8911V14.1796Z" fill="black"/>
</svg>
