<svg width="20" height="20" viewBox="0 0 20 20" fill="none" xmlns="http://www.w3.org/2000/svg">
<path d="M9.53528 9.4248C9.80024 9.12565 9.98454 8.79552 10.0882 8.43441C10.1918 8.0733 10.2436 7.70204 10.2436 7.32064C10.2436 6.95311 10.1918 6.58879 10.0882 6.22768C9.98454 5.86657 9.80024 5.52949 9.53528 5.21645C9.64639 5.18867 9.75056 5.17131 9.84778 5.16436C9.945 5.15742 10.0492 5.15395 10.1603 5.15395C10.7906 5.10053 11.3253 5.28803 11.7644 5.71645C12.2036 6.14488 12.4231 6.67961 12.4231 7.32064C12.4231 7.96165 12.2036 8.49637 11.7644 8.9248C11.3253 9.35322 10.7906 9.54072 10.1603 9.4873C10.0492 9.4873 9.94153 9.48383 9.83736 9.47689C9.7332 9.46994 9.6325 9.45258 9.53528 9.4248ZM13.2436 14.8463V14.0193C13.2436 13.5413 13.1491 13.097 12.96 12.6864C12.7709 12.2759 12.4616 11.9504 12.0321 11.7101C12.8376 11.8575 13.6042 12.0909 14.3318 12.4104C15.0593 12.7298 15.4231 13.2661 15.4231 14.0193V14.8463H13.2436ZM15.6731 10.5834V8.83345H13.9231V8.16678H15.6731V6.41678H16.3398V8.16678H18.0898V8.83345H16.3398V10.5834H15.6731ZM6.57695 9.4873C5.97278 9.4873 5.46063 9.27723 5.04049 8.85709C4.62035 8.43696 4.41028 7.9248 4.41028 7.32064C4.41028 6.71646 4.62035 6.2043 5.04049 5.78416C5.46063 5.36402 5.97278 5.15395 6.57695 5.15395C7.18111 5.15395 7.69326 5.36402 8.1134 5.78416C8.53354 6.2043 8.74361 6.71646 8.74361 7.32064C8.74361 7.9248 8.53354 8.43696 8.1134 8.85709C7.69326 9.27723 7.18111 9.4873 6.57695 9.4873ZM1.41028 14.8463V13.8911C1.41028 13.6721 1.47572 13.4614 1.60659 13.2589C1.73747 13.0565 1.92363 12.8794 2.16509 12.7277C2.8403 12.3089 3.55424 12.0017 4.3069 11.8062C5.05958 11.6107 5.81626 11.5129 6.57695 11.5129C7.32374 11.5129 8.07 11.6176 8.81574 11.827C9.56146 12.0364 10.2858 12.3366 10.9888 12.7277C11.2164 12.8794 11.3991 13.0565 11.5369 13.2589C11.6747 13.4614 11.7436 13.6721 11.7436 13.8911V14.8463H1.41028Z" fill="black"/>
</svg>
