<svg width="20" height="20" viewBox="0 0 20 20" fill="none" xmlns="http://www.w3.org/2000/svg">
<path d="M3.33008 14.8463V13.8911C3.33008 13.6186 3.39552 13.391 3.52639 13.2083C3.65727 13.0257 3.84313 12.865 4.08399 12.7263C4.6957 12.3682 5.33355 12.0765 5.99754 11.8511C6.66154 11.6256 7.49461 11.5129 8.49675 11.5129C9.49888 11.5129 10.332 11.6256 10.996 11.8511C11.6599 12.0765 12.2978 12.3682 12.9095 12.7263C13.1504 12.865 13.3362 13.0257 13.4671 13.2083C13.598 13.391 13.6634 13.6186 13.6634 13.8911V14.8463H3.33008ZM15.1634 14.8463V14.0193C15.1634 13.5642 15.1004 13.1535 14.9744 12.7873C14.8483 12.421 14.6891 12.126 14.4967 11.9023C14.7393 12.0135 14.9911 12.1361 15.2523 12.2701C15.5136 12.4042 15.7879 12.5567 16.0753 12.7277C16.242 12.8121 16.3827 12.9763 16.4976 13.2202C16.6124 13.4642 16.6698 13.7306 16.6698 14.0193V14.8463H15.1634ZM8.49675 9.4873C7.89258 9.4873 7.38043 9.27724 6.96029 8.8571C6.54015 8.43696 6.33008 7.9248 6.33008 7.32064C6.33008 6.71646 6.54015 6.2043 6.96029 5.78416C7.38043 5.36402 7.89258 5.15395 8.49675 5.15395C9.10091 5.15395 9.61306 5.36402 10.0332 5.78416C10.4533 6.2043 10.6634 6.71646 10.6634 7.32064C10.6634 7.9248 10.4533 8.43696 10.0332 8.8571C9.61306 9.27724 9.10091 9.4873 8.49675 9.4873ZM13.2211 7.32064C13.2211 7.9248 13.0111 8.43696 12.5909 8.8571C12.1708 9.27724 11.6586 9.4873 11.0545 9.4873C11.0609 9.4873 11.1063 9.49719 11.1907 9.51695C11.2751 9.53671 11.3205 9.54874 11.3269 9.55301C11.5814 9.24892 11.7844 8.91048 11.936 8.5377C12.0876 8.16492 12.1634 7.75857 12.1634 7.31864C12.1634 6.87872 12.0841 6.47634 11.9254 6.11149C11.7668 5.74664 11.5673 5.40556 11.3269 5.08824C11.2884 5.11389 11.243 5.13126 11.1907 5.14032C11.1383 5.14941 11.0929 5.15395 11.0545 5.15395C11.6586 5.15395 12.1708 5.36402 12.5909 5.78416C13.0111 6.2043 13.2211 6.71646 13.2211 7.32064ZM3.99674 14.1796H12.9967V13.8911C12.9967 13.7585 12.9651 13.6448 12.9017 13.5499C12.8383 13.455 12.7081 13.3551 12.5112 13.2501C11.9866 12.9179 11.4006 12.6564 10.7532 12.4657C10.1057 12.275 9.35358 12.1796 8.49675 12.1796C7.63991 12.1796 6.88777 12.2715 6.24033 12.4552C5.5929 12.639 5.0069 12.904 4.48233 13.2501C4.28537 13.3535 4.1552 13.4512 4.09181 13.5432C4.02843 13.6352 3.99674 13.7505 3.99674 13.8892V14.1796ZM8.50116 8.82064C8.91488 8.82064 9.26758 8.67333 9.55925 8.3787C9.85091 8.08409 9.99675 7.72992 9.99675 7.3162C9.99675 6.90249 9.84944 6.5498 9.55483 6.25814C9.2602 5.96647 8.90604 5.82064 8.49233 5.82064C8.07861 5.82064 7.72591 5.96794 7.43425 6.26255C7.14258 6.55717 6.99675 6.91133 6.99675 7.32505C6.99675 7.73878 7.14405 8.09147 7.43866 8.38314C7.73329 8.6748 8.08745 8.82064 8.50116 8.82064Z" fill="black"/>
</svg>
