<svg width="20" height="20" viewBox="0 0 20 20" fill="none" xmlns="http://www.w3.org/2000/svg">
<path d="M10.065 14.3591C10.2353 14.3591 10.3803 14.299 10.5 14.1787C10.6196 14.0585 10.6795 13.9132 10.6795 13.7428C10.6795 13.5725 10.6193 13.4275 10.4991 13.3078C10.3788 13.1882 10.2335 13.1283 10.0632 13.1283C9.89284 13.1283 9.74784 13.1885 9.62819 13.3087C9.50852 13.429 9.44869 13.5743 9.44869 13.7446C9.44869 13.915 9.50882 14.06 9.62908 14.1796C9.74935 14.2993 9.89465 14.3591 10.065 14.3591ZM9.63458 11.6203H10.4183C10.4396 11.2026 10.5008 10.9048 10.6018 10.7269C10.7027 10.549 10.8627 10.3468 11.0817 10.1203C11.5785 9.63742 11.9073 9.24533 12.0681 8.94405C12.2289 8.64276 12.3093 8.32638 12.3093 7.9949C12.3093 7.35202 12.1028 6.80434 11.6899 6.35188C11.277 5.89942 10.7415 5.67319 10.0833 5.67319C9.56729 5.67319 9.08625 5.81529 8.64021 6.09949C8.19415 6.38368 7.86696 6.76509 7.65863 7.24372L8.40383 7.58186C8.59293 7.13956 8.82557 6.84015 9.10175 6.68363C9.37792 6.5271 9.68054 6.44884 10.0096 6.44884C10.4946 6.44884 10.8755 6.58667 11.1522 6.86232C11.4289 7.13796 11.5673 7.48838 11.5673 7.91359C11.5673 8.24372 11.465 8.52576 11.2604 8.75974C11.0558 8.99372 10.8216 9.23945 10.5577 9.49692C10.1998 9.84522 9.95644 10.1778 9.82771 10.4945C9.69896 10.8113 9.63458 11.1866 9.63458 11.6203ZM10.0028 17.1668C9.0212 17.1668 8.09474 16.9804 7.2234 16.6077C6.35205 16.2349 5.5891 15.7215 4.93454 15.0676C4.28 14.4137 3.76616 13.6515 3.39302 12.781C3.01988 11.9105 2.83331 10.9845 2.83331 10.0029C2.83331 9.00747 3.0197 8.07754 3.39246 7.21313C3.76524 6.34873 4.27858 5.58925 4.9325 4.9347C5.58642 4.28015 6.34862 3.76631 7.2191 3.39317C8.0896 3.02004 9.01563 2.83347 9.99719 2.83347C10.9926 2.83347 11.9226 3.01985 12.787 3.39261C13.6514 3.76539 14.4109 4.27874 15.0654 4.93265C15.72 5.58657 16.2338 6.3453 16.6069 7.20884C16.9801 8.0724 17.1666 9.0019 17.1666 9.99734C17.1666 10.9789 16.9803 11.9054 16.6075 12.7767C16.2347 13.6481 15.7214 14.411 15.0675 15.0656C14.4135 15.7201 13.6548 16.234 12.7913 16.6071C11.9277 16.9802 10.9982 17.1668 10.0028 17.1668Z" fill="black"/>
</svg>
