<svg width="20" height="20" viewBox="0 0 20 20" fill="none" xmlns="http://www.w3.org/2000/svg">
<path d="M5.01279 16.1668C4.67508 16.1668 4.39408 16.0522 4.16977 15.823C3.94547 15.5939 3.83331 15.3153 3.83331 14.9873V5.01293C3.83331 4.68494 3.94547 4.40637 4.16977 4.1772C4.39408 3.94803 4.67508 3.83345 5.01279 3.83345H14.9872C15.3249 3.83345 15.6059 3.94803 15.8302 4.1772C16.0545 4.40637 16.1666 4.68494 16.1666 5.01293V14.9873C16.1666 15.3153 16.0545 15.5939 15.8302 15.823C15.6059 16.0522 15.3249 16.1668 14.9872 16.1668H5.01279ZM5.01279 15.5001H14.9872C15.1154 15.5001 15.2329 15.4467 15.3397 15.3399C15.4466 15.233 15.5 15.1155 15.5 14.9873V5.01293C15.5 4.88473 15.4466 4.76721 15.3397 4.66037C15.2329 4.55353 15.1154 4.50012 14.9872 4.50012H5.01279C4.8846 4.50012 4.76708 4.55353 4.66023 4.66037C4.5534 4.76721 4.49998 4.88473 4.49998 5.01293V14.9873C4.49998 15.1155 4.5534 15.233 4.66023 15.3399C4.76708 15.4467 4.8846 15.5001 5.01279 15.5001ZM6.74998 13.5835H13.3782L11.1474 10.6091L9.21794 13.0322L8.13458 11.7693L6.74998 13.5835Z" fill="black"/>
</svg>
