<svg width="20" height="20" viewBox="0 0 20 20" fill="none" xmlns="http://www.w3.org/2000/svg">
<path d="M5.01279 16.1668C4.67092 16.1668 4.38887 16.0522 4.16665 15.823C3.94442 15.5939 3.83331 15.3153 3.83331 14.9873V5.01293C3.83331 4.68494 3.94442 4.40637 4.16665 4.1772C4.38887 3.94803 4.67092 3.83345 5.01279 3.83345H14.9872C15.329 3.83345 15.6111 3.94803 15.8333 4.1772C16.0555 4.40637 16.1666 4.68494 16.1666 5.01293V14.9873C16.1666 15.3153 16.0555 15.5939 15.8333 15.823C15.6111 16.0522 15.329 16.1668 14.9872 16.1668H5.01279ZM6.74998 13.5835H13.3782L11.1474 10.6091L9.21794 13.0322L8.13458 11.7693L6.74998 13.5835Z" fill="black"/>
</svg>
