<svg width="20" height="20" viewBox="0 0 20 20" fill="none" xmlns="http://www.w3.org/2000/svg">
<path d="M9.66666 13.5835H10.3333V9.00013H9.66666V13.5835ZM9.9956 7.9809C10.1161 7.9809 10.2185 7.94016 10.3029 7.85867C10.3873 7.7772 10.4295 7.67624 10.4295 7.5558C10.4295 7.43535 10.3887 7.33293 10.3073 7.24853C10.2258 7.16412 10.1248 7.12192 10.0044 7.12192C9.88393 7.12192 9.7815 7.16266 9.6971 7.24413C9.61271 7.32562 9.57052 7.42658 9.57052 7.54703C9.57052 7.66747 9.61125 7.7699 9.69272 7.8543C9.7742 7.9387 9.87515 7.9809 9.9956 7.9809ZM10.0085 17.1668C9.02313 17.1668 8.09476 16.9804 7.22341 16.6077C6.35206 16.2349 5.58911 15.7215 4.93456 15.0676C4.28002 14.4137 3.76618 13.6518 3.39304 12.7819C3.0199 11.9119 2.83333 10.9824 2.83333 9.99336C2.83333 9.00428 3.01971 8.07754 3.39247 7.21313C3.76525 6.34873 4.2786 5.58925 4.93252 4.9347C5.58643 4.28015 6.34835 3.76631 7.21827 3.39317C8.08818 3.02004 9.01768 2.83347 10.0068 2.83347C10.9958 2.83347 11.9226 3.01985 12.787 3.39261C13.6514 3.76539 14.4109 4.27874 15.0654 4.93265C15.72 5.58657 16.2338 6.34686 16.607 7.21353C16.9801 8.08019 17.1667 9.00622 17.1667 9.99161C17.1667 10.977 16.9803 11.9054 16.6075 12.7767C16.2347 13.6481 15.7214 14.411 15.0675 15.0656C14.4136 15.7201 13.6533 16.234 12.7866 16.6071C11.9199 16.9802 10.9939 17.1668 10.0085 17.1668Z" fill="black"/>
</svg>
