<svg width="20" height="20" viewBox="0 0 20 20" fill="none" xmlns="http://www.w3.org/2000/svg">
<path d="M6.00691 17.1668C5.67965 17.1668 5.40223 17.052 5.17466 16.8223C4.94711 16.5927 4.83333 16.3143 4.83333 15.9873V9.01292C4.83333 8.6859 4.94815 8.40756 5.17779 8.1779C5.40744 7.94826 5.68578 7.83345 6.01281 7.83345H6.83333V5.83345C6.83333 4.95114 7.14099 4.20279 7.75631 3.58838C8.37163 2.97398 9.12109 2.66678 10.0047 2.66678C10.8883 2.66678 11.6362 2.97398 12.2484 3.58838C12.8606 4.20279 13.1667 4.95114 13.1667 5.83345V7.83345H13.9872C14.3142 7.83345 14.5926 7.94826 14.8222 8.1779C15.0518 8.40756 15.1667 8.6859 15.1667 9.01292V15.9873C15.1667 16.3143 15.0518 16.5927 14.822 16.8223C14.5921 17.052 14.3136 17.1668 13.9863 17.1668H6.00691ZM6.01281 16.5001H13.9872C14.1368 16.5001 14.2596 16.452 14.3558 16.3559C14.4519 16.2597 14.5 16.1369 14.5 15.9873V9.01292C14.5 8.86336 14.4519 8.74049 14.3558 8.64434C14.2596 8.54819 14.1368 8.50011 13.9872 8.50011H6.01281C5.86324 8.50011 5.74038 8.54819 5.64422 8.64434C5.54807 8.74049 5.49999 8.86336 5.49999 9.01292V15.9873C5.49999 16.1369 5.54807 16.2597 5.64422 16.3559C5.74038 16.452 5.86324 16.5001 6.01281 16.5001ZM10.0044 13.5834C10.3113 13.5834 10.5678 13.4789 10.774 13.2697C10.9802 13.0606 11.0833 12.8026 11.0833 12.4957C11.0833 12.1888 10.9788 11.9323 10.7696 11.7261C10.5605 11.5199 10.3025 11.4168 9.99558 11.4168C9.68869 11.4168 9.43215 11.5213 9.22595 11.7305C9.01976 11.9396 8.91666 12.1977 8.91666 12.5045C8.91666 12.8114 9.02123 13.068 9.23037 13.2742C9.43952 13.4803 9.69754 13.5834 10.0044 13.5834ZM7.49999 7.83345H12.5V5.83345C12.5 5.139 12.2569 4.54872 11.7708 4.06261C11.2847 3.5765 10.6944 3.33345 10 3.33345C9.30555 3.33345 8.71527 3.5765 8.22916 4.06261C7.74305 4.54872 7.49999 5.139 7.49999 5.83345V7.83345Z" fill="black"/>
</svg>
