<svg width="20" height="20" viewBox="0 0 20 20" fill="none" xmlns="http://www.w3.org/2000/svg">
<path d="M5.17307 17.0001C4.83536 17.0001 4.55436 16.888 4.33005 16.6637C4.10574 16.4394 3.99359 16.1584 3.99359 15.8207V5.01294C3.99359 4.67524 4.10574 4.39423 4.33005 4.16992C4.55436 3.94562 4.83536 3.83347 5.17307 3.83347H10.1923V4.50013H5.17307C5.04488 4.50013 4.92736 4.55355 4.82053 4.66038C4.71368 4.76723 4.66026 4.88475 4.66026 5.01294V15.8207C4.66026 15.9488 4.71368 16.0664 4.82053 16.1732C4.92736 16.28 5.04488 16.3335 5.17307 16.3335H10.1923V17.0001H5.17307ZM13.7244 12.6989L13.2228 12.2453L14.7179 10.7501H8.19232V10.0835H14.7179L13.2228 8.58826L13.7244 8.13474L16.0064 10.4168L13.7244 12.6989Z" fill="black"/>
</svg>
