<svg width="20" height="20" viewBox="0 0 20 20" fill="none" xmlns="http://www.w3.org/2000/svg">
<path d="M4.01282 15.1668C3.67511 15.1668 3.39411 15.0546 3.1698 14.8301C2.9455 14.6056 2.83334 14.3244 2.83334 13.9865V6.00705C2.83334 5.6691 2.9455 5.38902 3.1698 5.1668C3.39411 4.94458 3.67511 4.83347 4.01282 4.83347H15.9872C16.3249 4.83347 16.6059 4.9457 16.8302 5.17017C17.0545 5.39465 17.1667 5.67585 17.1667 6.0138V13.9932C17.1667 14.3312 17.0545 14.6112 16.8302 14.8335C16.6059 15.0557 16.3249 15.1668 15.9872 15.1668H4.01282ZM10 10.263L3.50001 6.34149V13.9873C3.50001 14.1369 3.54809 14.2598 3.64424 14.3559C3.74039 14.4521 3.86325 14.5001 4.01282 14.5001H15.9872C16.1368 14.5001 16.2596 14.4521 16.3558 14.3559C16.4519 14.2598 16.5 14.1369 16.5 13.9873V6.34149L10 10.263ZM10 9.2293L16.2436 5.50013H3.75643L10 9.2293ZM3.50001 6.34149V5.50013V13.9873C3.50001 14.1369 3.54809 14.2598 3.64424 14.3559C3.74039 14.4521 3.86325 14.5001 4.01282 14.5001H3.50001V6.34149Z" fill="black"/>
</svg>
