<svg width="20" height="20" viewBox="0 0 20 20" fill="none" xmlns="http://www.w3.org/2000/svg">
<path d="M9.99998 11.1668C9.5299 11.1668 9.1346 11.0065 8.81408 10.686C8.49357 10.3655 8.33331 9.9702 8.33331 9.50012V4.50012C8.33331 4.03003 8.49357 3.63474 8.81408 3.31422C9.1346 2.99371 9.5299 2.83345 9.99998 2.83345C10.4701 2.83345 10.8654 2.99371 11.1859 3.31422C11.5064 3.63474 11.6666 4.03003 11.6666 4.50012V9.50012C11.6666 9.9702 11.5064 10.3655 11.1859 10.686C10.8654 11.0065 10.4701 11.1668 9.99998 11.1668ZM9.66665 16.5835V14.1524C8.43331 14.0451 7.40276 13.5528 6.57498 12.6753C5.7472 11.7978 5.33331 10.7394 5.33331 9.50012H5.99998C5.99998 10.6068 6.39044 11.5501 7.17136 12.3301C7.95227 13.1101 8.89672 13.5001 10.0047 13.5001C11.1127 13.5001 12.0555 13.1101 12.8333 12.3301C13.6111 11.5501 14 10.6068 14 9.50012H14.6666C14.6666 10.7394 14.2528 11.7978 13.425 12.6753C12.5972 13.5528 11.5666 14.0451 10.3333 14.1524V16.5835H9.66665ZM9.99998 10.5001C10.2833 10.5001 10.5208 10.4043 10.7125 10.2126C10.9041 10.021 11 9.78345 11 9.50012V4.50012C11 4.21678 10.9041 3.97928 10.7125 3.78762C10.5208 3.59595 10.2833 3.50012 9.99998 3.50012C9.71665 3.50012 9.47915 3.59595 9.28748 3.78762C9.09581 3.97928 8.99998 4.21678 8.99998 4.50012V9.50012C8.99998 9.78345 9.09581 10.021 9.28748 10.2126C9.47915 10.4043 9.71665 10.5001 9.99998 10.5001Z" fill="black"/>
</svg>
