<svg width="20" height="20" viewBox="0 0 20 20" fill="none" xmlns="http://www.w3.org/2000/svg">
<path d="M12.5935 8.9296C12.8528 8.9296 13.0719 8.83887 13.2508 8.65741C13.4298 8.47594 13.5192 8.25558 13.5192 7.99635C13.5192 7.73711 13.4285 7.51801 13.247 7.33905C13.0656 7.16011 12.8452 7.07064 12.586 7.07064C12.3267 7.07064 12.1076 7.16137 11.9287 7.34283C11.7497 7.5243 11.6603 7.74465 11.6603 8.00389C11.6603 8.26312 11.751 8.48222 11.9325 8.66118C12.1139 8.84012 12.3343 8.9296 12.5935 8.9296ZM7.41402 8.9296C7.67326 8.9296 7.89236 8.83887 8.07132 8.65741C8.25027 8.47594 8.33975 8.25558 8.33975 7.99635C8.33975 7.73711 8.24902 7.51801 8.06754 7.33905C7.88607 7.16011 7.66572 7.07064 7.40648 7.07064C7.14725 7.07064 6.92815 7.16137 6.74919 7.34283C6.57025 7.5243 6.48077 7.74465 6.48077 8.00389C6.48077 8.26312 6.5715 8.48222 6.75296 8.66118C6.93443 8.84012 7.15479 8.9296 7.41402 8.9296ZM10 13.4873C10.6838 13.4873 11.3256 13.3201 11.9255 12.9857C12.5254 12.6513 13.0214 12.1908 13.4135 11.6043H6.58654C6.97863 12.1908 7.47462 12.6513 8.07452 12.9857C8.67441 13.3201 9.31624 13.4873 10 13.4873ZM10.0085 17.1668C9.02313 17.1668 8.09477 16.9804 7.22342 16.6076C6.35207 16.2349 5.58912 15.7215 4.93457 15.0676C4.28002 14.4137 3.76618 13.6518 3.39304 12.7818C3.01991 11.9119 2.83334 10.9824 2.83334 9.99335C2.83334 9.00426 3.01972 8.07752 3.39248 7.21312C3.76526 6.34871 4.27861 5.58924 4.93252 4.93468C5.58644 4.28014 6.34836 3.7663 7.21827 3.39316C8.08819 3.02002 9.01769 2.83345 10.0068 2.83345C10.9959 2.83345 11.9226 3.01983 12.787 3.3926C13.6514 3.76537 14.4109 4.27872 15.0654 4.93264C15.72 5.58655 16.2338 6.34685 16.607 7.21351C16.9801 8.08018 17.1667 9.00621 17.1667 9.9916C17.1667 10.977 16.9803 11.9054 16.6075 12.7767C16.2347 13.648 15.7214 14.411 15.0675 15.0656C14.4136 15.7201 13.6533 16.2339 12.7866 16.6071C11.9199 16.9802 10.9939 17.1668 10.0085 17.1668ZM10 16.5001C11.8056 16.5001 13.3403 15.8682 14.6042 14.6043C15.8681 13.3404 16.5 11.8057 16.5 10.0001C16.5 8.19456 15.8681 6.65984 14.6042 5.39595C13.3403 4.13206 11.8056 3.50012 10 3.50012C8.19445 3.50012 6.65972 4.13206 5.39584 5.39595C4.13195 6.65984 3.5 8.19456 3.5 10.0001C3.5 11.8057 4.13195 13.3404 5.39584 14.6043C6.65972 15.8682 8.19445 16.5001 10 16.5001Z" fill="black"/>
</svg>
