<svg width="20" height="20" viewBox="0 0 20 20" fill="none" xmlns="http://www.w3.org/2000/svg">
<path d="M9.99559 14.7822C9.81104 14.7822 9.65452 14.7165 9.52605 14.585C9.39758 14.4536 9.33334 14.2956 9.33334 14.1111C9.33334 13.9265 9.39905 13.77 9.53047 13.6415C9.6619 13.5131 9.81989 13.4488 10.0044 13.4488C10.189 13.4488 10.3455 13.5145 10.474 13.646C10.6024 13.7774 10.6667 13.9354 10.6667 14.1199C10.6667 14.3045 10.601 14.461 10.4696 14.5895C10.3381 14.7179 10.1801 14.7822 9.99559 14.7822ZM9.99559 10.6668C9.81104 10.6668 9.65452 10.6011 9.52605 10.4697C9.39758 10.3382 9.33334 10.1802 9.33334 9.99569C9.33334 9.81114 9.39905 9.65462 9.53047 9.52615C9.6619 9.39768 9.81989 9.33344 10.0044 9.33344C10.189 9.33344 10.3455 9.39915 10.474 9.53057C10.6024 9.662 10.6667 9.81999 10.6667 10.0045C10.6667 10.1891 10.601 10.3456 10.4696 10.4741C10.3381 10.6025 10.1801 10.6668 9.99559 10.6668ZM9.99559 6.5514C9.81104 6.5514 9.65452 6.48569 9.52605 6.35426C9.39758 6.22284 9.33334 6.06485 9.33334 5.8803C9.33334 5.69574 9.39905 5.53923 9.53047 5.41076C9.6619 5.28228 9.81989 5.21805 10.0044 5.21805C10.189 5.21805 10.3455 5.28376 10.474 5.41519C10.6024 5.54661 10.6667 5.7046 10.6667 5.88915C10.6667 6.07371 10.601 6.23022 10.4696 6.35869C10.3381 6.48717 10.1801 6.5514 9.99559 6.5514Z" fill="black"/>
</svg>
