<svg width="20" height="20" viewBox="0 0 20 20" fill="none" xmlns="http://www.w3.org/2000/svg">
<path d="M5.88018 10.6668C5.69562 10.6668 5.53911 10.6011 5.41063 10.4697C5.28216 10.3382 5.21793 10.1802 5.21793 9.9957C5.21793 9.81114 5.28364 9.65463 5.41507 9.52616C5.54649 9.39769 5.70447 9.33345 5.88903 9.33345C6.07359 9.33345 6.2301 9.39916 6.35857 9.53058C6.48704 9.66201 6.55128 9.81999 6.55128 10.0045C6.55128 10.1891 6.48556 10.3456 6.35413 10.4741C6.22272 10.6025 6.06473 10.6668 5.88018 10.6668ZM9.99557 10.6668C9.81102 10.6668 9.6545 10.6011 9.52603 10.4697C9.39756 10.3382 9.33332 10.1802 9.33332 9.9957C9.33332 9.81114 9.39903 9.65463 9.53045 9.52616C9.66188 9.39769 9.81986 9.33345 10.0044 9.33345C10.189 9.33345 10.3455 9.39916 10.4739 9.53058C10.6024 9.66201 10.6667 9.81999 10.6667 10.0045C10.6667 10.1891 10.6009 10.3456 10.4695 10.4741C10.3381 10.6025 10.1801 10.6668 9.99557 10.6668ZM14.1109 10.6668C13.9264 10.6668 13.7699 10.6011 13.6414 10.4697C13.5129 10.3382 13.4487 10.1802 13.4487 9.9957C13.4487 9.81114 13.5144 9.65463 13.6458 9.52616C13.7773 9.39769 13.9352 9.33345 14.1198 9.33345C14.3044 9.33345 14.4609 9.39916 14.5893 9.53058C14.7178 9.66201 14.7821 9.81999 14.7821 10.0045C14.7821 10.1891 14.7163 10.3456 14.5849 10.4741C14.4535 10.6025 14.2955 10.6668 14.1109 10.6668Z" fill="black"/>
</svg>
