<svg width="20" height="20" viewBox="0 0 20 20" fill="none" xmlns="http://www.w3.org/2000/svg">
<path d="M4.41669 15.2758V14.6091H5.41669V9.19243C5.41669 8.04432 5.79356 7.03426 6.54729 6.16226C7.30103 5.29028 8.25749 4.77522 9.41669 4.6171V3.51293C9.41669 3.34198 9.47117 3.20203 9.58015 3.09305C9.68912 2.98408 9.82908 2.9296 10 2.9296C10.171 2.9296 10.3109 2.98408 10.4199 3.09305C10.5289 3.20203 10.5834 3.34198 10.5834 3.51293V4.6171C11.7425 4.77522 12.699 5.28591 13.4528 6.14916C14.2065 7.01241 14.5834 8.02683 14.5834 9.19243V14.6091H15.5834V15.2758H4.41669ZM9.9956 17.6796C9.67803 17.6796 9.4028 17.5674 9.1699 17.3431C8.93699 17.1188 8.82054 16.8378 8.82054 16.5001H11.1795C11.1795 16.842 11.0669 17.124 10.8418 17.3463C10.6166 17.5685 10.3345 17.6796 9.9956 17.6796ZM6.08335 14.6091H13.9167V9.19243C13.9167 8.092 13.539 7.16411 12.7837 6.40876C12.0283 5.65343 11.1005 5.27576 10 5.27576C8.89959 5.27576 7.97171 5.65343 7.21637 6.40876C6.46103 7.16411 6.08335 8.092 6.08335 9.19243V14.6091Z" fill="black"/>
</svg>
