<svg width="20" height="20" viewBox="0 0 20 20" fill="none" xmlns="http://www.w3.org/2000/svg">
<path d="M2.95831 9.00012C2.95831 7.93708 3.19229 6.93547 3.66023 5.9953C4.12817 5.05514 4.7724 4.24905 5.59292 3.57703L6.08331 4.08345C5.30554 4.66678 4.70137 5.38835 4.27081 6.24814C3.84026 7.10792 3.62498 8.02524 3.62498 9.00012H2.95831ZM16.375 9.00012C16.375 8.02524 16.1597 7.10792 15.7291 6.24814C15.2986 5.38835 14.6944 4.66678 13.9166 4.08345L14.407 3.57703C15.2276 4.24905 15.8718 5.05514 16.3397 5.9953C16.8077 6.93547 17.0416 7.93708 17.0416 9.00012H16.375ZM4.41665 15.2758V14.6091H5.41665V9.19243C5.41665 8.04432 5.79351 7.03426 6.54725 6.16226C7.30099 5.29028 8.25745 4.77522 9.41665 4.6171V3.51293C9.41665 3.34198 9.47113 3.20203 9.5801 3.09305C9.68908 2.98408 9.82904 2.9296 9.99998 2.9296C10.1709 2.9296 10.3109 2.98408 10.4199 3.09305C10.5288 3.20203 10.5833 3.34198 10.5833 3.51293V4.6171C11.7425 4.77522 12.699 5.28591 13.4527 6.14916C14.2064 7.01241 14.5833 8.02683 14.5833 9.19243V14.6091H15.5833V15.2758H4.41665ZM9.99556 17.6796C9.67799 17.6796 9.40276 17.5674 9.16985 17.3431C8.93695 17.1188 8.8205 16.8378 8.8205 16.5001H11.1795C11.1795 16.842 11.0669 17.124 10.8417 17.3463C10.6165 17.5685 10.3345 17.6796 9.99556 17.6796ZM6.08331 14.6091H13.9166V9.19243C13.9166 8.092 13.539 7.16411 12.7836 6.40876C12.0283 5.65343 11.1004 5.27576 9.99998 5.27576C8.89955 5.27576 7.97167 5.65343 7.21633 6.40876C6.46099 7.16411 6.08331 8.092 6.08331 9.19243V14.6091Z" fill="black"/>
</svg>
