<svg width="20" height="20" viewBox="0 0 20 20" fill="none" xmlns="http://www.w3.org/2000/svg">
<path d="M4.15066 16.1668C4.05621 16.1668 3.97704 16.1352 3.91315 16.0721C3.84927 16.0089 3.81732 15.9306 3.81732 15.8373C3.81732 15.7439 3.84927 15.6644 3.91315 15.5987C3.97704 15.533 4.05621 15.5001 4.15066 15.5001H5.07693V10.3335H4.15503C4.06184 10.3335 3.98225 10.3019 3.91628 10.2387C3.85031 10.1756 3.81732 10.0973 3.81732 10.004C3.81732 9.91058 3.84927 9.83104 3.91315 9.76535C3.97704 9.69964 4.05621 9.66678 4.15066 9.66678H5.07693V4.50012H4.15503C4.06184 4.50012 3.98225 4.46854 3.91628 4.40539C3.85031 4.34224 3.81732 4.26397 3.81732 4.1706C3.81732 4.07723 3.84927 3.99771 3.91315 3.93201C3.97704 3.8663 4.05621 3.83345 4.15066 3.83345H15.8333C15.9278 3.83345 16.007 3.86503 16.0708 3.92818C16.1347 3.99133 16.1667 4.06959 16.1667 4.16295C16.1667 4.25631 16.1347 4.33585 16.0708 4.40155C16.007 4.46726 15.9278 4.50012 15.8333 4.50012H14.9231V9.66678H15.829C15.9222 9.66678 16.0017 9.69836 16.0677 9.76151C16.1337 9.82467 16.1667 9.90292 16.1667 9.99628C16.1667 10.0897 16.1347 10.1692 16.0708 10.2349C16.007 10.3006 15.9278 10.3335 15.8333 10.3335H14.9231V15.5001H15.829C15.9222 15.5001 16.0017 15.5317 16.0677 15.5948C16.1337 15.658 16.1667 15.7363 16.1667 15.8296C16.1667 15.923 16.1347 16.0025 16.0708 16.0682C16.007 16.1339 15.9278 16.1668 15.8333 16.1668H4.15066ZM5.74359 15.5001H14.2564V10.3335H13.5898C13.4953 10.3335 13.4161 10.3019 13.3523 10.2387C13.2884 10.1756 13.2564 10.0973 13.2564 10.004C13.2564 9.91058 13.2884 9.83104 13.3523 9.76535C13.4161 9.69964 13.4953 9.66678 13.5898 9.66678H14.2564V4.50012H5.74359V9.66678H6.41026C6.5047 9.66678 6.58387 9.69836 6.64776 9.76151C6.71165 9.82467 6.74359 9.90292 6.74359 9.99628C6.74359 10.0897 6.71165 10.1692 6.64776 10.2349C6.58387 10.3006 6.5047 10.3335 6.41026 10.3335H5.74359V15.5001ZM9.99813 12.4713C10.5069 12.4713 10.9399 12.2994 11.2973 11.9556C11.6547 11.6118 11.8333 11.1834 11.8333 10.6703C11.8333 10.262 11.7274 9.92703 11.5156 9.66549C11.3038 9.40396 10.7986 8.81144 10 7.88793C9.2233 8.82062 8.72356 9.41657 8.5008 9.67576C8.27805 9.93496 8.16668 10.2679 8.16668 10.6745C8.16668 11.1854 8.34473 11.6126 8.70084 11.9561C9.05695 12.2995 9.48938 12.4713 9.99813 12.4713Z" fill="black"/>
</svg>
