<svg width="20" height="20" viewBox="0 0 20 20" fill="none" xmlns="http://www.w3.org/2000/svg">
<path d="M5.01279 16.1668C4.67508 16.1668 4.39408 16.0546 4.16977 15.8303C3.94547 15.606 3.83331 15.325 3.83331 14.9873V5.01294C3.83331 4.67524 3.94547 4.39423 4.16977 4.16992C4.39408 3.94562 4.67508 3.83347 5.01279 3.83347H9.35896V4.50013H5.01279C4.8846 4.50013 4.76708 4.55355 4.66023 4.66038C4.5534 4.76723 4.49998 4.88475 4.49998 5.01294V14.9873C4.49998 15.1155 4.5534 15.233 4.66023 15.3399C4.76708 15.4467 4.8846 15.5001 5.01279 15.5001H14.9872C15.1154 15.5001 15.2329 15.4467 15.3397 15.3399C15.4466 15.233 15.5 15.1155 15.5 14.9873V10.6412H16.1666V14.9873C16.1666 15.325 16.0545 15.606 15.8302 15.8303C15.6059 16.0546 15.3249 16.1668 14.9872 16.1668H5.01279ZM8.09452 12.3912L7.60896 11.9056L15.0144 4.50013H12V3.83347H16.1666V8.00013H15.5V4.98572L8.09452 12.3912Z" fill="black"/>
</svg>
