<svg width="20" height="20" viewBox="0 0 20 20" fill="none" xmlns="http://www.w3.org/2000/svg">
<path d="M14.9583 10.5835V8.83346H13.2083V8.1668H14.9583V6.4168H15.625V8.1668H17.375V8.83346H15.625V10.5835H14.9583ZM7.99998 9.48732C7.39581 9.48732 6.88366 9.27725 6.46352 8.85711C6.04338 8.43697 5.83331 7.92482 5.83331 7.32065C5.83331 6.71647 6.04338 6.20431 6.46352 5.78417C6.88366 5.36403 7.39581 5.15396 7.99998 5.15396C8.60415 5.15396 9.1163 5.36403 9.53644 5.78417C9.95658 6.20431 10.1666 6.71647 10.1666 7.32065C10.1666 7.92482 9.95658 8.43697 9.53644 8.85711C9.1163 9.27725 8.60415 9.48732 7.99998 9.48732ZM2.83331 14.8463V13.8911C2.83331 13.6613 2.89875 13.4444 3.02963 13.2404C3.1605 13.0364 3.34667 12.8655 3.58813 12.7277C4.27722 12.3367 4.99463 12.0364 5.74035 11.827C6.48609 11.6176 7.2393 11.5129 7.99998 11.5129C8.76066 11.5129 9.51387 11.6176 10.2596 11.827C11.0053 12.0364 11.7227 12.3367 12.4118 12.7277C12.6533 12.8655 12.8395 13.0364 12.9703 13.2404C13.1012 13.4444 13.1666 13.6613 13.1666 13.8911V14.8463H2.83331ZM3.49998 14.1796H12.5V13.8911C12.5 13.7692 12.4576 13.6528 12.3729 13.5419C12.2881 13.431 12.1686 13.3337 12.0144 13.2501C11.4257 12.9179 10.788 12.6564 10.1011 12.4657C9.41433 12.275 8.71394 12.1796 7.99998 12.1796C7.28602 12.1796 6.58563 12.275 5.89881 12.4657C5.21198 12.6564 4.57423 12.9179 3.98556 13.2501C3.83134 13.3337 3.71185 13.431 3.6271 13.5419C3.54235 13.6528 3.49998 13.7692 3.49998 13.8911V14.1796ZM8.0044 8.82065C8.41812 8.82065 8.77081 8.67334 9.06248 8.37871C9.35415 8.0841 9.49998 7.72993 9.49998 7.31621C9.49998 6.9025 9.35267 6.54982 9.05806 6.25815C8.76344 5.96648 8.40927 5.82065 7.99556 5.82065C7.58184 5.82065 7.22915 5.96795 6.93748 6.26257C6.64581 6.55718 6.49998 6.91134 6.49998 7.32507C6.49998 7.73879 6.64729 8.09148 6.9419 8.38315C7.23652 8.67482 7.59069 8.82065 8.0044 8.82065Z" fill="black"/>
</svg>
