<svg width="20" height="20" viewBox="0 0 20 20" fill="none" xmlns="http://www.w3.org/2000/svg">
<path d="M10 9.48732C9.39584 9.48732 8.88368 9.27725 8.46354 8.85711C8.04341 8.43697 7.83334 7.92482 7.83334 7.32065C7.83334 6.71647 8.04341 6.20431 8.46354 5.78417C8.88368 5.36403 9.39584 5.15396 10 5.15396C10.6042 5.15396 11.1163 5.36403 11.5365 5.78417C11.9566 6.20431 12.1667 6.71647 12.1667 7.32065C12.1667 7.92482 11.9566 8.43697 11.5365 8.85711C11.1163 9.27725 10.6042 9.48732 10 9.48732ZM4.83334 14.8463V13.8078C4.83334 13.6166 4.89877 13.4267 5.02965 13.2381C5.16052 13.0495 5.34669 12.8794 5.58815 12.7277C6.27725 12.3367 6.99669 12.0364 7.74648 11.827C8.49626 11.6176 9.24599 11.5129 9.99567 11.5129C10.7453 11.5129 11.4965 11.6176 12.2492 11.827C13.0019 12.0364 13.7228 12.3367 14.4119 12.7277C14.6533 12.8655 14.8395 13.0322 14.9704 13.2277C15.1012 13.4232 15.1667 13.6166 15.1667 13.8078V14.8463H4.83334ZM5.5 14.1796H14.5V13.8078C14.5 13.7039 14.4576 13.6038 14.3729 13.5076C14.2881 13.4114 14.1686 13.3255 14.0144 13.2501C13.4396 12.904 12.8088 12.639 12.122 12.4553C11.4352 12.2715 10.7278 12.1796 10 12.1796C9.27216 12.1796 8.56482 12.2715 7.878 12.4553C7.19117 12.639 6.56036 12.904 5.98559 13.2501C5.83067 13.3484 5.71101 13.4421 5.62661 13.5312C5.5422 13.6204 5.5 13.7126 5.5 13.8078V14.1796ZM10.0044 8.82065C10.4181 8.82065 10.7708 8.67334 11.0625 8.37871C11.3542 8.0841 11.5 7.72993 11.5 7.31621C11.5 6.9025 11.3527 6.54982 11.0581 6.25815C10.7635 5.96648 10.4093 5.82065 9.99559 5.82065C9.58186 5.82065 9.22917 5.96795 8.9375 6.26257C8.64584 6.55718 8.5 6.91134 8.5 7.32507C8.5 7.73879 8.64731 8.09148 8.94192 8.38315C9.23654 8.67482 9.59071 8.82065 10.0044 8.82065Z" fill="black"/>
</svg>
