<svg width="20" height="20" viewBox="0 0 20 20" fill="none" xmlns="http://www.w3.org/2000/svg">
<path d="M13.0962 9.08346V8.4168H17.2629V9.08346H13.0962ZM8.00004 9.48732C7.39587 9.48732 6.88372 9.27725 6.46358 8.85711C6.04344 8.43697 5.83337 7.92482 5.83337 7.32065C5.83337 6.71647 6.04344 6.20431 6.46358 5.78417C6.88372 5.36403 7.39587 5.15396 8.00004 5.15396C8.60421 5.15396 9.11636 5.36403 9.5365 5.78417C9.95664 6.20431 10.1667 6.71647 10.1667 7.32065C10.1667 7.92482 9.95664 8.43697 9.5365 8.85711C9.11636 9.27725 8.60421 9.48732 8.00004 9.48732ZM2.83337 14.8463V13.8911C2.83337 13.6613 2.89881 13.4444 3.02969 13.2404C3.16056 13.0364 3.34673 12.8655 3.58819 12.7277C4.27728 12.3367 4.99469 12.0364 5.74042 11.827C6.48615 11.6176 7.23936 11.5129 8.00004 11.5129C8.76072 11.5129 9.51393 11.6176 10.2597 11.827C11.0054 12.0364 11.7228 12.3367 12.4119 12.7277C12.6534 12.8655 12.8395 13.0364 12.9704 13.2404C13.1013 13.4444 13.1667 13.6613 13.1667 13.8911V14.8463H2.83337ZM3.50004 14.1796H12.5V13.8911C12.5 13.7692 12.4577 13.6528 12.3729 13.5419C12.2882 13.431 12.1687 13.3337 12.0145 13.2501C11.4258 12.9179 10.788 12.6564 10.1012 12.4657C9.41439 12.275 8.714 12.1796 8.00004 12.1796C7.28608 12.1796 6.58569 12.275 5.89887 12.4657C5.21204 12.6564 4.57429 12.9179 3.98562 13.2501C3.8314 13.3337 3.71192 13.431 3.62717 13.5419C3.54242 13.6528 3.50004 13.7692 3.50004 13.8911V14.1796ZM8.00446 8.82065C8.41818 8.82065 8.77087 8.67334 9.06254 8.37871C9.35421 8.0841 9.50004 7.72993 9.50004 7.31621C9.50004 6.9025 9.35274 6.54982 9.05812 6.25815C8.7635 5.96648 8.40933 5.82065 7.99562 5.82065C7.5819 5.82065 7.22921 5.96795 6.93754 6.26257C6.64587 6.55718 6.50004 6.91134 6.50004 7.32507C6.50004 7.73879 6.64735 8.09148 6.94196 8.38315C7.23658 8.67482 7.59075 8.82065 8.00446 8.82065Z" fill="black"/>
</svg>
