<svg width="20" height="20" viewBox="0 0 20 20" fill="none" xmlns="http://www.w3.org/2000/svg">
<path d="M10 9.48732C9.39584 9.48732 8.88368 9.27725 8.46354 8.85711C8.04341 8.43697 7.83334 7.92482 7.83334 7.32065C7.83334 6.71647 8.04341 6.20431 8.46354 5.78417C8.88368 5.36403 9.39584 5.15396 10 5.15396C10.6042 5.15396 11.1163 5.36403 11.5365 5.78417C11.9566 6.20431 12.1667 6.71647 12.1667 7.32065C12.1667 7.92482 11.9566 8.43697 11.5365 8.85711C11.1163 9.27725 10.6042 9.48732 10 9.48732ZM4.83334 14.8463V13.8078C4.83334 13.6166 4.89877 13.4267 5.02965 13.2381C5.16052 13.0495 5.34669 12.8794 5.58815 12.7277C6.27725 12.3367 6.99813 12.0364 7.75079 11.827C8.50347 11.6176 9.25321 11.5129 10 11.5129C10.7468 11.5129 11.4965 11.6176 12.2492 11.827C13.0019 12.0364 13.7228 12.3367 14.4119 12.7277C14.6533 12.8655 14.8395 13.0322 14.9704 13.2277C15.1012 13.4232 15.1667 13.6166 15.1667 13.8078V14.8463H4.83334Z" fill="black"/>
</svg>
