<svg width="20" height="20" viewBox="0 0 20 20" fill="none" xmlns="http://www.w3.org/2000/svg">
<path d="M14.9583 10.5835V8.83346H13.2083V8.1668H14.9583V6.4168H15.625V8.1668H17.375V8.83346H15.625V10.5835H14.9583ZM7.99998 9.48732C7.39581 9.48732 6.88366 9.27725 6.46352 8.85711C6.04338 8.43697 5.83331 7.92482 5.83331 7.32065C5.83331 6.71647 6.04338 6.20431 6.46352 5.78417C6.88366 5.36403 7.39581 5.15396 7.99998 5.15396C8.60415 5.15396 9.1163 5.36403 9.53644 5.78417C9.95658 6.20431 10.1666 6.71647 10.1666 7.32065C10.1666 7.92482 9.95658 8.43697 9.53644 8.85711C9.1163 9.27725 8.60415 9.48732 7.99998 9.48732ZM2.83331 14.8463V13.8911C2.83331 13.6613 2.89875 13.4444 3.02963 13.2404C3.1605 13.0364 3.34667 12.8655 3.58813 12.7277C4.27722 12.3367 4.99463 12.0364 5.74035 11.827C6.48609 11.6176 7.2393 11.5129 7.99998 11.5129C8.76066 11.5129 9.51387 11.6176 10.2596 11.827C11.0053 12.0364 11.7227 12.3367 12.4118 12.7277C12.6533 12.8655 12.8395 13.0364 12.9703 13.2404C13.1012 13.4444 13.1666 13.6613 13.1666 13.8911V14.8463H2.83331Z" fill="black"/>
</svg>
