<svg width="20" height="20" viewBox="0 0 20 20" fill="none" xmlns="http://www.w3.org/2000/svg">
<path d="M10.3333 9.66678H16.4904C16.4198 7.99263 15.7946 6.56287 14.6146 5.37751C13.4345 4.19215 12.0075 3.56956 10.3333 3.50974V9.66678ZM9.66665 16.4905V3.50974C7.95297 3.59734 6.49677 4.26294 5.29806 5.50653C4.09934 6.75012 3.49998 8.24451 3.49998 9.9897C3.49998 11.7349 4.09934 13.2328 5.29806 14.4833C6.49677 15.7338 7.95297 16.4029 9.66665 16.4905ZM10.3333 16.4905C11.9936 16.4061 13.4145 15.7704 14.5961 14.5835C15.7778 13.3965 16.4092 11.9798 16.4904 10.3335H10.3333V16.4905ZM10.0123 17.1668C9.02323 17.1668 8.09331 16.9804 7.22254 16.6076C6.35176 16.2349 5.5891 15.7215 4.93454 15.0676C4.28 14.4137 3.76616 13.6518 3.39302 12.7818C3.01988 11.9119 2.83331 10.9824 2.83331 9.99335C2.83331 9.00426 3.0197 8.07405 3.39246 7.2027C3.76524 6.33135 4.27858 5.57187 4.9325 4.92426C5.58642 4.27667 6.34833 3.7663 7.21825 3.39316C8.08817 3.02002 9.01767 2.83345 10.0068 2.83345C10.9958 2.83345 11.9251 3.02208 12.7946 3.39935C13.6641 3.77661 14.4217 4.28851 15.0675 4.93505C15.7133 5.5816 16.2246 6.33947 16.6014 7.20868C16.9782 8.0779 17.1666 9.01007 17.1666 10.0052C17.1666 10.9883 16.9788 11.915 16.6032 12.7853C16.2275 13.6557 15.7177 14.4157 15.0737 15.0655C14.4297 15.7153 13.6724 16.2279 12.8018 16.6035C11.9312 16.979 11.0014 17.1668 10.0123 17.1668Z" fill="black"/>
</svg>
