<svg width="20" height="20" viewBox="0 0 20 20" fill="none" xmlns="http://www.w3.org/2000/svg">
<path d="M8.41665 12.7309L12.7308 10.0001L8.41665 7.26936V12.7309ZM10.0085 17.1668C9.02311 17.1668 8.09474 16.9804 7.2234 16.6077C6.35205 16.2349 5.5891 15.7215 4.93454 15.0676C4.28 14.4137 3.76616 13.6518 3.39302 12.7819C3.01988 11.9119 2.83331 10.9824 2.83331 9.99336C2.83331 9.00428 3.0197 8.07754 3.39246 7.21313C3.76524 6.34873 4.27858 5.58925 4.9325 4.9347C5.58642 4.28015 6.34833 3.76631 7.21825 3.39317C8.08817 3.02004 9.01767 2.83347 10.0068 2.83347C10.9958 2.83347 11.9226 3.01985 12.787 3.39261C13.6514 3.76539 14.4109 4.27874 15.0654 4.93265C15.72 5.58657 16.2338 6.34686 16.6069 7.21353C16.9801 8.08019 17.1666 9.00622 17.1666 9.99161C17.1666 10.977 16.9803 11.9054 16.6075 12.7767C16.2347 13.6481 15.7214 14.411 15.0675 15.0656C14.4135 15.7201 13.6533 16.234 12.7866 16.6071C11.9199 16.9802 10.9939 17.1668 10.0085 17.1668Z" fill="black"/>
</svg>
