<svg width="20" height="20" viewBox="0 0 20 20" fill="none" xmlns="http://www.w3.org/2000/svg">
<path d="M9.99746 17.5834C8.95924 17.5834 7.97922 17.3845 7.0574 16.9868C6.13558 16.589 5.33056 16.046 4.64233 15.3578C3.95412 14.6696 3.41113 13.8645 3.01335 12.9427C2.61558 12.0209 2.41669 11.0409 2.41669 10.0027C2.41669 8.95178 2.61584 7.96736 3.01415 7.04941C3.41244 6.13148 3.95459 5.32921 4.6406 4.6426C5.32663 3.956 6.13112 3.41339 7.05406 3.01477C7.97702 2.61613 8.95687 2.41681 9.9936 2.41681C10.1611 2.41681 10.2943 2.46632 10.3932 2.56533C10.4922 2.66434 10.5416 2.79207 10.5416 2.94852C10.5416 3.10496 10.4922 3.23601 10.3932 3.34166C10.2943 3.4473 10.1632 3.50012 10 3.50012C8.19896 3.50012 6.66537 4.12859 5.39923 5.38554C4.13308 6.64248 3.5 8.17721 3.5 9.98971C3.5 11.8022 4.13308 13.3404 5.39923 14.6043C6.66537 15.8682 8.19896 16.5001 10 16.5001C11.8194 16.5001 13.3576 15.867 14.6146 14.6009C15.8715 13.3348 16.5 11.8012 16.5 10.0001C16.5 9.83693 16.5529 9.70586 16.6588 9.60691C16.7646 9.50796 16.8957 9.45848 17.0522 9.45848C17.2086 9.45848 17.3362 9.50796 17.4351 9.60691C17.5339 9.70586 17.5833 9.83906 17.5833 10.0065C17.5833 11.0433 17.384 12.0231 16.9854 12.9461C16.5867 13.869 16.0441 14.6735 15.3575 15.3595C14.6709 16.0455 13.8686 16.5877 12.9507 16.986C12.0328 17.3843 11.0483 17.5834 9.99746 17.5834Z" fill="black"/>
</svg>
