<svg width="20" height="20" viewBox="0 0 20 20" fill="none" xmlns="http://www.w3.org/2000/svg">
<path d="M6.99116 17.1668C6.39289 17.1668 5.88369 16.9567 5.46355 16.5366C5.04341 16.1164 4.83334 15.6043 4.83334 15.0001V7.3591C4.83334 6.83453 4.99707 6.37486 5.32453 5.9801C5.65199 5.58532 6.09082 5.35855 6.64103 5.2998V4.01293C6.64103 3.68857 6.75652 3.4109 6.98751 3.17993C7.2185 2.94894 7.49617 2.83345 7.82053 2.83345H12.1795C12.5039 2.83345 12.7815 2.94894 13.0125 3.17993C13.2435 3.4109 13.359 3.68857 13.359 4.01293V5.2998C13.9092 5.35855 14.348 5.58532 14.6755 5.9801C15.0029 6.37486 15.1667 6.83453 15.1667 7.3591V15.0001C15.1667 15.6043 14.9566 16.1164 14.5365 16.5366C14.1163 16.9567 13.6071 17.1668 13.0089 17.1668H6.99116ZM5.50001 10.8463H14.5V7.3591C14.5 6.9466 14.353 6.59347 14.0591 6.29972C13.7651 6.00597 13.4117 5.8591 12.9989 5.8591H6.99424C6.58142 5.8591 6.22918 6.00597 5.93751 6.29972C5.64584 6.59347 5.50001 6.9466 5.50001 7.3591V10.8463ZM7.00116 16.5001H13.0058C13.4186 16.5001 13.7708 16.3532 14.0625 16.0595C14.3542 15.7657 14.5 15.4126 14.5 15.0001V11.513H5.50001V15.0001C5.50001 15.4126 5.647 15.7657 5.94097 16.0595C6.23495 16.3532 6.58835 16.5001 7.00116 16.5001ZM10.5577 5.19243H12.6923V4.01293C12.6923 3.86336 12.6442 3.7405 12.5481 3.64435C12.4519 3.54819 12.3291 3.50012 12.1795 3.50012H7.82053C7.67095 3.50012 7.54808 3.54819 7.45193 3.64435C7.35577 3.7405 7.3077 3.86336 7.3077 4.01293V5.19243H9.44232C9.44232 5.04819 9.49775 4.91919 9.60861 4.80541C9.71946 4.69162 9.84846 4.63472 9.99561 4.63472C10.1428 4.63472 10.2733 4.69058 10.387 4.80228C10.5008 4.91398 10.5577 5.04403 10.5577 5.19243Z" fill="black"/>
</svg>
