<svg width="20" height="20" viewBox="0 0 20 20" fill="none" xmlns="http://www.w3.org/2000/svg">
<path d="M10.0047 13.1668C10.8883 13.1668 11.6362 12.8591 12.2484 12.2438C12.8606 11.6285 13.1667 10.879 13.1667 9.99542C13.1667 9.11181 12.859 8.36392 12.2437 7.75174C11.6284 7.13956 10.8789 6.83347 9.99529 6.83347C9.11168 6.83347 8.36378 7.14113 7.7516 7.75644C7.13942 8.37176 6.83333 9.12123 6.83333 10.0048C6.83333 10.8885 7.14099 11.6363 7.75631 12.2485C8.37163 12.8607 9.12109 13.1668 10.0047 13.1668ZM10.0085 17.1668C9.02313 17.1668 8.09476 16.9804 7.22341 16.6077C6.35206 16.2349 5.58911 15.7215 4.93456 15.0676C4.28002 14.4137 3.76618 13.6518 3.39304 12.7819C3.0199 11.9119 2.83333 10.9824 2.83333 9.99336C2.83333 9.00428 3.01971 8.07754 3.39247 7.21313C3.76525 6.34873 4.2786 5.58925 4.93252 4.9347C5.58643 4.28015 6.34835 3.76631 7.21827 3.39317C8.08818 3.02004 9.01768 2.83347 10.0068 2.83347C10.9958 2.83347 11.9226 3.01985 12.787 3.39261C13.6514 3.76539 14.4109 4.27874 15.0654 4.93265C15.72 5.58657 16.2338 6.34686 16.607 7.21353C16.9801 8.08019 17.1667 9.00622 17.1667 9.99161C17.1667 10.977 16.9803 11.9054 16.6075 12.7767C16.2347 13.6481 15.7214 14.411 15.0675 15.0656C14.4136 15.7201 13.6533 16.234 12.7866 16.6071C11.9199 16.9802 10.9939 17.1668 10.0085 17.1668ZM10 16.5001C11.8056 16.5001 13.3403 15.8682 14.6042 14.6043C15.8681 13.3404 16.5 11.8057 16.5 10.0001C16.5 8.19458 15.8681 6.65985 14.6042 5.39597C13.3403 4.13208 11.8056 3.50013 10 3.50013C8.19444 3.50013 6.65972 4.13208 5.39583 5.39597C4.13194 6.65985 3.49999 8.19458 3.49999 10.0001C3.49999 11.8057 4.13194 13.3404 5.39583 14.6043C6.65972 15.8682 8.19444 16.5001 10 16.5001Z" fill="black"/>
</svg>
