<svg width="20" height="20" viewBox="0 0 20 20" fill="none" xmlns="http://www.w3.org/2000/svg">
<path d="M8.08016 15.5834C7.09726 15.5834 6.25431 15.2346 5.55131 14.537C4.84832 13.8393 4.49683 12.9937 4.49683 12.0001C4.49683 11.0065 4.84832 10.1609 5.55131 9.46325C6.25431 8.7656 7.09726 8.41678 8.08016 8.41678H14.1987L11.8446 6.06261L12.3302 5.57703L15.5032 8.75011L12.3302 11.9232L11.8446 11.4376L14.1987 9.08344H8.08016C7.2682 9.08344 6.5791 9.36389 6.01285 9.9248C5.44661 10.4857 5.16349 11.1775 5.16349 12.0001C5.16349 12.8228 5.44661 13.5145 6.01285 14.0754C6.5791 14.6363 7.2682 14.9168 8.08016 14.9168H13.6635V15.5834H8.08016Z" fill="black"/>
</svg>
