<svg width="20" height="20" viewBox="0 0 20 20" fill="none" xmlns="http://www.w3.org/2000/svg">
<path d="M10.0641 15.1668C8.63007 15.1668 7.41045 14.6644 6.40524 13.6597C5.40003 12.655 4.89743 11.436 4.89743 10.0027C4.89743 8.56935 5.40003 7.34949 6.40524 6.34307C7.41045 5.33667 8.63007 4.83347 10.0641 4.83347C10.9989 4.83347 11.8464 5.05835 12.6066 5.50813C13.3667 5.95792 13.9765 6.54874 14.4359 7.28057V4.83347H15.1026V8.35911H11.5769V7.69245H13.8894C13.4973 7.02792 12.9669 6.4964 12.2981 6.09788C11.6293 5.69938 10.8846 5.50013 10.0641 5.50013C8.8141 5.50013 7.7516 5.93763 6.8766 6.81263C6.0016 7.68763 5.5641 8.75013 5.5641 10.0001C5.5641 11.2501 6.0016 12.3126 6.8766 13.1876C7.7516 14.0626 8.8141 14.5001 10.0641 14.5001C11.2308 14.5001 12.2308 14.1147 13.0641 13.3439C13.8974 12.573 14.3766 11.6251 14.5016 10.5001H15.1779C15.0743 11.8313 14.5358 12.9419 13.5625 13.8319C12.5892 14.7218 11.4231 15.1668 10.0641 15.1668Z" fill="black"/>
</svg>
