<svg width="20" height="20" viewBox="0 0 20 20" fill="none" xmlns="http://www.w3.org/2000/svg">
<path d="M16.1666 6.35269V14.9873C16.1666 15.325 16.0545 15.606 15.8302 15.8303C15.6059 16.0546 15.3249 16.1668 14.9872 16.1668H5.01279C4.67508 16.1668 4.39408 16.0546 4.16977 15.8303C3.94547 15.606 3.83331 15.325 3.83331 14.9873V5.01294C3.83331 4.67524 3.94547 4.39423 4.16977 4.16992C4.39408 3.94562 4.67508 3.83347 5.01279 3.83347H13.6474L16.1666 6.35269ZM15.5 6.62513L13.375 4.50013H5.01279C4.86322 4.50013 4.74036 4.54821 4.64421 4.64436C4.54806 4.74051 4.49998 4.86338 4.49998 5.01294V14.9873C4.49998 15.1369 4.54806 15.2598 4.64421 15.3559C4.74036 15.4521 4.86322 15.5001 5.01279 15.5001H14.9872C15.1367 15.5001 15.2596 15.4521 15.3558 15.3559C15.4519 15.2598 15.5 15.1369 15.5 14.9873V6.62513ZM9.99998 13.5322C10.3899 13.5322 10.7235 13.3936 11.0008 13.1163C11.278 12.8391 11.4166 12.5055 11.4166 12.1155C11.4166 11.7256 11.278 11.392 11.0008 11.1147C10.7235 10.8375 10.3899 10.6988 9.99998 10.6988C9.61002 10.6988 9.27642 10.8375 8.99917 11.1147C8.72193 11.392 8.58331 11.7256 8.58331 12.1155C8.58331 12.5055 8.72193 12.8391 8.99917 13.1163C9.27642 13.3936 9.61002 13.5322 9.99998 13.5322ZM6.141 8.30782H11.8269V6.14115H6.141V8.30782ZM4.49998 6.89597V15.5001V4.50013V6.89597Z" fill="black"/>
</svg>
