<svg width="20" height="20" viewBox="0 0 20 20" fill="none" xmlns="http://www.w3.org/2000/svg">
<path d="M13.0802 13.2533L13.5657 12.7678L10.3334 9.53501V5.00013H9.66671V9.83988L13.0802 13.2533ZM10.0028 17.1668C9.01605 17.1668 8.08829 16.9804 7.21954 16.6077C6.3508 16.2349 5.58916 15.7215 4.9346 15.0676C4.28006 14.4137 3.76622 13.6518 3.39308 12.7819C3.01994 11.9119 2.83337 10.9824 2.83337 9.99336C2.83337 9.00428 3.01976 8.07406 3.39252 7.20272C3.7653 6.33137 4.27864 5.57189 4.93256 4.92428C5.58648 4.27668 6.34839 3.76631 7.21831 3.39317C8.08823 3.02004 9.01773 2.83347 10.0068 2.83347C10.9959 2.83347 11.9262 3.02151 12.7976 3.39761C13.669 3.77372 14.4271 4.28415 15.0717 4.9289C15.7163 5.57365 16.2266 6.33183 16.6027 7.20342C16.9787 8.07504 17.1667 9.00634 17.1667 9.99734C17.1667 10.9841 16.9803 11.9119 16.6076 12.7806C16.2348 13.6494 15.7249 14.411 15.0779 15.0656C14.431 15.7201 13.6713 16.234 12.799 16.6071C11.9267 16.9802 10.9946 17.1668 10.0028 17.1668ZM10.01 16.5001C11.8083 16.5001 13.3395 15.8647 14.6037 14.5939C15.8679 13.323 16.5 11.7885 16.5 9.9902C16.5 8.1919 15.8679 6.66065 14.6037 5.39645C13.3395 4.13224 11.8083 3.50013 10.01 3.50013C8.21169 3.50013 6.67712 4.13224 5.40629 5.39645C4.13546 6.66065 3.50004 8.1919 3.50004 9.9902C3.50004 11.7885 4.13546 13.323 5.40629 14.5939C6.67712 15.8647 8.21169 16.5001 10.01 16.5001Z" fill="black"/>
</svg>
