<svg width="20" height="20" viewBox="0 0 20 20" fill="none" xmlns="http://www.w3.org/2000/svg">
<path d="M15.8413 16.295L10.8942 11.3479C10.4775 11.6748 10.0206 11.9251 9.52353 12.0987C9.02642 12.2723 8.52949 12.3591 8.03274 12.3591C6.82253 12.3591 5.79337 11.9353 4.94524 11.0877C4.0971 10.24 3.67303 9.21173 3.67303 8.00273C3.67303 6.79373 4.09685 5.76455 4.94447 4.91519C5.7921 4.06582 6.82041 3.64114 8.02941 3.64114C9.23842 3.64114 10.2676 4.06521 11.117 4.91333C11.9663 5.76146 12.391 6.79063 12.391 8.00085C12.391 8.52964 12.2988 9.0426 12.1146 9.53971C11.9303 10.0368 11.6853 10.4777 11.3798 10.8623L16.3269 15.8094L15.8413 16.295ZM8.03201 11.6924C9.06835 11.6924 9.94281 11.3361 10.6554 10.6235C11.368 9.91091 11.7243 9.03644 11.7243 8.00012C11.7243 6.9638 11.368 6.08934 10.6554 5.37673C9.94281 4.66412 9.06835 4.30781 8.03201 4.30781C6.99569 4.30781 6.12123 4.66412 5.40862 5.37673C4.69602 6.08934 4.33972 6.9638 4.33972 8.00012C4.33972 9.03644 4.69602 9.91091 5.40862 10.6235C6.12123 11.3361 6.99569 11.6924 8.03201 11.6924Z" fill="black"/>
</svg>
