<svg width="20" height="20" viewBox="0 0 20 20" fill="none" xmlns="http://www.w3.org/2000/svg">
<path d="M8.38299 17.5001L8.10256 15.1315C7.87819 15.0375 7.6079 14.9045 7.29166 14.7325C6.97542 14.5605 6.7158 14.3901 6.5128 14.2213L4.33172 15.146L2.71472 12.3335L4.5737 10.9264C4.56302 10.7896 4.54967 10.6379 4.53364 10.4713C4.51761 10.3046 4.5096 10.1529 4.5096 10.0161C4.5096 9.89007 4.51761 9.74638 4.53364 9.58506C4.54967 9.42374 4.56302 9.25334 4.5737 9.07385L2.71472 7.66679L4.33172 4.88633L6.49678 5.795C6.73183 5.61551 6.99411 5.44244 7.28364 5.27577C7.57317 5.1091 7.8408 4.97341 8.08653 4.86871L8.38299 2.50012H11.617L11.8974 4.88473C12.1752 5.0108 12.4402 5.14648 12.6923 5.29179C12.9444 5.43708 13.1934 5.60482 13.4391 5.795L15.6683 4.88633L17.2853 7.66679L15.383 9.12191C15.4151 9.28004 15.4338 9.43442 15.4391 9.58506C15.4444 9.7357 15.4471 9.87405 15.4471 10.0001C15.4471 10.1155 15.4418 10.2485 15.4311 10.3992C15.4204 10.5498 15.4097 10.7202 15.399 10.9104L17.2692 12.3335L15.6522 15.146L13.4391 14.2052C13.1934 14.3954 12.9391 14.5685 12.6763 14.7245C12.4135 14.8805 12.1538 15.0108 11.8974 15.1155L11.617 17.5001H8.38299ZM9.93589 12.146C10.531 12.146 11.0374 11.9371 11.4551 11.5194C11.8729 11.1016 12.0817 10.5952 12.0817 10.0001C12.0817 9.40504 11.8729 8.89863 11.4551 8.48089C11.0374 8.06316 10.531 7.85429 9.93589 7.85429C9.35149 7.85429 8.84774 8.06316 8.42466 8.48089C8.00159 8.89863 7.79006 9.40504 7.79006 10.0001C7.79006 10.5952 8.00159 11.1016 8.42466 11.5194C8.84774 11.9371 9.35149 12.146 9.93589 12.146ZM9.93589 11.2293C9.60256 11.2293 9.31436 11.1078 9.07131 10.8647C8.82825 10.6216 8.70672 10.3335 8.70672 10.0001C8.70672 9.66679 8.82825 9.37859 9.07131 9.13554C9.31436 8.89248 9.60256 8.77096 9.93589 8.77096C10.2692 8.77096 10.5574 8.89248 10.8005 9.13554C11.0435 9.37859 11.1651 9.66679 11.1651 10.0001C11.1651 10.3335 11.0435 10.6216 10.8005 10.8647C10.5574 11.1078 10.2692 11.2293 9.93589 11.2293ZM9.16666 16.5835H10.8173L11.0833 14.3687C11.4754 14.2576 11.8429 14.1016 12.1859 13.9008C12.5288 13.6999 12.8745 13.4307 13.2227 13.0931L15.2596 13.9793L16.109 12.6043L14.3061 11.2341C14.3755 10.9969 14.4215 10.7822 14.4439 10.5899C14.4663 10.3976 14.4776 10.201 14.4776 10.0001C14.4776 9.81636 14.4663 9.63714 14.4439 9.46246C14.4215 9.28777 14.3825 9.0733 14.3269 8.81904L16.1618 7.39596L15.3125 6.02096L13.2276 6.91198C12.9615 6.63527 12.6231 6.37592 12.2123 6.13393C11.8015 5.89195 11.4268 5.73143 11.0881 5.65237L10.8333 3.41679H9.15064L8.91185 5.63633C8.51975 5.72608 8.14769 5.87058 7.79566 6.06983C7.44363 6.26908 7.09347 6.54285 6.74518 6.89114L4.70833 6.02096L3.85897 7.39596L5.62499 8.76614C5.56944 8.967 5.52777 9.17694 5.49999 9.39596C5.47221 9.61497 5.45833 9.8217 5.45833 10.0161C5.45833 10.1999 5.47221 10.3925 5.49999 10.5939C5.52777 10.7953 5.5641 11.0017 5.60897 11.2133L3.85897 12.6043L4.70833 13.9793L6.72916 13.1251C7.05608 13.4414 7.39556 13.6991 7.7476 13.8984C8.09962 14.0976 8.48237 14.2528 8.89583 14.3639L9.16666 16.5835Z" fill="black"/>
</svg>
