<svg width="20" height="20" viewBox="0 0 20 20" fill="none" xmlns="http://www.w3.org/2000/svg">
<path d="M8.38299 17.5001L8.10256 15.1315C7.87819 15.0375 7.6079 14.9045 7.29166 14.7325C6.97542 14.5605 6.7158 14.3901 6.5128 14.2213L4.33172 15.146L2.71472 12.3335L4.5737 10.9264C4.56302 10.7896 4.54967 10.6379 4.53364 10.4713C4.51761 10.3046 4.5096 10.1529 4.5096 10.0161C4.5096 9.89007 4.51761 9.74638 4.53364 9.58506C4.54967 9.42374 4.56302 9.25334 4.5737 9.07385L2.71472 7.66679L4.33172 4.88633L6.49678 5.795C6.73183 5.61551 6.99411 5.44244 7.28364 5.27577C7.57317 5.1091 7.8408 4.97341 8.08653 4.86871L8.38299 2.50012H11.617L11.8974 4.88473C12.1752 5.0108 12.4402 5.14648 12.6923 5.29179C12.9444 5.43708 13.1934 5.60482 13.4391 5.795L15.6683 4.88633L17.2853 7.66679L15.383 9.12191C15.4151 9.28004 15.4338 9.43442 15.4391 9.58506C15.4444 9.7357 15.4471 9.87405 15.4471 10.0001C15.4471 10.1155 15.4418 10.2485 15.4311 10.3992C15.4204 10.5498 15.4097 10.7202 15.399 10.9104L17.2692 12.3335L15.6522 15.146L13.4391 14.2052C13.1934 14.3954 12.9391 14.5685 12.6763 14.7245C12.4135 14.8805 12.1538 15.0108 11.8974 15.1155L11.617 17.5001H8.38299ZM9.93589 12.146C10.531 12.146 11.0374 11.9371 11.4551 11.5194C11.8729 11.1016 12.0817 10.5952 12.0817 10.0001C12.0817 9.40504 11.8729 8.89863 11.4551 8.48089C11.0374 8.06316 10.531 7.85429 9.93589 7.85429C9.35149 7.85429 8.84774 8.06316 8.42466 8.48089C8.00159 8.89863 7.79006 9.40504 7.79006 10.0001C7.79006 10.5952 8.00159 11.1016 8.42466 11.5194C8.84774 11.9371 9.35149 12.146 9.93589 12.146Z" fill="black"/>
</svg>
