<svg width="20" height="20" viewBox="0 0 20 20" fill="none" xmlns="http://www.w3.org/2000/svg">
<path d="M9.1939 12.2854C9.43855 12.5162 9.73556 12.6131 10.0849 12.5763C10.4343 12.5394 10.688 12.4077 10.8461 12.1812L14.891 6.64115L9.31563 10.6595C9.06674 10.8278 8.92306 11.0832 8.88458 11.4256C8.84613 11.768 8.94923 12.0546 9.1939 12.2854ZM10.0208 4.83347C10.8007 4.83347 11.4599 4.91974 11.9984 5.09228C12.5368 5.26482 13.0555 5.47342 13.5545 5.71807L12.9343 6.17482C12.5133 5.96221 12.075 5.7966 11.6194 5.67801C11.1637 5.55942 10.6309 5.50013 10.0208 5.50013C8.21399 5.50013 6.67549 6.14944 5.40529 7.44805C4.13508 8.74666 3.49998 10.264 3.49998 12.0001C3.49998 12.5279 3.53817 12.9619 3.61456 13.3022C3.69095 13.6425 3.81248 14.0418 3.97915 14.5001H16C16.1805 14.0418 16.309 13.6217 16.3854 13.2397C16.4618 12.8578 16.5 12.4446 16.5 12.0001C16.5 11.4168 16.4148 10.7934 16.2444 10.1299C16.074 9.46649 15.8146 8.87567 15.4663 8.35751L15.8814 7.82063C16.3568 8.53003 16.6926 9.22608 16.8886 9.90878C17.0846 10.5915 17.1773 11.2854 17.1666 11.9905C17.156 12.6241 17.1076 13.154 17.0216 13.5803C16.9356 14.0065 16.7767 14.4312 16.5449 14.8543C16.4914 14.9515 16.4212 15.0279 16.3341 15.0835C16.247 15.139 16.1357 15.1668 16 15.1668H3.99998C3.87498 15.1668 3.77161 15.1364 3.68988 15.0755C3.60815 15.0146 3.5299 14.9195 3.4551 14.7902C3.27669 14.4846 3.12845 14.1134 3.0104 13.6764C2.89234 13.2395 2.83331 12.6668 2.83331 11.9585C2.83331 10.9794 3.02066 10.0551 3.39535 9.18545C3.77005 8.31583 4.2762 7.56006 4.91379 6.91813C5.55138 6.27622 6.31125 5.76829 7.19342 5.39436C8.07557 5.02043 9.01804 4.83347 10.0208 4.83347Z" fill="black"/>
</svg>
