<svg width="20" height="20" viewBox="0 0 20 20" fill="none" xmlns="http://www.w3.org/2000/svg">
<path d="M5.0449 15.4552V14.7886H6.87502L6.33015 14.2116C5.77994 13.6668 5.32347 13.0436 4.96075 12.3423C4.59804 11.6409 4.41669 10.8708 4.41669 10.0321C4.41669 8.83237 4.76017 7.75999 5.44712 6.815C6.1341 5.87003 7.01284 5.19348 8.08335 4.78536V5.48248C7.19767 5.86602 6.47626 6.46298 5.9191 7.27334C5.36194 8.08371 5.08335 9.00332 5.08335 10.0321C5.08335 10.7522 5.22946 11.4211 5.52167 12.0386C5.81386 12.6561 6.21049 13.1876 6.71156 13.6331L7.35258 14.2741V12.4809H8.01925V15.4552H5.0449ZM11.9167 15.2149V14.5177C12.8024 14.1342 13.5238 13.5372 14.081 12.7269C14.6381 11.9165 14.9167 10.9969 14.9167 9.96807C14.9167 9.24797 14.7706 8.57916 14.4784 7.96165C14.1862 7.34412 13.7895 6.8126 13.2885 6.36709L12.6475 5.72607V7.51934H11.9808V4.54498H14.9551V5.21165H13.125L13.6699 5.78857C14.2522 6.30139 14.7166 6.9165 15.0633 7.63392C15.41 8.35134 15.5834 9.12939 15.5834 9.96807C15.5834 11.1678 15.2399 12.2402 14.5529 13.1852C13.8659 14.1302 12.9872 14.8067 11.9167 15.2149Z" fill="black"/>
</svg>
