<svg width="20" height="20" viewBox="0 0 20 20" fill="none" xmlns="http://www.w3.org/2000/svg">
<path d="M6 14.1668C4.84259 14.1668 3.85879 13.7621 3.0486 12.9526C2.23842 12.1432 1.83333 11.1603 1.83333 10.0039C1.83333 8.84754 2.23842 7.86338 3.0486 7.0514C3.85879 6.23944 4.84259 5.83347 6 5.83347H14C15.1574 5.83347 16.1412 6.23819 16.9514 7.04763C17.7616 7.85709 18.1667 8.84 18.1667 9.99636C18.1667 11.1527 17.7616 12.1369 16.9514 12.9489C16.1412 13.7608 15.1574 14.1668 14 14.1668H6ZM5.99812 12.0835C6.5763 12.0835 7.06838 11.8811 7.47435 11.4764C7.88034 11.0717 8.08333 10.5802 8.08333 10.002C8.08333 9.42383 7.88097 8.93175 7.47624 8.52578C7.07152 8.11979 6.58006 7.9168 6.00187 7.9168C5.42369 7.9168 4.93161 8.11916 4.52564 8.52388C4.11965 8.92862 3.91666 9.42008 3.91666 9.99826C3.91666 10.5764 4.11902 11.0685 4.52375 11.4745C4.92847 11.8805 5.41993 12.0835 5.99812 12.0835Z" fill="black"/>
</svg>
