<svg width="20" height="20" viewBox="0 0 20 20" fill="none" xmlns="http://www.w3.org/2000/svg">
<path d="M6 14.1668C4.84259 14.1668 3.85879 13.7621 3.0486 12.9526C2.23842 12.1432 1.83333 11.1603 1.83333 10.0039C1.83333 8.84754 2.23842 7.86338 3.0486 7.0514C3.85879 6.23944 4.84259 5.83347 6 5.83347H14C15.1574 5.83347 16.1412 6.23819 16.9514 7.04763C17.7616 7.85709 18.1667 8.84 18.1667 9.99636C18.1667 11.1527 17.7616 12.1369 16.9514 12.9489C16.1412 13.7608 15.1574 14.1668 14 14.1668H6ZM13.9981 12.0835C14.5763 12.0835 15.0684 11.8811 15.4743 11.4764C15.8803 11.0717 16.0833 10.5802 16.0833 10.002C16.0833 9.42383 15.881 8.93175 15.4762 8.52578C15.0715 8.11979 14.5801 7.9168 14.0019 7.9168C13.4237 7.9168 12.9316 8.11916 12.5256 8.52388C12.1197 8.92862 11.9167 9.42008 11.9167 9.99826C11.9167 10.5764 12.119 11.0685 12.5237 11.4745C12.9285 11.8805 13.4199 12.0835 13.9981 12.0835Z" fill="black"/>
</svg>
