<svg width="20" height="20" viewBox="0 0 20 20" fill="none" xmlns="http://www.w3.org/2000/svg">
<path d="M10.1987 16.7181L13.1843 8.75654H14.6042L17.5898 16.7181H16.2324L15.5064 14.6652H12.2821L11.5881 16.7181H10.1987ZM12.718 13.5146H15.0705L13.9199 10.2181H13.8686L12.718 13.5146ZM4.57852 14.6027L3.6971 13.7005L7.05608 10.3831C6.64155 9.95152 6.25106 9.49906 5.8846 9.02577C5.51816 8.55248 5.19658 8.04125 4.91987 7.4921H6.33973C6.55769 7.86177 6.80235 8.20633 7.07371 8.52577C7.34508 8.84521 7.61538 9.16038 7.8846 9.47127C8.32692 8.98409 8.74092 8.48062 9.1266 7.96085C9.51228 7.44109 9.81731 6.87725 10.0417 6.26935H2.44229V5.02575H7.29487V3.28217H8.53846V5.02575H13.391V6.26935H11.3686C11.1197 7.06742 10.7575 7.8006 10.282 8.46887C9.80662 9.13714 9.29434 9.77523 8.74519 10.3831L10.3205 11.9376L9.83333 13.2229L7.91667 11.3062L4.57852 14.6027Z" fill="black"/>
</svg>
