<svg width="20" height="20" viewBox="0 0 20 20" fill="none" xmlns="http://www.w3.org/2000/svg">
<path d="M6.33658 15.5834V14.9168H11.9199C12.7319 14.9168 13.421 14.6363 13.9872 14.0754C14.5535 13.5145 14.8366 12.8228 14.8366 12.0001C14.8366 11.1775 14.5535 10.4857 13.9872 9.9248C13.421 9.36389 12.7319 9.08344 11.9199 9.08344H5.80133L8.15549 11.4376L7.66991 11.9232L4.49683 8.75011L7.66991 5.57703L8.15549 6.06261L5.80133 8.41678H11.9199C12.9028 8.41678 13.7458 8.7656 14.4488 9.46325C15.1517 10.1609 15.5032 11.0065 15.5032 12.0001C15.5032 12.9937 15.1517 13.8393 14.4488 14.537C13.7458 15.2346 12.9028 15.5834 11.9199 15.5834H6.33658Z" fill="black"/>
</svg>
