<svg width="20" height="20" viewBox="0 0 20 20" fill="none" xmlns="http://www.w3.org/2000/svg">
<path d="M10.0038 12.795C10.7812 12.795 11.4407 12.5229 11.9824 11.9787C12.524 11.4346 12.7949 10.7738 12.7949 9.99636C12.7949 9.21896 12.5228 8.55942 11.9786 8.01776C11.4344 7.47609 10.7736 7.20526 9.99622 7.20526C9.21882 7.20526 8.55929 7.47735 8.01762 8.02153C7.47595 8.56571 7.20512 9.2265 7.20512 10.0039C7.20512 10.7813 7.47721 11.4408 8.02139 11.9825C8.56557 12.5242 9.22636 12.795 10.0038 12.795ZM9.99999 12.0001C9.44444 12.0001 8.97222 11.8057 8.58333 11.4168C8.19444 11.0279 7.99999 10.5557 7.99999 10.0001C7.99999 9.44458 8.19444 8.97235 8.58333 8.58347C8.97222 8.19458 9.44444 8.00013 9.99999 8.00013C10.5555 8.00013 11.0278 8.19458 11.4167 8.58347C11.8055 8.97235 12 9.44458 12 10.0001C12 10.5557 11.8055 11.0279 11.4167 11.4168C11.0278 11.8057 10.5555 12.0001 9.99999 12.0001ZM10.0023 15.1668C8.24462 15.1668 6.64269 14.6964 5.19651 13.7557C3.75032 12.815 2.65062 11.5632 1.89743 10.0001C2.65062 8.43709 3.74956 7.18522 5.19422 6.24453C6.63888 5.30382 8.24004 4.83347 9.9977 4.83347C11.7554 4.83347 13.3573 5.30382 14.8035 6.24453C16.2497 7.18522 17.3494 8.43709 18.1026 10.0001C17.3494 11.5632 16.2504 12.815 14.8058 13.7557C13.3611 14.6964 11.76 15.1668 10.0023 15.1668ZM9.99999 14.5001C11.5555 14.5001 12.993 14.0974 14.3125 13.2918C15.6319 12.4862 16.6458 11.389 17.3542 10.0001C16.6458 8.61124 15.6319 7.51402 14.3125 6.70847C12.993 5.90291 11.5555 5.50013 9.99999 5.50013C8.44444 5.50013 7.00694 5.90291 5.68749 6.70847C4.36805 7.51402 3.35416 8.61124 2.64583 10.0001C3.35416 11.389 4.36805 12.4862 5.68749 13.2918C7.00694 14.0974 8.44444 14.5001 9.99999 14.5001Z" fill="black"/>
</svg>
