<svg width="20" height="20" viewBox="0 0 20 20" fill="none" xmlns="http://www.w3.org/2000/svg">
<path d="M12.726 10.6011L11.9792 9.85428C12.0347 9.25171 11.8563 8.77815 11.4439 8.43361C11.0315 8.08906 10.5988 7.94456 10.1458 8.00011L9.39903 7.25332C9.48344 7.23729 9.57745 7.22527 9.68108 7.21726C9.78472 7.20924 9.89102 7.20524 9.99999 7.20524C10.7799 7.20524 11.4407 7.47607 11.9824 8.01774C12.524 8.55941 12.7949 9.2202 12.7949 10.0001C12.7949 10.1091 12.7909 10.2207 12.7828 10.3351C12.7748 10.4494 12.7559 10.538 12.726 10.6011ZM15.4647 13.3078L14.9583 12.8334C15.4583 12.4446 15.9132 12.0175 16.3229 11.5522C16.7326 11.0869 17.0764 10.5696 17.3542 10.0001C16.6736 8.59734 15.6701 7.49664 14.3437 6.69803C13.0174 5.89942 11.5694 5.50011 9.99999 5.50011C9.63888 5.50011 9.28472 5.52095 8.93749 5.56261C8.59027 5.60428 8.24999 5.67372 7.91666 5.77095L7.34935 5.20363C7.79165 5.04872 8.23903 4.94829 8.69149 4.90234C9.14395 4.85641 9.58012 4.83345 9.99999 4.83345C11.6976 4.83345 13.2999 5.28884 14.8069 6.19963C16.3138 7.11043 17.4124 8.37725 18.1026 10.0001C17.8184 10.6422 17.4549 11.2301 17.012 11.7637C16.5692 12.2974 16.0534 12.8121 15.4647 13.3078ZM15.9359 16.9072L13.484 14.4232C13.0737 14.6283 12.5676 14.8035 11.9655 14.9488C11.3635 15.0941 10.7083 15.1668 9.99999 15.1668C8.29166 15.1668 6.68936 14.7114 5.1931 13.8006C3.69683 12.8898 2.59828 11.623 1.89743 10.0001C2.23503 9.20845 2.69656 8.48088 3.28203 7.81743C3.86751 7.15397 4.5096 6.5904 5.20833 6.12672L3.09293 4.04338L3.57851 3.5578L16.4215 16.4216L15.9359 16.9072ZM5.69389 6.63313C5.133 7.00065 4.56142 7.47847 3.97916 8.06661C3.3969 8.65477 2.95245 9.29927 2.64583 10.0001C3.32638 11.4029 4.32985 12.5036 5.65624 13.3022C6.98263 14.1008 8.43055 14.5001 9.99999 14.5001C10.5641 14.5001 11.1319 14.4464 11.7035 14.3391C12.2751 14.2317 12.7185 14.1096 13.0336 13.9729L11.4872 12.4584C11.3141 12.5599 11.0823 12.6414 10.7917 12.7028C10.5011 12.7643 10.2372 12.795 9.99999 12.795C9.22008 12.795 8.55929 12.5242 8.01762 11.9825C7.47595 11.4408 7.20512 10.78 7.20512 10.0001C7.20512 9.77361 7.24278 9.51774 7.3181 9.23249C7.39342 8.94722 7.46794 8.70737 7.54166 8.51293L5.69389 6.63313Z" fill="black"/>
</svg>
