<svg width="20" height="20" viewBox="0 0 20 20" fill="none" xmlns="http://www.w3.org/2000/svg">
<path d="M7.89594 14.5418C7.74843 14.5418 7.61599 14.497 7.49861 14.4076C7.38124 14.3181 7.29516 14.2042 7.24038 14.0658L5.64103 10.3335H1.8654V9.66679H6.08494L7.89424 13.9552L11.4519 5.89756C11.5063 5.7653 11.5917 5.65637 11.7081 5.57079C11.8246 5.48521 11.9566 5.44241 12.1041 5.44241C12.2516 5.44241 12.384 5.48716 12.5014 5.57666C12.6188 5.66616 12.7049 5.78007 12.7596 5.91839L14.391 9.66679H18.1667V10.3335H13.968L12.1058 6.02898L8.54809 14.0867C8.49374 14.2189 8.40834 14.3279 8.29188 14.4134C8.17544 14.499 8.04346 14.5418 7.89594 14.5418Z" fill="black"/>
</svg>
