<svg width="20" height="20" viewBox="0 0 20 20" fill="none" xmlns="http://www.w3.org/2000/svg">
<path d="M4.01285 16.1668C3.67515 16.1668 3.39414 16.0546 3.16983 15.8303C2.94553 15.606 2.83337 15.325 2.83337 14.9873V7.01292C2.83337 6.67522 2.94553 6.39421 3.16983 6.1699C3.39414 5.9456 3.67515 5.83345 4.01285 5.83345H7.83337V4.84184C7.83337 4.50291 7.94571 4.22233 8.17037 4.00011C8.39503 3.77789 8.67646 3.66678 9.01469 3.66678H10.9927C11.3309 3.66678 11.6112 3.77893 11.8334 4.00324C12.0556 4.22754 12.1667 4.50855 12.1667 4.84626V5.83345H15.9872C16.3249 5.83345 16.6059 5.9456 16.8302 6.1699C17.0546 6.39421 17.1667 6.67522 17.1667 7.01292V14.9873C17.1667 15.325 17.0546 15.606 16.8302 15.8303C16.6059 16.0546 16.3249 16.1668 15.9872 16.1668H4.01285ZM4.01285 15.5001H15.9872C16.1154 15.5001 16.2329 15.4467 16.3398 15.3399C16.4466 15.233 16.5 15.1155 16.5 14.9873V7.01292C16.5 6.88473 16.4466 6.76721 16.3398 6.66036C16.2329 6.55353 16.1154 6.50011 15.9872 6.50011H4.01285C3.88466 6.50011 3.76714 6.55353 3.66029 6.66036C3.55346 6.76721 3.50004 6.88473 3.50004 7.01292V14.9873C3.50004 15.1155 3.55346 15.233 3.66029 15.3399C3.76714 15.4467 3.88466 15.5001 4.01285 15.5001ZM8.50004 5.83345H11.5V4.84626C11.5 4.71805 11.4466 4.60053 11.3398 4.4937C11.2329 4.38686 11.1154 4.33345 10.9872 4.33345H9.01285C8.88466 4.33345 8.76714 4.38686 8.66029 4.4937C8.55346 4.60053 8.50004 4.71805 8.50004 4.84626V5.83345Z" fill="black"/>
</svg>
