<svg width="16" height="16" viewBox="0 0 16 16" fill="none" xmlns="http://www.w3.org/2000/svg">
<path d="M4.18076 11.5064C4.78076 11.1098 5.39038 10.8152 6.00961 10.6224C6.62885 10.4297 7.29231 10.3333 8 10.3333C8.70768 10.3333 9.37115 10.4297 9.99038 10.6224C10.6096 10.8152 11.2192 11.1098 11.8192 11.5064C12.2594 11.0509 12.5996 10.5239 12.8397 9.92563C13.0799 9.32734 13.2 8.68546 13.2 8C13.2 6.55916 12.6932 5.33228 11.6795 4.31936C10.6658 3.30645 9.43806 2.8 7.99616 2.8C6.55427 2.8 5.32777 3.30645 4.31666 4.31936C3.30555 5.33228 2.8 6.55916 2.8 8C2.8 8.68546 2.92008 9.32734 3.16025 9.92563C3.40042 10.5239 3.7406 11.0509 4.18076 11.5064ZM8 8.86666C7.42734 8.86666 6.93973 8.66538 6.53718 8.26281C6.13461 7.86026 5.93333 7.37265 5.93333 6.8C5.93333 6.22734 6.13461 5.73974 6.53718 5.33718C6.93973 4.93461 7.42734 4.73333 8 4.73333C8.57265 4.73333 9.06026 4.93461 9.46281 5.33718C9.86538 5.73974 10.0667 6.22734 10.0667 6.8C10.0667 7.37265 9.86538 7.86026 9.46281 8.26281C9.06026 8.66538 8.57265 8.86666 8 8.86666ZM8.0046 13.7333C7.20922 13.7333 6.46324 13.5859 5.76666 13.291C5.07009 12.9962 4.46004 12.587 3.93653 12.0635C3.41303 11.54 3.00384 10.9301 2.70896 10.234C2.4141 9.53791 2.26666 8.79069 2.26666 7.99236C2.26666 7.19403 2.4141 6.44935 2.70896 5.75833C3.00384 5.06731 3.41303 4.46004 3.93653 3.93653C4.46004 3.41303 5.06985 3.00384 5.76596 2.70896C6.46209 2.4141 7.20931 2.26666 8.00763 2.26666C8.80596 2.26666 9.55064 2.4141 10.2417 2.70896C10.9327 3.00384 11.54 3.41303 12.0635 3.93653C12.587 4.46004 12.9962 5.06855 13.291 5.76206C13.5859 6.45559 13.7333 7.20003 13.7333 7.9954C13.7333 8.79077 13.5859 9.53675 13.291 10.2333C12.9962 10.9299 12.587 11.54 12.0635 12.0635C11.54 12.587 10.9314 12.9962 10.2379 13.291C9.54441 13.5859 8.79996 13.7333 8.0046 13.7333Z" fill="black"/>
</svg>
