<svg width="16" height="16" viewBox="0 0 16 16" fill="none" xmlns="http://www.w3.org/2000/svg">
<path d="M8 13.7333C7.20225 13.7333 6.45251 13.5846 5.75076 13.287C5.04902 12.9895 4.44167 12.5842 3.92871 12.0713C3.41576 11.5583 3.01051 10.951 2.71296 10.2492C2.41543 9.54749 2.26666 8.79774 2.26666 8C2.26666 7.19159 2.41543 6.43917 2.71296 5.74276C3.01051 5.04635 3.41576 4.44167 3.92871 3.92871C4.44167 3.41576 5.04902 3.01051 5.75076 2.71296C6.45251 2.41543 7.20225 2.26666 8 2.26666C8.80841 2.26666 9.56082 2.41543 10.2572 2.71296C10.9536 3.01051 11.5583 3.41576 12.0713 3.92871C12.5842 4.44167 12.9895 5.04635 13.287 5.74276C13.5846 6.43917 13.7333 7.19159 13.7333 8V8.69231C13.7333 9.20768 13.5515 9.64336 13.1878 9.99935C12.8241 10.3553 12.3822 10.5333 11.8621 10.5333C11.4446 10.5333 11.0968 10.4197 10.8186 10.1923C10.5404 9.96496 10.3244 9.65726 10.1705 9.26923C9.91068 9.64274 9.61431 9.9468 9.28141 10.1814C8.9485 10.416 8.5199 10.5333 7.9956 10.5333C7.29096 10.5333 6.69331 10.2872 6.20265 9.79495C5.71199 9.30269 5.46666 8.70312 5.46666 7.99623C5.46666 7.28934 5.71279 6.69102 6.20505 6.20128C6.6973 5.71154 7.29687 5.46666 8.00376 5.46666C8.71065 5.46666 9.30897 5.71242 9.79871 6.20395C10.2885 6.69547 10.5333 7.29415 10.5333 8V8.69231C10.5333 9.02991 10.6605 9.33226 10.9147 9.59936C11.169 9.86645 11.4863 10 11.8667 10C12.247 10 12.5643 9.86645 12.8186 9.59936C13.0729 9.33226 13.2 9.02991 13.2 8.69231V8C13.2 6.55555 12.6944 5.32777 11.6833 4.31666C10.6722 3.30555 9.44444 2.8 8 2.8C6.55555 2.8 5.32777 3.30555 4.31666 4.31666C3.30555 5.32777 2.8 6.55555 2.8 8C2.8 9.44444 3.30555 10.6722 4.31666 11.6833C5.32777 12.6944 6.55555 13.2 8 13.2H11.2V13.7333H8ZM8 10C8.55555 10 9.02777 9.80555 9.41666 9.41666C9.80555 9.02777 10 8.55555 10 8C10 7.44444 9.80555 6.97222 9.41666 6.58333C9.02777 6.19444 8.55555 6 8 6C7.44444 6 6.97222 6.19444 6.58333 6.58333C6.19444 6.97222 6 7.44444 6 8C6 8.55555 6.19444 9.02777 6.58333 9.41666C6.97222 9.80555 7.44444 10 8 10Z" fill="black"/>
</svg>
