<svg width="16" height="16" viewBox="0 0 16 16" fill="none" xmlns="http://www.w3.org/2000/svg">
<path d="M7.6 14.2461C6.67178 14.2461 5.89101 13.91 5.25768 13.2378C4.62434 12.5656 4.30768 11.7709 4.30768 10.8538V3.96022C4.30768 3.30147 4.53786 2.73913 4.99823 2.27321C5.4586 1.8073 6.01816 1.57434 6.67691 1.57434C7.3579 1.57434 7.92302 1.82119 8.37228 2.31487C8.82152 2.80857 9.04614 3.39036 9.04614 4.06022V10.4936C9.04614 10.8949 8.90265 11.2335 8.61566 11.5093C8.32867 11.7852 7.99 11.9231 7.59963 11.9231C7.17594 11.9231 6.82905 11.7713 6.55896 11.4677C6.28888 11.1641 6.15384 10.8116 6.15384 10.4102V3.74356H6.94358V10.4936C6.94358 10.6773 7.00705 10.8327 7.13398 10.9596C7.2609 11.0865 7.41624 11.15 7.6 11.15C7.78375 11.15 7.93909 11.0865 8.06601 10.9596C8.19295 10.8327 8.25641 10.6773 8.25641 10.4936V3.96022C8.25641 3.52108 8.10285 3.14527 7.79571 2.83279C7.48858 2.52031 7.11528 2.36407 6.67583 2.36407C6.23638 2.36407 5.86346 2.52309 5.55705 2.84112C5.25063 3.15916 5.09743 3.5433 5.09743 3.99356V10.9705C5.09743 11.6713 5.34209 12.2609 5.83141 12.7391C6.32072 13.2173 6.91025 13.4564 7.6 13.4564C8.32307 13.4564 8.92093 13.2034 9.39358 12.6974C9.86623 12.1914 10.1026 11.588 10.1026 10.8872V3.74356H10.8923V10.9705C10.8923 11.8765 10.5729 12.6489 9.93398 13.2878C9.29509 13.9267 8.5171 14.2461 7.6 14.2461Z" fill="black"/>
</svg>
