<svg width="16" height="16" viewBox="0 0 16 16" fill="none" xmlns="http://www.w3.org/2000/svg">
<path d="M7.19997 12.5949C7.58458 12.5949 7.91322 12.4585 8.18587 12.1859C8.45852 11.9132 8.59484 11.5846 8.59484 11.2V8.64615H10.4154V7.35385H7.94869V10.1115C7.84357 10.0192 7.73139 9.94509 7.61215 9.8891C7.49292 9.83312 7.35553 9.80513 7.19997 9.80513C6.81536 9.80513 6.48673 9.94145 6.21407 10.2141C5.94143 10.4868 5.80511 10.8154 5.80511 11.2C5.80511 11.5846 5.94143 11.9132 6.21407 12.1859C6.48673 12.4585 6.81536 12.5949 7.19997 12.5949ZM4.8055 13.7333C4.53515 13.7333 4.31108 13.6436 4.1333 13.4642C3.95553 13.2847 3.86664 13.0599 3.86664 12.7897V3.21025C3.86664 2.94008 3.95636 2.71527 4.1358 2.53583C4.31525 2.35639 4.54005 2.26666 4.81022 2.26666H9.93331L12.1333 4.46666V12.7897C12.1333 13.0599 12.0435 13.2847 11.8639 13.4642C11.6844 13.6436 11.4594 13.7333 11.189 13.7333H4.8055ZM9.46664 4.93333V2.8H4.81022C4.70767 2.8 4.61365 2.84273 4.52817 2.9282C4.4427 3.01367 4.39997 3.10769 4.39997 3.21025V12.7897C4.39997 12.8923 4.4427 12.9863 4.52817 13.0718C4.61365 13.1573 4.70767 13.2 4.81022 13.2H11.1897C11.2923 13.2 11.3863 13.1573 11.4718 13.0718C11.5572 12.9863 11.6 12.8923 11.6 12.7897V4.93333H9.46664Z" fill="black"/>
</svg>
