<svg width="16" height="16" viewBox="0 0 16 16" fill="none" xmlns="http://www.w3.org/2000/svg">
<path d="M8.00223 13.7333C7.21697 13.7333 6.47581 13.5842 5.77873 13.286C5.08165 12.9878 4.47129 12.5771 3.94765 12.054C3.42401 11.5308 3.01294 10.9211 2.71443 10.2247C2.41592 9.5283 2.26666 8.78747 2.26666 8.00223C2.26666 7.20586 2.41577 6.46192 2.71398 5.7704C3.0122 5.07887 3.42288 4.47129 3.94601 3.94765C4.46915 3.42401 5.07891 3.01294 5.7753 2.71443C6.4717 2.41592 7.21252 2.26666 7.99776 2.26666C8.79413 2.26666 9.53807 2.41577 10.2296 2.71398C10.9211 3.0122 11.5287 3.42288 12.0523 3.94601C12.576 4.46915 12.9871 5.07613 13.2856 5.76696C13.5841 6.45781 13.7333 7.20141 13.7333 7.99776C13.7333 8.78302 13.5842 9.52419 13.286 10.2213C12.9878 10.9183 12.5771 11.5287 12.054 12.0523C11.5308 12.576 10.9239 12.9871 10.233 13.2856C9.54219 13.5841 8.79859 13.7333 8.00223 13.7333ZM8 13.2C9.44444 13.2 10.6722 12.6944 11.6833 11.6833C12.6944 10.6722 13.2 9.44444 13.2 8C13.2 7.33794 13.0808 6.7111 12.8423 6.11948C12.6038 5.52786 12.2769 4.997 11.8615 4.52691L4.52691 11.8615C4.997 12.2855 5.52786 12.6145 6.11948 12.8487C6.7111 13.0829 7.33794 13.2 8 13.2ZM4.13846 11.4731L11.4731 4.13846C11.0115 3.70598 10.4836 3.37479 9.88918 3.14486C9.29478 2.91495 8.66505 2.8 8 2.8C6.55555 2.8 5.32777 3.30555 4.31666 4.31666C3.30555 5.32777 2.8 6.55555 2.8 8C2.8 8.66205 2.91709 9.28889 3.15128 9.88051C3.38547 10.4721 3.71453 11.003 4.13846 11.4731Z" fill="black"/>
</svg>
