<svg width="16" height="16" viewBox="0 0 16 16" fill="none" xmlns="http://www.w3.org/2000/svg">
<path d="M4.01023 13.7333C3.74007 13.7333 3.51526 13.6416 3.33582 13.4583C3.15637 13.275 3.06665 13.0521 3.06665 12.7897V4.81023C3.06665 4.54784 3.15637 4.32498 3.33582 4.14164C3.51526 3.95831 3.74007 3.86664 4.01023 3.86664H5.72305V2.11279H6.30767V3.86664H9.74357V2.11279H10.2769V3.86664H11.9897C12.2599 3.86664 12.4847 3.95831 12.6642 4.14164C12.8436 4.32498 12.9333 4.54784 12.9333 4.81023V12.7897C12.9333 13.0521 12.8436 13.275 12.6642 13.4583C12.4847 13.6416 12.2599 13.7333 11.9897 13.7333H4.01023ZM4.01023 13.2H11.9897C12.0923 13.2 12.1863 13.1572 12.2718 13.0718C12.3573 12.9863 12.4 12.8923 12.4 12.7897V7.61023H3.59998V12.7897C3.59998 12.8923 3.64272 12.9863 3.72818 13.0718C3.81366 13.1572 3.90768 13.2 4.01023 13.2ZM3.59998 7.07689H12.4V4.81023C12.4 4.70767 12.3573 4.61365 12.2718 4.52818C12.1863 4.44271 12.0923 4.39998 11.9897 4.39998H4.01023C3.90768 4.39998 3.81366 4.44271 3.72818 4.52818C3.64272 4.61365 3.59998 4.70767 3.59998 4.81023V7.07689ZM8.0035 9.70254C7.88577 9.70254 7.78139 9.6582 7.69037 9.56951C7.59935 9.48082 7.55383 9.37761 7.55383 9.25989C7.55383 9.14217 7.59818 9.0378 7.68687 8.94678C7.77555 8.85574 7.87875 8.81023 7.99647 8.81023C8.1142 8.81023 8.21858 8.85457 8.3096 8.94326C8.40062 9.03195 8.44613 9.13515 8.44613 9.25288C8.44613 9.3706 8.40179 9.47497 8.3131 9.56599C8.22442 9.65703 8.12122 9.70254 8.0035 9.70254ZM5.4035 9.70254C5.28577 9.70254 5.18139 9.6582 5.09037 9.56951C4.99935 9.48082 4.95383 9.37761 4.95383 9.25989C4.95383 9.14217 4.99818 9.0378 5.08687 8.94678C5.17555 8.85574 5.27874 8.81023 5.39647 8.81023C5.5142 8.81023 5.61858 8.85457 5.7096 8.94326C5.80062 9.03195 5.84613 9.13515 5.84613 9.25288C5.84613 9.3706 5.80179 9.47497 5.7131 9.56599C5.62442 9.65703 5.52122 9.70254 5.4035 9.70254ZM10.6035 9.70254C10.4858 9.70254 10.3814 9.6582 10.2904 9.56951C10.1993 9.48082 10.1538 9.37761 10.1538 9.25989C10.1538 9.14217 10.1982 9.0378 10.2869 8.94678C10.3755 8.85574 10.4787 8.81023 10.5965 8.81023C10.7142 8.81023 10.8186 8.85457 10.9096 8.94326C11.0006 9.03195 11.0461 9.13515 11.0461 9.25288C11.0461 9.3706 11.0018 9.47497 10.9131 9.56599C10.8244 9.65703 10.7212 9.70254 10.6035 9.70254ZM8.0035 12C7.88577 12 7.78139 11.9556 7.69037 11.8669C7.59935 11.7783 7.55383 11.675 7.55383 11.5573C7.55383 11.4396 7.59818 11.3352 7.68687 11.2442C7.77555 11.1532 7.87875 11.1077 7.99647 11.1077C8.1142 11.1077 8.21858 11.152 8.3096 11.2407C8.40062 11.3294 8.44613 11.4326 8.44613 11.5503C8.44613 11.668 8.40179 11.7724 8.3131 11.8634C8.22442 11.9545 8.12122 12 8.0035 12ZM5.4035 12C5.28577 12 5.18139 11.9556 5.09037 11.8669C4.99935 11.7783 4.95383 11.675 4.95383 11.5573C4.95383 11.4396 4.99818 11.3352 5.08687 11.2442C5.17555 11.1532 5.27874 11.1077 5.39647 11.1077C5.5142 11.1077 5.61858 11.152 5.7096 11.2407C5.80062 11.3294 5.84613 11.4326 5.84613 11.5503C5.84613 11.668 5.80179 11.7724 5.7131 11.8634C5.62442 11.9545 5.52122 12 5.4035 12ZM10.6035 12C10.4858 12 10.3814 11.9556 10.2904 11.8669C10.1993 11.7783 10.1538 11.675 10.1538 11.5573C10.1538 11.4396 10.1982 11.3352 10.2869 11.2442C10.3755 11.1532 10.4787 11.1077 10.5965 11.1077C10.7142 11.1077 10.8186 11.152 10.9096 11.2407C11.0006 11.3294 11.0461 11.4326 11.0461 11.5503C11.0461 11.668 11.0018 11.7724 10.9131 11.8634C10.8244 11.9545 10.7212 12 10.6035 12Z" fill="black"/>
</svg>
