<svg width="16" height="16" viewBox="0 0 16 16" fill="none" xmlns="http://www.w3.org/2000/svg">
<path d="M12.0244 12.8397C10.9312 12.7286 9.8688 12.4105 8.83717 11.8853C7.80555 11.36 6.88268 10.6876 6.06857 9.86794C5.25447 9.04828 4.5799 8.12478 4.04486 7.09742C3.50981 6.07008 3.19229 5.00982 3.09229 3.91665C3.07007 3.68332 3.13832 3.48054 3.29706 3.30832C3.45579 3.1361 3.6542 3.04999 3.89229 3.04999H5.10769C5.33077 3.04999 5.51816 3.11195 5.66986 3.23589C5.82157 3.35981 5.9282 3.52904 5.98974 3.74357L6.28717 4.78332C6.31794 4.93374 6.31238 5.08203 6.27051 5.22819C6.22863 5.37434 6.14914 5.49742 6.03204 5.59742L4.58204 6.96152C5.16836 7.994 5.82392 8.87049 6.54871 9.591C7.2735 10.3115 8.13503 10.9308 9.13332 11.4487L10.6295 9.95127C10.7577 9.82306 10.8745 9.74934 10.98 9.73012C11.0855 9.71089 11.2016 9.71665 11.3282 9.74742L12.2141 9.95127C12.4286 10.0043 12.5979 10.111 12.7218 10.2714C12.8457 10.4318 12.9077 10.6247 12.9077 10.85V12.0397C12.9077 12.3397 12.8021 12.5508 12.591 12.6731C12.3799 12.7953 12.191 12.8508 12.0244 12.8397ZM4.33974 6.43589L5.68589 5.19229C5.72862 5.1581 5.7564 5.11109 5.76922 5.05127C5.78204 4.99144 5.77991 4.93588 5.76281 4.88461L5.46399 3.78845C5.44689 3.72008 5.41697 3.66879 5.37424 3.6346C5.33151 3.60042 5.27595 3.58332 5.20757 3.58332H3.82562C3.77434 3.58332 3.73161 3.60042 3.69742 3.6346C3.66323 3.66879 3.64614 3.71153 3.64614 3.7628C3.65896 4.18503 3.73033 4.62178 3.86024 5.07307C3.99016 5.52435 4.15 5.97862 4.33974 6.43589ZM9.68846 11.682C10.0955 11.8745 10.5315 12.0151 10.9963 12.1039C11.4612 12.1928 11.8607 12.2521 12.1949 12.282C12.2461 12.282 12.2889 12.2649 12.3231 12.2308C12.3573 12.1966 12.3744 12.1538 12.3744 12.1026V10.7308C12.3744 10.6624 12.3573 10.6068 12.3231 10.5641C12.2889 10.5214 12.2376 10.4914 12.1692 10.4744L11.2526 10.2718C11.2013 10.2547 11.1564 10.2525 11.1179 10.2654C11.0795 10.2782 11.0389 10.306 10.9961 10.3487L9.68846 11.682Z" fill="black"/>
</svg>
