<svg width="16" height="16" viewBox="0 0 16 16" fill="none" xmlns="http://www.w3.org/2000/svg">
<path d="M12.0244 12.8397C10.9312 12.7286 9.8688 12.4105 8.83718 11.8853C7.80556 11.36 6.88269 10.6876 6.06858 9.86794C5.25448 9.04828 4.57991 8.12478 4.04486 7.09742C3.50982 6.07008 3.1923 5.00982 3.0923 3.91665C3.07008 3.68332 3.13952 3.48054 3.30063 3.30832C3.46174 3.1361 3.65896 3.04999 3.8923 3.04999H5.1077C5.33078 3.04999 5.51816 3.11195 5.66986 3.23589C5.82158 3.35981 5.9282 3.52904 5.98975 3.74357L6.28718 4.78332C6.31795 4.93374 6.31239 5.08203 6.27051 5.22819C6.22864 5.37434 6.14915 5.49742 6.03205 5.59742L4.56923 6.96152C5.15555 7.994 5.81324 8.87049 6.5423 9.591C7.27136 10.3115 8.13504 10.9308 9.13333 11.4487L10.6295 9.95127C10.7577 9.82306 10.8756 9.74934 10.9833 9.73012C11.091 9.71089 11.206 9.71665 11.3282 9.74742L12.2141 9.95127C12.4286 10.0043 12.5979 10.1115 12.7218 10.2731C12.8457 10.4346 12.9077 10.6269 12.9077 10.85V12.0397C12.9077 12.3397 12.8021 12.5508 12.591 12.6731C12.3799 12.7953 12.191 12.8508 12.0244 12.8397Z" fill="black"/>
</svg>
