<svg width="16" height="16" viewBox="0 0 16 16" fill="none" xmlns="http://www.w3.org/2000/svg">
<path d="M5.65 10.7385L8 8.38846L10.35 10.7385L10.7385 10.35L8.38846 8L10.7385 5.65L10.35 5.26153L8 7.61153L5.65 5.26153L5.26153 5.65L7.61153 8L5.26153 10.35L5.65 10.7385ZM8.00223 13.7333C7.21697 13.7333 6.47581 13.5842 5.77873 13.286C5.08165 12.9878 4.47129 12.5771 3.94765 12.054C3.42401 11.5308 3.01294 10.9211 2.71443 10.2247C2.41592 9.5283 2.26666 8.78747 2.26666 8.00223C2.26666 7.20586 2.41577 6.46192 2.71398 5.7704C3.0122 5.07887 3.42288 4.47129 3.94601 3.94765C4.46915 3.42401 5.07891 3.01294 5.7753 2.71443C6.4717 2.41592 7.21252 2.26666 7.99776 2.26666C8.79413 2.26666 9.53807 2.41577 10.2296 2.71398C10.9211 3.0122 11.5287 3.42288 12.0523 3.94601C12.576 4.46915 12.9871 5.07613 13.2856 5.76696C13.5841 6.45781 13.7333 7.20141 13.7333 7.99776C13.7333 8.78302 13.5842 9.52419 13.286 10.2213C12.9878 10.9183 12.5771 11.5287 12.054 12.0523C11.5308 12.576 10.9239 12.9871 10.233 13.2856C9.54219 13.5841 8.79859 13.7333 8.00223 13.7333Z" fill="black"/>
</svg>
