<svg width="16" height="16" viewBox="0 0 16 16" fill="none" xmlns="http://www.w3.org/2000/svg">
<path d="M5.65006 10.7385L8.00006 8.38846L10.3501 10.7385L10.7385 10.35L8.38852 8L10.7385 5.65L10.3501 5.26153L8.00006 7.61153L5.65006 5.26153L5.26159 5.65L7.61159 8L5.26159 10.35L5.65006 10.7385ZM8.00229 13.7333C7.21703 13.7333 6.47587 13.5842 5.77879 13.286C5.08171 12.9878 4.47135 12.5771 3.94771 12.054C3.42407 11.5308 3.013 10.9211 2.71449 10.2247C2.41598 9.5283 2.26672 8.78747 2.26672 8.00223C2.26672 7.20586 2.41583 6.46192 2.71404 5.7704C3.01226 5.07887 3.42294 4.47129 3.94607 3.94765C4.46921 3.42401 5.07897 3.01294 5.77536 2.71443C6.47176 2.41592 7.21258 2.26666 7.99782 2.26666C8.79419 2.26666 9.53814 2.41577 10.2297 2.71398C10.9212 3.0122 11.5288 3.42288 12.0524 3.94601C12.576 4.46915 12.9871 5.07613 13.2856 5.76696C13.5841 6.45781 13.7334 7.20141 13.7334 7.99776C13.7334 8.78302 13.5843 9.52419 13.2861 10.2213C12.9879 10.9183 12.5772 11.5287 12.054 12.0523C11.5309 12.576 10.9239 12.9871 10.2331 13.2856C9.54225 13.5841 8.79865 13.7333 8.00229 13.7333ZM8.00006 13.2C9.4445 13.2 10.6723 12.6944 11.6834 11.6833C12.6945 10.6722 13.2001 9.44444 13.2001 8C13.2001 6.55555 12.6945 5.32777 11.6834 4.31666C10.6723 3.30555 9.4445 2.8 8.00006 2.8C6.55561 2.8 5.32783 3.30555 4.31672 4.31666C3.30561 5.32777 2.80006 6.55555 2.80006 8C2.80006 9.44444 3.30561 10.6722 4.31672 11.6833C5.32783 12.6944 6.55561 13.2 8.00006 13.2Z" fill="black"/>
</svg>
