<svg width="16" height="16" viewBox="0 0 16 16" fill="none" xmlns="http://www.w3.org/2000/svg">
<path d="M4.33333 9.26666H9.26666V8.73333H4.33333V9.26666ZM4.33333 7.06666H11.6667V6.53333H4.33333V7.06666ZM4.33333 4.86666H11.6667V4.33333H4.33333V4.86666ZM2.26666 13.1179V3.21025C2.26666 2.94008 2.35638 2.71527 2.53583 2.53583C2.71527 2.35639 2.94008 2.26666 3.21025 2.26666H12.7897C13.0599 2.26666 13.2847 2.35639 13.4642 2.53583C13.6436 2.71527 13.7333 2.94008 13.7333 3.21025V10.3897C13.7333 10.6599 13.6436 10.8847 13.4642 11.0642C13.2847 11.2436 13.0599 11.3333 12.7897 11.3333H4.05128L2.26666 13.1179ZM3.83333 10.8H12.7897C12.8923 10.8 12.9863 10.7573 13.0718 10.6718C13.1573 10.5863 13.2 10.4923 13.2 10.3897V3.21025C13.2 3.10769 13.1573 3.01367 13.0718 2.9282C12.9863 2.84273 12.8923 2.8 12.7897 2.8H3.21025C3.10769 2.8 3.01367 2.84273 2.9282 2.9282C2.84273 3.01367 2.8 3.10769 2.8 3.21025V11.8461L3.83333 10.8Z" fill="black"/>
</svg>
