<svg width="16" height="16" viewBox="0 0 16 16" fill="none" xmlns="http://www.w3.org/2000/svg">
<path d="M5.93332 8.26665H10.0667V7.73332H5.93332V8.26665ZM4.01023 12.9333C3.74007 12.9333 3.51526 12.8436 3.33582 12.6642C3.15637 12.4847 3.06665 12.2599 3.06665 11.9897V4.01023C3.06665 3.74007 3.15637 3.51526 3.33582 3.33582C3.51526 3.15637 3.74007 3.06665 4.01023 3.06665H11.9897C12.2599 3.06665 12.4847 3.15637 12.6642 3.33582C12.8436 3.51526 12.9333 3.74007 12.9333 4.01023V11.9897C12.9333 12.2599 12.8436 12.4847 12.6642 12.6642C12.4847 12.8436 12.2599 12.9333 11.9897 12.9333H4.01023Z" fill="black"/>
</svg>
