<svg width="16" height="16" viewBox="0 0 16 16" fill="none" xmlns="http://www.w3.org/2000/svg">
<path d="M4.01023 12.9333C3.74861 12.9333 3.52594 12.8415 3.34222 12.6578C3.15851 12.474 3.06665 12.2514 3.06665 11.9898V4.01025C3.06665 3.74863 3.15851 3.52596 3.34222 3.34223C3.52594 3.15852 3.74861 3.06667 4.01023 3.06667H7.16793C7.19699 2.85042 7.28267 2.66474 7.42498 2.50962C7.5673 2.35448 7.75896 2.27692 7.99998 2.27692C8.22392 2.27692 8.40917 2.35448 8.55575 2.50962C8.70234 2.66474 8.79016 2.85042 8.81922 3.06667H11.9897C12.2514 3.06667 12.474 3.15852 12.6578 3.34223C12.8415 3.52596 12.9333 3.74863 12.9333 4.01025V11.9898C12.9333 12.2514 12.8415 12.474 12.6578 12.6578C12.474 12.8415 12.2514 12.9333 11.9897 12.9333H4.01023ZM4.01023 12.4H11.9897C12.0923 12.4 12.1863 12.3573 12.2718 12.2718C12.3573 12.1863 12.4 12.0923 12.4 11.9898V4.01025C12.4 3.90769 12.3573 3.81368 12.2718 3.7282C12.1863 3.64273 12.0923 3.6 11.9897 3.6H10.5333V5.08718H5.46665V3.6H4.01023C3.90768 3.6 3.81366 3.64273 3.72818 3.7282C3.64272 3.81368 3.59998 3.90769 3.59998 4.01025V11.9898C3.59998 12.0923 3.64272 12.1863 3.72818 12.2718C3.81366 12.3573 3.90768 12.4 4.01023 12.4ZM7.99647 3.75385C8.13129 3.75385 8.24421 3.70951 8.33523 3.62082C8.42627 3.53213 8.47178 3.42037 8.47178 3.28555C8.47178 3.15074 8.42744 3.03782 8.33875 2.9468C8.25006 2.85577 8.13831 2.81025 8.0035 2.81025C7.86868 2.81025 7.75576 2.85459 7.66473 2.94328C7.5737 3.03197 7.52818 3.14372 7.52818 3.27853C7.52818 3.41336 7.57253 3.52628 7.66122 3.6173C7.74991 3.70833 7.86166 3.75385 7.99647 3.75385Z" fill="black"/>
</svg>
