<svg width="16" height="16" viewBox="0 0 16 16" fill="none" xmlns="http://www.w3.org/2000/svg">
<path d="M4.59997 13.477C4.32979 13.477 4.10498 13.3872 3.92554 13.2078C3.74609 13.0283 3.65637 12.8035 3.65637 12.5334V5.07694H4.18971V12.5334C4.18971 12.6359 4.23244 12.7299 4.31792 12.8154C4.40339 12.9009 4.49741 12.9436 4.59997 12.9436H10.4564V13.477H4.59997ZM6.33331 11.7436C6.06313 11.7436 5.83832 11.6539 5.65887 11.4744C5.47943 11.295 5.38971 11.0702 5.38971 10.8V3.62052C5.38971 3.35036 5.47943 3.12555 5.65887 2.94611C5.83832 2.76666 6.06313 2.67694 6.33331 2.67694H11.9128C12.183 2.67694 12.4078 2.76666 12.5872 2.94611C12.7667 3.12555 12.8564 3.35036 12.8564 3.62052V10.8C12.8564 11.0702 12.7667 11.295 12.5872 11.4744C12.4078 11.6539 12.183 11.7436 11.9128 11.7436H6.33331ZM6.33331 11.2103H11.9128C12.0154 11.2103 12.1094 11.1675 12.1948 11.0821C12.2803 10.9966 12.3231 10.9026 12.3231 10.8V3.62052C12.3231 3.51797 12.2803 3.42395 12.1948 3.33847C12.1094 3.25301 12.0154 3.21027 11.9128 3.21027H6.33331C6.23074 3.21027 6.13672 3.25301 6.05126 3.33847C5.96579 3.42395 5.92306 3.51797 5.92306 3.62052V10.8C5.92306 10.9026 5.96579 10.9966 6.05126 11.0821C6.13672 11.1675 6.23074 11.2103 6.33331 11.2103Z" fill="black"/>
</svg>
