<svg id="Foto" xmlns="http://www.w3.org/2000/svg" viewBox="0 0 200 200"><defs><style>.cls-1{fill:#f9b515;stroke-width:0}</style></defs><g id="Grupo_116"><path id="Caminho_44" class="cls-1" d="M185.1 73.52v74c0 5.82-4.71 10.55-10.54 10.59l-12.86.11c-1.44 0-2.6 1.18-2.59 2.62v21.52c0 1.48-1.21 2.68-2.69 2.67-.7 0-1.37-.28-1.87-.77l-32.18-25.25c-.48-.51-1.15-.8-1.85-.79H63.34c-5.82.02-10.56-4.68-10.59-10.51v-33.22l18.89-14.82h43.83c11.7 0 21.19-9.49 21.19-21.19V62.92h37.85c5.84.02 10.57 4.75 10.59 10.59"/><path id="Caminho_45" class="cls-1" d="M30.3 91.71v21.51c0 1.46 1.19 2.65 2.65 2.65.7 0 1.37-.28 1.87-.77L67 89.86c.5-.5 1.17-.78 1.87-.78h46.6c5.85 0 10.59-4.74 10.59-10.59V25.56c0-5.85-4.74-10.59-10.58-10.59h-90c-5.85 0-10.59 4.74-10.59 10.59v52.81c0 5.81 4.69 10.54 10.5 10.59l2.28.11a2.63 2.63 0 0 1 2.62 2.65"/></g></svg>