<svg width="16" height="16" viewBox="0 0 16 16" fill="none" xmlns="http://www.w3.org/2000/svg">
<path d="M5.93334 11.6667H10.0667V11.1333H5.93334V11.6667ZM5.93334 9.26666H10.0667V8.73333H5.93334V9.26666ZM4.80554 13.7333C4.53518 13.7333 4.31111 13.6436 4.13334 13.4642C3.95556 13.2847 3.86667 13.0599 3.86667 12.7897V3.21025C3.86667 2.94008 3.95639 2.71527 4.13584 2.53583C4.31528 2.35639 4.54009 2.26666 4.81025 2.26666H9.93334L12.1333 4.46666V12.7897C12.1333 13.0599 12.0435 13.2847 11.864 13.4642C11.6844 13.6436 11.4594 13.7333 11.1891 13.7333H4.80554ZM9.46667 4.93333V2.8H4.81025C4.7077 2.8 4.61368 2.84273 4.5282 2.9282C4.44274 3.01367 4.4 3.10769 4.4 3.21025V12.7897C4.4 12.8923 4.44274 12.9863 4.5282 13.0718C4.61368 13.1573 4.7077 13.2 4.81025 13.2H11.1898C11.2923 13.2 11.3863 13.1573 11.4718 13.0718C11.5573 12.9863 11.6 12.8923 11.6 12.7897V4.93333H9.46667Z" fill="black"/>
</svg>
