<svg width="16" height="16" viewBox="0 0 16 16" fill="none" xmlns="http://www.w3.org/2000/svg">
<path d="M5.99645 12.2872C5.8065 12.2872 5.64507 12.2196 5.51217 12.0843C5.37926 11.949 5.31281 11.7864 5.31281 11.5965C5.31281 11.4065 5.38044 11.2451 5.5157 11.1122C5.65097 10.9793 5.81358 10.9128 6.00352 10.9128C6.19348 10.9128 6.35491 10.9805 6.48781 11.1157C6.62072 11.251 6.68717 11.4136 6.68717 11.6035C6.68717 11.7935 6.61954 11.9549 6.48427 12.0878C6.34901 12.2207 6.1864 12.2872 5.99645 12.2872ZM9.99646 12.2872C9.8065 12.2872 9.64507 12.2196 9.51217 12.0843C9.37926 11.949 9.3128 11.7864 9.3128 11.5965C9.3128 11.4065 9.38044 11.2451 9.51571 11.1122C9.65097 10.9793 9.81358 10.9128 10.0035 10.9128C10.1935 10.9128 10.3549 10.9805 10.4878 11.1157C10.6207 11.251 10.6872 11.4136 10.6872 11.6035C10.6872 11.7935 10.6195 11.9549 10.4843 12.0878C10.349 12.2207 10.1864 12.2872 9.99646 12.2872ZM5.99645 8.6872C5.8065 8.6872 5.64507 8.61956 5.51217 8.4843C5.37926 8.34903 5.31281 8.18642 5.31281 7.99648C5.31281 7.80652 5.38044 7.6451 5.5157 7.5122C5.65097 7.37929 5.81358 7.31283 6.00352 7.31283C6.19348 7.31283 6.35491 7.38046 6.48781 7.51573C6.62072 7.651 6.68717 7.8136 6.68717 8.00355C6.68717 8.1935 6.61954 8.35493 6.48427 8.48783C6.34901 8.62074 6.1864 8.6872 5.99645 8.6872ZM9.99646 8.6872C9.8065 8.6872 9.64507 8.61956 9.51217 8.4843C9.37926 8.34903 9.3128 8.18642 9.3128 7.99648C9.3128 7.80652 9.38044 7.6451 9.51571 7.5122C9.65097 7.37929 9.81358 7.31283 10.0035 7.31283C10.1935 7.31283 10.3549 7.38046 10.4878 7.51573C10.6207 7.651 10.6872 7.8136 10.6872 8.00355C10.6872 8.1935 10.6195 8.35493 10.4843 8.48783C10.349 8.62074 10.1864 8.6872 9.99646 8.6872ZM5.99645 5.0872C5.8065 5.0872 5.64507 5.01956 5.51217 4.8843C5.37926 4.74903 5.31281 4.58642 5.31281 4.39648C5.31281 4.20652 5.38044 4.0451 5.5157 3.9122C5.65097 3.77929 5.81358 3.71283 6.00352 3.71283C6.19348 3.71283 6.35491 3.78046 6.48781 3.91573C6.62072 4.051 6.68717 4.2136 6.68717 4.40355C6.68717 4.5935 6.61954 4.75493 6.48427 4.88783C6.34901 5.02074 6.1864 5.0872 5.99645 5.0872ZM9.99646 5.0872C9.8065 5.0872 9.64507 5.01956 9.51217 4.8843C9.37926 4.74903 9.3128 4.58642 9.3128 4.39648C9.3128 4.20652 9.38044 4.0451 9.51571 3.9122C9.65097 3.77929 9.81358 3.71283 10.0035 3.71283C10.1935 3.71283 10.3549 3.78046 10.4878 3.91573C10.6207 4.051 10.6872 4.2136 10.6872 4.40355C10.6872 4.5935 10.6195 4.75493 10.4843 4.88783C10.349 5.02074 10.1864 5.0872 9.99646 5.0872Z" fill="black"/>
</svg>
