<svg width="16" height="16" viewBox="0 0 16 16" fill="none" xmlns="http://www.w3.org/2000/svg">
<path d="M3.60511 12.6H4.3705L10.8166 6.15382L10.0513 5.38844L3.60511 11.8346V12.6ZM12.3602 5.67434L10.5436 3.83202L11.232 3.14356C11.3902 2.98543 11.569 2.90637 11.7686 2.90637C11.9681 2.90637 12.147 2.98543 12.3051 3.14356L13.0615 3.89997C13.2085 4.04698 13.2778 4.2301 13.2692 4.44932C13.2607 4.66856 13.1829 4.85168 13.0359 4.99869L12.3602 5.67434ZM11.8641 6.15767L4.68845 13.3333H2.87177V11.5166L10.0474 4.34099L11.8641 6.15767ZM10.4359 5.77306L10.0513 5.38844L10.8166 6.15382L10.4359 5.77306Z" fill="black"/>
</svg>
