<?xml version="1.0" standalone="no"?>
<!DOCTYPE svg PUBLIC "-//W3C//DTD SVG 20010904//EN"
 "http://www.w3.org/TR/2001/REC-SVG-20010904/DTD/svg10.dtd">
<svg version="1.0" xmlns="http://www.w3.org/2000/svg"
 width="101.000000pt" height="101.000000pt" viewBox="0 0 101.000000 101.000000"
 preserveAspectRatio="xMidYMid meet">

<g transform="translate(0.000000,101.000000) scale(0.100000,-0.100000)"
fill="#5D280D" stroke="none">
<path d="M49 961 c-36 -35 -39 -43 -39 -92 l0 -53 157 -158 157 -158 -157
-158 -157 -158 0 -52 c0 -45 5 -57 33 -87 34 -38 84 -53 134 -40 17 4 86 64
181 158 l152 151 154 -153 c151 -150 155 -154 202 -158 61 -6 111 24 132 79
29 75 16 97 -151 266 l-151 152 151 153 c167 168 180 190 151 265 -21 55 -71
85 -132 79 -47 -4 -51 -8 -202 -158 l-154 -154 -147 147 c-82 80 -158 151
-170 157 -12 6 -41 11 -64 11 -35 0 -47 -6 -80 -39z"/>
</g>
</svg>
