<svg width="16" height="16" viewBox="0 0 16 16" fill="none" xmlns="http://www.w3.org/2000/svg">
<path d="M3.21025 12.1333C2.94786 12.1333 2.725 12.0416 2.54166 11.8583C2.35833 11.675 2.26666 11.4521 2.26666 11.1897V4.81022C2.26666 4.54005 2.35833 4.31525 2.54166 4.13581C2.725 3.95636 2.94786 3.86664 3.21025 3.86664H6.13076L7.73076 5.46664H12.7897C13.0599 5.46664 13.2847 5.55636 13.4642 5.73581C13.6436 5.91525 13.7333 6.14005 13.7333 6.41022V11.1897C13.7333 11.4521 13.6436 11.675 13.4642 11.8583C13.2847 12.0416 13.0599 12.1333 12.7897 12.1333H3.21025ZM3.21025 11.6H12.7897C12.9094 11.6 13.0077 11.5615 13.0846 11.4846C13.1615 11.4077 13.2 11.3094 13.2 11.1897V6.41022C13.2 6.29057 13.1615 6.19228 13.0846 6.11535C13.0077 6.03843 12.9094 5.99997 12.7897 5.99997H7.51281L5.91281 4.39997H3.21025C3.09059 4.39997 2.9923 4.43843 2.91538 4.51535C2.83846 4.59228 2.8 4.69057 2.8 4.81022V11.1897C2.8 11.3094 2.83846 11.4077 2.91538 11.4846C2.9923 11.5615 3.09059 11.6 3.21025 11.6Z" fill="black"/>
</svg>
