<svg width="16" height="16" viewBox="0 0 16 16" fill="none" xmlns="http://www.w3.org/2000/svg">
<path d="M3.13333 12.1333C2.86324 12.1333 2.65127 12.0499 2.49743 11.8832C2.34358 11.7164 2.26666 11.5107 2.26666 11.266V4.8055C2.26666 4.56078 2.35641 4.34313 2.5359 4.15254C2.71537 3.96194 2.94016 3.86664 3.21025 3.86664H6.13076L7.73076 5.46664H12.8064C13.0141 5.46664 13.1814 5.51493 13.3083 5.61151C13.4353 5.70809 13.544 5.83758 13.6346 5.99997H7.52948L5.92948 4.39997H3.21025C3.09059 4.39997 2.9923 4.43843 2.91538 4.51535C2.83846 4.59228 2.8 4.69057 2.8 4.81022V11.1897C2.8 11.2837 2.8235 11.3607 2.87051 11.4205C2.91751 11.4803 2.97948 11.5316 3.05641 11.5743L4.26666 7.45639H15.1769L13.9654 11.5269C13.9021 11.7055 13.8282 11.8513 13.7436 11.9641C13.659 12.0769 13.512 12.1333 13.3026 12.1333H3.13333ZM3.60128 11.6H13.3756L14.4743 7.98972H4.66666L3.60128 11.6Z" fill="black"/>
</svg>
