<svg width="16" height="16" viewBox="0 0 16 16" fill="none" xmlns="http://www.w3.org/2000/svg">
<path d="M5.15131 12.3V3.70001H8.06594C8.72542 3.70001 9.30708 3.90822 9.81092 4.32465C10.3148 4.74108 10.5667 5.28415 10.5667 5.95386C10.5667 6.38377 10.4567 6.76561 10.2366 7.09938C10.0165 7.43313 9.73977 7.68102 9.40644 7.84305C9.82353 7.96735 10.171 8.21668 10.4487 8.59105C10.7265 8.9654 10.8654 9.40899 10.8654 9.92181C10.8654 10.6594 10.587 11.2402 10.0303 11.6641C9.47352 12.088 8.8643 12.3 8.20262 12.3H5.15131ZM6.10131 11.4103H8.15374C8.67348 11.4103 9.08934 11.2549 9.40131 10.9442C9.71327 10.6336 9.86926 10.2718 9.86926 9.85898C9.86926 9.44617 9.7105 9.08442 9.39297 8.77373C9.07545 8.46305 8.65472 8.30771 8.13079 8.30771H6.10131V11.4103ZM6.10131 7.46668H8.01027C8.45386 7.46668 8.83228 7.32672 9.14554 7.04681C9.45878 6.76689 9.61541 6.42608 9.61541 6.02438C9.61541 5.60386 9.45839 5.25898 9.14436 4.98976C8.83032 4.72053 8.45825 4.58591 8.02812 4.58591H6.10131V7.46668Z" fill="black"/>
</svg>
