<svg width="16" height="16" viewBox="0 0 16 16" fill="none" xmlns="http://www.w3.org/2000/svg">
<path d="M3.06665 12.9333V12.5436H4.66665V11.7333H3.86665V11.3436H4.66665V10.5333H3.06665V10.1436H4.86152C4.91673 10.1436 4.96301 10.1622 5.00037 10.1996C5.03772 10.237 5.0564 10.2832 5.0564 10.3385V11.3949C5.0564 11.4501 5.03772 11.4964 5.00037 11.5337C4.96301 11.5711 4.91673 11.5897 4.86152 11.5897C4.91673 11.5897 4.96301 11.6084 5.00037 11.6458C5.03772 11.6831 5.0564 11.7294 5.0564 11.7846V12.7385C5.0564 12.7937 5.03772 12.8399 5.00037 12.8773C4.96301 12.9146 4.91673 12.9333 4.86152 12.9333H3.06665ZM3.06665 9.39485V7.99998C3.06665 7.94477 3.08532 7.89849 3.12267 7.86113C3.16002 7.82379 3.20631 7.80512 3.26152 7.80512H4.66665V6.99485H3.06665V6.60512H4.86152C4.91673 6.60512 4.96301 6.62379 5.00037 6.66113C5.03772 6.69849 5.0564 6.74477 5.0564 6.79998V7.99998C5.0564 8.0552 5.03772 8.10148 5.00037 8.13883C4.96301 8.17618 4.91673 8.19485 4.86152 8.19485H3.4564V9.00512H5.0564V9.39485H3.06665ZM3.86665 5.8564V3.4564H3.06665V3.06665H4.2564V5.8564H3.86665ZM6.41023 11.6667V11.1333H12.9333V11.6667H6.41023ZM6.41023 8.26665V7.73332H12.9333V8.26665H6.41023ZM6.41023 4.86665V4.33332H12.9333V4.86665H6.41023Z" fill="black"/>
</svg>
