<svg width="16" height="16" viewBox="0 0 16 16" fill="none" xmlns="http://www.w3.org/2000/svg">
<path d="M4.46155 12.4333V11.9H11.5385V12.4333H4.46155ZM8.00002 10.5718C7.10429 10.5718 6.40536 10.3123 5.90321 9.79334C5.40108 9.27437 5.15001 8.56841 5.15001 7.67546V2.95129H5.8087V7.69768C5.8087 8.38744 6.00253 8.93293 6.39018 9.33413C6.77783 9.73532 7.31463 9.93591 8.00058 9.93591C8.68653 9.93591 9.22326 9.73532 9.61078 9.33413C9.99829 8.93293 10.192 8.38744 10.192 7.69768V2.95129H10.85V7.67546C10.85 8.56841 10.5989 9.27437 10.0968 9.79334C9.59467 10.3123 8.89574 10.5718 8.00002 10.5718Z" fill="black"/>
</svg>
