<svg width="16" height="16" viewBox="0 0 16 16" fill="none" xmlns="http://www.w3.org/2000/svg">
<path d="M6.41023 11.6666V11.1333H12.9333V11.6666H6.41023ZM6.41023 8.26664V7.73331H12.9333V8.26664H6.41023ZM6.41023 4.86664V4.33331H12.9333V4.86664H6.41023ZM3.81438 12.1513C3.60682 12.1513 3.4303 12.0774 3.28483 11.9295C3.13938 11.7817 3.06665 11.604 3.06665 11.3964C3.06665 11.1889 3.14056 11.0123 3.28838 10.8669C3.43619 10.7214 3.61389 10.6487 3.82147 10.6487C4.02904 10.6487 4.20557 10.7226 4.35103 10.8704C4.49649 11.0182 4.56922 11.1959 4.56922 11.4035C4.56922 11.6111 4.49531 11.7876 4.34748 11.9331C4.19966 12.0785 4.02196 12.1513 3.81438 12.1513ZM3.81438 8.75126C3.60682 8.75126 3.4303 8.67735 3.28483 8.52953C3.13938 8.38172 3.06665 8.20402 3.06665 7.99644C3.06665 7.78887 3.14056 7.61234 3.28838 7.46688C3.43619 7.32142 3.61389 7.24869 3.82147 7.24869C4.02904 7.24869 4.20557 7.32261 4.35103 7.47043C4.49649 7.61824 4.56922 7.79593 4.56922 8.00351C4.56922 8.21109 4.49531 8.38761 4.34748 8.53308C4.19966 8.67853 4.02196 8.75126 3.81438 8.75126ZM3.81438 5.35126C3.60682 5.35126 3.4303 5.27735 3.28483 5.12953C3.13938 4.98171 3.06665 4.80401 3.06665 4.59644C3.06665 4.38887 3.14056 4.21234 3.28838 4.06688C3.43619 3.92142 3.61389 3.84869 3.82147 3.84869C4.02904 3.84869 4.20557 3.92261 4.35103 4.07043C4.49649 4.21825 4.56922 4.39594 4.56922 4.60351C4.56922 4.81109 4.49531 4.98761 4.34748 5.13308C4.19966 5.27853 4.02196 5.35126 3.81438 5.35126Z" fill="black"/>
</svg>
