<svg width="16" height="16" viewBox="0 0 16 16" fill="none" xmlns="http://www.w3.org/2000/svg">
<path d="M2.66412 11.8769V11.1128C2.66412 10.8947 2.71647 10.7127 2.82117 10.5666C2.92587 10.4205 3.07457 10.2919 3.26726 10.1809C3.75662 9.8945 4.2669 9.66111 4.79809 9.48076C5.32929 9.30042 5.99575 9.21025 6.79746 9.21025C7.59917 9.21025 8.26562 9.30042 8.79682 9.48076C9.32801 9.66111 9.83829 9.8945 10.3277 10.1809C10.5203 10.2919 10.669 10.4205 10.7737 10.5666C10.8784 10.7127 10.9308 10.8947 10.9308 11.1128V11.8769H2.66412ZM12.1308 11.8769V11.2154C12.1308 10.8513 12.0804 10.5227 11.9796 10.2297C11.8787 9.9367 11.7514 9.70072 11.5975 9.52178C11.7915 9.61067 11.993 9.70875 12.2019 9.81601C12.4109 9.92328 12.6304 10.0453 12.8603 10.182C12.9936 10.2496 13.1062 10.3809 13.1981 10.5761C13.29 10.7713 13.3359 10.9844 13.3359 11.2154V11.8769H12.1308ZM6.79746 7.58975C6.31412 7.58975 5.9044 7.42169 5.56829 7.08558C5.23218 6.74947 5.06412 6.33975 5.06412 5.85641C5.06412 5.37307 5.23218 4.96334 5.56829 4.62723C5.9044 4.29112 6.31412 4.12306 6.79746 4.12306C7.28079 4.12306 7.69051 4.29112 8.02662 4.62723C8.36273 4.96334 8.53079 5.37307 8.53079 5.85641C8.53079 6.33975 8.36273 6.74947 8.02662 7.08558C7.69051 7.42169 7.28079 7.58975 6.79746 7.58975ZM10.577 5.85641C10.577 6.33975 10.4089 6.74947 10.0728 7.08558C9.73668 7.42169 9.32696 7.58975 8.84362 7.58975C8.84875 7.58975 8.88507 7.59765 8.95259 7.61346C9.02011 7.62927 9.05644 7.63889 9.06156 7.64231C9.26517 7.39903 9.42761 7.12829 9.54887 6.83006C9.67015 6.53184 9.73079 6.20676 9.73079 5.85481C9.73079 5.50288 9.66733 5.18097 9.54041 4.8891C9.41348 4.59722 9.25387 4.32435 9.06156 4.0705C9.03079 4.09102 8.99447 4.10491 8.95259 4.11216C8.91071 4.11943 8.87439 4.12306 8.84362 4.12306C9.32696 4.12306 9.73668 4.29112 10.0728 4.62723C10.4089 4.96334 10.577 5.37307 10.577 5.85641ZM3.19746 11.3436H10.3975V11.1128C10.3975 11.0067 10.3721 10.9157 10.3214 10.8398C10.2707 10.7639 10.1666 10.684 10.009 10.6C9.58934 10.3342 9.12053 10.125 8.60259 9.97243C8.08463 9.81986 7.48292 9.74358 6.79746 9.74358C6.11199 9.74358 5.51028 9.81709 4.99232 9.9641C4.47438 10.1111 4.00558 10.3231 3.58592 10.6C3.42836 10.6827 3.32422 10.7608 3.27351 10.8344C3.22281 10.9081 3.19746 11.0003 3.19746 11.1113V11.3436ZM6.80099 7.05641C7.13197 7.05641 7.41412 6.93856 7.64746 6.70286C7.88079 6.46717 7.99746 6.18384 7.99746 5.85286C7.99746 5.5219 7.87961 5.23975 7.64392 5.00641C7.40822 4.77308 7.12489 4.65641 6.79392 4.65641C6.46295 4.65641 6.18079 4.77426 5.94746 5.00995C5.71412 5.24563 5.59746 5.52897 5.59746 5.85995C5.59746 6.19092 5.7153 6.47308 5.95099 6.70641C6.18669 6.93975 6.47002 7.05641 6.80099 7.05641Z" fill="black"/>
</svg>
