<svg width="16" height="16" viewBox="0 0 16 16" fill="none" xmlns="http://www.w3.org/2000/svg">
<path d="M2.66412 11.8769V11.1128C2.66412 10.8923 2.71647 10.7096 2.82117 10.5647C2.92587 10.4199 3.07457 10.2919 3.26726 10.1809C3.75662 9.8945 4.2669 9.66111 4.79809 9.48076C5.32929 9.30042 5.99575 9.21025 6.79746 9.21025C7.59917 9.21025 8.26562 9.30042 8.79682 9.48076C9.32801 9.66111 9.83829 9.8945 10.3277 10.1809C10.5203 10.2919 10.669 10.4199 10.7737 10.5647C10.8784 10.7096 10.9308 10.8923 10.9308 11.1128V11.8769H2.66412ZM12.1308 11.8769V11.2154C12.1308 10.8513 12.0804 10.5227 11.9796 10.2297C11.8787 9.9367 11.7514 9.70072 11.5975 9.52178C11.7915 9.61067 11.993 9.70875 12.2019 9.81601C12.4109 9.92328 12.6304 10.0453 12.8603 10.182C12.9936 10.2496 13.1062 10.38 13.1981 10.5732C13.29 10.7665 13.3359 10.9805 13.3359 11.2154V11.8769H12.1308ZM6.79746 7.58975C6.31412 7.58975 5.9044 7.42169 5.56829 7.08558C5.23218 6.74947 5.06412 6.33975 5.06412 5.85641C5.06412 5.37307 5.23218 4.96334 5.56829 4.62723C5.9044 4.29112 6.31412 4.12306 6.79746 4.12306C7.28079 4.12306 7.69051 4.29112 8.02662 4.62723C8.36273 4.96334 8.53079 5.37307 8.53079 5.85641C8.53079 6.33975 8.36273 6.74947 8.02662 7.08558C7.69051 7.42169 7.28079 7.58975 6.79746 7.58975ZM10.577 5.85641C10.577 6.33975 10.4089 6.74947 10.0728 7.08558C9.73668 7.42169 9.32696 7.58975 8.84362 7.58975C8.84875 7.58975 8.88507 7.59765 8.95259 7.61346C9.02011 7.62927 9.05644 7.63889 9.06156 7.64231C9.26517 7.39903 9.42761 7.12829 9.54887 6.83006C9.67015 6.53184 9.73079 6.20676 9.73079 5.85481C9.73079 5.50288 9.66733 5.18097 9.54041 4.8891C9.41348 4.59722 9.25387 4.32435 9.06156 4.0705C9.03079 4.09102 8.99447 4.10491 8.95259 4.11216C8.91071 4.11943 8.87439 4.12306 8.84362 4.12306C9.32696 4.12306 9.73668 4.29112 10.0728 4.62723C10.4089 4.96334 10.577 5.37307 10.577 5.85641Z" fill="black"/>
</svg>
