<svg width="16" height="16" viewBox="0 0 16 16" fill="none" xmlns="http://www.w3.org/2000/svg">
<path d="M7.62817 7.53976C7.84014 7.30044 7.98758 7.03567 8.07049 6.74546C8.15339 6.45525 8.19484 6.1589 8.19484 5.85642C8.19484 5.55781 8.15339 5.26521 8.07049 4.97861C7.98758 4.69202 7.84014 4.42351 7.62817 4.17307C7.71706 4.15085 7.8004 4.13696 7.87817 4.13141C7.95595 4.12585 8.03929 4.12307 8.12817 4.12307C8.63245 4.08034 9.06023 4.23034 9.41151 4.57307C9.7628 4.91582 9.93844 5.3436 9.93844 5.85642C9.93844 6.36923 9.7628 6.79701 9.41151 7.13976C9.06023 7.48249 8.63245 7.63249 8.12817 7.58976C8.03929 7.58976 7.95317 7.58698 7.86984 7.58142C7.78651 7.57587 7.70595 7.56198 7.62817 7.53976ZM10.5948 11.8769V11.2154C10.5948 10.8329 10.5192 10.4775 10.3679 10.1491C10.2166 9.82064 9.96921 9.56027 9.62561 9.36796C10.2701 9.4859 10.8833 9.67265 11.4654 9.92821C12.0474 10.1838 12.3384 10.6128 12.3384 11.2154V11.8769H10.5948ZM14.4718 7.06667H11.1384V6.53334H14.4718V7.06667ZM5.26151 7.58976C4.77817 7.58976 4.36845 7.4217 4.03234 7.08559C3.69623 6.74948 3.52817 6.33976 3.52817 5.85642C3.52817 5.37308 3.69623 4.96335 4.03234 4.62724C4.36845 4.29113 4.77817 4.12307 5.26151 4.12307C5.74484 4.12307 6.15456 4.29113 6.49067 4.62724C6.82679 4.96335 6.99484 5.37308 6.99484 5.85642C6.99484 6.33976 6.82679 6.74948 6.49067 7.08559C6.15456 7.4217 5.74484 7.58976 5.26151 7.58976ZM1.12817 11.8769V11.1128C1.12817 10.9331 1.18052 10.7634 1.28522 10.6037C1.38992 10.444 1.53886 10.3034 1.73202 10.1821C2.27219 9.84701 2.84356 9.60128 3.44612 9.44487C4.04869 9.28846 4.65126 9.21026 5.25382 9.21026C5.85638 9.21026 6.45595 9.29402 7.05254 9.46154C7.64912 9.62906 8.22861 9.86923 8.79101 10.1821C8.97305 10.3034 9.1192 10.444 9.22946 10.6037C9.33971 10.7634 9.39484 10.9331 9.39484 11.1128V11.8769H1.12817ZM5.25326 7.05642C5.58098 7.05642 5.86428 6.93973 6.10317 6.70634C6.34206 6.47296 6.46151 6.19241 6.46151 5.86467C6.46151 5.53695 6.34206 5.25365 6.10317 5.01476C5.86428 4.77587 5.58098 4.65642 5.25326 4.65642C4.92552 4.65642 4.64497 4.77587 4.41159 5.01476C4.1782 5.25365 4.06151 5.53695 4.06151 5.86467C4.06151 6.19241 4.1782 6.47296 4.41159 6.70634C4.64497 6.93973 4.92552 7.05642 5.25326 7.05642ZM1.66151 11.3436H8.86151V11.1128C8.86151 11.0198 8.82775 10.9307 8.76022 10.8456C8.6927 10.7605 8.59698 10.6786 8.47306 10.6C7.991 10.3453 7.47802 10.1389 6.93412 9.98077C6.39021 9.82265 5.8299 9.74359 5.25317 9.74359C4.67645 9.74359 4.11614 9.81987 3.57224 9.97244C3.02833 10.125 2.52091 10.3342 2.04997 10.6C1.92604 10.6786 1.83031 10.7605 1.76279 10.8456C1.69527 10.9307 1.66151 11.0198 1.66151 11.1128V11.3436Z" fill="black"/>
</svg>
