<svg width="16" height="16" viewBox="0 0 16 16" fill="none" xmlns="http://www.w3.org/2000/svg">
<path d="M7.62817 7.53976C7.84014 7.30044 7.98758 7.03633 8.07049 6.74744C8.15339 6.45855 8.19484 6.16155 8.19484 5.85642C8.19484 5.5624 8.15339 5.27095 8.07049 4.98206C7.98758 4.69317 7.84014 4.42351 7.62817 4.17307C7.71706 4.15085 7.8004 4.13696 7.87817 4.13141C7.95595 4.12585 8.03929 4.12307 8.12817 4.12307C8.63245 4.08034 9.06023 4.23034 9.41151 4.57307C9.7628 4.91582 9.93844 5.3436 9.93844 5.85642C9.93844 6.36923 9.7628 6.79701 9.41151 7.13976C9.06023 7.48249 8.63245 7.63249 8.12817 7.58976C8.03929 7.58976 7.95317 7.58698 7.86984 7.58142C7.78651 7.57587 7.70595 7.56198 7.62817 7.53976ZM10.5948 11.8769V11.2154C10.5948 10.8329 10.5192 10.4775 10.3679 10.1491C10.2166 9.82064 9.96921 9.56027 9.62561 9.36796C10.2701 9.4859 10.8833 9.67265 11.4654 9.92821C12.0474 10.1838 12.3384 10.6128 12.3384 11.2154V11.8769H10.5948ZM12.5384 8.46667V7.06667H11.1384V6.53334H12.5384V5.13334H13.0718V6.53334H14.4718V7.06667H13.0718V8.46667H12.5384ZM5.26151 7.58976C4.77817 7.58976 4.36845 7.4217 4.03234 7.08559C3.69623 6.74948 3.52817 6.33976 3.52817 5.85642C3.52817 5.37308 3.69623 4.96335 4.03234 4.62724C4.36845 4.29113 4.77817 4.12307 5.26151 4.12307C5.74484 4.12307 6.15456 4.29113 6.49067 4.62724C6.82679 4.96335 6.99484 5.37308 6.99484 5.85642C6.99484 6.33976 6.82679 6.74948 6.49067 7.08559C6.15456 7.4217 5.74484 7.58976 5.26151 7.58976ZM1.12817 11.8769V11.1128C1.12817 10.9376 1.18052 10.769 1.28522 10.6071C1.38992 10.4451 1.53886 10.3034 1.73202 10.1821C2.27219 9.84701 2.84334 9.60128 3.44547 9.44487C4.04762 9.28846 4.65296 9.21026 5.26151 9.21026C5.85894 9.21026 6.45595 9.29402 7.05254 9.46154C7.64912 9.62906 8.22861 9.86923 8.79101 10.1821C8.97305 10.3034 9.1192 10.4451 9.22946 10.6071C9.33971 10.769 9.39484 10.9376 9.39484 11.1128V11.8769H1.12817Z" fill="black"/>
</svg>
