<svg width="16" height="16" viewBox="0 0 16 16" fill="none" xmlns="http://www.w3.org/2000/svg">
<path d="M8.052 11.4872C8.18827 11.4872 8.30427 11.4391 8.4 11.3429C8.49572 11.2467 8.54358 11.1304 8.54358 10.9941C8.54358 10.8579 8.49548 10.7419 8.39928 10.6461C8.30307 10.5504 8.18683 10.5026 8.05056 10.5026C7.91429 10.5026 7.79829 10.5507 7.70256 10.6469C7.60683 10.7431 7.55896 10.8593 7.55896 10.9956C7.55896 11.1319 7.60707 11.2479 7.70328 11.3436C7.79949 11.4393 7.91573 11.4872 8.052 11.4872ZM7.70768 9.29615H8.33461C8.3517 8.96196 8.40064 8.72371 8.48141 8.58141C8.56218 8.4391 8.69017 8.27735 8.86538 8.09615C9.26281 7.70982 9.52585 7.39615 9.65448 7.15513C9.78311 6.9141 9.84743 6.66099 9.84743 6.39581C9.84743 5.8815 9.68227 5.44336 9.35195 5.0814C9.02161 4.71943 8.59318 4.53845 8.06666 4.53845C7.65384 4.53845 7.26901 4.65212 6.91218 4.87948C6.55534 5.10683 6.29358 5.41196 6.12691 5.79486L6.72308 6.06538C6.87436 5.71153 7.06047 5.47201 7.28141 5.3468C7.50235 5.22157 7.74444 5.15896 8.0077 5.15896C8.39573 5.15896 8.70043 5.26922 8.9218 5.48975C9.14316 5.71026 9.25385 5.9906 9.25385 6.33076C9.25385 6.59486 9.17201 6.8205 9.00833 7.00768C8.84465 7.19487 8.65726 7.39145 8.44615 7.59743C8.15982 7.87606 7.96517 8.14209 7.86218 8.39551C7.75918 8.64892 7.70768 8.94914 7.70768 9.29615ZM8.00223 13.7333C7.21697 13.7333 6.47581 13.5842 5.77873 13.286C5.08165 12.9878 4.47129 12.5771 3.94765 12.054C3.42401 11.5308 3.01294 10.9211 2.71443 10.2247C2.41592 9.5283 2.26666 8.78747 2.26666 8.00223C2.26666 7.20586 2.41577 6.46192 2.71398 5.7704C3.0122 5.07887 3.42288 4.47129 3.94601 3.94765C4.46915 3.42401 5.07891 3.01294 5.7753 2.71443C6.4717 2.41592 7.21252 2.26666 7.99776 2.26666C8.79413 2.26666 9.53807 2.41577 10.2296 2.71398C10.9211 3.0122 11.5287 3.42288 12.0523 3.94601C12.576 4.46915 12.9871 5.07613 13.2856 5.76696C13.5841 6.45781 13.7333 7.20141 13.7333 7.99776C13.7333 8.78302 13.5842 9.52419 13.286 10.2213C12.9878 10.9183 12.5771 11.5287 12.054 12.0523C11.5308 12.576 10.9239 12.9871 10.233 13.2856C9.54219 13.5841 8.79859 13.7333 8.00223 13.7333Z" fill="black"/>
</svg>
