<svg width="16" height="16" viewBox="0 0 16 16" fill="none" xmlns="http://www.w3.org/2000/svg">
<path d="M4.01025 12.9333C3.73675 12.9333 3.51111 12.8417 3.33333 12.6583C3.15555 12.475 3.06667 12.2521 3.06667 11.9897V4.01023C3.06667 3.74784 3.15555 3.52498 3.33333 3.34165C3.51111 3.15832 3.73675 3.06665 4.01025 3.06665H11.9897C12.2632 3.06665 12.4889 3.15832 12.6667 3.34165C12.8444 3.52498 12.9333 3.74784 12.9333 4.01023V11.9897C12.9333 12.2521 12.8444 12.475 12.6667 12.6583C12.4889 12.8417 12.2632 12.9333 11.9897 12.9333H4.01025ZM5.4 10.8667H10.7026L8.91795 8.48717L7.37437 10.4256L6.50768 9.41537L5.4 10.8667Z" fill="black"/>
</svg>
