<svg width="16" height="16" viewBox="0 0 16 16" fill="none" xmlns="http://www.w3.org/2000/svg">
<path d="M4.01025 12.9333C3.74008 12.9333 3.51528 12.8417 3.33583 12.6583C3.15639 12.475 3.06667 12.2521 3.06667 11.9897V4.01023C3.06667 3.74784 3.15639 3.52498 3.33583 3.34165C3.51528 3.15832 3.74008 3.06665 4.01025 3.06665H11.9897C12.2599 3.06665 12.4847 3.15832 12.6642 3.34165C12.8436 3.52498 12.9333 3.74784 12.9333 4.01023V11.9897C12.9333 12.2521 12.8436 12.475 12.6642 12.6583C12.4847 12.8417 12.2599 12.9333 11.9897 12.9333H4.01025ZM4.01025 12.4H11.9897C12.0923 12.4 12.1863 12.3573 12.2718 12.2718C12.3573 12.1863 12.4 12.0923 12.4 11.9897V4.01023C12.4 3.90768 12.3573 3.81366 12.2718 3.72818C12.1863 3.64272 12.0923 3.59998 11.9897 3.59998H4.01025C3.90769 3.59998 3.81368 3.64272 3.7282 3.72818C3.64273 3.81366 3.6 3.90768 3.6 4.01023V11.9897C3.6 12.0923 3.64273 12.1863 3.7282 12.2718C3.81368 12.3573 3.90769 12.4 4.01025 12.4ZM5.4 10.8667H10.7026L8.91795 8.48717L7.37437 10.4256L6.50768 9.41537L5.4 10.8667Z" fill="black"/>
</svg>
