<svg width="16" height="16" viewBox="0 0 16 16" fill="none" xmlns="http://www.w3.org/2000/svg">
<path d="M7.73339 10.8667H8.26672V7.2H7.73339V10.8667ZM7.99654 6.38461C8.09291 6.38461 8.17485 6.35202 8.24237 6.28683C8.30989 6.22165 8.34364 6.14088 8.34364 6.04453C8.34364 5.94817 8.31105 5.86623 8.24587 5.79871C8.1807 5.73119 8.09993 5.69743 8.00357 5.69743C7.90721 5.69743 7.82526 5.73002 7.75774 5.7952C7.69023 5.86038 7.65647 5.94116 7.65647 6.03751C7.65647 6.13387 7.68906 6.21581 7.75424 6.28333C7.81942 6.35085 7.90019 6.38461 7.99654 6.38461ZM8.00687 13.7333C7.21856 13.7333 6.47587 13.5842 5.77879 13.286C5.08171 12.9878 4.47135 12.5771 3.94771 12.054C3.42407 11.5308 3.013 10.9213 2.71449 10.2254C2.41598 9.52945 2.26672 8.78585 2.26672 7.99458C2.26672 7.20331 2.41583 6.46192 2.71404 5.7704C3.01226 5.07887 3.42294 4.47129 3.94607 3.94765C4.46921 3.42401 5.07874 3.01294 5.77467 2.71443C6.47061 2.41592 7.21421 2.26666 8.00547 2.26666C8.79674 2.26666 9.53814 2.41577 10.2297 2.71398C10.9212 3.0122 11.5288 3.42288 12.0524 3.94601C12.576 4.46915 12.9871 5.07738 13.2856 5.77071C13.5841 6.46405 13.7334 7.20487 13.7334 7.99318C13.7334 8.78149 13.5843 9.52419 13.2861 10.2213C12.9879 10.9183 12.5772 11.5287 12.054 12.0523C11.5309 12.576 10.9227 12.9871 10.2293 13.2856C9.53601 13.5841 8.79519 13.7333 8.00687 13.7333ZM8.00006 13.2C9.4445 13.2 10.6723 12.6944 11.6834 11.6833C12.6945 10.6722 13.2001 9.44444 13.2001 8C13.2001 6.55555 12.6945 5.32777 11.6834 4.31666C10.6723 3.30555 9.4445 2.8 8.00006 2.8C6.55561 2.8 5.32783 3.30555 4.31672 4.31666C3.30561 5.32777 2.80006 6.55555 2.80006 8C2.80006 9.44444 3.30561 10.6722 4.31672 11.6833C5.32783 12.6944 6.55561 13.2 8.00006 13.2Z" fill="black"/>
</svg>
