<svg width="16" height="16" viewBox="0 0 16 16" fill="none" xmlns="http://www.w3.org/2000/svg">
<path d="M4.80554 13.7334C4.54372 13.7334 4.32179 13.6415 4.13974 13.4578C3.95769 13.2741 3.86667 13.0514 3.86667 12.7898V7.21028C3.86667 6.94866 3.95852 6.72598 4.14224 6.54226C4.32596 6.35855 4.54863 6.2667 4.81025 6.2667H5.46667V4.6667C5.46667 3.96085 5.7128 3.36217 6.20505 2.87065C6.69731 2.37912 7.29688 2.13336 8.00377 2.13336C8.71066 2.13336 9.30897 2.37912 9.79872 2.87065C10.2885 3.36217 10.5333 3.96085 10.5333 4.6667V6.2667H11.1898C11.4514 6.2667 11.674 6.35855 11.8578 6.54226C12.0415 6.72598 12.1333 6.94866 12.1333 7.21028V12.7898C12.1333 13.0514 12.0414 13.2741 11.8576 13.4578C11.6737 13.6415 11.4509 13.7334 11.1891 13.7334H4.80554ZM4.81025 13.2H11.1898C11.3094 13.2 11.4077 13.1616 11.4846 13.0846C11.5615 13.0077 11.6 12.9094 11.6 12.7898V7.21028C11.6 7.09062 11.5615 6.99233 11.4846 6.91541C11.4077 6.83849 11.3094 6.80003 11.1898 6.80003H4.81025C4.6906 6.80003 4.59231 6.83849 4.51539 6.91541C4.43846 6.99233 4.4 7.09062 4.4 7.21028V12.7898C4.4 12.9094 4.43846 13.0077 4.51539 13.0846C4.59231 13.1616 4.6906 13.2 4.81025 13.2ZM8.00354 10.8667C8.24905 10.8667 8.45428 10.783 8.61924 10.6157C8.78419 10.4484 8.86667 10.242 8.86667 9.9965C8.86667 9.75098 8.78301 9.54575 8.6157 9.3808C8.44838 9.21584 8.24197 9.13336 7.99647 9.13336C7.75096 9.13336 7.54572 9.21702 7.38077 9.38433C7.21581 9.55165 7.13334 9.75806 7.13334 10.0036C7.13334 10.2491 7.21699 10.4543 7.3843 10.6193C7.55162 10.7842 7.75804 10.8667 8.00354 10.8667ZM6 6.2667H10V4.6667C10 4.11114 9.80556 3.63892 9.41667 3.25003C9.02778 2.86114 8.55556 2.6667 8 2.6667C7.44445 2.6667 6.97222 2.86114 6.58334 3.25003C6.19445 3.63892 6 4.11114 6 4.6667V6.2667Z" fill="black"/>
</svg>
