<svg width="16" height="16" viewBox="0 0 16 16" fill="none" xmlns="http://www.w3.org/2000/svg">
<path d="M4.13847 13.6C3.8683 13.6 3.6435 13.5103 3.46405 13.3308C3.28461 13.1514 3.19489 12.9266 3.19489 12.6564V4.01023C3.19489 3.74007 3.28461 3.51526 3.46405 3.33582C3.6435 3.15637 3.8683 3.06665 4.13847 3.06665H8.15387V3.59998H4.13847C4.03591 3.59998 3.9419 3.64272 3.85644 3.72818C3.77096 3.81366 3.72822 3.90768 3.72822 4.01023V12.6564C3.72822 12.759 3.77096 12.853 3.85644 12.9384C3.9419 13.0239 4.03591 13.0667 4.13847 13.0667H8.15387V13.6H4.13847ZM10.9795 10.159L10.5782 9.79613L11.7744 8.59998H6.55387V8.06665H11.7744L10.5782 6.87048L10.9795 6.50767L12.8052 8.33332L10.9795 10.159Z" fill="black"/>
</svg>
