<svg width="16" height="16" viewBox="0 0 16 16" fill="none" xmlns="http://www.w3.org/2000/svg">
<path d="M3.21025 12.1333C2.94008 12.1333 2.71527 12.0435 2.53583 11.8639C2.35638 11.6844 2.26666 11.4594 2.26666 11.189V4.8055C2.26666 4.53515 2.35638 4.31108 2.53583 4.1333C2.71527 3.95553 2.94008 3.86664 3.21025 3.86664H12.7897C13.0599 3.86664 13.2847 3.95643 13.4642 4.136C13.6436 4.31558 13.7333 4.54055 13.7333 4.8109V11.1944C13.7333 11.4648 13.6436 11.6889 13.4642 11.8666C13.2847 12.0444 13.0599 12.1333 12.7897 12.1333H3.21025ZM8 8.21024L2.8 5.07306V11.1897C2.8 11.3094 2.83846 11.4077 2.91538 11.4846C2.9923 11.5615 3.09059 11.6 3.21025 11.6H12.7897C12.9094 11.6 13.0077 11.5615 13.0846 11.4846C13.1615 11.4077 13.2 11.3094 13.2 11.1897V5.07306L8 8.21024ZM8 7.38331L12.9949 4.39997H3.00513L8 7.38331ZM2.8 5.07306V4.39997V11.1897C2.8 11.3094 2.83846 11.4077 2.91538 11.4846C2.9923 11.5615 3.09059 11.6 3.21025 11.6H2.8V5.07306Z" fill="black"/>
</svg>
