<svg width="16" height="16" viewBox="0 0 16 16" fill="none" xmlns="http://www.w3.org/2000/svg">
<path d="M8 8.93333C7.62393 8.93333 7.30769 8.80512 7.05128 8.54871C6.79487 8.2923 6.66666 7.97606 6.66666 7.6V3.6C6.66666 3.22393 6.79487 2.90769 7.05128 2.65128C7.30769 2.39487 7.62393 2.26666 8 2.26666C8.37606 2.26666 8.6923 2.39487 8.94871 2.65128C9.20512 2.90769 9.33333 3.22393 9.33333 3.6V7.6C9.33333 7.97606 9.20512 8.2923 8.94871 8.54871C8.6923 8.80512 8.37606 8.93333 8 8.93333ZM7.73333 13.2667V11.3218C6.74666 11.236 5.92222 10.8421 5.26 10.1401C4.59777 9.43817 4.26666 8.59145 4.26666 7.6H4.8C4.8 8.48533 5.11236 9.24 5.7371 9.864C6.36183 10.488 7.11739 10.8 8.00376 10.8C8.89014 10.8 9.64444 10.488 10.2667 9.864C10.8889 9.24 11.2 8.48533 11.2 7.6H11.7333C11.7333 8.59145 11.4022 9.43817 10.74 10.1401C10.0778 10.8421 9.25333 11.236 8.26666 11.3218V13.2667H7.73333ZM8 8.4C8.22666 8.4 8.41666 8.32333 8.57 8.17C8.72333 8.01666 8.8 7.82666 8.8 7.6V3.6C8.8 3.37333 8.72333 3.18333 8.57 3.03C8.41666 2.87666 8.22666 2.8 8 2.8C7.77333 2.8 7.58333 2.87666 7.43 3.03C7.27666 3.18333 7.2 3.37333 7.2 3.6V7.6C7.2 7.82666 7.27666 8.01666 7.43 8.17C7.58333 8.32333 7.77333 8.4 8 8.4Z" fill="black"/>
</svg>
