<svg width="16" height="16" viewBox="0 0 16 16" fill="none" xmlns="http://www.w3.org/2000/svg">
<path d="M10.0748 7.14358C10.2822 7.14358 10.4575 7.071 10.6006 6.92583C10.7438 6.78065 10.8154 6.60437 10.8154 6.39698C10.8154 6.18959 10.7428 6.01431 10.5976 5.87115C10.4525 5.72799 10.2762 5.65641 10.0688 5.65641C9.86139 5.65641 9.68611 5.729 9.54295 5.87416C9.39978 6.01934 9.3282 6.19562 9.3282 6.40301C9.3282 6.6104 9.40078 6.78568 9.54596 6.92885C9.69114 7.072 9.86742 7.14358 10.0748 7.14358ZM5.93121 7.14358C6.1386 7.14358 6.31388 7.071 6.45705 6.92583C6.60021 6.78065 6.6718 6.60437 6.6718 6.39698C6.6718 6.18959 6.59921 6.01431 6.45403 5.87115C6.30885 5.72799 6.13257 5.65641 5.92518 5.65641C5.71779 5.65641 5.54251 5.729 5.39935 5.87416C5.25619 6.01934 5.18461 6.19562 5.18461 6.40301C5.18461 6.6104 5.2572 6.78568 5.40236 6.92885C5.54754 7.072 5.72382 7.14358 5.93121 7.14358ZM8 10.7897C8.54701 10.7897 9.06047 10.656 9.54038 10.3885C10.0203 10.1209 10.4171 9.75256 10.7308 9.28333H5.26923C5.5829 9.75256 5.97969 10.1209 6.45961 10.3885C6.93952 10.656 7.45299 10.7897 8 10.7897ZM8.00681 13.7333C7.2185 13.7333 6.47581 13.5842 5.77873 13.286C5.08165 12.9878 4.47129 12.5771 3.94765 12.054C3.42401 11.5308 3.01294 10.9213 2.71443 10.2254C2.41592 9.52945 2.26666 8.78585 2.26666 7.99458C2.26666 7.20331 2.41577 6.46192 2.71398 5.7704C3.0122 5.07887 3.42288 4.47129 3.94601 3.94765C4.46915 3.42401 5.07868 3.01294 5.77461 2.71443C6.47055 2.41592 7.21415 2.26666 8.00541 2.26666C8.79668 2.26666 9.53807 2.41577 10.2296 2.71398C10.9211 3.0122 11.5287 3.42288 12.0523 3.94601C12.576 4.46915 12.9871 5.07738 13.2856 5.77071C13.5841 6.46405 13.7333 7.20487 13.7333 7.99318C13.7333 8.78149 13.5842 9.52419 13.286 10.2213C12.9878 10.9183 12.5771 11.5287 12.054 12.0523C11.5308 12.576 10.9226 12.9871 10.2293 13.2856C9.53595 13.5841 8.79512 13.7333 8.00681 13.7333ZM8 13.2C9.44444 13.2 10.6722 12.6944 11.6833 11.6833C12.6944 10.6722 13.2 9.44444 13.2 8C13.2 6.55555 12.6944 5.32777 11.6833 4.31666C10.6722 3.30555 9.44444 2.8 8 2.8C6.55555 2.8 5.32777 3.30555 4.31666 4.31666C3.30555 5.32777 2.8 6.55555 2.8 8C2.8 9.44444 3.30555 10.6722 4.31666 11.6833C5.32777 12.6944 6.55555 13.2 8 13.2Z" fill="black"/>
</svg>
