<svg width="16" height="16" viewBox="0 0 16 16" fill="none" xmlns="http://www.w3.org/2000/svg">
<path d="M7.99647 11.8257C7.84883 11.8257 7.72362 11.7731 7.62084 11.668C7.51806 11.5628 7.46667 11.4364 7.46667 11.2888C7.46667 11.1411 7.51924 11.0159 7.62437 10.9132C7.72952 10.8104 7.85591 10.759 8.00354 10.759C8.15119 10.759 8.2764 10.8116 8.37917 10.9167C8.48195 11.0218 8.53334 11.1482 8.53334 11.2959C8.53334 11.4435 8.48077 11.5687 8.37564 11.6715C8.2705 11.7743 8.14411 11.8257 7.99647 11.8257ZM7.99647 8.53336C7.84883 8.53336 7.72362 8.48079 7.62084 8.37566C7.51806 8.27052 7.46667 8.14413 7.46667 7.99649C7.46667 7.84885 7.51924 7.72364 7.62437 7.62086C7.72952 7.51808 7.85591 7.46669 8.00354 7.46669C8.15119 7.46669 8.2764 7.51926 8.37917 7.62439C8.48195 7.72954 8.53334 7.85593 8.53334 8.00356C8.53334 8.15121 8.48077 8.27642 8.37564 8.37919C8.2705 8.48197 8.14411 8.53336 7.99647 8.53336ZM7.99647 5.24106C7.84883 5.24106 7.72362 5.18849 7.62084 5.08334C7.51806 4.97821 7.46667 4.85182 7.46667 4.70418C7.46667 4.55653 7.51924 4.43132 7.62437 4.32854C7.72952 4.22577 7.85591 4.17438 8.00354 4.17438C8.15119 4.17438 8.2764 4.22695 8.37917 4.33209C8.48195 4.43723 8.53334 4.56362 8.53334 4.71126C8.53334 4.85891 8.48077 4.98412 8.37564 5.08689C8.2705 5.18967 8.14411 5.24106 7.99647 5.24106Z" fill="black"/>
</svg>
