<svg width="16" height="16" viewBox="0 0 16 16" fill="none" xmlns="http://www.w3.org/2000/svg">
<path d="M4.70412 8.53334C4.55647 8.53334 4.43126 8.48077 4.32848 8.37564C4.22571 8.2705 4.17432 8.14411 4.17432 7.99647C4.17432 7.84883 4.22689 7.72362 4.33203 7.62084C4.43717 7.51806 4.56356 7.46667 4.7112 7.46667C4.85884 7.46667 4.98406 7.51924 5.08683 7.62437C5.18961 7.72952 5.241 7.85591 5.241 8.00354C5.241 8.15119 5.18843 8.2764 5.08328 8.37917C4.97815 8.48195 4.85176 8.53334 4.70412 8.53334ZM7.99643 8.53334C7.84879 8.53334 7.72358 8.48077 7.6208 8.37564C7.51802 8.2705 7.46663 8.14411 7.46663 7.99647C7.46663 7.84883 7.5192 7.72362 7.62433 7.62084C7.72948 7.51806 7.85587 7.46667 8.0035 7.46667C8.15114 7.46667 8.27636 7.51924 8.37913 7.62437C8.48191 7.72952 8.5333 7.85591 8.5333 8.00354C8.5333 8.15119 8.48073 8.2764 8.3756 8.37917C8.27045 8.48195 8.14407 8.53334 7.99643 8.53334ZM11.2887 8.53334C11.1411 8.53334 11.0159 8.48077 10.9131 8.37564C10.8103 8.2705 10.7589 8.14411 10.7589 7.99647C10.7589 7.84883 10.8115 7.72362 10.9166 7.62084C11.0218 7.51806 11.1482 7.46667 11.2958 7.46667C11.4435 7.46667 11.5687 7.51924 11.6714 7.62437C11.7742 7.72952 11.8256 7.85591 11.8256 8.00354C11.8256 8.15119 11.773 8.2764 11.6679 8.37917C11.5628 8.48195 11.4364 8.53334 11.2887 8.53334Z" fill="black"/>
</svg>
