<svg width="16" height="16" viewBox="0 0 16 16" fill="none" xmlns="http://www.w3.org/2000/svg">
<path d="M2.36664 7.19998C2.36664 6.34955 2.55382 5.54827 2.92817 4.79613C3.30253 4.044 3.81791 3.39913 4.47432 2.86152L4.86664 3.26665C4.24442 3.73332 3.76108 4.31057 3.41664 4.9984C3.07219 5.68622 2.89997 6.42008 2.89997 7.19998H2.36664ZM13.1 7.19998C13.1 6.42008 12.9277 5.68622 12.5833 4.9984C12.2389 4.31057 11.7555 3.73332 11.1333 3.26665L11.5256 2.86152C12.182 3.39913 12.6974 4.044 13.0718 4.79613C13.4461 5.54827 13.6333 6.34955 13.6333 7.19998H13.1ZM3.5333 12.2205V11.6872H4.33331V7.35383C4.33331 6.43535 4.6348 5.6273 5.23779 4.9297C5.84078 4.23211 6.60595 3.82007 7.53331 3.69357V2.81023C7.53331 2.67348 7.57689 2.56151 7.66407 2.47433C7.75125 2.38716 7.86322 2.34357 7.99997 2.34357C8.13673 2.34357 8.24869 2.38716 8.33587 2.47433C8.42305 2.56151 8.46664 2.67348 8.46664 2.81023V3.69357C9.39399 3.82007 10.1592 4.22862 10.7622 4.91922C11.3651 5.60982 11.6666 6.42136 11.6666 7.35383V11.6872H12.4666V12.2205H3.5333ZM7.99644 14.1436C7.74238 14.1436 7.52219 14.0538 7.33587 13.8744C7.14955 13.695 7.05639 13.4702 7.05639 13.2H8.94355C8.94355 13.4735 8.85349 13.6991 8.67336 13.8769C8.49322 14.0547 8.26758 14.1436 7.99644 14.1436Z" fill="black"/>
</svg>
