<svg width="16" height="16" viewBox="0 0 16 16" fill="none" xmlns="http://www.w3.org/2000/svg">
<path d="M3.53333 12.2205V11.6872H4.33333V7.35383C4.33333 6.43535 4.63482 5.6273 5.23781 4.9297C5.8408 4.23211 6.60597 3.82007 7.53333 3.69357V2.81023C7.53333 2.67348 7.57691 2.56151 7.66409 2.47433C7.75127 2.38716 7.86324 2.34357 7.99999 2.34357C8.13675 2.34357 8.24871 2.38716 8.33589 2.47433C8.42307 2.56151 8.46666 2.67348 8.46666 2.81023V3.69357C9.39401 3.82007 10.1592 4.22862 10.7622 4.91922C11.3652 5.60982 11.6667 6.42136 11.6667 7.35383V11.6872H12.4667V12.2205H3.53333ZM7.99646 14.1436C7.7424 14.1436 7.52221 14.0538 7.33589 13.8744C7.14957 13.695 7.05641 13.4702 7.05641 13.2H8.94358C8.94358 13.4735 8.85351 13.6991 8.67338 13.8769C8.49324 14.0547 8.2676 14.1436 7.99646 14.1436Z" fill="black"/>
</svg>
