<svg width="16" height="16" viewBox="0 0 16 16" fill="none" xmlns="http://www.w3.org/2000/svg">
<path d="M3.3205 12.9333C3.24494 12.9333 3.18161 12.9081 3.1305 12.8575C3.07939 12.807 3.05383 12.7444 3.05383 12.6697C3.05383 12.595 3.07939 12.5314 3.1305 12.4788C3.18161 12.4263 3.24494 12.4 3.3205 12.4H4.06152V8.26665H3.324C3.24944 8.26665 3.18578 8.24139 3.133 8.19087C3.08022 8.14035 3.05383 8.07774 3.05383 8.00305C3.05383 7.92835 3.07939 7.86472 3.1305 7.81217C3.18161 7.7596 3.24494 7.73332 3.3205 7.73332H4.06152V3.59998H3.324C3.24944 3.59998 3.18578 3.57472 3.133 3.5242C3.08022 3.47368 3.05383 3.41107 3.05383 3.33637C3.05383 3.26168 3.07939 3.19806 3.1305 3.1455C3.18161 3.09293 3.24494 3.06665 3.3205 3.06665H12.6666C12.7422 3.06665 12.8055 3.09191 12.8567 3.14243C12.9078 3.19296 12.9333 3.25556 12.9333 3.33025C12.9333 3.40494 12.9078 3.46857 12.8567 3.52113C12.8055 3.5737 12.7422 3.59998 12.6666 3.59998H11.9384V7.73332H12.6631C12.7377 7.73332 12.8014 7.75858 12.8541 7.8091C12.9069 7.85962 12.9333 7.92223 12.9333 7.99692C12.9333 8.07162 12.9078 8.13525 12.8567 8.1878C12.8055 8.24037 12.7422 8.26665 12.6666 8.26665H11.9384V12.4H12.6631C12.7377 12.4 12.8014 12.4252 12.8541 12.4758C12.9069 12.5263 12.9333 12.5889 12.9333 12.6636C12.9333 12.7383 12.9078 12.8019 12.8567 12.8545C12.8055 12.907 12.7422 12.9333 12.6666 12.9333H3.3205ZM4.59485 12.4H11.4051V8.26665H10.8718C10.7962 8.26665 10.7329 8.24139 10.6818 8.19087C10.6307 8.14035 10.6051 8.07774 10.6051 8.00305C10.6051 7.92835 10.6307 7.86472 10.6818 7.81217C10.7329 7.7596 10.7962 7.73332 10.8718 7.73332H11.4051V3.59998H4.59485V7.73332H5.12818C5.20374 7.73332 5.26707 7.75858 5.31818 7.8091C5.36929 7.85962 5.39485 7.92223 5.39485 7.99692C5.39485 8.07162 5.36929 8.13525 5.31818 8.1878C5.26707 8.24037 5.20374 8.26665 5.12818 8.26665H4.59485V12.4ZM7.99848 9.97692C8.40547 9.97692 8.75191 9.8394 9.0378 9.56437C9.3237 9.28933 9.46665 8.9466 9.46665 8.53615C9.46665 8.20947 9.38193 7.94152 9.21248 7.73228C9.04304 7.52306 8.63887 7.04904 7.99998 6.31023C7.37862 7.05639 6.97883 7.53314 6.80062 7.7405C6.62242 7.94786 6.53332 8.21418 6.53332 8.53948C6.53332 8.94819 6.67576 9.28995 6.96065 9.56473C7.24554 9.83952 7.59148 9.97692 7.99848 9.97692Z" fill="black"/>
</svg>
