<svg width="16" height="16" viewBox="0 0 16 16" fill="none" xmlns="http://www.w3.org/2000/svg">
<path d="M4.01026 12.9333C3.7401 12.9333 3.51529 12.8436 3.33585 12.6642C3.1564 12.4847 3.06668 12.2599 3.06668 11.9897V4.01023C3.06668 3.74007 3.1564 3.51526 3.33585 3.33582C3.51529 3.15637 3.7401 3.06665 4.01026 3.06665H7.4872V3.59998H4.01026C3.90771 3.59998 3.81369 3.64272 3.72821 3.72818C3.64275 3.81366 3.60001 3.90768 3.60001 4.01023V11.9897C3.60001 12.0923 3.64275 12.1863 3.72821 12.2718C3.81369 12.3573 3.90771 12.4 4.01026 12.4H11.9898C12.0923 12.4 12.1863 12.3573 12.2718 12.2718C12.3573 12.1863 12.4 12.0923 12.4 11.9897V8.5128H12.9333V11.9897C12.9333 12.2599 12.8436 12.4847 12.6642 12.6642C12.4847 12.8436 12.2599 12.9333 11.9898 12.9333H4.01026ZM6.47565 9.9128L6.0872 9.52435L12.0115 3.59998H9.60001V3.06665H12.9333V6.39998H12.4V3.98845L6.47565 9.9128Z" fill="black"/>
</svg>
