<svg width="16" height="16" viewBox="0 0 16 16" fill="none" xmlns="http://www.w3.org/2000/svg">
<path d="M10.4769 7.26665V6.73331H13.8103V7.26665H10.4769ZM6.4 7.58973C5.91666 7.58973 5.50694 7.42168 5.17083 7.08556C4.83472 6.74945 4.66666 6.33973 4.66666 5.8564C4.66666 5.37305 4.83472 4.96332 5.17083 4.62721C5.50694 4.2911 5.91666 4.12305 6.4 4.12305C6.88333 4.12305 7.29305 4.2911 7.62916 4.62721C7.96527 4.96332 8.13333 5.37305 8.13333 5.8564C8.13333 6.33973 7.96527 6.74945 7.62916 7.08556C7.29305 7.42168 6.88333 7.58973 6.4 7.58973ZM2.26666 11.8769V11.1128C2.26666 10.9289 2.31901 10.7554 2.42371 10.5922C2.52841 10.429 2.67735 10.2923 2.87051 10.182C3.42179 9.86921 3.99572 9.62904 4.5923 9.46151C5.18888 9.29399 5.79145 9.21023 6.4 9.21023C7.00854 9.21023 7.61111 9.29399 8.2077 9.46151C8.80427 9.62904 9.3782 9.86921 9.92948 10.182C10.1226 10.2923 10.2716 10.429 10.3763 10.5922C10.481 10.7554 10.5333 10.9289 10.5333 11.1128V11.8769H2.26666ZM2.8 11.3436H10V11.1128C10 11.0153 9.9661 10.9221 9.8983 10.8334C9.8305 10.7447 9.73491 10.6668 9.61153 10.6C9.1406 10.3342 8.6304 10.125 8.08093 9.97241C7.53147 9.81985 6.97116 9.74356 6.4 9.74356C5.82883 9.74356 5.26852 9.81985 4.71906 9.97241C4.1696 10.125 3.6594 10.3342 3.18846 10.6C3.06508 10.6668 2.9695 10.7447 2.9017 10.8334C2.8339 10.9221 2.8 11.0153 2.8 11.1128V11.3436ZM6.40353 7.0564C6.73451 7.0564 7.01666 6.93855 7.25 6.70285C7.48333 6.46716 7.6 6.18383 7.6 5.85285C7.6 5.52188 7.48215 5.23973 7.24646 5.0064C7.01076 4.77306 6.72743 4.6564 6.39646 4.6564C6.06548 4.6564 5.78333 4.77424 5.55 5.00993C5.31666 5.24562 5.2 5.52895 5.2 5.85993C5.2 6.19091 5.31784 6.47306 5.55353 6.7064C5.78923 6.93973 6.07256 7.0564 6.40353 7.0564Z" fill="black"/>
</svg>
