<svg width="16" height="16" viewBox="0 0 16 16" fill="none" xmlns="http://www.w3.org/2000/svg">
<path d="M8 7.58973C7.51667 7.58973 7.10695 7.42168 6.77084 7.08556C6.43472 6.74945 6.26667 6.33973 6.26667 5.8564C6.26667 5.37305 6.43472 4.96332 6.77084 4.62721C7.10695 4.2911 7.51667 4.12305 8 4.12305C8.48334 4.12305 8.89306 4.2911 9.22917 4.62721C9.56528 4.96332 9.73334 5.37305 9.73334 5.8564C9.73334 6.33973 9.56528 6.74945 9.22917 7.08556C8.89306 7.42168 8.48334 7.58973 8 7.58973ZM3.86667 11.8769V11.0461C3.86667 10.8931 3.91902 10.7412 4.02372 10.5904C4.12842 10.4395 4.27735 10.3034 4.47052 10.182C5.0218 9.86921 5.5985 9.62904 6.20064 9.46151C6.80278 9.29399 7.40257 9.21023 8 9.21023C8.59744 9.21023 9.19722 9.29399 9.79937 9.46151C10.4015 9.62904 10.9782 9.86921 11.5295 10.182C11.7227 10.2923 11.8716 10.4256 11.9763 10.582C12.081 10.7384 12.1333 10.8931 12.1333 11.0461V11.8769H3.86667Z" fill="black"/>
</svg>
