<svg width="16" height="16" viewBox="0 0 16 16" fill="none" xmlns="http://www.w3.org/2000/svg">
<path d="M10.4769 7.26665V6.73331H13.8103V7.26665H10.4769ZM6.4 7.58973C5.91666 7.58973 5.50694 7.42168 5.17083 7.08556C4.83472 6.74945 4.66666 6.33973 4.66666 5.8564C4.66666 5.37305 4.83472 4.96332 5.17083 4.62721C5.50694 4.2911 5.91666 4.12305 6.4 4.12305C6.88333 4.12305 7.29305 4.2911 7.62916 4.62721C7.96527 4.96332 8.13333 5.37305 8.13333 5.8564C8.13333 6.33973 7.96527 6.74945 7.62916 7.08556C7.29305 7.42168 6.88333 7.58973 6.4 7.58973ZM2.26666 11.8769V11.1128C2.26666 10.9265 2.31901 10.7523 2.42371 10.5904C2.52841 10.4284 2.67735 10.2923 2.87051 10.182C3.42179 9.86921 3.99572 9.62904 4.5923 9.46151C5.18888 9.29399 5.79145 9.21023 6.4 9.21023C7.00854 9.21023 7.61111 9.29399 8.2077 9.46151C8.80427 9.62904 9.3782 9.86921 9.92948 10.182C10.1226 10.2923 10.2716 10.4284 10.3763 10.5904C10.481 10.7523 10.5333 10.9265 10.5333 11.1128V11.8769H2.26666Z" fill="black"/>
</svg>
