<svg width="16" height="16" viewBox="0 0 16 16" fill="none" xmlns="http://www.w3.org/2000/svg">
<path d="M8 7.58973C7.51667 7.58973 7.10695 7.42168 6.77084 7.08556C6.43472 6.74945 6.26667 6.33973 6.26667 5.8564C6.26667 5.37305 6.43472 4.96332 6.77084 4.62721C7.10695 4.2911 7.51667 4.12305 8 4.12305C8.48334 4.12305 8.89306 4.2911 9.22917 4.62721C9.56528 4.96332 9.73334 5.37305 9.73334 5.8564C9.73334 6.33973 9.56528 6.74945 9.22917 7.08556C8.89306 7.42168 8.48334 7.58973 8 7.58973ZM3.86667 11.8769V11.0461C3.86667 10.8931 3.91902 10.7412 4.02372 10.5904C4.12842 10.4395 4.27735 10.3034 4.47052 10.182C5.0218 9.86921 5.59735 9.62904 6.19719 9.46151C6.79701 9.29399 7.39679 9.21023 7.99654 9.21023C8.59628 9.21023 9.19722 9.29399 9.79937 9.46151C10.4015 9.62904 10.9782 9.86921 11.5295 10.182C11.7227 10.2923 11.8716 10.4256 11.9763 10.582C12.081 10.7384 12.1333 10.8931 12.1333 11.0461V11.8769H3.86667ZM4.4 11.3436H11.6V11.0461C11.6 10.963 11.5661 10.8829 11.4983 10.8059C11.4305 10.729 11.3349 10.6603 11.2115 10.6C10.7517 10.3231 10.2471 10.1111 9.6976 9.96408C9.14815 9.81707 8.58228 9.74356 8 9.74356C7.41772 9.74356 6.85186 9.81707 6.3024 9.96408C5.75294 10.1111 5.24829 10.3231 4.78847 10.6C4.66454 10.6786 4.56881 10.7536 4.50129 10.8249C4.43376 10.8962 4.4 10.9699 4.4 11.0461V11.3436ZM8.00354 7.0564C8.33451 7.0564 8.61667 6.93855 8.85 6.70285C9.08334 6.46716 9.2 6.18383 9.2 5.85285C9.2 5.52188 9.08216 5.23973 8.84647 5.0064C8.61077 4.77306 8.32744 4.6564 7.99647 4.6564C7.66549 4.6564 7.38334 4.77424 7.15 5.00993C6.91667 5.24562 6.8 5.52895 6.8 5.85993C6.8 6.19091 6.91785 6.47306 7.15354 6.7064C7.38924 6.93973 7.67257 7.0564 8.00354 7.0564Z" fill="black"/>
</svg>
