<svg width="16" height="16" viewBox="0 0 16 16" fill="none" xmlns="http://www.w3.org/2000/svg">
<path d="M8.26666 7.73333H13.1923C13.1359 6.39401 12.6357 5.2502 11.6917 4.30191C10.7477 3.35362 9.60599 2.85555 8.26666 2.8077V7.73333ZM7.73333 13.1923V2.8077C6.36238 2.87777 5.19743 3.41025 4.23846 4.40513C3.27948 5.4 2.8 6.59551 2.8 7.99166C2.8 9.38782 3.27948 10.5861 4.23846 11.5865C5.19743 12.587 6.36238 13.1222 7.73333 13.1923ZM8.26666 13.1923C9.59487 13.1248 10.7316 12.6162 11.6769 11.6667C12.6222 10.7171 13.1273 9.58376 13.1923 8.26666H8.26666V13.1923ZM8.00986 13.7333C7.2186 13.7333 6.47466 13.5842 5.77805 13.286C5.08142 12.9878 4.47129 12.5771 3.94765 12.054C3.42401 11.5308 3.01294 10.9213 2.71443 10.2254C2.41592 9.52945 2.26666 8.78585 2.26666 7.99458C2.26666 7.20331 2.41577 6.45914 2.71398 5.76206C3.0122 5.06499 3.42288 4.4574 3.94601 3.93931C4.46915 3.42123 5.07868 3.01294 5.77461 2.71443C6.47055 2.41592 7.21415 2.26666 8.00541 2.26666C8.79668 2.26666 9.54011 2.41757 10.2357 2.71938C10.9313 3.02119 11.5374 3.43071 12.054 3.94795C12.5707 4.46518 12.9797 5.07148 13.2811 5.76685C13.5826 6.46222 13.7333 7.20796 13.7333 8.00405C13.7333 8.79055 13.5831 9.53192 13.2825 10.2282C12.982 10.9244 12.5741 11.5325 12.0589 12.0523C11.5438 12.5721 10.9379 12.9822 10.2415 13.2827C9.545 13.5831 8.80113 13.7333 8.00986 13.7333Z" fill="black"/>
</svg>
