<svg width="16" height="16" viewBox="0 0 16 16" fill="none" xmlns="http://www.w3.org/2000/svg">
<path d="M6.73333 10.1846L10.1846 8L6.73333 5.81538V10.1846ZM8.00681 13.7333C7.2185 13.7333 6.47581 13.5842 5.77873 13.286C5.08165 12.9878 4.47129 12.5771 3.94765 12.054C3.42401 11.5308 3.01294 10.9213 2.71443 10.2254C2.41592 9.52945 2.26666 8.78585 2.26666 7.99458C2.26666 7.20331 2.41577 6.46192 2.71398 5.7704C3.0122 5.07887 3.42288 4.47129 3.94601 3.94765C4.46915 3.42401 5.07868 3.01294 5.77461 2.71443C6.47055 2.41592 7.21415 2.26666 8.00541 2.26666C8.79668 2.26666 9.53807 2.41577 10.2296 2.71398C10.9211 3.0122 11.5287 3.42288 12.0523 3.94601C12.576 4.46915 12.9871 5.07738 13.2856 5.77071C13.5841 6.46405 13.7333 7.20487 13.7333 7.99318C13.7333 8.78149 13.5842 9.52419 13.286 10.2213C12.9878 10.9183 12.5771 11.5287 12.054 12.0523C11.5308 12.576 10.9226 12.9871 10.2293 13.2856C9.53595 13.5841 8.79512 13.7333 8.00681 13.7333Z" fill="black"/>
</svg>
