<?xml version="1.0" standalone="no"?>
<!DOCTYPE svg PUBLIC "-//W3C//DTD SVG 20010904//EN"
 "http://www.w3.org/TR/2001/REC-SVG-20010904/DTD/svg10.dtd">
<svg version="1.0" xmlns="http://www.w3.org/2000/svg"
 width="101.000000pt" height="101.000000pt" viewBox="0 0 101.000000 101.000000"
 preserveAspectRatio="xMidYMid meet">

<g transform="translate(0.000000,101.000000) scale(0.100000,-0.100000)"
fill="rgb(93, 40, 13)" stroke="none">
<path d="M378 985 c-372 -102 -496 -567 -223 -839 200 -200 526 -193 720 16
184 198 178 496 -14 689 -71 72 -138 111 -228 134 -69 18 -190 18 -255 0z
m247 -10 c244 -64 403 -300 366 -545 -40 -268 -299 -457 -563 -412 -238 41
-408 242 -408 482 0 318 301 554 605 475z"/>
<path d="M365 757 c-3 -7 -4 -127 -3 -267 3 -255 3 -255 25 -258 16 -2 75 34
192 118 183 130 194 140 186 161 -10 23 -351 259 -374 259 -12 0 -24 -6 -26
-13z"/>
</g>
</svg>
