<svg width="16" height="16" viewBox="0 0 16 16" fill="none" xmlns="http://www.w3.org/2000/svg">
<path d="M7.99797 14.0667C7.16739 14.0667 6.38337 13.9075 5.64592 13.5893C4.90846 13.2711 4.26444 12.8367 3.71387 12.2861C3.1633 11.7356 2.72891 11.0915 2.41068 10.3541C2.09246 9.61663 1.93335 8.83261 1.93335 8.00203C1.93335 7.16132 2.09267 6.37379 2.41132 5.63943C2.72995 4.90509 3.16367 4.26327 3.71248 3.71398C4.26131 3.16471 4.90489 2.73062 5.64325 2.41172C6.38162 2.09281 7.16549 1.93335 7.99488 1.93335C8.12885 1.93335 8.23541 1.97296 8.31457 2.05217C8.39373 2.13138 8.43332 2.23356 8.43332 2.35872C8.43332 2.48387 8.39373 2.58871 8.31457 2.67323C8.23541 2.75774 8.13056 2.8 8 2.8C6.55917 2.8 5.33229 3.30278 4.31938 4.30833C3.30646 5.31389 2.8 6.54167 2.8 7.99167C2.8 9.44167 3.30646 10.6722 4.31938 11.6833C5.33229 12.6944 6.55917 13.2 8 13.2C9.45556 13.2 10.6861 12.6935 11.6917 11.6806C12.6972 10.6677 13.2 9.44083 13.2 8C13.2 7.86944 13.2423 7.76459 13.327 7.68543C13.4117 7.60627 13.5166 7.56668 13.6417 7.56668C13.7669 7.56668 13.869 7.60627 13.9481 7.68543C14.0271 7.76459 14.0667 7.87115 14.0667 8.00512C14.0667 8.83451 13.9072 9.61838 13.5883 10.3568C13.2694 11.0951 12.8353 11.7387 12.286 12.2875C11.7367 12.8363 11.0949 13.2701 10.3606 13.5887C9.62621 13.9073 8.83868 14.0667 7.99797 14.0667Z" fill="black"/>
</svg>
