<svg width="16" height="16" viewBox="0 0 16 16" fill="none" xmlns="http://www.w3.org/2000/svg">
<path d="M5.59289 13.7333C5.11428 13.7333 4.70692 13.5653 4.3708 13.2292C4.03469 12.8931 3.86664 12.4833 3.86664 12V5.88718C3.86664 5.46752 3.99762 5.09979 4.25959 4.78398C4.52155 4.46816 4.87262 4.28675 5.31279 4.23975V3.21025C5.31279 2.95076 5.40518 2.72862 5.58997 2.54385C5.77476 2.35906 5.9969 2.26666 6.25639 2.26666H9.74356C10.003 2.26666 10.2252 2.35906 10.41 2.54385C10.5948 2.72862 10.6872 2.95076 10.6872 3.21025V4.23975C11.1273 4.28675 11.4784 4.46816 11.7404 4.78398C12.0023 5.09979 12.1333 5.46752 12.1333 5.88718V12C12.1333 12.4833 11.9653 12.8931 11.6291 13.2292C11.293 13.5653 10.8857 13.7333 10.4071 13.7333H5.59289ZM4.39997 8.67691H11.6V5.88718C11.6 5.55718 11.4824 5.27468 11.2472 5.03968C11.012 4.80468 10.7293 4.68718 10.3991 4.68718H5.59535C5.2651 4.68718 4.9833 4.80468 4.74997 5.03968C4.51664 5.27468 4.39997 5.55718 4.39997 5.88718V8.67691ZM5.60089 13.2H10.4046C10.7348 13.2 11.0166 13.0825 11.25 12.8475C11.4833 12.6125 11.6 12.33 11.6 12V9.21026H4.39997V12C4.39997 12.33 4.51756 12.6125 4.75274 12.8475C4.98793 13.0825 5.27064 13.2 5.60089 13.2ZM8.44612 4.15385H10.1538V3.21025C10.1538 3.09059 10.1154 2.9923 10.0384 2.91538C9.96152 2.83846 9.86322 2.8 9.74356 2.8H6.25639C6.13672 2.8 6.03843 2.83846 5.9615 2.91538C5.88458 2.9923 5.84612 3.09059 5.84612 3.21025V4.15385H7.55382C7.55382 4.03846 7.59817 3.93525 7.68686 3.84423C7.77553 3.7532 7.87873 3.70768 7.99646 3.70768C8.11419 3.70768 8.21857 3.75236 8.30959 3.84173C8.40061 3.93109 8.44612 4.03512 8.44612 4.15385Z" fill="black"/>
</svg>
