<svg width="16" height="16" viewBox="0 0 16 16" fill="none" xmlns="http://www.w3.org/2000/svg">
<path d="M6.46408 12.4667C5.67776 12.4667 5.0034 12.1876 4.441 11.6295C3.87861 11.0714 3.59741 10.3949 3.59741 9.60001C3.59741 8.80514 3.87861 8.12864 4.441 7.57053C5.0034 7.01241 5.67776 6.73335 6.46408 6.73335H11.3589L9.47561 4.85001L9.86408 4.46155L12.4025 7.00001L9.86408 9.53848L9.47561 9.15001L11.3589 7.26668H6.46408C5.81451 7.26668 5.26323 7.49104 4.81023 7.93976C4.35724 8.38848 4.13075 8.94189 4.13075 9.60001C4.13075 10.2581 4.35724 10.8116 4.81023 11.2603C5.26323 11.709 5.81451 11.9333 6.46408 11.9333H10.9307V12.4667H6.46408Z" fill="black"/>
</svg>
