<svg width="16" height="16" viewBox="0 0 16 16" fill="none" xmlns="http://www.w3.org/2000/svg">
<path d="M8.05127 12.1333C6.90405 12.1333 5.92835 11.7314 5.12419 10.9277C4.32002 10.1239 3.91794 9.14866 3.91794 8.00201C3.91794 6.85535 4.32002 5.87945 5.12419 5.07432C5.92835 4.2692 6.90405 3.86664 8.05127 3.86664C8.79914 3.86664 9.47713 4.04655 10.0852 4.40637C10.6934 4.7662 11.1812 5.23885 11.5487 5.82432V3.86664H12.082V6.68716H9.26152V6.15382H11.1115C10.7978 5.6222 10.3735 5.19698 9.83846 4.87817C9.30341 4.55937 8.70768 4.39997 8.05127 4.39997C7.05127 4.39997 6.20127 4.74997 5.50127 5.44997C4.80127 6.14997 4.45127 6.99997 4.45127 7.99997C4.45127 8.99997 4.80127 9.84997 5.50127 10.55C6.20127 11.25 7.05127 11.6 8.05127 11.6C8.98461 11.6 9.78461 11.2916 10.4513 10.675C11.1179 10.0583 11.5013 9.29997 11.6013 8.39997H12.1423C12.0594 9.46493 11.6286 10.3534 10.85 11.0654C10.0714 11.7773 9.13845 12.1333 8.05127 12.1333Z" fill="black"/>
</svg>
