<svg xmlns="http://www.w3.org/2000/svg" viewBox="0 0 200 200"><path d="M158.36 49.78c-13.09-13.09-29.81-21.21-47.88-23.49v-9.93c0-5.44-5.89-8.83-10.6-6.11L58.95 33.89c-4.71 2.72-4.71 9.52 0 12.23l40.93 23.62c4.71 2.72 10.6-.68 10.59-6.12v-8.23c10.36 2.04 19.89 7.09 27.53 14.72 10.16 10.15 15.75 23.66 15.76 38.02 0 29.65-24.11 53.77-53.76 53.78h-.01c-29.64 0-53.76-24.11-53.77-53.76 0-7.95-6.44-14.39-14.39-14.39s-14.39 6.44-14.39 14.39c0 45.51 37.03 82.53 82.55 82.53h.02c45.52 0 82.54-37.05 82.53-82.56 0-22.05-8.59-42.78-24.19-58.36z" style="fill:#5d280d;stroke-width:0"/></svg>