<svg xmlns="http://www.w3.org/2000/svg" viewBox="0 0 200 200"><path d="M105.95 37.62C65.8 34.7 30.58 66.17 27.3 107.91c-3.27 41.74 26.64 77.99 66.79 80.95 40.13 2.92 75.33-28.52 78.6-70.28 3.29-41.77-26.61-78-66.74-80.96zm42.42 105.63L94.33 117.5l-.34-50.44 9.16-.03.29 44.73 48.88 23.28-3.95 8.21zm-12.2-120.71c0 6.38-5.21 11.57-11.63 11.57H75.49c-6.43 0-11.66-5.19-11.66-11.57 0-6.39 5.23-11.58 11.66-11.58h49.05c6.42-.01 11.63 5.19 11.63 11.58zM54.66 42.72c2.07 2.17 2 5.58-.17 7.64l-9.86 9.33c-2.17 2.07-5.6 2-7.69-.16l-4.79-5c-2.09-2.16-2-5.57.18-7.64l9.84-9.33c2.19-2.08 5.62-1.99 7.73.17l4.76 4.98z" style="fill:#5d280d;stroke-width:0"/></svg>