<svg width="16" height="16" viewBox="0 0 16 16" fill="none" xmlns="http://www.w3.org/2000/svg">
<path d="M12.9333 5.08203V11.9897C12.9333 12.2599 12.8436 12.4847 12.6642 12.6642C12.4847 12.8436 12.2599 12.9333 11.9897 12.9333H4.01023C3.74007 12.9333 3.51526 12.8436 3.33582 12.6642C3.15637 12.4847 3.06665 12.2599 3.06665 11.9897V4.01023C3.06665 3.74007 3.15637 3.51526 3.33582 3.33582C3.51526 3.15637 3.74007 3.06665 4.01023 3.06665H10.9179L12.9333 5.08203ZM12.4 5.29998L10.7 3.59998H4.01023C3.89058 3.59998 3.79229 3.63844 3.71537 3.71537C3.63844 3.79229 3.59998 3.89058 3.59998 4.01023V11.9897C3.59998 12.1094 3.63844 12.2077 3.71537 12.2846C3.79229 12.3615 3.89058 12.4 4.01023 12.4H11.9897C12.1094 12.4 12.2077 12.3615 12.2846 12.2846C12.3615 12.2077 12.4 12.1094 12.4 11.9897V5.29998ZM7.99998 10.8256C8.31195 10.8256 8.57883 10.7147 8.80063 10.4929C9.02242 10.2711 9.13332 10.0043 9.13332 9.6923C9.13332 9.38033 9.02242 9.11345 8.80063 8.89165C8.57883 8.66985 8.31195 8.55895 7.99998 8.55895C7.68802 8.55895 7.42113 8.66985 7.19933 8.89165C6.97755 9.11345 6.86665 9.38033 6.86665 9.6923C6.86665 10.0043 6.97755 10.2711 7.19933 10.4929C7.42113 10.7147 7.68802 10.8256 7.99998 10.8256ZM4.9128 6.64613H9.46153V4.9128H4.9128V6.64613ZM3.59998 5.51665V12.4V3.59998V5.51665Z" fill="black"/>
</svg>
