<svg width="16" height="16" viewBox="0 0 16 16" fill="none" xmlns="http://www.w3.org/2000/svg">
<path d="M10.4641 10.6026L10.8526 10.2141L8.26666 7.6279V4H7.73333V7.8718L10.4641 10.6026ZM8.00223 13.7333C7.21281 13.7333 6.4706 13.5842 5.7756 13.286C5.08061 12.9878 4.47129 12.5771 3.94765 12.054C3.42401 11.5308 3.01294 10.9213 2.71443 10.2254C2.41592 9.52945 2.26666 8.78585 2.26666 7.99458C2.26666 7.20331 2.41577 6.45914 2.71398 5.76206C3.0122 5.06499 3.42288 4.4574 3.94601 3.93931C4.46915 3.42123 5.07868 3.01294 5.77461 2.71443C6.47055 2.41592 7.21415 2.26666 8.00541 2.26666C8.79668 2.26666 9.54088 2.4171 10.238 2.71798C10.9352 3.01887 11.5416 3.42721 12.0573 3.94301C12.573 4.45881 12.9813 5.06535 13.2821 5.76263C13.5829 6.45992 13.7333 7.20496 13.7333 7.99776C13.7333 8.78719 13.5842 9.5294 13.286 10.2244C12.9878 10.9194 12.5799 11.5287 12.0623 12.0523C11.5447 12.576 10.937 12.9871 10.2392 13.2856C9.54132 13.5841 8.79567 13.7333 8.00223 13.7333ZM8.00795 13.2C9.44658 13.2 10.6716 12.6917 11.6829 11.675C12.6943 10.6583 13.2 9.43068 13.2 7.99205C13.2 6.55341 12.6943 5.32841 11.6829 4.31705C10.6716 3.30568 9.44658 2.8 8.00795 2.8C6.56931 2.8 5.34166 3.30568 4.325 4.31705C3.30833 5.32841 2.8 6.55341 2.8 7.99205C2.8 9.43068 3.30833 10.6583 4.325 11.675C5.34166 12.6917 6.56931 13.2 8.00795 13.2Z" fill="black"/>
</svg>
