<svg width="16" height="16" viewBox="0 0 16 16" fill="none" xmlns="http://www.w3.org/2000/svg">
<path d="M12.6731 13.0359L8.71538 9.07824C8.38205 9.33978 8.01654 9.53999 7.61885 9.67887C7.22116 9.81776 6.82361 9.88721 6.42621 9.88721C5.45805 9.88721 4.63471 9.54816 3.95621 8.87006C3.2777 8.19196 2.93845 7.36931 2.93845 6.40211C2.93845 5.43491 3.2775 4.61156 3.9556 3.93207C4.6337 3.25259 5.45635 2.91284 6.42355 2.91284C7.39076 2.91284 8.2141 3.25209 8.89358 3.93059C9.57307 4.60909 9.91281 5.43243 9.91281 6.40061C9.91281 6.82364 9.8391 7.234 9.69166 7.63169C9.54423 8.02938 9.34829 8.38208 9.10385 8.68978L13.0615 12.6475L12.6731 13.0359ZM6.42563 9.35387C7.2547 9.35387 7.95427 9.06883 8.52435 8.49874C9.09444 7.92865 9.37948 7.22908 9.37948 6.40003C9.37948 5.57097 9.09444 4.8714 8.52435 4.30131C7.95427 3.73122 7.2547 3.44618 6.42563 3.44618C5.59657 3.44618 4.897 3.73122 4.32691 4.30131C3.75683 4.8714 3.4718 5.57097 3.4718 6.40003C3.4718 7.22908 3.75683 7.92865 4.32691 8.49874C4.897 9.06883 5.59657 9.35387 6.42563 9.35387Z" fill="black"/>
</svg>
