<svg width="16" height="16" viewBox="0 0 16 16" fill="none" xmlns="http://www.w3.org/2000/svg">
<path d="M6.70637 14L6.48202 12.1051C6.30253 12.0299 6.08629 11.9235 5.8333 11.7859C5.58031 11.6483 5.37262 11.512 5.21022 11.3769L3.46535 12.1167L2.17175 9.86667L3.65894 8.74102C3.65039 8.63162 3.63971 8.51025 3.62689 8.37692C3.61406 8.24358 3.60765 8.12222 3.60765 8.01282C3.60765 7.91196 3.61406 7.79701 3.62689 7.66795C3.63971 7.53889 3.65039 7.40257 3.65894 7.25898L2.17175 6.13333L3.46535 3.90897L5.1974 4.6359C5.38544 4.49231 5.59526 4.35385 5.82689 4.22052C6.05851 4.08718 6.27261 3.97863 6.4692 3.89487L6.70637 2H9.29357L9.51792 3.90768C9.74014 4.00854 9.95211 4.11709 10.1538 4.23333C10.3555 4.34957 10.5547 4.48376 10.7513 4.6359L12.5346 3.90897L13.8282 6.13333L12.3064 7.29743C12.332 7.42393 12.347 7.54744 12.3513 7.66795C12.3555 7.78846 12.3577 7.89914 12.3577 8C12.3577 8.09231 12.3534 8.19872 12.3449 8.31923C12.3363 8.43974 12.3277 8.57607 12.3192 8.7282L13.8154 9.86667L12.5218 12.1167L10.7513 11.3641C10.5547 11.5162 10.3513 11.6547 10.141 11.7795C9.93075 11.9043 9.72305 12.0086 9.51792 12.0923L9.29357 14H6.70637ZM7.94869 9.71667C8.42475 9.71667 8.82988 9.54957 9.16407 9.21538C9.49826 8.8812 9.66535 8.47607 9.66535 8C9.66535 7.52393 9.49826 7.11881 9.16407 6.78462C8.82988 6.45043 8.42475 6.28333 7.94869 6.28333C7.48116 6.28333 7.07817 6.45043 6.7397 6.78462C6.40125 7.11881 6.23202 7.52393 6.23202 8C6.23202 8.47607 6.40125 8.8812 6.7397 9.21538C7.07817 9.54957 7.48116 9.71667 7.94869 9.71667Z" fill="black"/>
</svg>
