<svg width="16" height="16" viewBox="0 0 16 16" fill="none" xmlns="http://www.w3.org/2000/svg">
<path d="M6.70637 14L6.48202 12.1051C6.30253 12.0299 6.08629 11.9235 5.8333 11.7859C5.58031 11.6483 5.37262 11.512 5.21022 11.3769L3.46535 12.1167L2.17175 9.86667L3.65894 8.74102C3.65039 8.63162 3.63971 8.51025 3.62689 8.37692C3.61406 8.24358 3.60765 8.12222 3.60765 8.01282C3.60765 7.91196 3.61406 7.79701 3.62689 7.66795C3.63971 7.53889 3.65039 7.40257 3.65894 7.25898L2.17175 6.13333L3.46535 3.90897L5.1974 4.6359C5.38544 4.49231 5.59526 4.35385 5.82689 4.22052C6.05851 4.08718 6.27261 3.97863 6.4692 3.89487L6.70637 2H9.29357L9.51792 3.90768C9.74014 4.00854 9.95211 4.11709 10.1538 4.23333C10.3555 4.34957 10.5547 4.48376 10.7513 4.6359L12.5346 3.90897L13.8282 6.13333L12.3064 7.29743C12.332 7.42393 12.347 7.54744 12.3513 7.66795C12.3555 7.78846 12.3577 7.89914 12.3577 8C12.3577 8.09231 12.3534 8.19872 12.3449 8.31923C12.3363 8.43974 12.3277 8.57607 12.3192 8.7282L13.8154 9.86667L12.5218 12.1167L10.7513 11.3641C10.5547 11.5162 10.3513 11.6547 10.141 11.7795C9.93075 11.9043 9.72305 12.0086 9.51792 12.0923L9.29357 14H6.70637ZM7.94869 9.71667C8.42475 9.71667 8.82988 9.54957 9.16407 9.21538C9.49826 8.8812 9.66535 8.47607 9.66535 8C9.66535 7.52393 9.49826 7.11881 9.16407 6.78462C8.82988 6.45043 8.42475 6.28333 7.94869 6.28333C7.48116 6.28333 7.07817 6.45043 6.7397 6.78462C6.40125 7.11881 6.23202 7.52393 6.23202 8C6.23202 8.47607 6.40125 8.8812 6.7397 9.21538C7.07817 9.54957 7.48116 9.71667 7.94869 9.71667ZM7.94869 8.98333C7.68202 8.98333 7.45146 8.88611 7.25702 8.69167C7.06258 8.49722 6.96535 8.26667 6.96535 8C6.96535 7.73333 7.06258 7.50278 7.25702 7.30833C7.45146 7.11389 7.68202 7.01667 7.94869 7.01667C8.21535 7.01667 8.44591 7.11389 8.64035 7.30833C8.8348 7.50278 8.93202 7.73333 8.93202 8C8.93202 8.26667 8.8348 8.49722 8.64035 8.69167C8.44591 8.88611 8.21535 8.98333 7.94869 8.98333ZM7.3333 13.2667H8.65382L8.86664 11.4949C9.18031 11.406 9.47433 11.2812 9.74869 11.1205C10.023 10.9598 10.2995 10.7444 10.5782 10.4744L12.2077 11.1833L12.8872 10.0833L11.4448 8.98718C11.5004 8.79744 11.5371 8.62565 11.5551 8.4718C11.573 8.31796 11.582 8.16069 11.582 8C11.582 7.85299 11.573 7.70961 11.5551 7.56987C11.5371 7.43012 11.5059 7.25854 11.4615 7.05513L12.9295 5.91667L12.25 4.81667L10.582 5.52948C10.3692 5.30812 10.0985 5.10064 9.76984 4.90705C9.4412 4.71346 9.14142 4.58504 8.87049 4.5218L8.66664 2.73333H7.32049L7.12945 4.50897C6.81578 4.58077 6.51813 4.69637 6.2365 4.85577C5.95488 5.01517 5.67475 5.23418 5.39612 5.51282L3.76664 4.81667L3.08715 5.91667L4.49997 7.01282C4.45553 7.17351 4.42219 7.34146 4.39997 7.51667C4.37775 7.69188 4.36664 7.85726 4.36664 8.01282C4.36664 8.15983 4.37775 8.31389 4.39997 8.475C4.42219 8.63611 4.45125 8.80128 4.48715 8.97052L3.08715 10.0833L3.76664 11.1833L5.3833 10.5C5.64484 10.753 5.91642 10.9592 6.19805 11.1186C6.47968 11.278 6.78587 11.4021 7.11664 11.491L7.3333 13.2667Z" fill="black"/>
</svg>
