<svg id="Foto" xmlns="http://www.w3.org/2000/svg" viewBox="0 0 200 200"><defs><style>.cls-1{fill:#ffd600;stroke-width:0}</style></defs><path class="cls-1" d="M75.65 40.64c-2.48-.98-5.27-.46-7.19 1.4L34.09 75.76c-.6.59-1.11 1.27-1.4 2.08h-18.6c-1.38 0-2.49 1.07-2.49 2.44v39.37c0 1.35 1.11 2.42 2.49 2.42h18.59c.29.76.79 1.51 1.4 2.06l34.37 33.71c1.31 1.21 3.02 1.87 4.72 1.87.82 0 1.65-.14 2.48-.42 2.44-1.06 4.06-3.39 4.06-5.96V46.62c0-2.63-1.62-4.94-4.06-5.97M110.1 77.57c-3.56-3.42-9.7-3.42-13.19 0-1.77 1.73-2.78 4.05-2.78 6.53s1.01 4.72 2.78 6.45c2.54 2.54 3.98 5.88 3.98 9.37s-1.45 6.93-3.98 9.47c-3.73 3.51-3.73 9.38 0 12.94 1.76 1.76 4.09 2.67 6.58 2.67s4.84-.92 6.61-2.67c6.11-5.99 9.48-13.94 9.48-22.42s-3.37-16.32-9.48-22.34"/><path class="cls-1" d="M134.4 53.78c-3.52-3.46-9.65-3.46-13.17 0-3.67 3.58-3.67 9.34 0 12.94 9.08 8.91 14.01 20.61 14.01 33.19s-4.93 24.33-14.01 33.28c-3.67 3.62-3.67 9.42 0 12.98 1.68 1.74 4.1 2.71 6.58 2.71s4.86-.97 6.6-2.71c12.61-12.33 19.55-28.75 19.55-46.26s-6.94-33.83-19.55-46.13"/><path class="cls-1" d="M145.56 29.95c-3.66 3.6-3.66 9.42 0 12.97 15.58 15.25 24.08 35.47 24.08 56.99s-8.5 41.87-24.08 57.12c-1.84 1.73-2.76 4-2.76 6.47s.92 4.78 2.76 6.45c1.68 1.81 4.07 2.7 6.6 2.7s4.83-.89 6.58-2.7c19.11-18.71 29.65-43.56 29.65-70.04s-10.54-51.24-29.61-69.96c-3.51-3.47-9.79-3.47-13.22 0"/></svg>