<svg width="16" height="16" viewBox="0 0 16 16" fill="none" xmlns="http://www.w3.org/2000/svg">
<path d="M7.35513 9.82817C7.55085 10.0128 7.78846 10.0904 8.06795 10.0609C8.34743 10.0314 8.55042 9.92604 8.67691 9.74484L11.9128 5.31279L7.45251 8.52745C7.2534 8.66212 7.13846 8.86642 7.10768 9.14036C7.07691 9.41429 7.1594 9.64356 7.35513 9.82817ZM8.01666 3.86664C8.6406 3.86664 9.16795 3.93565 9.59871 4.07369C10.0295 4.21172 10.4444 4.3786 10.8436 4.57432L10.3474 4.93972C10.0107 4.76963 9.66004 4.63715 9.29551 4.54227C8.93098 4.44741 8.5047 4.39997 8.01666 4.39997C6.57121 4.39997 5.3404 4.91942 4.32425 5.9583C3.30808 6.99719 2.8 8.21108 2.8 9.59997C2.8 10.0222 2.83055 10.3694 2.89166 10.6416C2.95277 10.9139 3.05 11.2333 3.18333 11.6H12.8C12.9444 11.2333 13.0472 10.8972 13.1083 10.5916C13.1694 10.2861 13.2 9.95553 13.2 9.59997C13.2 9.13331 13.1318 8.63459 12.9955 8.10382C12.8592 7.57305 12.6517 7.1004 12.3731 6.68587L12.7051 6.25637C13.0855 6.82389 13.3541 7.38073 13.5109 7.92689C13.6677 8.47304 13.7419 9.02817 13.7333 9.59227C13.7248 10.0991 13.6861 10.523 13.6173 10.8641C13.5485 11.2051 13.4214 11.5448 13.2359 11.8833C13.1932 11.9611 13.137 12.0222 13.0673 12.0666C12.9976 12.1111 12.9085 12.1333 12.8 12.1333H3.2C3.1 12.1333 3.0173 12.1089 2.95191 12.0602C2.88653 12.0115 2.82393 11.9354 2.7641 11.832C2.62136 11.5876 2.50277 11.2906 2.40833 10.941C2.31388 10.5914 2.26666 10.1333 2.26666 9.56664C2.26666 8.78338 2.41654 8.04391 2.7163 7.34822C3.01605 6.65253 3.42097 6.04792 3.93105 5.53437C4.44111 5.02084 5.04901 4.6145 5.75475 4.31535C6.46047 4.01621 7.21444 3.86664 8.01666 3.86664Z" fill="black"/>
</svg>
