<svg width="16" height="16" viewBox="0 0 16 16" fill="none" xmlns="http://www.w3.org/2000/svg">
<path d="M4.03589 12.3641V11.8308H5.49999L5.06409 11.3693C4.62393 10.9334 4.25875 10.4349 3.96858 9.87374C3.67841 9.31263 3.53333 8.6966 3.53333 8.02566C3.53333 7.06584 3.80811 6.20793 4.35768 5.45194C4.90725 4.69596 5.61025 4.15473 6.46666 3.82823V4.38593C5.75811 4.69276 5.18098 5.17032 4.73526 5.81861C4.28953 6.46691 4.06666 7.20259 4.06666 8.02566C4.06666 8.60174 4.18354 9.13678 4.41731 9.63079C4.65106 10.1248 4.96837 10.55 5.36923 10.9064L5.88204 11.4193V9.98464H6.41538V12.3641H4.03589ZM9.53333 12.1718V11.6141C10.2419 11.3073 10.819 10.8297 11.2647 10.1814C11.7105 9.53314 11.9333 8.79746 11.9333 7.97439C11.9333 7.39831 11.8164 6.86327 11.5827 6.36926C11.3489 5.87524 11.0316 5.45002 10.6308 5.09361L10.1179 4.58079V6.01541H9.58461V3.63593H11.9641V4.16926H10.5L10.9359 4.63079C11.4017 5.04105 11.7733 5.53314 12.0506 6.10708C12.328 6.68101 12.4667 7.30345 12.4667 7.97439C12.4667 8.93421 12.1919 9.79212 11.6423 10.5481C11.0927 11.3041 10.3897 11.8453 9.53333 12.1718Z" fill="black"/>
</svg>
