<svg id="Foto" xmlns="http://www.w3.org/2000/svg" viewBox="0 0 200 200"><defs><style>.cls-1{fill:#fff;stroke-width:0}</style></defs><path class="cls-1" d="M17.06 63.14c5.09 0 9.22-4.13 9.22-9.22V44.7h36.86v110.59h-9.22c-5.09 0-9.22 4.13-9.22 9.22s4.13 9.22 9.22 9.22h36.86c5.09 0 9.22-4.13 9.22-9.22s-4.13-9.22-9.22-9.22h-9.22V44.71h36.86v9.22c0 5.09 4.13 9.22 9.22 9.22s9.22-4.13 9.22-9.22V35.5c0-5.09-4.13-9.22-9.22-9.22H17.06c-5.09 0-9.22 4.13-9.22 9.22v18.43c0 5.09 4.13 9.22 9.22 9.22z"/><path class="cls-1" d="M182.94 81.57h-73.73c-5.09 0-9.22 4.13-9.22 9.22v9.22c0 5.09 4.13 9.22 9.22 9.22s9.22-4.13 9.22-9.22h18.43v55.29c-5.09 0-9.22 4.13-9.22 9.22s4.13 9.22 9.22 9.22h18.43c5.09 0 9.22-4.13 9.22-9.22s-4.13-9.22-9.22-9.22v-55.29h18.43c0 5.09 4.13 9.22 9.22 9.22s9.22-4.13 9.22-9.22v-9.22c0-5.09-4.13-9.22-9.22-9.22z"/></svg>