<?xml version="1.0" standalone="no"?>
<!DOCTYPE svg PUBLIC "-//W3C//DTD SVG 20010904//EN"
 "http://www.w3.org/TR/2001/REC-SVG-20010904/DTD/svg10.dtd">
<svg version="1.0" xmlns="http://www.w3.org/2000/svg"
 width="101.000000pt" height="81.000000pt" viewBox="0 0 101.000000 81.000000"
 preserveAspectRatio="xMidYMid meet">

<g transform="translate(0.000000,81.000000) scale(0.100000,-0.100000)"
fill="#FFFF" stroke="none">
<path d="M19 784 c-18 -22 -23 -123 -7 -154 16 -30 59 -38 82 -15 9 9 16 32
16 51 l0 34 95 0 95 0 0 -300 0 -300 -33 0 c-40 0 -57 -15 -57 -50 0 -45 15
-50 146 -50 98 0 126 3 138 16 36 35 7 84 -50 84 l-34 0 0 300 0 300 94 0 93
0 6 -36 c8 -45 23 -64 53 -64 40 0 54 25 54 100 0 49 -4 73 -16 84 -13 14 -58
16 -338 16 -283 0 -325 -2 -337 -16z"/>
<path d="M521 487 c-29 -36 -20 -120 14 -133 25 -10 63 5 70 26 5 16 15 20 51
20 l44 0 0 -148 c0 -136 -1 -148 -20 -160 -22 -14 -27 -61 -8 -80 7 -7 41 -12
84 -12 77 0 104 13 104 50 0 19 -25 50 -41 50 -5 0 -9 64 -9 150 l0 150 48 0
c39 0 49 -4 57 -22 12 -28 56 -35 79 -13 21 22 21 98 0 119 -13 14 -49 16
-238 16 -175 0 -226 -3 -235 -13z"/>
</g>
</svg>
