<svg xmlns="http://www.w3.org/2000/svg" viewBox="0 0 200 200"><circle cx="100" cy="100" r="89.04" style="fill:#dc9327;stroke-width:0"/><path d="M133.95 76.06h-6.91v-.58c0-5.72-4.64-10.36-10.36-10.36H82.73c-5.72 0-10.36 4.64-10.36 10.36v.58h-6.33c-5.72 0-10.36 4.64-10.36 10.36v38.1c0 5.72 4.64 10.36 10.36 10.36h67.9c5.72 0 10.36-4.64 10.36-10.36v-38.1c0-5.72-4.64-10.36-10.36-10.36zm-33.41 51.38c-13.42 0-24.29-10.88-24.29-24.29s10.88-24.29 24.29-24.29 24.29 10.88 24.29 24.29-10.88 24.29-24.29 24.29zm0-39.46c-8.38 0-15.17 6.79-15.17 15.17s6.79 15.17 15.17 15.17 15.17-6.79 15.17-15.17c0-8.38-6.79-15.17-15.17-15.17z" style="stroke-width:0;fill:#5d280d"/></svg>