<svg width="16" height="16" viewBox="0 0 16 16" fill="none" xmlns="http://www.w3.org/2000/svg">
<path d="M4.80001 11.3334C3.87409 11.3334 3.08705 11.0096 2.43889 10.362C1.79075 9.71445 1.46667 8.92813 1.46667 8.00304C1.46667 7.07795 1.79075 6.29061 2.43889 5.64104C3.08705 4.99147 3.87409 4.66669 4.80001 4.66669H11.2C12.1259 4.66669 12.913 4.99047 13.5611 5.63802C14.2093 6.28559 14.5333 7.07191 14.5333 7.997C14.5333 8.92209 14.2093 9.70943 13.5611 10.359C12.913 11.0086 12.1259 11.3334 11.2 11.3334H4.80001ZM11.1985 9.66669C11.661 9.66669 12.0547 9.5048 12.3795 9.18102C12.7043 8.85724 12.8667 8.46408 12.8667 8.00152C12.8667 7.53898 12.7048 7.14532 12.381 6.82054C12.0572 6.49575 11.6641 6.33335 11.2015 6.33335C10.739 6.33335 10.3453 6.49524 10.0205 6.81902C9.69574 7.14281 9.53334 7.53598 9.53334 7.99852C9.53334 8.46107 9.69523 8.85473 10.019 9.1795C10.3428 9.50429 10.736 9.66669 11.1985 9.66669Z" fill="black"/>
</svg>
