<svg width="16" height="16" viewBox="0 0 16 16" fill="none" xmlns="http://www.w3.org/2000/svg">
<path d="M4.80001 11.3334C3.87409 11.3334 3.08705 11.0096 2.43889 10.362C1.79075 9.71445 1.46667 8.92813 1.46667 8.00304C1.46667 7.07795 1.79075 6.29061 2.43889 5.64104C3.08705 4.99147 3.87409 4.66669 4.80001 4.66669H11.2C12.1259 4.66669 12.913 4.99047 13.5611 5.63802C14.2093 6.28559 14.5333 7.07191 14.5333 7.997C14.5333 8.92209 14.2093 9.70943 13.5611 10.359C12.913 11.0086 12.1259 11.3334 11.2 11.3334H4.80001ZM4.79851 9.66669C5.26105 9.66669 5.65471 9.5048 5.97949 9.18102C6.30428 8.85724 6.46668 8.46408 6.46668 8.00152C6.46668 7.53898 6.30479 7.14532 5.98101 6.82054C5.65723 6.49575 5.26406 6.33335 4.80151 6.33335C4.33896 6.33335 3.9453 6.49524 3.62052 6.81902C3.29574 7.14281 3.13334 7.53598 3.13334 7.99852C3.13334 8.46107 3.29523 8.85473 3.61901 9.1795C3.94279 9.50429 4.33595 9.66669 4.79851 9.66669Z" fill="black"/>
</svg>
