<svg width="16" height="16" viewBox="0 0 16 16" fill="none" xmlns="http://www.w3.org/2000/svg">
<path d="M8.15896 13.3743L10.5474 7.00511H11.6833L14.0718 13.3743H12.9859L12.4051 11.732H9.82564L9.27051 13.3743H8.15896ZM10.1744 10.8115H12.0564L11.1359 8.17434H11.0949L10.1744 10.8115ZM3.66281 11.682L2.95768 10.9602L5.64486 8.30639C5.31324 7.96109 5.00084 7.59913 4.70768 7.22049C4.41452 6.84186 4.15726 6.43288 3.93589 5.99356H5.07178C5.24614 6.28929 5.44187 6.56494 5.65896 6.82049C5.87606 7.07605 6.0923 7.32818 6.30768 7.57689C6.66153 7.18715 6.99273 6.78437 7.30128 6.36856C7.60982 5.95275 7.85384 5.50168 8.03333 5.01536H1.95383V4.02048H5.83589V2.62561H6.83076V4.02048H10.7128V5.01536H9.09486C8.89572 5.65382 8.60597 6.24035 8.22563 6.77498C7.84529 7.30959 7.43547 7.82006 6.99614 8.30639L8.25641 9.54998L7.86666 10.5782L6.33333 9.04484L3.66281 11.682Z" fill="black"/>
</svg>
