<svg width="16" height="16" viewBox="0 0 16 16" fill="none" xmlns="http://www.w3.org/2000/svg">
<path d="M5.06921 12.4667V11.9333H9.53588C10.1854 11.9333 10.7367 11.709 11.1897 11.2603C11.6427 10.8116 11.8692 10.2581 11.8692 9.60001C11.8692 8.94189 11.6427 8.38848 11.1897 7.93976C10.7367 7.49104 10.1854 7.26668 9.53588 7.26668H4.64101L6.52435 9.15001L6.13588 9.53848L3.59741 7.00001L6.13588 4.46155L6.52435 4.85001L4.64101 6.73335H9.53588C10.3222 6.73335 10.9966 7.01241 11.559 7.57053C12.1214 8.12864 12.4025 8.80514 12.4025 9.60001C12.4025 10.3949 12.1214 11.0714 11.559 11.6295C10.9966 12.1876 10.3222 12.4667 9.53588 12.4667H5.06921Z" fill="black"/>
</svg>
