<svg width="16" height="16" viewBox="0 0 16 16" fill="none" xmlns="http://www.w3.org/2000/svg">
<path d="M4.8055 12.1333C4.53515 12.1333 4.31108 12.0436 4.1333 11.8641C3.95553 11.6847 3.86664 11.4599 3.86664 11.1897V10.4H4.39997V11.1897C4.39997 11.2923 4.4427 11.3863 4.52817 11.4718C4.61365 11.5572 4.70767 11.6 4.81022 11.6H11.1897C11.2923 11.6 11.3863 11.5572 11.4718 11.4718C11.5572 11.3863 11.6 11.2923 11.6 11.1897V10.4H12.1333V11.1897C12.1333 11.4599 12.0435 11.6847 11.8639 11.8641C11.6844 12.0436 11.4594 12.1333 11.189 12.1333H4.8055ZM7.7333 9.88716V3.85383L6.16279 5.42434L5.77432 5.06153L7.99997 2.83588L10.2256 5.06153L9.83716 5.42434L8.26664 3.85383V9.88716H7.7333Z" fill="black"/>
</svg>
