<svg xmlns="http://www.w3.org/2000/svg" viewBox="0 0 200 200"><path d="M73.45 142.91V57.09c0-4.82 6.25-7.51 10.47-4.49l60.16 42.91c3.23 2.3 3.23 6.68 0 8.99l-60.16 42.91c-4.22 3.01-10.47.33-10.47-4.49z" style="fill:#fff;stroke-width:0"/><path d="M100 190.27c-49.78 0-90.27-40.5-90.27-90.27S50.22 9.73 100 9.73s90.27 40.5 90.27 90.27-40.5 90.27-90.27 90.27zm0-179.09c-48.98 0-88.82 39.84-88.82 88.82s39.85 88.82 88.82 88.82 88.82-39.85 88.82-88.82S148.98 11.18 100 11.18z" style="fill:none;stroke:#fff;stroke-miterlimit:10;stroke-width:10px"/></svg>