<svg width="16" height="16" viewBox="0 0 16 16" fill="none" xmlns="http://www.w3.org/2000/svg">
<path d="M6.07689 11.3436H8.87689C8.9133 11.3436 8.94634 11.3288 8.97601 11.2991C9.00566 11.2694 9.02049 11.2364 9.02049 11.2V10.059L10.1179 10.841V8.75896L9.02049 9.54101V8.4C9.02049 8.36358 9.00566 8.33055 8.97601 8.3009C8.94634 8.27124 8.9133 8.25641 8.87689 8.25641H6.07689C6.04048 8.25641 6.00744 8.27124 5.97779 8.3009C5.94813 8.33055 5.93331 8.36358 5.93331 8.4V11.2C5.93331 11.2364 5.94813 11.2694 5.97779 11.2991C6.00744 11.3288 6.04048 11.3436 6.07689 11.3436ZM4.8055 13.7333C4.53515 13.7333 4.31108 13.6436 4.1333 13.4642C3.95553 13.2847 3.86664 13.0599 3.86664 12.7897V3.21025C3.86664 2.94008 3.95636 2.71527 4.1358 2.53583C4.31525 2.35639 4.54005 2.26666 4.81022 2.26666H9.93331L12.1333 4.46666V12.7897C12.1333 13.0599 12.0435 13.2847 11.8639 13.4642C11.6844 13.6436 11.4594 13.7333 11.189 13.7333H4.8055ZM9.46664 4.93333V2.8H4.81022C4.70767 2.8 4.61365 2.84273 4.52817 2.9282C4.4427 3.01367 4.39997 3.10769 4.39997 3.21025V12.7897C4.39997 12.8923 4.4427 12.9863 4.52817 13.0718C4.61365 13.1573 4.70767 13.2 4.81022 13.2H11.1897C11.2923 13.2 11.3863 13.1573 11.4718 13.0718C11.5572 12.9863 11.6 12.8923 11.6 12.7897V4.93333H9.46664Z" fill="black"/>
</svg>
