<svg width="16" height="16" viewBox="0 0 16 16" fill="none" xmlns="http://www.w3.org/2000/svg">
<path d="M10.1808 8.48075L9.58333 7.88331C9.62777 7.40126 9.48504 7.02241 9.15513 6.74678C8.8252 6.47114 8.47905 6.35554 8.11666 6.39998L7.51923 5.80255C7.58675 5.78973 7.66196 5.78011 7.74486 5.7737C7.82777 5.76729 7.91282 5.76408 7.99999 5.76408C8.62393 5.76408 9.15256 5.98075 9.58589 6.41408C10.0192 6.84741 10.2359 7.37605 10.2359 7.99998C10.2359 8.08716 10.2327 8.17648 10.2263 8.26793C10.2199 8.35939 10.2047 8.43033 10.1808 8.48075ZM12.3718 10.6461L11.9667 10.2666C12.3667 9.95554 12.7305 9.61387 13.0583 9.24165C13.3861 8.86943 13.6611 8.45554 13.8833 7.99998C13.3389 6.87776 12.5361 5.9972 11.475 5.35831C10.4139 4.71943 9.25555 4.39998 7.99999 4.39998C7.71111 4.39998 7.42777 4.41665 7.14999 4.44998C6.87222 4.48331 6.59999 4.53887 6.33333 4.61665L5.87948 4.1628C6.23332 4.03886 6.59123 3.95852 6.95319 3.92176C7.31516 3.88502 7.66409 3.86665 7.99999 3.86665C9.35812 3.86665 10.64 4.23096 11.8455 4.9596C13.0511 5.68823 13.9299 6.70169 14.482 7.99998C14.2547 8.51366 13.9639 8.98396 13.6096 9.41088C13.2553 9.8378 12.8427 10.2496 12.3718 10.6461ZM12.7487 13.5256L10.7872 11.5384C10.459 11.7025 10.054 11.8427 9.57243 11.959C9.09081 12.0752 8.56666 12.1333 7.99999 12.1333C6.63333 12.1333 5.35149 11.769 4.15448 11.0404C2.95747 10.3117 2.07862 9.29827 1.51794 7.99998C1.78802 7.36665 2.15725 6.7846 2.62563 6.25383C3.09401 5.72306 3.60768 5.27221 4.16666 4.90126L2.47434 3.2346L2.86281 2.84613L13.1372 13.1372L12.7487 13.5256ZM4.55511 5.3064C4.1064 5.60041 3.64914 5.98267 3.18333 6.45318C2.71752 6.9237 2.36196 7.4393 2.11666 7.99998C2.66111 9.1222 3.46388 10.0028 4.52499 10.6416C5.58611 11.2805 6.74444 11.6 7.99999 11.6C8.45127 11.6 8.90554 11.557 9.36281 11.4711C9.82008 11.3852 10.1748 11.2876 10.4269 11.1782L9.18974 9.96665C9.05128 10.0478 8.86581 10.113 8.63333 10.1622C8.40085 10.2113 8.18974 10.2359 7.99999 10.2359C7.37606 10.2359 6.84743 10.0192 6.41409 9.58588C5.98076 9.15255 5.76409 8.62391 5.76409 7.99998C5.76409 7.81878 5.79422 7.61408 5.85448 7.38588C5.91473 7.15767 5.97435 6.96579 6.03333 6.81023L4.55511 5.3064Z" fill="black"/>
</svg>
