<svg width="16" height="16" viewBox="0 0 16 16" fill="none" xmlns="http://www.w3.org/2000/svg">
<path d="M8.00301 10.2359C8.62493 10.2359 9.15256 10.0182 9.58589 9.58286C10.0192 9.14751 10.2359 8.61888 10.2359 7.99695C10.2359 7.37503 10.0182 6.84741 9.58288 6.41407C9.14753 5.98074 8.6189 5.76407 7.99698 5.76407C7.37506 5.76407 6.84743 5.98174 6.41409 6.41709C5.98076 6.85243 5.76409 7.38107 5.76409 8.00299C5.76409 8.62491 5.98177 9.15254 6.41711 9.58587C6.85246 10.0192 7.38109 10.2359 8.00301 10.2359ZM7.99999 9.59997C7.55555 9.59997 7.17777 9.44442 6.86666 9.13331C6.55555 8.82219 6.39999 8.44442 6.39999 7.99997C6.39999 7.55553 6.55555 7.17775 6.86666 6.86664C7.17777 6.55553 7.55555 6.39997 7.99999 6.39997C8.44444 6.39997 8.82222 6.55553 9.13333 6.86664C9.44444 7.17775 9.59999 7.55553 9.59999 7.99997C9.59999 8.44442 9.44444 8.82219 9.13333 9.13331C8.82222 9.44442 8.44444 9.59997 7.99999 9.59997ZM8.00183 12.1333C6.59569 12.1333 5.31415 11.757 4.15721 11.0045C3.00026 10.2519 2.1205 9.25041 1.51794 7.99997C2.1205 6.74954 2.99964 5.74804 4.15538 4.99549C5.3111 4.24292 6.59203 3.86664 7.99816 3.86664C9.40429 3.86664 10.6858 4.24292 11.8428 4.99549C12.9997 5.74804 13.8795 6.74954 14.482 7.99997C13.8795 9.25041 13.0003 10.2519 11.8446 11.0045C10.6889 11.757 9.40796 12.1333 8.00183 12.1333ZM7.99999 11.6C9.24444 11.6 10.3944 11.2777 11.45 10.6333C12.5055 9.98886 13.3167 9.11108 13.8833 7.99997C13.3167 6.88886 12.5055 6.01108 11.45 5.36664C10.3944 4.72219 9.24444 4.39997 7.99999 4.39997C6.75555 4.39997 5.60555 4.72219 4.54999 5.36664C3.49444 6.01108 2.68333 6.88886 2.11666 7.99997C2.68333 9.11108 3.49444 9.98886 4.54999 10.6333C5.60555 11.2777 6.75555 11.6 7.99999 11.6Z" fill="black"/>
</svg>
