<svg width="16" height="16" viewBox="0 0 16 16" fill="none" xmlns="http://www.w3.org/2000/svg">
<path d="M6.31674 11.6333C6.19873 11.6333 6.09278 11.5975 5.99888 11.5259C5.90498 11.4543 5.83612 11.3632 5.79229 11.2526L4.51281 8.26665H1.49231V7.73332H4.86794L6.31538 11.1641L9.16153 4.71794C9.205 4.61213 9.27333 4.52499 9.36649 4.45652C9.45965 4.38805 9.56523 4.35382 9.68324 4.35382C9.80125 4.35382 9.90721 4.38962 10.0011 4.46122C10.095 4.53282 10.1639 4.62395 10.2077 4.7346L11.5128 7.73332H14.5333V8.26665H11.1744L9.68461 4.82307L6.83846 11.2692C6.79498 11.375 6.72666 11.4622 6.63349 11.5306C6.54034 11.5991 6.43475 11.6333 6.31674 11.6333Z" fill="black"/>
</svg>
