<svg width="16" height="16" viewBox="0 0 16 16" fill="none" xmlns="http://www.w3.org/2000/svg">
<path d="M3.21025 12.9334C2.94008 12.9334 2.71527 12.8436 2.53583 12.6642C2.35638 12.4847 2.26666 12.2599 2.26666 11.9898V5.61027C2.26666 5.3401 2.35638 5.11529 2.53583 4.93585C2.71527 4.75641 2.94008 4.66668 3.21025 4.66668H6.26666V3.8734C6.26666 3.60226 6.35653 3.37779 6.53626 3.20002C6.71598 3.02224 6.94113 2.93335 7.21171 2.93335H8.79413C9.06471 2.93335 9.28889 3.02307 9.46666 3.20252C9.64444 3.38196 9.73333 3.60677 9.73333 3.87693V4.66668H12.7897C13.0599 4.66668 13.2847 4.75641 13.4642 4.93585C13.6436 5.11529 13.7333 5.3401 13.7333 5.61027V11.9898C13.7333 12.2599 13.6436 12.4847 13.4642 12.6642C13.2847 12.8436 13.0599 12.9334 12.7897 12.9334H3.21025ZM3.21025 12.4H12.7897C12.8923 12.4 12.9863 12.3573 13.0718 12.2718C13.1573 12.1863 13.2 12.0923 13.2 11.9898V5.61027C13.2 5.50771 13.1573 5.41369 13.0718 5.32822C12.9863 5.24275 12.8923 5.20002 12.7897 5.20002H3.21025C3.10769 5.20002 3.01367 5.24275 2.9282 5.32822C2.84273 5.41369 2.8 5.50771 2.8 5.61027V11.9898C2.8 12.0923 2.84273 12.1863 2.9282 12.2718C3.01367 12.3573 3.10769 12.4 3.21025 12.4ZM6.8 4.66668H9.2V3.87693C9.2 3.77437 9.15726 3.68035 9.0718 3.59488C8.98632 3.50942 8.8923 3.46668 8.78975 3.46668H7.21025C7.10769 3.46668 7.01367 3.50942 6.9282 3.59488C6.84273 3.68035 6.8 3.77437 6.8 3.87693V4.66668Z" fill="black"/>
</svg>
