<svg width="145" height="29" viewBox="0 0 145 29" fill="none" xmlns="http://www.w3.org/2000/svg">
<path d="M143.505 15.5289C143.119 15.1091 142.658 14.7441 142.136 14.4397C141.614 14.1353 141.548 13.3879 142.038 13.0056C142.4 12.72 142.725 12.3939 143.008 12.0246C143.878 10.8935 144.321 9.50559 144.321 7.91716C144.321 5.55832 143.536 3.81552 141.987 2.7407C140.491 1.70772 138.175 1.17969 135.111 1.17969H127.93V27.8627H136.058C137.785 27.8627 139.334 27.5828 140.662 27.0317C142.022 26.4705 143.099 25.6019 143.857 24.4391C144.616 23.2893 145.001 21.8134 145.001 20.0706C145.001 18.1359 144.498 16.6037 143.509 15.5203V15.5289H143.505ZM135.108 3.95547C137.349 3.95547 138.981 4.29162 139.956 4.95094C140.892 5.58573 141.345 6.62882 141.345 8.13789C141.345 9.64697 140.921 10.6929 140.041 11.423C139.147 12.1659 137.636 12.5396 135.546 12.5396H130.835V3.94681H135.108V3.95547ZM135.884 25.1302H130.834V15.2764H135.578C137.814 15.2764 139.47 15.6689 140.501 16.4306C141.503 17.1736 141.988 18.3321 141.988 19.9681C141.988 23.4393 139.993 25.1258 135.884 25.1258V25.1302Z" fill="white"/>
<path d="M126.354 1.2708V4.42025H113.883L111.624 4.4289C108.3 4.30339 106.668 4.97569 106.334 6.3405C105.911 8.03713 106.221 10.3209 106.556 12.7375C107.159 17.1479 107.841 22.1151 104.382 25.7306C103.064 27.1084 101.384 27.8701 99.6571 27.8701C98.0375 27.8701 96.499 27.2252 95.1955 26.0105C92.9365 23.894 92.7437 18.7781 92.5407 13.3622V13.2828C92.4508 11.0538 92.2492 5.83122 91.5663 5.18056C91.1328 4.95116 90.5354 5.29309 90.531 5.29742C89.4479 5.98415 89.2696 11.3063 89.1666 14.4832C88.9926 19.5803 88.823 24.3643 86.5262 26.1735C84.5398 27.7388 81.4441 27.8788 79.1605 26.5053C74.0349 23.4222 74.5438 15.6749 74.9106 10.0122L74.9208 9.86216C75.0382 8.05877 75.1557 2.91982 74.973 2.05997C74.9309 1.85943 74.8932 1.64014 74.8932 1.64014C74.8845 1.58387 74.87 1.5377 74.8599 1.50452C74.8512 1.47711 74.8411 1.44393 74.8222 1.39776C74.8034 1.36025 74.7845 1.33717 74.7657 1.29966C74.7091 1.21021 74.667 1.16404 74.625 1.13086H78.1455L78.1977 1.40209C78.4804 2.72939 78.3485 7.96211 78.202 10.2286C77.8874 15.0502 77.4582 21.6621 80.87 23.7122C81.9763 24.3759 83.5669 24.334 84.4847 23.6098C85.5852 22.7456 85.765 17.5316 85.8738 14.4154V14.3504C86.0623 8.884 86.2218 4.16056 88.7824 2.53029C89.3464 2.1422 91.2763 1.32418 93.154 2.31966C95.3565 3.47815 95.5972 7.0431 95.8364 13.2381C95.9727 16.9098 96.1844 22.4383 97.4604 23.6343C98.8871 24.9703 100.623 24.914 101.993 23.4843C104.369 20.9985 103.824 17.0324 103.292 13.2006C102.921 10.4623 102.563 7.8741 103.133 5.56143C103.881 2.54328 106.766 1.10345 111.716 1.27225H126.358L126.354 1.2708Z" fill="white"/>
<path d="M125.696 25.3138V27.7347C125.696 27.8097 125.635 27.8703 125.56 27.8703H111.601C111.526 27.8703 111.465 27.8097 111.465 27.7347V8.29703C111.465 7.69831 111.634 7.10102 112.02 6.64368C112.5 6.07381 113.179 5.76074 113.902 5.76074H114.372V13.3393C114.372 13.4143 114.433 13.4749 114.508 13.4749H124.915C124.99 13.4749 125.051 13.5355 125.051 13.6105V15.9939C125.051 16.0689 124.99 16.1295 124.915 16.1295H114.508C114.433 16.1295 114.372 16.1901 114.372 16.2651V25.0542C114.372 25.1292 114.433 25.1898 114.508 25.1898H125.558C125.634 25.1898 125.695 25.2504 125.695 25.3254V25.3167L125.696 25.3138Z" fill="white"/>
<path d="M19.9601 16.6532C20.427 17.6357 20.6604 18.7048 20.6604 19.8604C20.6604 21.4676 20.266 22.9218 19.4787 24.2232C18.7044 25.5115 17.5372 26.5344 15.9756 27.2904C14.414 28.0334 12.4653 28.4056 10.1294 28.4056C8.51414 28.4056 6.79305 28.1531 4.96465 27.6482C3.13626 27.1302 1.48186 26.393 0 25.4365C0.0797476 24.5333 0.361039 23.6504 0.840975 22.7877C1.32091 21.9105 1.86899 21.2079 2.48233 20.6755C3.60314 21.3392 4.87765 21.9437 6.30586 22.4876C7.73407 23.0185 9.16228 23.2839 10.5905 23.2839C11.7519 23.2839 12.5856 23.0055 13.0931 22.4472C13.6006 21.8888 13.8543 21.2916 13.8543 20.6539C13.8543 20.2283 13.7137 19.7435 13.4338 19.1996C13.154 18.6413 12.4522 18.1306 11.3314 17.666L6.50595 15.6736C4.85155 14.9826 3.4828 14.0607 2.40258 12.9051C1.32091 11.7495 0.781527 10.2231 0.781527 8.32301C0.781527 6.66245 1.21506 5.2082 2.08214 3.96025C2.94921 2.7123 4.11788 1.7428 5.58523 1.05174C7.06709 0.352022 8.71569 0 10.531 0C12.3464 0 14.2009 0.245261 15.8567 0.737226C17.5256 1.22919 18.8799 1.74713 19.921 2.29103C19.8673 3.20715 19.6469 4.09009 19.2598 4.93985C18.8857 5.77662 18.3854 6.48067 17.7576 7.05198C16.7426 6.57444 15.5551 6.13586 14.1936 5.73767C12.8321 5.3265 11.6113 5.12019 10.5296 5.12019C9.38122 5.12019 8.56054 5.37844 8.06756 5.89637C7.58762 6.4143 7.34693 6.93945 7.34693 7.47037C7.34693 8.00129 7.51367 8.42689 7.84716 8.82508C8.1937 9.22327 8.80849 9.60847 9.68861 9.98069L14.6141 11.9933C15.9089 12.5242 17.0036 13.1878 17.8968 13.9857C18.8045 14.7691 19.4918 15.6592 19.9586 16.6547L19.9601 16.6532ZM42.6461 0.493408C42.2155 0.493408 41.7007 0.507835 41.1034 0.535247C40.519 0.562658 39.9492 0.631908 39.3939 0.742997V17.6905C39.3939 19.5098 39.0662 20.8847 38.4108 21.8138C37.7554 22.7299 36.6332 23.1887 35.0469 23.1887C33.4606 23.1887 32.3587 22.7299 31.7033 21.8138C31.0479 20.8847 30.7202 19.5098 30.7202 17.6905V4.22282C30.7202 2.80175 30.3983 1.77887 29.756 1.15561C29.1137 0.517934 28.1886 0.199094 26.9822 0.199094H24.6609L24.3796 0.458783V17.63C24.3796 19.8748 24.8001 21.7936 25.6425 23.3864C26.4849 24.9662 27.7145 26.1751 29.3312 27.0119C30.9479 27.8487 32.9126 28.2671 35.2238 28.2671C37.535 28.2671 39.5128 27.8487 41.1164 27.0119C42.7331 26.1751 43.9627 24.9662 44.8051 23.3864C45.6475 21.7922 46.068 19.8734 46.068 17.63V0.741555C45.5402 0.630466 44.9356 0.561215 44.2541 0.533804C43.5871 0.506392 43.0521 0.491965 42.649 0.491965L42.6461 0.493408ZM71.899 19.6209C71.899 21.4806 71.4858 23.0069 70.6578 24.203C69.8444 25.3845 68.6888 26.2617 67.1939 26.833C65.699 27.4043 63.93 27.69 61.8885 27.69C60.3399 27.69 58.7319 27.6698 57.063 27.6308C55.4086 27.6049 53.7267 27.5717 52.0186 27.5313L51.7388 27.2529V0.438585L52.0186 0.160141C53.6208 0.119745 55.2013 0.0865628 56.7629 0.060594C58.3376 0.020198 59.8325 0.00144271 61.2476 0.00144271C63.1166 0.00144271 64.7507 0.261131 66.1528 0.777622C67.5549 1.28257 68.6482 2.07174 69.4355 3.148C70.2228 4.20984 70.6172 5.57753 70.6172 7.25108C70.6172 8.22058 70.391 9.12949 69.9372 9.98069C69.4964 10.8304 68.9092 11.5345 68.1755 12.0928C67.8449 12.3453 67.4955 12.5516 67.1315 12.7074C67.6985 12.8935 68.2393 13.172 68.7569 13.5471C69.7052 14.2237 70.465 15.1009 71.0392 16.1771C71.6133 17.239 71.9004 18.3888 71.9004 19.6238L71.899 19.6209ZM58.078 10.8232H60.9214C61.816 10.8232 62.5076 10.666 62.9948 10.3515C63.482 10.024 63.8242 9.61713 64.0214 9.13382C64.2186 8.64907 64.3172 8.15133 64.3172 7.64061C64.3172 7.12989 64.2186 6.61917 64.0214 6.1474C63.8242 5.67563 63.4747 5.28899 62.9745 4.98746C62.4873 4.67295 61.8029 4.51569 60.9199 4.51569H59.6164C59.0901 4.50271 58.5768 4.48972 58.0766 4.47674V10.8247L58.078 10.8232ZM65.5047 19.3958C65.5047 18.8115 65.3843 18.22 65.1436 17.6227C64.9174 17.0125 64.5028 16.5003 63.9025 16.0891C63.3152 15.678 62.4873 15.4717 61.4202 15.4717H58.0766V23.2609C58.7305 23.2479 59.3511 23.2407 59.9383 23.2407C60.5255 23.2277 61.033 23.2205 61.4593 23.2205C62.554 23.2205 63.3877 23.0214 63.9619 22.6232C64.5492 22.212 64.9493 21.7128 65.1625 21.1285C65.3887 20.5313 65.5032 19.9527 65.5032 19.3958H65.5047Z" fill="white"/>
</svg>
